<svg width="100" height="100" viewBox="0 0 100 100" fill="none" xmlns="http://www.w3.org/2000/svg">
<rect width="100" height="100" rx="16" fill="#F6FAFD"/>
<g clip-path="url(#clip0)">
<path d="M56.6965 28.5714H43.3037C41.8829 28.5714 40.5203 29.1358 39.5156 30.1405C38.5109 31.1451 37.9465 32.5078 37.9465 33.9286V66.0714C37.9465 67.4922 38.5109 68.8548 39.5156 69.8595C40.5203 70.8641 41.8829 71.4286 43.3037 71.4286H56.6965C58.1173 71.4286 59.4799 70.8641 60.4846 69.8595C61.4893 68.8548 62.0537 67.4922 62.0537 66.0714V33.9286C62.0537 32.5078 61.4893 31.1451 60.4846 30.1405C59.4799 29.1358 58.1173 28.5714 56.6965 28.5714V28.5714ZM59.3751 66.0714C59.3751 66.7818 59.0929 67.4631 58.5906 67.9654C58.0882 68.4678 57.4069 68.75 56.6965 68.75H43.3037C42.5933 68.75 41.912 68.4678 41.4096 67.9654C40.9073 67.4631 40.6251 66.7818 40.6251 66.0714V33.9286C40.6251 33.2182 40.9073 32.5368 41.4096 32.0345C41.912 31.5322 42.5933 31.25 43.3037 31.25H44.2537C44.3832 31.2495 44.5101 31.2869 44.6186 31.3575C44.7272 31.4282 44.8127 31.529 44.8648 31.6476C45.0727 32.1263 45.4161 32.5339 45.8525 32.8201C46.289 33.1064 46.7996 33.2589 47.3215 33.2589H52.6787C53.2006 33.2589 53.7112 33.1064 54.1477 32.8201C54.5841 32.5339 54.9275 32.1263 55.1354 31.6476C55.1875 31.529 55.273 31.4282 55.3816 31.3575C55.4901 31.2869 55.617 31.2495 55.7465 31.25H56.6965C57.4069 31.25 58.0882 31.5322 58.5906 32.0345C59.0929 32.5368 59.3751 33.2182 59.3751 33.9286V66.0714Z" fill="#FF6D3F"/>
<path d="M56.6965 32.5893C56.5422 32.5884 56.3898 32.6234 56.2513 32.6915C56.1129 32.7596 55.9922 32.859 55.8988 32.9819C55.5249 33.4834 55.0391 33.8906 54.4801 34.1713C53.921 34.4519 53.3042 34.5981 52.6786 34.5982H47.3215C46.696 34.5981 46.0791 34.4519 45.5201 34.1713C44.961 33.8906 44.4752 33.4834 44.1014 32.9819C44.008 32.859 43.8873 32.7596 43.7488 32.6915C43.6104 32.6234 43.4579 32.5884 43.3036 32.5893C42.9484 32.5893 42.6078 32.7304 42.3566 32.9816C42.1055 33.2327 41.9644 33.5734 41.9644 33.9286V66.0715C41.9644 66.4267 42.1055 66.7673 42.3566 67.0185C42.6078 67.2696 42.9484 67.4107 43.3036 67.4107H56.6965C57.0517 67.4107 57.3924 67.2696 57.6435 67.0185C57.8947 66.7673 58.0358 66.4267 58.0358 66.0715V33.9286C58.0358 33.5734 57.8947 33.2327 57.6435 32.9816C57.3924 32.7304 57.0517 32.5893 56.6965 32.5893Z" fill="#2F80ED"/>
<path d="M56.6965 28.5714H43.3037C41.8829 28.5714 40.5203 29.1358 39.5156 30.1405C38.5109 31.1451 37.9465 32.5078 37.9465 33.9286V66.0714C37.9465 67.4922 38.5109 68.8548 39.5156 69.8595C40.5203 70.8641 41.8829 71.4286 43.3037 71.4286H56.6965C58.1173 71.4286 59.4799 70.8641 60.4846 69.8595C61.4893 68.8548 62.0537 67.4922 62.0537 66.0714V33.9286C62.0537 32.5078 61.4893 31.1451 60.4846 30.1405C59.4799 29.1358 58.1173 28.5714 56.6965 28.5714V28.5714ZM59.3751 66.0714C59.3751 66.7818 59.0929 67.4631 58.5906 67.9654C58.0882 68.4678 57.4069 68.75 56.6965 68.75H43.3037C42.5933 68.75 41.912 68.4678 41.4096 67.9654C40.9073 67.4631 40.6251 66.7818 40.6251 66.0714V33.9286C40.6251 33.2182 40.9073 32.5368 41.4096 32.0345C41.912 31.5322 42.5933 31.25 43.3037 31.25H44.2537C44.3832 31.2495 44.5101 31.2869 44.6186 31.3575C44.7272 31.4282 44.8127 31.529 44.8648 31.6476C45.0727 32.1263 45.4161 32.5339 45.8525 32.8201C46.289 33.1064 46.7996 33.2589 47.3215 33.2589H52.6787C53.2006 33.2589 53.7112 33.1064 54.1477 32.8201C54.5841 32.5339 54.9275 32.1263 55.1354 31.6476C55.1875 31.529 55.273 31.4282 55.3816 31.3575C55.4901 31.2869 55.617 31.2495 55.7465 31.25H56.6965C57.4069 31.25 58.0882 31.5322 58.5906 32.0345C59.0929 32.5368 59.3751 33.2182 59.3751 33.9286V66.0714Z" fill="#2F80ED"/>
</g>
<defs>
<clipPath id="clip0">
<rect width="42.8571" height="42.8571" fill="white" transform="translate(28.5715 28.5714)"/>
</clipPath>
</defs>
</svg>
