<svg width="100" height="100" viewBox="0 0 100 100" fill="none" xmlns="http://www.w3.org/2000/svg">
<rect width="100" height="100" rx="16" fill="#F6FAFD"/>
<path d="M43.3036 66.0714C44.7829 66.0714 45.9821 64.8722 45.9821 63.3928C45.9821 61.9135 44.7829 60.7143 43.3036 60.7143C41.8242 60.7143 40.625 61.9135 40.625 63.3928C40.625 64.8722 41.8242 66.0714 43.3036 66.0714Z" fill="#2ECC72"/>
<path d="M62.0536 66.0714C63.5329 66.0714 64.7321 64.8722 64.7321 63.3928C64.7321 61.9135 63.5329 60.7143 62.0536 60.7143C60.5742 60.7143 59.375 61.9135 59.375 63.3928C59.375 64.8722 60.5742 66.0714 62.0536 66.0714Z" fill="#2ECC72"/>
<path d="M66.808 38.6813C66.6199 38.4512 66.3828 38.2658 66.1141 38.1387C65.8454 38.0116 65.5517 37.9459 65.2545 37.9464H39.7787L39.2656 35.0351C39.2109 34.725 39.0487 34.4441 38.8074 34.2417C38.5662 34.0394 38.2613 33.9285 37.9464 33.9285H32.5893C32.2341 33.9285 31.8934 34.0696 31.6423 34.3208C31.3911 34.572 31.25 34.9126 31.25 35.2678C31.25 35.623 31.3911 35.9637 31.6423 36.2148C31.8934 36.466 32.2341 36.6071 32.5893 36.6071H36.8231L40.6451 58.2684C40.6998 58.5785 40.862 58.8594 41.1033 59.0618C41.3445 59.2641 41.6494 59.375 41.9643 59.375H63.3929C63.7481 59.375 64.0887 59.2339 64.3399 58.9827C64.591 58.7315 64.7321 58.3909 64.7321 58.0357C64.7321 57.6805 64.591 57.3398 64.3399 57.0887C64.0887 56.8375 63.7481 56.6964 63.3929 56.6964H43.0876L42.6155 54.0178H62.8438C63.3082 54.0172 63.7582 53.8562 64.1176 53.5619C64.4769 53.2677 64.7236 52.8583 64.8159 52.4031L67.2266 40.3496C67.2847 40.0579 67.2772 39.7569 67.2049 39.4684C67.1325 39.1799 66.9969 38.9111 66.808 38.6813Z" fill="#2ECC72"/>
</svg>
