<svg width="100" height="100" viewBox="0 0 100 100" fill="none" xmlns="http://www.w3.org/2000/svg">
<rect width="100" height="100" rx="16" fill="#F6FAFD"/>
<path d="M64.7321 36.6071H60.7142V35.2679C60.7131 34.2026 60.2894 33.1813 59.5362 32.428C58.7829 31.6748 57.7616 31.2511 56.6964 31.25H43.3035C42.2382 31.2511 41.2169 31.6748 40.4637 32.428C39.7104 33.1813 39.2868 34.2026 39.2856 35.2679V36.6071H35.2678C33.8475 36.6087 32.4858 37.1736 31.4814 38.1779C30.4771 39.1823 29.9122 40.544 29.9106 41.9643V63.3929C29.9106 64.8137 30.4751 66.1763 31.4797 67.1809C32.4844 68.1856 33.847 68.75 35.2678 68.75H64.7321C66.1529 68.75 67.5155 68.1856 68.5201 67.1809C69.5248 66.1763 70.0892 64.8137 70.0892 63.3929V41.9643C70.0877 40.544 69.5228 39.1823 68.5184 38.1779C67.5141 37.1736 66.1524 36.6087 64.7321 36.6071ZM56.6964 54.0179H51.3392V59.375C51.3392 59.7302 51.1981 60.0709 50.9469 60.322C50.6958 60.5732 50.3551 60.7143 49.9999 60.7143C49.6447 60.7143 49.3041 60.5732 49.0529 60.322C48.8017 60.0709 48.6606 59.7302 48.6606 59.375V54.0179H43.3035C42.9483 54.0179 42.6076 53.8768 42.3565 53.6256C42.1053 53.3744 41.9642 53.0338 41.9642 52.6786C41.9642 52.3234 42.1053 51.9827 42.3565 51.7316C42.6076 51.4804 42.9483 51.3393 43.3035 51.3393H48.6606V45.9821C48.6606 45.6269 48.8017 45.2863 49.0529 45.0351C49.3041 44.784 49.6447 44.6429 49.9999 44.6429C50.3551 44.6429 50.6958 44.784 50.9469 45.0351C51.1981 45.2863 51.3392 45.6269 51.3392 45.9821V51.3393H56.6964C57.0516 51.3393 57.3922 51.4804 57.6434 51.7316C57.8945 51.9827 58.0356 52.3234 58.0356 52.6786C58.0356 53.0338 57.8945 53.3744 57.6434 53.6256C57.3922 53.8768 57.0516 54.0179 56.6964 54.0179ZM58.0356 36.6071H41.9642V35.2679C41.9642 34.9127 42.1053 34.572 42.3565 34.3208C42.6076 34.0697 42.9483 33.9286 43.3035 33.9286H56.6964C57.0516 33.9286 57.3922 34.0697 57.6434 34.3208C57.8945 34.572 58.0356 34.9127 58.0356 35.2679V36.6071Z" fill="#FF3F3F"/>
</svg>
