<svg width="100" height="100" viewBox="0 0 100 100" fill="none" xmlns="http://www.w3.org/2000/svg">
<rect width="100" height="100" rx="16" fill="#F6FAFD"/>
<path d="M67.5733 44.3571C57.6865 35.2126 42.3099 35.216 32.4271 44.3571C32.0554 44.7009 32.0482 45.2829 32.4075 45.6395L34.3182 47.5352C34.6609 47.8756 35.2122 47.8828 35.5682 47.5564C43.7111 40.0965 56.2881 40.0949 64.4326 47.5564C64.7887 47.8828 65.34 47.875 65.6826 47.5352L67.5934 45.6395C67.9522 45.2829 67.9449 44.7009 67.5733 44.3571ZM50.0002 55.3571C48.0275 55.3571 46.4287 56.9559 46.4287 58.9286C46.4287 60.9012 48.0275 62.5 50.0002 62.5C51.9728 62.5 53.5716 60.9012 53.5716 58.9286C53.5716 56.9559 51.9728 55.3571 50.0002 55.3571ZM61.3099 50.6925C54.878 45.0045 45.1151 45.0106 38.6905 50.6925C38.3054 51.0329 38.2931 51.6239 38.6586 51.9844L40.5805 53.8811C40.9153 54.2115 41.4544 54.2338 41.811 53.9258C46.4957 49.8761 53.5152 49.885 58.1888 53.9258C58.5454 54.2338 59.0844 54.2121 59.4192 53.8811L61.3411 51.9844C61.7072 51.6239 61.6944 51.0324 61.3099 50.6925Z" fill="#FF6D3F"/>
</svg>
