<svg width="100" height="100" viewBox="0 0 100 100" fill="none" xmlns="http://www.w3.org/2000/svg">
<rect width="100" height="100" rx="16" fill="#F6FAFD"/>
<g clip-path="url(#clip0)">
<g clip-path="url(#clip1)">
<path d="M58.3708 33.189C58.332 30.6323 56.2487 28.5714 53.6829 28.5714H46.5575C43.9917 28.5714 41.9083 30.6323 41.8696 33.189H35.7142V71.4286H64.2857V33.189H58.3708ZM46.5575 30.8802H53.6555H53.6829C54.9959 30.8802 56.0639 31.9483 56.0639 33.2612C56.0639 34.574 54.9959 35.6421 53.6829 35.6421H46.5575C45.2445 35.6421 44.1766 34.574 44.1766 33.2612C44.1766 31.9483 45.2445 30.8802 46.5575 30.8802ZM49.9999 65.368H40.4761V63.0591H49.9999V65.368ZM49.9999 58.1529H40.4761V55.8441H49.9999V58.1529ZM49.9999 51.0822H40.4761V48.7734H49.9999V51.0822ZM49.9999 43.8672H40.4761V41.5584H49.9999V43.8672ZM56.3157 66.9594L53.4959 64.6212L54.9696 62.844L56.0942 63.7765L57.8532 61.8483L59.5588 63.4043L56.3157 66.9594ZM56.3157 59.7444L53.4959 57.4062L54.9696 55.629L56.0942 56.5615L57.8532 54.6333L59.5588 56.1893L56.3157 59.7444ZM56.3157 52.6737L53.4959 50.3355L54.9696 48.5583L56.0942 49.4907L57.8532 47.5626L59.5588 49.1186L56.3157 52.6737ZM56.3157 45.4587L53.4959 43.1205L54.9696 41.3433L56.0942 42.2757L57.8532 40.3476L59.5588 41.9036L56.3157 45.4587Z" fill="#5D12BD"/>
</g>
</g>
<defs>
<clipPath id="clip0">
<rect width="42.8571" height="42.8571" fill="white" transform="translate(28.5714 28.5714)"/>
</clipPath>
<clipPath id="clip1">
<rect width="42.8571" height="42.8571" fill="white" transform="translate(28.5714 28.5714)"/>
</clipPath>
</defs>
</svg>
