<svg width="150" height="114" viewBox="0 0 150 114" fill="none" xmlns="http://www.w3.org/2000/svg">
<path d="M72.8551 107.902L5.46006 68.0621C3.31506 66.8583 1.47381 64.8783 3.56631 63.5846L71.2051 24.5846C72.2213 23.9546 73.7626 23.5421 74.7938 24.1421L145.541 65.2196C147.686 66.4646 148.073 69.9446 145.916 71.1933L81.7501 107.831C80.4019 108.616 78.8721 109.035 77.312 109.048C75.752 109.06 74.2157 108.665 72.8551 107.902Z" fill="#C4C4C4"/>
<path opacity="0.32" d="M87.7274 86.7933L85.0199 84.9183L68.4224 93.9183L71.7974 95.9171C77.1636 92.9771 82.4211 89.8421 87.7274 86.7933Z" fill="url(#paint0_linear)"/>
<path opacity="0.32" d="M138.971 70.9645L128.79 63.8845L112.193 72.8845L123.923 79.8258C123.923 79.8258 133.5 74.0845 138.971 70.9645Z" fill="url(#paint1_linear)"/>
<path opacity="0.32" d="M47.3214 72.7233L31.9202 82.7883L57.1914 98.0883L74.0552 87.082" fill="url(#paint2_linear)"/>
<path d="M49.5976 13.5858L47.1001 14.6921L49.5001 15.7496L50.0813 14.5083" fill="#68E1FD"/>
<path d="M72.375 87.067L51.5962 74.9583C50.7591 74.471 50.0644 73.7728 49.5814 72.9331C49.0984 72.0935 48.8441 71.1419 48.8438 70.1733L48.1875 15.1721C48.1875 13.7283 50.4375 12.9933 51.6712 13.7283L73.17 26.4258C73.7034 26.7407 74.1455 27.1893 74.4526 27.7272C74.7597 28.2652 74.9212 28.8739 74.9212 29.4933V85.612C74.9228 85.9104 74.8451 86.2038 74.6961 86.4622C74.547 86.7207 74.3319 86.9349 74.0729 87.0829C73.8139 87.2309 73.5201 87.3075 73.2218 87.3047C72.9235 87.3019 72.6312 87.2199 72.375 87.067Z" fill="#68E1FD"/>
<path d="M74.0549 87.0821L71.3362 88.5183L71.6512 86.6246L73.5374 86.2833" fill="#68E1FD"/>
<path d="M69.7837 88.4471L49.0049 76.3383C48.1678 75.851 47.4731 75.1528 46.9901 74.3131C46.5071 73.4735 46.2528 72.5219 46.2524 71.5533V16.0271C46.2519 15.7673 46.3202 15.512 46.4504 15.2872C46.5805 15.0624 46.768 14.8761 46.9936 14.7472C47.2192 14.6184 47.4749 14.5517 47.7347 14.5539C47.9945 14.556 48.249 14.627 48.4724 14.7596L70.5637 27.8058C71.0971 28.1207 71.5392 28.5693 71.8463 29.1072C72.1534 29.6452 72.3149 30.2539 72.315 30.8733V86.9921C72.315 87.2882 72.2369 87.5791 72.0886 87.8354C71.9403 88.0917 71.727 88.3044 71.4703 88.4519C71.2136 88.5995 70.9225 88.6768 70.6263 88.6759C70.3302 88.675 70.0396 88.5961 69.7837 88.4471Z" fill="#F4F4F4"/>
<path d="M70.9951 34.2596L47.3213 20.6846V69.2621L70.9951 82.9458V34.2596Z" fill="white"/>
<path d="M57.3014 79.5523C57.8876 79.4123 58.2096 78.6571 58.0205 77.8654C57.8315 77.0737 57.203 76.5454 56.6168 76.6854C56.0306 76.8254 55.7087 77.5806 55.8977 78.3723C56.0868 79.164 56.7152 79.6923 57.3014 79.5523Z" fill="#BABABC"/>
<path d="M56.0701 23.0208C56.0703 23.1137 56.0951 23.2049 56.1418 23.2853C56.1886 23.3656 56.2556 23.4322 56.3363 23.4783L60.9113 26.1033C60.9916 26.1492 61.0826 26.1733 61.1751 26.1731C61.2676 26.1728 61.3584 26.1484 61.4385 26.102C61.5186 26.0557 61.5851 25.9892 61.6314 25.9092C61.6778 25.8291 61.7023 25.7383 61.7026 25.6458V25.5333C61.7022 25.439 61.6767 25.3465 61.6285 25.2654C61.5804 25.1843 61.5114 25.1175 61.4288 25.072L56.8538 22.5558C56.7732 22.5114 56.6823 22.4888 56.5903 22.4903C56.4983 22.4918 56.4082 22.5173 56.329 22.5642C56.2499 22.6112 56.1843 22.678 56.1389 22.7581C56.0935 22.8382 56.0698 22.9287 56.0701 23.0208Z" fill="#CCCCCC"/>
<path d="M54.2142 22.2782C54.4823 22.179 54.59 21.8026 54.4549 21.4374C54.3197 21.0723 53.9929 20.8567 53.7248 20.9559C53.4568 21.0551 53.3491 21.4315 53.4842 21.7967C53.6194 22.1618 53.9462 22.3774 54.2142 22.2782Z" fill="#CCCCCC"/>
<path d="M105.251 13.4283L107.749 14.5346L105.349 15.5921L104.767 14.3471" fill="#68E1FD"/>
<path d="M82.4625 86.9021L103.241 74.7933C104.075 74.3072 104.767 73.6117 105.249 72.7757C105.731 71.9396 105.987 70.9922 105.99 70.0271L106.661 15.0146C106.661 13.5708 104.411 12.8358 103.177 13.5708L81.6787 26.2683C81.1453 26.5833 80.7033 27.0318 80.3962 27.5698C80.0891 28.1077 79.9275 28.7164 79.9275 29.3358V85.4546C79.9284 85.7506 80.0074 86.0412 80.1564 86.297C80.3054 86.5528 80.5192 86.7647 80.7763 86.9115C81.0334 87.0583 81.3246 87.1348 81.6207 87.1331C81.9167 87.1314 82.2071 87.0517 82.4625 86.9021Z" fill="#68E1FD"/>
<path d="M80.7939 86.9246L83.5127 88.3609L83.1977 86.4671L81.3114 86.1259" fill="#68E1FD"/>
<path d="M85.0649 88.2858L105.844 76.177C106.681 75.6898 107.376 74.9915 107.859 74.1519C108.342 73.3123 108.596 72.3607 108.596 71.3921V15.8658C108.597 15.606 108.528 15.3507 108.398 15.1259C108.268 14.9011 108.081 14.7148 107.855 14.586C107.629 14.4572 107.374 14.3905 107.114 14.3926C106.854 14.3948 106.6 14.4658 106.376 14.5983L84.2849 27.6521C83.7515 27.967 83.3095 28.4155 83.0024 28.9535C82.6953 29.4914 82.5337 30.1001 82.5337 30.7196V86.8346C82.5343 87.1304 82.6129 87.4208 82.7615 87.6766C82.91 87.9323 83.1234 88.1445 83.38 88.2916C83.6366 88.4387 83.9274 88.5157 84.2232 88.5146C84.519 88.5136 84.8093 88.4347 85.0649 88.2858Z" fill="#F4F4F4"/>
<path d="M83.8538 34.1021L107.528 20.5271V69.1008L83.8538 82.7883V34.1021Z" fill="white"/>
<path d="M98.9611 78.2251C99.1501 77.4334 98.8282 76.6781 98.242 76.5382C97.6558 76.3982 97.0273 76.9265 96.8383 77.7182C96.6492 78.5098 96.9712 79.2651 97.5574 79.4051C98.1436 79.545 98.772 79.0167 98.9611 78.2251Z" fill="#BABABC"/>
<path d="M98.7788 22.8634C98.7786 22.9563 98.7538 23.0475 98.7071 23.1278C98.6604 23.2081 98.5933 23.2747 98.5126 23.3209L93.9376 25.9459C93.8573 25.9918 93.7664 26.0158 93.6739 26.0156C93.5814 26.0154 93.4905 25.9909 93.4104 25.9446C93.3304 25.8983 93.2638 25.8318 93.2175 25.7517C93.1711 25.6717 93.1466 25.5809 93.1464 25.4884V25.3759C93.1467 25.2815 93.1723 25.189 93.2204 25.1079C93.2685 25.0268 93.3375 24.9601 93.4201 24.9146L97.9951 22.4021C98.0755 22.3579 98.166 22.3353 98.2577 22.3366C98.3494 22.3379 98.4392 22.3631 98.5183 22.4096C98.5973 22.4561 98.6629 22.5224 98.7086 22.602C98.7543 22.6815 98.7785 22.7716 98.7788 22.8634Z" fill="#CCCCCC"/>
<path d="M101.373 21.6467C101.508 21.2815 101.4 20.9051 101.132 20.8059C100.864 20.7067 100.538 20.9223 100.402 21.2874C100.267 21.6526 100.375 22.029 100.643 22.1282C100.911 22.2274 101.238 22.0119 101.373 21.6467Z" fill="#CCCCCC"/>
<path d="M60.0524 42.7207C61.3188 42.252 61.8244 40.4644 61.1818 38.728C60.5391 36.9916 58.9915 35.9639 57.7251 36.4326C56.4587 36.9013 55.9531 38.6889 56.5958 40.4253C57.2384 42.1617 58.786 43.1894 60.0524 42.7207Z" fill="#868686"/>
<path d="M58.875 38.5271V37.5896" stroke="#2E3192" stroke-width="3.045" stroke-miterlimit="10" stroke-linecap="round"/>
<path d="M58.875 34.5408V26.2458C58.875 22.102 59.3963 19.0345 62.0063 15.7158C64.7032 12.2288 68.5249 9.78388 72.8213 8.79704C75.5914 8.19186 78.455 8.15057 81.2415 8.67565C84.0279 9.20072 86.6801 10.2814 89.04 11.8533C91.3337 13.3222 93.2585 15.2995 94.665 17.632C96.285 20.4483 95.94 23.0658 95.94 26.1708V36.9708" stroke="#2E3192" stroke-width="3.045" stroke-miterlimit="10" stroke-linecap="round" stroke-dasharray="5.13 8.2"/>
<path d="M95.9625 38.4858V39.4233" stroke="#2E3192" stroke-width="3.045" stroke-miterlimit="10" stroke-linecap="round"/>
<path d="M92.4976 39.3708L99.4913 35.3621L96.2476 43.4846L92.4976 39.3708Z" fill="#1B1464"/>
<path opacity="0.32" d="M16.5 72.1083C19.875 69.9071 23.295 67.7433 26.6963 65.5646L20.2313 60.8508L8.52002 65.7258C10.7663 68.2946 13.5713 70.2858 16.5 72.1083Z" fill="url(#paint3_linear)"/>
<path d="M29.1374 48.8621C29.1015 48.7074 29.0338 48.5618 28.9386 48.4346C28.7589 48.2241 28.5461 48.0443 28.3086 47.9021C25.1324 45.7534 20.7411 45.1609 17.3849 47.2609C16.6349 47.7409 15.4799 48.8284 15.9336 49.8521C16.1961 50.4484 16.9949 50.7934 17.5461 51.0371C19.3461 51.8284 21.3561 52.2071 23.2874 52.5371C23.9999 52.6571 24.7161 52.7771 25.4361 52.8446C25.933 52.8932 26.434 52.8155 26.8929 52.6189C27.3518 52.4222 27.7536 52.1129 28.0611 51.7196C28.5599 51.0784 29.3624 49.7771 29.1374 48.8621Z" fill="#754C24"/>
<path d="M15.8477 49.3759C15.8477 49.3759 18.7427 52.0009 23.7452 51.6259C28.7477 51.2509 29.1377 48.8734 29.1377 48.8734C29.1377 48.8734 27.8439 65.4522 27.1577 65.7484C26.4714 66.0447 23.9177 67.2484 22.6877 67.3572C21.4577 67.4659 17.5539 65.8872 17.4564 65.4559C17.3589 65.0247 15.8477 49.3759 15.8477 49.3759Z" fill="#68E1FD"/>
<path d="M16.7624 25.2146C16.6086 24.9034 16.1361 25.1771 16.2899 25.4884C19.7136 32.3884 20.3811 40.1584 20.9961 47.7034C21.0224 48.0484 21.5699 48.0521 21.5436 47.7034C20.9174 40.0571 20.2311 32.2046 16.7624 25.2146Z" fill="#007F68"/>
<path d="M16.3237 25.2783C16.3237 25.2783 17.2799 28.8596 16.2937 30.6483C15.3074 32.4371 14.4899 32.7971 15.6712 35.0321C16.8524 37.2671 20.0024 37.5596 20.2124 39.2771C20.4224 40.9946 18.7012 28.3196 16.3237 25.2783Z" fill="#007F68"/>
<path d="M27.2739 31.7433C24.6447 37.2625 23.1672 43.2594 22.9314 49.3683C22.9314 49.7921 23.5801 49.7921 23.5989 49.3683C23.8276 43.3761 25.2731 37.493 27.8476 32.0771C28.0276 31.6946 27.4539 31.3608 27.2739 31.7433Z" fill="#007F68"/>
<path d="M27.75 33.4909C27.75 33.1159 27.6713 32.4259 27.7088 31.7921C27.5838 31.8746 27.4588 31.9546 27.3338 32.0321C26.0325 35.1934 24.0938 42.6184 23.5088 44.8946C24.3 43.1921 27.54 42.9596 28.4888 40.5109C28.9092 39.4792 28.9293 38.3278 28.545 37.2821C28.075 36.0702 27.8064 34.7895 27.75 33.4909Z" fill="#007F68"/>
<path d="M132.634 72.7158C137.167 72.7158 140.843 70.5634 140.843 67.9083C140.843 65.2532 137.167 63.1008 132.634 63.1008C128.1 63.1008 124.425 65.2532 124.425 67.9083C124.425 70.5634 128.1 72.7158 132.634 72.7158Z" fill="#FF912E"/>
<path d="M124.425 67.9083V66.5171L125.318 67.6271L124.425 67.9083Z" fill="#E0944F"/>
<path d="M140.842 66.5171V67.9083H139.8L140.561 66.7908L140.842 66.5171Z" fill="#E0944F"/>
<path d="M132.634 71.3246C137.167 71.3246 140.843 69.1722 140.843 66.5171C140.843 63.862 137.167 61.7096 132.634 61.7096C128.1 61.7096 124.425 63.862 124.425 66.5171C124.425 69.1722 128.1 71.3246 132.634 71.3246Z" fill="#FFB92C"/>
<path d="M136.796 65.8758C136.855 65.9915 136.877 66.1222 136.86 66.2508L136.826 66.3783H135.326C135.339 66.3368 135.348 66.2941 135.352 66.2508C135.347 66.1533 135.316 66.0589 135.262 65.9771C135.175 65.8294 135.044 65.7127 134.887 65.6433C134.669 65.5299 134.428 65.4671 134.182 65.4596C133.955 65.4422 133.727 65.4768 133.515 65.5608C133.305 65.6508 133.224 65.7683 133.271 65.9133C133.342 66.0912 133.45 66.2512 133.59 66.3821C133.752 66.5465 133.903 66.7206 134.044 66.9033C134.11 66.982 134.154 67.078 134.168 67.1802C134.183 67.2824 134.168 67.3866 134.126 67.4808C133.962 67.7527 133.703 67.9544 133.399 68.0471C132.896 68.2563 132.357 68.3683 131.812 68.3771C131.224 68.3971 130.636 68.3146 130.076 68.1333L129.214 68.5083L128.205 68.0171L129.041 67.6421C128.89 67.5374 128.755 67.4111 128.64 67.2671C128.554 67.1689 128.486 67.0558 128.441 66.9333C128.412 66.8459 128.395 66.7552 128.389 66.6633C128.379 66.6012 128.379 66.5379 128.389 66.4758L128.419 66.4046H129.919C129.903 66.4537 129.89 66.5038 129.881 66.5546C129.887 66.6775 129.929 66.796 130.001 66.8958C130.121 67.0828 130.293 67.2302 130.496 67.3196C130.767 67.4556 131.063 67.5323 131.366 67.5446C131.64 67.5634 131.914 67.5198 132.169 67.4171C132.376 67.3271 132.454 67.2096 132.401 67.0646C132.328 66.8856 132.215 66.7254 132.071 66.5958C131.906 66.4333 131.753 66.2591 131.614 66.0746C131.548 65.9942 131.507 65.8966 131.496 65.7934C131.484 65.6902 131.503 65.586 131.55 65.4933C131.725 65.2195 131.99 65.0153 132.3 64.9158C132.784 64.7204 133.301 64.6186 133.822 64.6158C134.375 64.5968 134.926 64.6821 135.446 64.8671L136.305 64.4921L137.246 65.0058L136.384 65.3808C136.563 65.5061 136.705 65.677 136.796 65.8758Z" fill="#EA8B24"/>
<path d="M132.649 70.6121C136.453 70.6121 139.538 68.8056 139.538 66.5771C139.538 64.3486 136.453 62.5421 132.649 62.5421C128.844 62.5421 125.76 64.3486 125.76 66.5771C125.76 68.8056 128.844 70.6121 132.649 70.6121Z" stroke="#F7931E" stroke-width="2.03" stroke-miterlimit="10"/>
<path d="M132.634 70.9608C137.167 70.9608 140.843 68.8084 140.843 66.1533C140.843 63.4982 137.167 61.3458 132.634 61.3458C128.1 61.3458 124.425 63.4982 124.425 66.1533C124.425 68.8084 128.1 70.9608 132.634 70.9608Z" fill="#FF912E"/>
<path d="M124.425 66.1534V64.7659L125.318 65.8759L124.425 66.1534Z" fill="#E0944F"/>
<path d="M140.842 64.7659V66.1534H139.8L140.561 65.0396L140.842 64.7659Z" fill="#E0944F"/>
<path d="M132.634 69.5734C137.167 69.5734 140.843 67.421 140.843 64.7659C140.843 62.1108 137.167 59.9584 132.634 59.9584C128.1 59.9584 124.425 62.1108 124.425 64.7659C124.425 67.421 128.1 69.5734 132.634 69.5734Z" fill="#FFB92C"/>
<path d="M136.796 64.1246C136.855 64.2402 136.877 64.371 136.86 64.4996L136.826 64.6271H135.326C135.339 64.5855 135.348 64.5428 135.353 64.4996C135.347 64.402 135.316 64.3076 135.263 64.2258C135.175 64.0782 135.044 63.9615 134.888 63.8921C134.669 63.7787 134.428 63.7159 134.183 63.7083C133.955 63.6909 133.727 63.7255 133.515 63.8096C133.305 63.8996 133.224 64.0171 133.271 64.1621C133.342 64.3399 133.45 64.5 133.59 64.6308C133.752 64.7952 133.903 64.9693 134.044 65.1521C134.111 65.2308 134.154 65.3267 134.168 65.4289C134.183 65.5311 134.168 65.6353 134.126 65.7296C133.962 66.0015 133.703 66.2031 133.399 66.2958C132.896 66.5051 132.357 66.617 131.813 66.6258C131.224 66.6459 130.636 66.5634 130.076 66.3821L129.214 66.7571L128.224 66.2771L129.06 65.9021C128.909 65.7974 128.773 65.6711 128.659 65.5271C128.573 65.4289 128.505 65.3158 128.46 65.1933C128.431 65.1059 128.414 65.0152 128.408 64.9233C128.397 64.8612 128.397 64.7979 128.408 64.7358L128.438 64.6646H129.938C129.922 64.7137 129.909 64.7638 129.9 64.8146C129.906 64.9375 129.948 65.056 130.02 65.1558C130.14 65.3428 130.312 65.4902 130.515 65.5796C130.786 65.7156 131.082 65.7923 131.385 65.8046C131.659 65.8234 131.933 65.7798 132.188 65.6771C132.395 65.5871 132.473 65.4696 132.42 65.3246C132.346 65.1456 132.234 64.9854 132.09 64.8558C131.925 64.6933 131.772 64.5191 131.633 64.3346C131.567 64.2543 131.526 64.1566 131.514 64.0534C131.503 63.9502 131.522 63.846 131.569 63.7533C131.744 63.4795 132.009 63.2753 132.319 63.1758C132.815 62.9851 133.343 62.8922 133.875 62.9021C134.427 62.8831 134.978 62.9683 135.499 63.1533L136.357 62.7783L137.299 63.2921L136.436 63.6671C136.591 63.7885 136.715 63.9454 136.796 64.1246Z" fill="#EA8B24"/>
<path d="M132.649 68.8609C136.453 68.8609 139.538 67.0544 139.538 64.8259C139.538 62.5974 136.453 60.7909 132.649 60.7909C128.844 60.7909 125.76 62.5974 125.76 64.8259C125.76 67.0544 128.844 68.8609 132.649 68.8609Z" stroke="#F7931E" stroke-width="2.03" stroke-miterlimit="10"/>
<path d="M132.761 69.2996C137.295 69.2996 140.97 67.1472 140.97 64.4921C140.97 61.837 137.295 59.6846 132.761 59.6846C128.228 59.6846 124.552 61.837 124.552 64.4921C124.552 67.1472 128.228 69.2996 132.761 69.2996Z" fill="#FF912E"/>
<path d="M124.552 64.4921V63.1008L125.445 64.2108L124.552 64.4921Z" fill="#E0944F"/>
<path d="M140.97 63.1008V64.4921H139.927L140.692 63.3746L140.97 63.1008Z" fill="#E0944F"/>
<path d="M132.761 67.9083C137.295 67.9083 140.97 65.7559 140.97 63.1008C140.97 60.4457 137.295 58.2933 132.761 58.2933C128.228 58.2933 124.552 60.4457 124.552 63.1008C124.552 65.7559 128.228 67.9083 132.761 67.9083Z" fill="#FFB92C"/>
<path d="M136.924 62.4596C136.982 62.5752 137.005 62.706 136.988 62.8346L136.954 62.9621H135.454C135.467 62.9205 135.475 62.8778 135.48 62.8346C135.474 62.737 135.443 62.6426 135.39 62.5608C135.303 62.4131 135.172 62.2964 135.015 62.2271C134.797 62.1137 134.556 62.0509 134.31 62.0433C134.083 62.0259 133.854 62.0605 133.643 62.1446C133.433 62.2346 133.351 62.3521 133.399 62.4971C133.469 62.6749 133.578 62.835 133.718 62.9658C133.879 63.1302 134.031 63.3043 134.171 63.4871C134.238 63.5658 134.281 63.6617 134.296 63.7639C134.31 63.8661 134.296 63.9703 134.254 64.0646C134.089 64.3365 133.83 64.5381 133.526 64.6308C133.023 64.84 132.485 64.952 131.94 64.9608C131.352 64.9809 130.764 64.8984 130.204 64.7171L129.341 65.0921L128.333 64.6008L129.169 64.2258C129.017 64.1212 128.882 63.9948 128.768 63.8508C128.681 63.7527 128.614 63.6395 128.569 63.5171C128.54 63.4296 128.522 63.3389 128.516 63.2471C128.506 63.185 128.506 63.1216 128.516 63.0596L128.546 62.9883H130.046C130.031 63.0374 130.018 63.0876 130.009 63.1383C130.015 63.2613 130.057 63.3798 130.129 63.4796C130.248 63.6665 130.421 63.814 130.624 63.9033C130.894 64.0393 131.191 64.116 131.494 64.1283C131.767 64.1471 132.042 64.1035 132.296 64.0008C132.504 63.9108 132.581 63.7933 132.529 63.6483C132.455 63.4693 132.342 63.3092 132.199 63.1796C132.034 63.0171 131.881 62.8429 131.741 62.6583C131.676 62.578 131.635 62.4803 131.623 62.3771C131.612 62.274 131.631 62.1697 131.678 62.0771C131.853 61.8032 132.118 61.599 132.428 61.4996C132.911 61.3041 133.428 61.2023 133.95 61.1996C134.502 61.1806 135.053 61.2658 135.574 61.4508L136.433 61.0758L137.374 61.5896L136.511 61.9646C136.69 62.0898 136.833 62.2607 136.924 62.4596Z" fill="#EA8B24"/>
<path d="M132.776 67.1958C136.581 67.1958 139.665 65.3893 139.665 63.1609C139.665 60.9324 136.581 59.1259 132.776 59.1259C128.972 59.1259 125.887 60.9324 125.887 63.1609C125.887 65.3893 128.972 67.1958 132.776 67.1958Z" stroke="#F7931E" stroke-width="2.03" stroke-miterlimit="10"/>
<path d="M134.636 66.6145C139.17 66.6145 142.845 64.4621 142.845 61.807C142.845 59.1519 139.17 56.9995 134.636 56.9995C130.103 56.9995 126.428 59.1519 126.428 61.807C126.428 64.4621 130.103 66.6145 134.636 66.6145Z" fill="#FF912E"/>
<path d="M126.428 61.8034V60.4159L127.32 61.5259L126.428 61.8034Z" fill="#E0944F"/>
<path d="M142.845 60.4159V61.8034H141.802L142.568 60.6896L142.845 60.4159Z" fill="#E0944F"/>
<path d="M134.636 65.2233C139.17 65.2233 142.845 63.0709 142.845 60.4158C142.845 57.7607 139.17 55.6083 134.636 55.6083C130.103 55.6083 126.428 57.7607 126.428 60.4158C126.428 63.0709 130.103 65.2233 134.636 65.2233Z" fill="#FFB92C"/>
<path d="M138.799 59.7746C138.857 59.8903 138.88 60.021 138.863 60.1496L138.829 60.2771H137.329C137.342 60.2356 137.35 60.1929 137.355 60.1496C137.349 60.0521 137.318 59.9577 137.265 59.8759C137.178 59.7282 137.047 59.6115 136.89 59.5421C136.672 59.4287 136.431 59.3659 136.185 59.3584C135.958 59.341 135.729 59.3756 135.518 59.4596C135.308 59.5496 135.226 59.6671 135.274 59.8121C135.344 59.99 135.453 60.15 135.593 60.2809C135.754 60.4453 135.906 60.6194 136.046 60.8021C136.113 60.8808 136.156 60.9768 136.171 61.079C136.185 61.1811 136.171 61.2854 136.129 61.3796C135.964 61.6515 135.705 61.8532 135.401 61.9459C134.898 62.1551 134.36 62.2671 133.815 62.2759C133.227 62.2959 132.639 62.2134 132.079 62.0321L131.216 62.4071L130.208 61.9159L131.044 61.5409C130.892 61.4362 130.757 61.3099 130.643 61.1659C130.556 61.0677 130.489 60.9546 130.444 60.8321C130.415 60.7447 130.397 60.654 130.391 60.5621C130.381 60.5 130.381 60.4367 130.391 60.3746L130.421 60.3034H131.921C131.906 60.3525 131.893 60.4026 131.884 60.4534C131.89 60.5763 131.932 60.6948 132.004 60.7946C132.123 60.9816 132.296 61.129 132.499 61.2184C132.769 61.3544 133.066 61.4311 133.369 61.4434C133.642 61.4622 133.917 61.4186 134.171 61.3159C134.379 61.2259 134.456 61.1084 134.404 60.9634C134.33 60.7844 134.217 60.6242 134.074 60.4946C133.909 60.3321 133.756 60.1579 133.616 59.9734C133.551 59.893 133.51 59.7954 133.498 59.6922C133.487 59.589 133.506 59.4848 133.553 59.3921C133.728 59.1183 133.993 58.9141 134.303 58.8146C134.786 58.6192 135.303 58.5174 135.825 58.5146C136.377 58.4956 136.928 58.5809 137.449 58.7659L138.308 58.3909L139.249 58.9046L138.386 59.2796C138.565 59.4049 138.708 59.5758 138.799 59.7746Z" fill="#EA8B24"/>
<path d="M134.651 64.5108C138.456 64.5108 141.54 62.7043 141.54 60.4758C141.54 58.2473 138.456 56.4408 134.651 56.4408C130.847 56.4408 127.762 58.2473 127.762 60.4758C127.762 62.7043 130.847 64.5108 134.651 64.5108Z" stroke="#F7931E" stroke-width="2.03" stroke-miterlimit="10"/>
<path d="M127.305 56.9021C127.305 56.9021 127.414 60.0446 124.999 60.0446C124.999 60.0446 127.114 60.4196 127.114 62.4333C127.114 62.4333 127.343 60.1833 129.611 60.1833C129.611 60.2021 127.369 60.5096 127.305 56.9021Z" fill="white"/>
<path d="M58.0583 65.3719C62.8973 64.9588 66.4534 60.328 66.0009 55.0287C65.5485 49.7295 61.2589 45.7686 56.4198 46.1817C51.5808 46.5949 48.0247 51.2257 48.4772 56.5249C48.9296 61.8241 53.2192 65.7851 58.0583 65.3719Z" fill="#F2AE16"/>
<path d="M59.5861 64.925C64.4251 64.5119 67.9812 59.8811 67.5288 54.5819C67.0763 49.2826 62.7867 45.3217 57.9477 45.7348C53.1086 46.148 49.5526 50.7788 50.005 56.078C50.4574 61.3772 54.747 65.3382 59.5861 64.925Z" fill="#FFD008"/>
<path d="M59.4851 63.7406C63.7257 63.3785 66.8419 59.3194 66.4453 54.6744C66.0487 50.0293 62.2895 46.5572 58.0489 46.9193C53.8083 47.2813 50.6921 51.3404 51.0887 55.9855C51.4853 60.6306 55.2445 64.1026 59.4851 63.7406Z" stroke="#F7931E" stroke-width="1.015" stroke-miterlimit="10"/>
<path d="M62.3889 54.5434C61.4926 53.7934 60.2926 53.8309 59.2201 54.1196C58.8101 53.2646 58.3951 52.4134 57.9751 51.5659C58.2196 51.4943 58.471 51.449 58.7251 51.4309C59.4751 51.3746 59.3064 50.2009 58.5489 50.2571C58.1738 50.2906 57.8059 50.3803 57.4576 50.5234C57.2214 50.0546 56.9889 49.5859 56.7489 49.1209C56.4001 48.4459 55.3164 48.9221 55.6651 49.6009C55.9201 50.0959 56.1676 50.5946 56.4151 51.1008C55.0089 52.0983 54.0639 53.8309 55.1364 55.3984C55.9239 56.5534 57.1914 56.1483 58.2826 55.7283L58.6089 55.5971C58.9939 56.4096 59.3689 57.2259 59.7339 58.0458C59.2194 58.1622 58.6965 58.2374 58.1701 58.2708C57.4201 58.3196 57.5889 59.4933 58.3464 59.4446C58.9804 59.4053 59.6087 59.301 60.2214 59.1333C60.3489 59.4183 60.4801 59.6996 60.5964 59.9809C60.66 60.1246 60.7782 60.2371 60.9248 60.2937C61.0714 60.3503 61.2345 60.3464 61.3783 60.2827C61.522 60.2191 61.6345 60.1009 61.6911 59.9543C61.7477 59.8077 61.7438 59.6446 61.6801 59.5008C61.5639 59.2383 61.4439 58.9758 61.3239 58.7171C61.9082 58.4491 62.4161 58.0392 62.8014 57.5246C63.1339 57.0716 63.2768 56.5069 63.1998 55.9503C63.1228 55.3937 62.8319 54.889 62.3889 54.5434ZM57.2964 54.8359C56.1451 54.8359 55.6914 54.0858 56.1376 53.1033C56.3134 52.7139 56.5795 52.3719 56.9139 52.1059C57.3189 52.9209 57.7176 53.7371 58.1101 54.5546C57.8592 54.6962 57.5848 54.7915 57.3001 54.8359H57.2964ZM61.8564 56.8233C61.619 57.1953 61.2735 57.4858 60.8664 57.6558C60.4939 56.8383 60.1189 56.0221 59.7414 55.2071C59.8464 55.1808 59.9476 55.1546 60.0564 55.1433C60.9639 55.0271 62.6251 55.4658 61.8751 56.8233H61.8564Z" fill="#F7931E"/>
<path d="M107.426 57.4157C107.879 52.1165 104.323 47.4857 99.4836 47.0725C94.6445 46.6594 90.3549 50.6203 89.9025 55.9196C89.45 61.2188 93.0061 65.8496 97.8451 66.2627C102.684 66.6759 106.974 62.7149 107.426 57.4157Z" fill="#F2AE16"/>
<path d="M105.9 56.9672C106.352 51.668 102.796 47.0372 97.9569 46.6241C93.1179 46.2109 88.8283 50.1719 88.3759 55.4711C87.9234 60.7703 91.4795 65.4011 96.3185 65.8142C101.158 66.2274 105.447 62.2664 105.9 56.9672Z" fill="#FFD008"/>
<path d="M104.816 56.8746C105.213 52.2295 102.096 48.1704 97.8558 47.8084C93.6152 47.4463 89.856 50.9184 89.4594 55.5635C89.0628 60.2085 92.179 64.2676 96.4197 64.6297C100.66 64.9917 104.419 61.5197 104.816 56.8746Z" stroke="#F7931E" stroke-width="1.015" stroke-miterlimit="10"/>
<path d="M99.9636 59.2121C99.9299 58.0459 99.0974 57.1721 98.1711 56.5646C98.5361 55.6921 98.8949 54.8171 99.2474 53.9396C99.4605 54.0722 99.6591 54.2268 99.8399 54.4009C100.387 54.9334 101.145 54.0259 100.59 53.4896C100.316 53.2321 100.005 53.0172 99.6674 52.8521C99.8586 52.3646 100.042 51.8771 100.245 51.3896C100.519 50.6809 99.4386 50.1859 99.1649 50.9021C98.9661 51.4196 98.7599 51.9371 98.5536 52.4546C96.8736 52.0796 94.9536 52.5184 94.4924 54.3596C94.1549 55.7171 95.2986 56.3959 96.3411 56.9284L96.6561 57.0859C96.3036 57.9134 95.9474 58.7396 95.5874 59.5646C95.1585 59.2572 94.7547 58.9161 94.3799 58.5446C93.8361 58.0084 93.0824 58.9196 93.6299 59.4559C94.0872 59.9054 94.5899 60.3063 95.1299 60.6521C95.0024 60.9371 94.8786 61.2184 94.7549 61.5034C94.6923 61.6463 94.6885 61.8081 94.7445 61.9538C94.8005 62.0994 94.9116 62.2171 95.0538 62.2813C95.196 62.3454 95.3578 62.351 95.504 62.2966C95.6503 62.2422 95.7692 62.1324 95.8349 61.9909C95.9549 61.7284 96.0674 61.4659 96.1836 61.2034C96.7732 61.4609 97.4178 61.5666 98.0586 61.5109C98.611 61.4466 99.1174 61.1718 99.4722 60.7436C99.8271 60.3154 100.003 59.7669 99.9636 59.2121ZM96.3749 55.6046C95.6249 54.7346 95.8611 53.9134 96.8961 53.5871C97.3036 53.46 97.7356 53.4317 98.1561 53.5046C97.8186 54.3471 97.4736 55.1884 97.1211 56.0284C96.849 55.9331 96.5962 55.7896 96.3749 55.6046ZM97.9274 60.3296C97.4924 60.4 97.0462 60.3359 96.6486 60.1459C97.0111 59.3234 97.3686 58.4984 97.7211 57.6709C97.8074 57.7309 97.8974 57.7909 97.9799 57.8621C98.6661 58.4621 99.4236 59.9884 97.9124 60.3296H97.9274Z" fill="#F7931E"/>
<path d="M51.3299 51.7909C51.3299 51.7909 51.4387 54.9334 49.0237 54.9334C49.0237 54.9334 51.1387 55.3084 51.1387 57.3222C51.1387 57.3222 51.3674 55.0721 53.6362 55.0721C53.6249 55.0759 51.3749 55.3834 51.3299 51.7909Z" fill="white"/>
<defs>
<linearGradient id="paint0_linear" x1="74.6624" y1="95.1596" x2="82.7024" y2="83.8308" gradientUnits="userSpaceOnUse">
<stop stop-color="#666666" stop-opacity="0"/>
<stop offset="1" stop-color="#4D4D4D"/>
</linearGradient>
<linearGradient id="paint1_linear" x1="8834.57" y1="3315.42" x2="9094.17" y2="2700.95" gradientUnits="userSpaceOnUse">
<stop stop-color="#666666" stop-opacity="0"/>
<stop offset="1" stop-color="#4D4D4D"/>
</linearGradient>
<linearGradient id="paint2_linear" x1="5493.04" y1="6216.89" x2="5951.61" y2="5143.27" gradientUnits="userSpaceOnUse">
<stop stop-color="#666666" stop-opacity="0"/>
<stop offset="1" stop-color="#4D4D4D"/>
</linearGradient>
<linearGradient id="paint3_linear" x1="711.032" y1="2110.62" x2="839.527" y2="1916.92" gradientUnits="userSpaceOnUse">
<stop stop-color="#666666" stop-opacity="0"/>
<stop offset="1" stop-color="#4D4D4D"/>
</linearGradient>
</defs>
</svg>
