<svg width="100" height="100" viewBox="0 0 100 100" fill="none" xmlns="http://www.w3.org/2000/svg">
<rect width="100" height="100" rx="16" fill="#F6FAFD"/>
<g clip-path="url(#clip0)">
<g clip-path="url(#clip1)">
<path d="M52.9321 36.1049H47.0677C45.2421 38.1858 42.9503 39.7888 40.3738 40.7907V48.4724C40.3738 54.9687 44.1347 60.7946 49.9999 63.4615C55.8652 60.7946 59.626 54.9687 59.626 48.4724V40.7916C57.0488 39.7896 54.7577 38.1866 52.9321 36.1049ZM56.7474 46.9054L48.9344 54.7177C48.6891 54.963 48.3677 55.0859 48.0471 55.0859C47.7257 55.0859 47.4042 54.9629 47.159 54.7177L43.2524 50.812C42.7628 50.3215 42.7628 49.5263 43.2524 49.0358C43.743 48.5461 44.5382 48.5461 45.0287 49.0358L48.0471 52.0542L54.972 45.1301C55.4617 44.6396 56.2569 44.6396 56.7474 45.1301C57.2371 45.6205 57.2371 46.4149 56.7474 46.9054ZM65.8964 34.4308C62.277 34.4308 58.9807 32.4419 57.2915 29.2411C57.0746 28.8292 56.647 28.5714 56.1815 28.5714H43.8182C43.3528 28.5714 42.9251 28.8292 42.7074 29.2411C41.0192 32.4419 37.7229 34.4308 34.0959 34.4308C33.4028 34.4308 32.8403 34.9933 32.8403 35.6864V48.4724C32.8403 53.6127 34.4466 58.5212 37.4851 62.6671C40.5236 66.813 44.7198 69.8222 49.6216 71.37C49.7446 71.4093 49.8727 71.4286 49.9999 71.4286C50.1272 71.4286 50.2552 71.4093 50.3783 71.37C55.2801 69.8222 59.4762 66.8131 62.5147 62.6671C65.5532 58.5211 67.1595 53.6127 67.1595 48.4724V35.6864C67.1595 34.9933 66.5895 34.4308 65.8964 34.4308ZM62.1372 48.4154C62.1372 56.1046 57.5627 62.981 50.4829 65.9333C50.3281 65.9978 50.164 66.0296 49.9999 66.0296C49.8359 66.0296 49.671 65.9978 49.5169 65.9333C42.4372 62.981 37.8627 56.1045 37.8627 48.4154V39.8507C37.8627 39.3083 38.2109 38.827 38.7265 38.6579C41.3908 37.7815 43.7379 36.1702 45.5133 33.998C45.7519 33.7059 46.1093 33.5368 46.486 33.5368H53.5139C53.8989 33.5368 54.3526 33.8348 54.4865 33.998C56.2618 36.1702 58.6089 37.7815 61.2733 38.6579C61.6408 38.7784 61.922 39.0572 62.0543 39.4046C62.056 39.4079 62.0568 39.4121 62.0584 39.4154C62.0903 39.5017 62.1128 39.5921 62.1255 39.685C62.1263 39.6942 62.1279 39.7042 62.1288 39.7134C62.1339 39.7586 62.1372 39.8038 62.1372 39.8507V48.4154Z" fill="#030DF2"/>
</g>
</g>
<defs>
<clipPath id="clip0">
<rect width="42.8571" height="42.8571" fill="white" transform="translate(28.5714 28.5714)"/>
</clipPath>
<clipPath id="clip1">
<rect width="42.8571" height="42.8571" fill="white" transform="translate(28.5714 28.5714)"/>
</clipPath>
</defs>
</svg>
