<svg width="100" height="100" viewBox="0 0 100 100" fill="none" xmlns="http://www.w3.org/2000/svg">
<rect width="100" height="100" rx="16" fill="#F6FAFD"/>
<g clip-path="url(#clip0)">
<g clip-path="url(#clip1)">
<path d="M58.264 51.3393H41.7359C41.501 51.3393 41.3113 51.5328 41.3173 51.7676C41.3673 53.705 41.4985 55.5558 41.6981 57.3058C41.7268 57.5576 41.97 57.7277 42.2156 57.6652C44.7425 57.0214 47.3466 56.6964 50 56.6964C52.6533 56.6964 55.2574 57.0214 57.7843 57.6652C58.0298 57.7277 58.2731 57.5576 58.3018 57.3058C58.5014 55.5557 58.6327 53.7049 58.6826 51.7676C58.6887 51.5328 58.4989 51.3393 58.264 51.3393Z" fill="#39CF2C"/>
<path d="M58.3018 42.6941C58.273 42.4423 58.0299 42.2722 57.7843 42.3347C55.2574 42.9786 52.6533 43.3036 49.9999 43.3036C47.3466 43.3036 44.7425 42.9786 42.2156 42.3348C41.9701 42.2723 41.7268 42.4424 41.6981 42.6941C41.4985 44.4443 41.3673 46.2951 41.3173 48.2324C41.3113 48.4673 41.5009 48.6607 41.7359 48.6607H58.2639C58.4988 48.6607 58.6886 48.4672 58.6825 48.2324C58.6326 46.295 58.5013 44.4442 58.3018 42.6941Z" fill="#39CF2C"/>
<path d="M57.7844 39.1618C57.0344 35.0121 55.8849 31.6089 54.5582 29.2039C54.4991 29.0967 54.3955 29.0212 54.2755 28.997C52.8831 28.7164 51.4528 28.5714 50 28.5714C48.5472 28.5714 47.1169 28.7164 45.7245 28.9971C45.6045 29.0212 45.5009 29.0968 45.4418 29.204C44.1151 31.6089 42.9656 35.0121 42.2156 39.1619C42.1771 39.3743 42.3078 39.5824 42.5162 39.6386C44.9035 40.2816 47.4124 40.625 50 40.625C52.5876 40.625 55.0965 40.2816 57.4838 39.6385C57.6922 39.5824 57.8229 39.3743 57.7844 39.1618Z" fill="#39CF2C"/>
<path d="M58.907 30.4993C58.5659 30.3434 58.2106 30.6839 58.3455 31.0338C58.3478 31.04 58.3502 31.0462 58.3526 31.0524C59.1672 33.1705 59.829 35.5751 60.3242 38.1755C60.3736 38.4354 60.6504 38.5835 60.8951 38.4831C62.5426 37.807 64.1138 36.9821 65.5925 36.0258C65.8115 35.8843 65.8508 35.579 65.6732 35.3881C65.5031 35.2054 65.3296 35.0251 65.1521 34.8477C63.3147 33.0101 61.2017 31.5485 58.907 30.4993Z" fill="#39CF2C"/>
<path d="M61.78 48.6607H70.9359C71.1813 48.6607 71.3736 48.4505 71.3534 48.2059C71.0575 44.6134 69.8752 41.2024 67.9121 38.2285C67.7837 38.0339 67.5229 37.9812 67.3283 38.1097C65.729 39.1663 64.0336 40.0758 62.2512 40.8296C61.8856 40.9843 61.5178 41.1315 61.148 41.2718C60.9665 41.3406 60.8556 41.5231 60.8798 41.7157C61.1433 43.8167 61.3065 46.0082 61.3622 48.2516C61.3678 48.479 61.5527 48.6607 61.78 48.6607Z" fill="#39CF2C"/>
<path d="M42.2156 60.8381C42.9656 64.9878 44.1151 68.391 45.4418 70.7961C45.5009 70.9032 45.6045 70.9788 45.7245 71.003C47.1169 71.2836 48.5472 71.4285 50 71.4285C51.4528 71.4285 52.8831 71.2836 54.2755 71.0029C54.3955 70.9787 54.4991 70.9031 54.5582 70.796C55.8849 68.391 57.0344 64.9878 57.7844 60.8381C57.8229 60.6256 57.6922 60.4175 57.4838 60.3614C55.0965 59.7183 52.5876 59.375 50 59.375C47.4124 59.375 44.9035 59.7183 42.5162 60.3614C42.3078 60.4175 42.1771 60.6257 42.2156 60.8381Z" fill="#39CF2C"/>
<path d="M37.7488 59.1703C38.1144 59.0156 38.4822 58.8684 38.852 58.7282C39.0335 58.6593 39.1444 58.4768 39.1202 58.2842C38.8567 56.1833 38.6935 53.9917 38.6378 51.7483C38.6321 51.521 38.4473 51.3393 38.22 51.3393H29.0641C28.8187 51.3393 28.6264 51.5495 28.6466 51.7941C28.9425 55.3866 30.1248 58.7975 32.0879 61.7715C32.2163 61.966 32.4771 62.0188 32.6717 61.8903C34.271 60.8336 35.9664 59.9241 37.7488 59.1703Z" fill="#39CF2C"/>
<path d="M65.5926 63.9742C64.114 63.0179 62.5427 62.1929 60.8953 61.5169C60.6505 61.4165 60.3738 61.5646 60.3243 61.8245C59.8291 64.4249 59.1674 66.8295 58.3527 68.9476C58.3504 68.9538 58.3479 68.96 58.3456 68.9662C58.2107 69.3161 58.5661 69.6566 58.9071 69.5007C61.2019 68.4515 63.3148 66.9899 65.1523 65.1523C65.3298 64.9749 65.5033 64.7946 65.6734 64.6119C65.851 64.421 65.8115 64.1157 65.5926 63.9742Z" fill="#39CF2C"/>
<path d="M61.3622 51.7483C61.3065 53.9917 61.1432 56.1834 60.8798 58.2842C60.8556 58.4768 60.9665 58.6594 61.148 58.7282C61.5178 58.8684 61.8856 59.0156 62.2512 59.1703C64.0336 59.9242 65.729 60.8337 67.3283 61.8902C67.5229 62.0187 67.7836 61.966 67.9121 61.7714C69.8751 58.7976 71.0575 55.3866 71.3534 51.794C71.3736 51.5494 71.1813 51.3392 70.9359 51.3392H61.78C61.5527 51.3393 61.3678 51.521 61.3622 51.7483Z" fill="#39CF2C"/>
<path d="M34.4074 36.0258C35.8861 36.9821 37.4573 37.8071 39.1048 38.4831C39.3495 38.5835 39.6263 38.4354 39.6757 38.1755C40.1709 35.5751 40.8326 33.1705 41.6473 31.0524C41.6497 31.0462 41.6521 31.04 41.6545 31.0338C41.7893 30.6839 41.434 30.3434 41.093 30.4993C38.7983 31.5486 36.6853 33.0102 34.8477 34.8477C34.6703 35.0251 34.4967 35.2054 34.3266 35.3881C34.1491 35.579 34.1885 35.8843 34.4074 36.0258Z" fill="#39CF2C"/>
<path d="M38.6288 48.6607C38.6741 46.2746 38.8408 43.9441 39.1202 41.7157C39.1444 41.5231 39.0335 41.3405 38.852 41.2717C38.4822 41.1315 38.1144 40.9843 37.7488 40.8296C35.9664 40.0757 34.271 39.1662 32.6717 38.1097C32.4771 37.9812 32.2164 38.0339 32.0879 38.2285C30.1248 41.2024 28.9425 44.6133 28.6466 48.2059C28.6264 48.4505 28.8187 48.6607 29.0641 48.6607H38.6288Z" fill="#39CF2C"/>
<path d="M41.093 69.5005C41.434 69.6564 41.7893 69.3159 41.6545 68.966C41.6521 68.9599 41.6497 68.9537 41.6474 68.9475C40.8327 66.8294 40.171 64.4248 39.6758 61.8243C39.6263 61.5644 39.3496 61.4163 39.1048 61.5168C37.4573 62.1929 35.8861 63.0178 34.4074 63.974C34.1885 64.1156 34.1491 64.4209 34.3267 64.6117C34.4968 64.7944 34.6703 64.9747 34.8478 65.1522C36.6852 66.9898 38.7982 68.4513 41.093 69.5005Z" fill="#39CF2C"/>
</g>
</g>
<defs>
<clipPath id="clip0">
<rect width="42.8571" height="42.8571" fill="white" transform="translate(28.5714 28.5714)"/>
</clipPath>
<clipPath id="clip1">
<rect width="42.8571" height="42.8571" fill="white" transform="translate(28.5714 28.5714)"/>
</clipPath>
</defs>
</svg>
