<svg width="150" height="98" viewBox="0 0 150 98" fill="none" xmlns="http://www.w3.org/2000/svg">
<path opacity="0.3" d="M75.943 97.082C116.844 97.082 150 94.3705 150 91.0256C150 87.6808 116.844 84.9692 75.943 84.9692C35.0424 84.9692 1.88599 87.6808 1.88599 91.0256C1.88599 94.3705 35.0424 97.082 75.943 97.082Z" fill="#E6E6E6"/>
<path d="M136.764 87.4238H66.9702V35.823C66.9702 34.6306 67.4439 33.487 68.2871 32.6438C69.1303 31.8006 70.2739 31.3269 71.4663 31.3269H136.764C137.584 31.3269 138.396 31.4885 139.154 31.8024C139.911 32.1164 140.6 32.5765 141.179 33.1566C141.759 33.7367 142.218 34.4252 142.532 35.183C142.845 35.9408 143.006 36.7529 143.006 37.5729V81.173C143.007 81.9934 142.846 82.806 142.533 83.5643C142.22 84.3227 141.761 85.0118 141.181 85.5924C140.601 86.173 139.913 86.6335 139.155 86.9478C138.397 87.262 137.585 87.4238 136.764 87.4238Z" fill="#68E1FD"/>
<path opacity="0.08" d="M136.764 87.4238H66.9702V35.823C66.9702 34.6306 67.4439 33.487 68.2871 32.6438C69.1303 31.8006 70.2739 31.3269 71.4663 31.3269H136.764C137.584 31.3269 138.396 31.4885 139.154 31.8024C139.911 32.1164 140.6 32.5765 141.179 33.1566C141.759 33.7367 142.218 34.4252 142.532 35.183C142.845 35.9408 143.006 36.7529 143.006 37.5729V81.173C143.007 81.9934 142.846 82.806 142.533 83.5643C142.22 84.3227 141.761 85.0118 141.181 85.5924C140.601 86.173 139.913 86.6335 139.155 86.9478C138.397 87.262 137.585 87.4238 136.764 87.4238Z" fill="black"/>
<path opacity="0.08" d="M89.266 46.1715C96.6134 46.1715 102.57 40.2152 102.57 32.8678C102.57 25.5204 96.6134 19.5642 89.266 19.5642C81.9186 19.5642 75.9624 25.5204 75.9624 32.8678C75.9624 40.2152 81.9186 46.1715 89.266 46.1715Z" fill="black"/>
<path d="M89.266 46.1715C96.6134 46.1715 102.57 40.2152 102.57 32.8678C102.57 25.5204 96.6134 19.5642 89.266 19.5642C81.9186 19.5642 75.9624 25.5204 75.9624 32.8678C75.9624 40.2152 81.9186 46.1715 89.266 46.1715Z" fill="#FFD200"/>
<g opacity="0.08">
<path opacity="0.08" d="M89.9125 42.1662C97.2599 42.1662 103.216 36.21 103.216 28.8626C103.216 21.5152 97.2599 15.559 89.9125 15.559C82.5651 15.559 76.6089 21.5152 76.6089 28.8626C76.6089 36.21 82.5651 42.1662 89.9125 42.1662Z" fill="black"/>
</g>
<path opacity="0.08" d="M89.266 46.1715C96.6134 46.1715 102.57 40.2152 102.57 32.8678C102.57 25.5204 96.6134 19.5642 89.266 19.5642C81.9186 19.5642 75.9624 25.5204 75.9624 32.8678C75.9624 40.2152 81.9186 46.1715 89.266 46.1715Z" fill="black"/>
<path d="M89.9125 42.1662C97.2599 42.1662 103.216 36.21 103.216 28.8626C103.216 21.5152 97.2599 15.559 89.9125 15.559C82.5651 15.559 76.6089 21.5152 76.6089 28.8626C76.6089 36.21 82.5651 42.1662 89.9125 42.1662Z" fill="#FFD200"/>
<path d="M90.3452 22.9083C90.7195 22.9083 90.8312 23.0396 90.8312 23.3944V24.2353C91.4918 24.3061 92.1208 24.5552 92.6507 24.9559C93.1807 25.3566 93.5918 25.8938 93.84 26.5101C94.0344 26.9038 93.9518 27.1177 93.5143 27.3121L92.7123 27.6718C92.3332 27.8516 92.1533 27.7738 91.9395 27.3801C91.7731 26.9732 91.4798 26.6309 91.1032 26.4041C90.7266 26.1773 90.2869 26.078 89.8494 26.1212C88.4544 26.1212 87.8176 26.5295 87.8176 27.4628C87.8503 27.7473 87.9805 28.0117 88.1861 28.211C88.3917 28.4104 88.6599 28.5325 88.9453 28.5564C89.3344 28.6433 89.7291 28.7034 90.1264 28.7363C90.8693 28.7715 91.603 28.9156 92.304 29.164C92.6576 29.2754 92.9873 29.4518 93.2762 29.6841C93.5662 29.9896 93.7925 30.3498 93.9418 30.7437C94.0912 31.1376 94.1607 31.5573 94.1462 31.9783C94.1462 33.7622 92.9505 34.9725 90.841 35.2836V36.1342C90.841 36.5085 90.7243 36.6203 90.3549 36.6203H89.4508C89.0765 36.6203 88.9648 36.489 88.9648 36.1342V35.2982C88.2319 35.248 87.5303 34.9821 86.9483 34.5341C86.3662 34.0861 85.9296 33.4759 85.6935 32.7803C85.6587 32.7072 85.6409 32.627 85.6416 32.546C85.6423 32.465 85.6614 32.3852 85.6974 32.3126C85.7335 32.24 85.7856 32.1766 85.8497 32.1271C85.9139 32.0776 85.9885 32.0434 86.0678 32.0269L86.8698 31.7304C87.2781 31.5846 87.4579 31.6818 87.6378 32.0901C87.9975 33.0104 88.7347 33.4689 89.8494 33.4657C91.3562 33.4657 92.1047 32.9796 92.1047 32.0075C92.1182 31.7843 92.0566 31.5631 91.9298 31.379C91.803 31.1948 91.6181 31.0585 91.4048 30.9916C90.8817 30.8094 90.3348 30.7046 89.7813 30.6805C89.0298 30.6334 88.2902 30.4694 87.5892 30.1945C87.2352 30.0748 86.9058 29.892 86.6171 29.6549C86.3237 29.3662 86.0936 29.0196 85.9413 28.6372C85.789 28.2548 85.7179 27.845 85.7324 27.4336C85.7324 25.6643 86.8455 24.488 88.9404 24.2061V23.4187C88.9404 23.0396 89.0717 22.9326 89.4265 22.9326L90.3452 22.9083Z" fill="white"/>
<path opacity="0.08" d="M120.287 52.9229C127.634 52.9229 133.59 46.9667 133.59 39.6193C133.59 32.2719 127.634 26.3157 120.287 26.3157C112.939 26.3157 106.983 32.2719 106.983 39.6193C106.983 46.9667 112.939 52.9229 120.287 52.9229Z" fill="black"/>
<path d="M120.287 52.9229C127.634 52.9229 133.59 46.9667 133.59 39.6193C133.59 32.2719 127.634 26.3157 120.287 26.3157C112.939 26.3157 106.983 32.2719 106.983 39.6193C106.983 46.9667 112.939 52.9229 120.287 52.9229Z" fill="#FFD200"/>
<g opacity="0.08">
<path opacity="0.08" d="M118.649 49.2093C125.996 49.2093 131.952 43.2531 131.952 35.9057C131.952 28.5583 125.996 22.6021 118.649 22.6021C111.301 22.6021 105.345 28.5583 105.345 35.9057C105.345 43.2531 111.301 49.2093 118.649 49.2093Z" fill="black"/>
</g>
<path opacity="0.08" d="M120.287 52.9229C127.634 52.9229 133.59 46.9667 133.59 39.6193C133.59 32.2719 127.634 26.3157 120.287 26.3157C112.939 26.3157 106.983 32.2719 106.983 39.6193C106.983 46.9667 112.939 52.9229 120.287 52.9229Z" fill="black"/>
<path d="M118.649 49.2093C125.996 49.2093 131.952 43.2531 131.952 35.9057C131.952 28.5583 125.996 22.6021 118.649 22.6021C111.301 22.6021 105.345 28.5583 105.345 35.9057C105.345 43.2531 111.301 49.2093 118.649 49.2093Z" fill="#FFD200"/>
<path d="M115.771 30.6805C116.087 30.4763 116.257 30.5201 116.457 30.836L116.894 31.5116C117.486 31.21 118.149 31.0755 118.812 31.1226C119.475 31.1697 120.113 31.3966 120.656 31.779C121.035 32.0026 121.084 32.2262 120.821 32.6296L120.335 33.3684C120.117 33.7232 119.922 33.7524 119.529 33.5385C119.167 33.2928 118.737 33.1684 118.3 33.1832C117.863 33.1981 117.442 33.3514 117.098 33.6212C115.932 34.3794 115.64 35.0794 116.126 35.8522C116.309 36.073 116.563 36.224 116.845 36.2798C117.126 36.3355 117.418 36.2927 117.672 36.1584C118.044 36.018 118.408 35.8557 118.761 35.6724C119.401 35.2955 120.094 35.0169 120.817 34.8461C121.172 34.748 121.543 34.7183 121.91 34.7586C122.32 34.8567 122.706 35.0364 123.045 35.2869C123.384 35.5374 123.669 35.8537 123.884 36.2168C124.856 37.7138 124.511 39.3811 122.912 40.7906L123.373 41.5003C123.577 41.8162 123.553 41.9864 123.237 42.1954L122.484 42.6814C122.168 42.8856 121.998 42.8467 121.784 42.5308L121.327 41.8308C120.684 42.187 119.951 42.3456 119.219 42.2868C118.486 42.228 117.788 41.9544 117.21 41.5003C117.14 41.4582 117.081 41.4007 117.038 41.3322C116.994 41.2636 116.966 41.1859 116.958 41.1051C116.949 41.0242 116.958 40.9424 116.986 40.866C117.014 40.7895 117.059 40.7205 117.118 40.6643L117.628 39.9789C117.891 39.6338 118.114 39.6144 118.469 39.8623C119.271 40.4358 120.136 40.4164 121.069 39.8137C122.333 38.9922 122.707 38.1853 122.182 37.3833C122.074 37.1862 121.902 37.0313 121.695 36.9431C121.488 36.855 121.258 36.8389 121.04 36.8973C120.503 37.0277 119.989 37.2374 119.514 37.5194C118.859 37.8902 118.151 38.159 117.414 38.3166C117.058 38.4006 116.689 38.422 116.325 38.3798C115.924 38.294 115.544 38.1268 115.21 37.8886C114.875 37.6503 114.593 37.346 114.381 36.9945C113.409 35.5363 113.71 33.9177 115.319 32.5421L114.882 31.8713C114.678 31.5554 114.716 31.3853 115.028 31.1665L115.771 30.6805Z" fill="white"/>
<path d="M66.9702 35.8231H131.486C133.222 35.8231 134.888 36.5129 136.115 37.7408C137.343 38.9686 138.033 40.634 138.033 42.3704V85.3678C138.033 87.1043 137.343 88.7696 136.115 89.9975C134.888 91.2253 133.222 91.9151 131.486 91.9151H66.9702V35.8231Z" fill="#68E1FD"/>
<path d="M120.165 58.012H143.579V69.7261H120.165C119.396 69.7261 118.634 69.5746 117.924 69.2803C117.213 68.986 116.567 68.5545 116.024 68.0106C115.48 67.4668 115.048 66.8211 114.754 66.1105C114.46 65.3998 114.308 64.6382 114.308 63.869C114.308 62.3157 114.925 60.8259 116.024 59.7275C117.122 58.629 118.612 58.012 120.165 58.012Z" fill="#24285B"/>
<path d="M121.429 66.8487C123.075 66.8487 124.409 65.5147 124.409 63.8691C124.409 62.2235 123.075 60.8895 121.429 60.8895C119.783 60.8895 118.449 62.2235 118.449 63.8691C118.449 65.5147 119.783 66.8487 121.429 66.8487Z" fill="#FFD200"/>
<path opacity="0.58" d="M57.5844 87.1517C57.5844 87.1517 53.8271 86.1261 53.0105 82.6264C53.0105 82.6264 58.8433 81.4502 58.9988 87.4871L57.5844 87.1517Z" fill="#68E1FD"/>
<path opacity="0.73" d="M58.0459 86.7774C58.0459 86.7774 55.4212 82.6264 57.73 78.7476C57.73 78.7476 62.158 81.557 60.1895 86.7871L58.0459 86.7774Z" fill="#68E1FD"/>
<path d="M58.7217 86.7822C58.7217 86.7822 60.1118 82.4077 64.3017 81.5668C64.3017 81.5668 65.0892 84.4151 61.5895 86.792L58.7217 86.7822Z" fill="#68E1FD"/>
<path d="M55.9949 86.6851L56.758 91.8957L61.5555 91.9151L62.2651 86.7094L55.9949 86.6851Z" fill="#24285B"/>
<path d="M44.6938 87.4628C44.6938 87.4628 46.152 88.8286 47.7317 88.1821C49.3114 87.5357 50.4683 88.814 49.3017 89.8931C48.1352 90.9722 43.7314 91.0256 43.7314 91.0256L42.4336 88.187L44.6938 87.4628Z" fill="#68E1FD"/>
<path d="M20.128 86.826C20.128 86.826 19.4135 88.6925 20.6141 89.9125C21.8146 91.1325 21.0612 92.6831 19.6419 92.0123C18.2226 91.3416 16.4971 87.278 16.4971 87.278L18.6163 84.9935L20.128 86.826Z" fill="#68E1FD"/>
<path d="M16.2152 51.7417C16.2152 51.7417 14.6744 57.8321 17.3526 60.8311C20.0308 63.8302 24.1575 78.0282 17.3526 85.1344L20.0357 87.6571C20.0357 87.6571 31.7888 81.6639 28.4349 60.0486L36.8244 51.7466L16.2152 51.7417Z" fill="#24285B"/>
<path d="M36.8244 17.0511C36.8244 17.0511 45.1264 19.1655 45.1847 26.0385C45.243 32.9115 41.5052 44.9416 46.8422 45.9235C52.1792 46.9053 55.3726 32.0511 55.3726 32.0511L59.1785 33.5871C59.1785 33.5871 55.1296 58.9598 41.1358 54.7747C27.1419 50.5897 36.8244 17.0511 36.8244 17.0511Z" fill="#68E1FD"/>
<path opacity="0.44" d="M36.8244 17.0511C36.8244 17.0511 45.1264 19.1655 45.1847 26.0385C45.243 32.9115 41.5052 44.9416 46.8422 45.9235C52.1792 46.9053 55.3726 32.0511 55.3726 32.0511L59.1785 33.5871C59.1785 33.5871 55.1296 58.9598 41.1358 54.7747C27.1419 50.5897 36.8244 17.0511 36.8244 17.0511Z" fill="white"/>
<path d="M29.3584 5.76477L26.8308 14.6792L31.8422 15.7194L31.672 8.81726L29.3584 5.76477Z" fill="#F4A28C"/>
<path opacity="0.31" d="M31.7743 10.3241C31.162 10.0961 30.6298 9.69395 30.2432 9.16724C30.2432 9.16724 30.1168 10.8587 31.7694 12.7447L31.7743 10.3241Z" fill="#CE8172"/>
<path d="M26.8308 14.6792L29.7958 15.2965C29.7958 15.2965 43.4057 16.7547 43.9549 24.4394C44.5042 32.1241 36.8195 51.7417 36.8195 51.7417H16.2151C16.2151 51.7417 -0.301395 12.6474 26.8308 14.6792Z" fill="#68E1FD"/>
<path opacity="0.09" d="M25.0518 21.8049C25.0518 21.8049 26.7142 26.5975 22.3541 29.7278C17.9941 32.8581 20.1231 44.65 24.8914 46.536C29.6597 48.4219 21.9118 52.5097 18.6163 50.8425C15.3208 49.1753 14.8396 48.0525 14.8396 48.0525C14.8396 48.0525 11.7725 39.1867 11.4371 33.5288C11.1017 27.871 25.0518 21.8049 25.0518 21.8049Z" fill="black"/>
<path d="M25.0519 21.8049C25.0519 17.581 20.7745 14.6986 16.7596 16.0159C13.2696 17.1484 9.0117 19.2725 6.42582 23.1513C1.45823 30.6076 -9.90113 52.4271 18.9323 53.2437L19.7781 50.0356C19.7781 50.0356 2.46925 45.2479 10.1102 35.1231C16.0548 27.244 25.0665 27.7738 25.0519 21.8049Z" fill="#68E1FD"/>
<path opacity="0.44" d="M25.0519 21.8049C25.0519 17.581 20.7745 14.6986 16.7596 16.0159C13.2696 17.1484 9.0117 19.2725 6.42582 23.1513C1.45823 30.6076 -9.90113 52.4271 18.9323 53.2437L19.7781 50.0356C19.7781 50.0356 2.46925 45.2479 10.1102 35.1231C16.0548 27.244 25.0665 27.7738 25.0519 21.8049Z" fill="white"/>
<path d="M56.2622 32.4109C56.2622 32.4109 56.4809 28.7363 57.9537 27.6961C59.4265 26.6559 59.1786 29.2904 59.1786 29.2904C59.1786 29.2904 60.6368 27.5697 61.8811 28.3717C63.1255 29.1737 59.1786 33.5872 59.1786 33.5872L56.2622 32.4109Z" fill="#F4A28C"/>
<path d="M34.5497 6.02231C34.5497 6.02231 34.297 8.8415 33.5047 10.6011C33.4281 10.772 33.3183 10.926 33.1817 11.0542C33.0451 11.1823 32.8845 11.2821 32.709 11.3477C32.5336 11.4132 32.3469 11.4433 32.1597 11.4361C31.9725 11.4289 31.7887 11.3847 31.6187 11.3059C31.0552 11.0893 30.5663 10.7143 30.211 10.2262C29.8557 9.73804 29.6491 9.15757 29.6161 8.55472L29.2127 5.97371C29.1872 5.44846 29.3255 4.92826 29.6085 4.48503C29.8915 4.04181 30.3052 3.69747 30.7924 3.49963C32.5617 2.64901 34.7879 4.3065 34.5497 6.02231Z" fill="#F4A28C"/>
<path d="M34.3017 7.79163L34.885 9.00193C34.9177 9.07048 34.9325 9.14616 34.9282 9.22197C34.9239 9.29778 34.9006 9.37129 34.8604 9.4357C34.8202 9.50012 34.7644 9.55338 34.6982 9.59055C34.632 9.62773 34.5575 9.64762 34.4816 9.6484H33.3831L34.3017 7.79163Z" fill="#F4A28C"/>
<path d="M36.8243 51.7417L45.4423 87.6523L41.1357 88.2842C41.1357 88.2842 32.5178 63.6698 26.8308 58.6341L36.8243 51.7417Z" fill="#24285B"/>
<path d="M19.6615 50.4829C19.6615 50.4829 22.7383 49.9968 23.7639 52.1209C24.7895 54.245 18.9324 53.2486 18.9324 53.2486L19.6615 50.4829Z" fill="#F4A28C"/>
<path d="M28.5176 8.72493L30.2432 8.30691L31.2931 7.79168C31.2931 7.79168 32.0465 7.74307 31.7791 5.91061C31.7791 5.91061 35.4829 7.18896 35.969 4.99194C36.5037 2.59564 33.738 1.53115 31.7791 1.7353C31.2083 1.80405 30.6672 2.028 30.2147 2.38278C29.7622 2.73757 29.4156 3.20962 29.2127 3.74761C29.2127 3.74761 26.131 3.25668 28.5176 8.72493Z" fill="#24285B"/>
<path d="M31.1666 7.87913C31.1666 7.87913 31.3367 6.80493 30.5153 6.7466C29.6938 6.68827 29.4411 8.23882 30.5153 8.57421L31.1666 7.87913Z" fill="#F4A28C"/>
<path opacity="0.08" d="M61.9152 30.6124C69.2626 30.6124 75.2188 24.6561 75.2188 17.3088C75.2188 9.96136 69.2626 4.00513 61.9152 4.00513C54.5678 4.00513 48.6116 9.96136 48.6116 17.3088C48.6116 24.6561 54.5678 30.6124 61.9152 30.6124Z" fill="black"/>
<path d="M61.9152 30.6124C69.2626 30.6124 75.2188 24.6561 75.2188 17.3088C75.2188 9.96136 69.2626 4.00513 61.9152 4.00513C54.5678 4.00513 48.6116 9.96136 48.6116 17.3088C48.6116 24.6561 54.5678 30.6124 61.9152 30.6124Z" fill="#FFD200"/>
<g opacity="0.08">
<path opacity="0.08" d="M62.5663 26.6073C69.9137 26.6073 75.87 20.651 75.87 13.3036C75.87 5.95624 69.9137 0 62.5663 0C55.2189 0 49.2627 5.95624 49.2627 13.3036C49.2627 20.651 55.2189 26.6073 62.5663 26.6073Z" fill="black"/>
</g>
<path opacity="0.08" d="M61.9152 30.6124C69.2626 30.6124 75.2188 24.6561 75.2188 17.3088C75.2188 9.96136 69.2626 4.00513 61.9152 4.00513C54.5678 4.00513 48.6116 9.96136 48.6116 17.3088C48.6116 24.6561 54.5678 30.6124 61.9152 30.6124Z" fill="black"/>
<path d="M62.5663 26.6073C69.9137 26.6073 75.87 20.651 75.87 13.3036C75.87 5.95624 69.9137 0 62.5663 0C55.2189 0 49.2627 5.95624 49.2627 13.3036C49.2627 20.651 55.2189 26.6073 62.5663 26.6073Z" fill="#FFD200"/>
<path d="M62.9942 7.34937C63.3685 7.34937 63.4803 7.4806 63.4803 7.83543V8.68118C64.1408 8.75005 64.7701 8.99782 65.3002 9.3978C65.8304 9.79779 66.2414 10.3348 66.489 10.9511C66.6883 11.3448 66.6057 11.5587 66.1633 11.7531L65.3613 12.1128C64.9822 12.2927 64.8024 12.2149 64.5933 11.8212C64.4254 11.4143 64.1311 11.0723 63.7539 10.8456C63.3766 10.6189 62.9365 10.5196 62.4984 10.5623C61.1083 10.5623 60.4667 10.9706 60.4667 11.9038C60.4995 12.1891 60.6304 12.4541 60.837 12.6535C61.0435 12.853 61.3129 12.9746 61.5992 12.9974C61.9867 13.0844 62.3797 13.1445 62.7755 13.1773C63.5181 13.2144 64.2515 13.3585 64.953 13.605C65.3066 13.7164 65.6363 13.8928 65.9252 14.1251C66.2161 14.43 66.443 14.7901 66.5924 15.1842C66.7418 15.5782 66.8108 15.9982 66.7952 16.4194C66.7952 18.2032 65.5995 19.4135 63.49 19.7246V20.5752C63.49 20.9495 63.3733 21.0613 63.0039 21.0613H62.1047C61.7256 21.0613 61.6186 20.93 61.6186 20.5752V19.7197C60.8858 19.6695 60.1842 19.4037 59.6021 18.9557C59.0201 18.5077 58.5835 17.8975 58.3474 17.2019C58.3126 17.1284 58.295 17.048 58.2959 16.9666C58.2969 16.8853 58.3164 16.8053 58.353 16.7326C58.3895 16.66 58.4422 16.5966 58.5069 16.5474C58.5716 16.4982 58.6468 16.4643 58.7265 16.4485L59.5285 16.152C59.9368 16.0062 60.1167 16.1034 60.2965 16.5117C60.6562 17.4288 61.3918 17.8873 62.5033 17.8873C64.0101 17.8873 64.7635 17.4012 64.7635 16.4291C64.7775 16.2051 64.7156 15.983 64.5877 15.7986C64.4598 15.6142 64.2734 15.4784 64.0587 15.4132C63.5371 15.2314 62.9919 15.1266 62.4401 15.1021C61.6888 15.0531 60.9495 14.8892 60.2479 14.616C59.8942 14.4935 59.5651 14.3092 59.2758 14.0717C58.9833 13.7825 58.7541 13.4357 58.6027 13.0534C58.4512 12.671 58.3808 12.2613 58.396 11.8503C58.396 10.0811 59.5091 8.90477 61.5992 8.62772V7.85973C61.5992 7.4806 61.7304 7.37367 62.0852 7.37367L62.9942 7.34937Z" fill="white"/>
</svg>
