<svg width="400" height="259" viewBox="0 0 400 259" fill="none" xmlns="http://www.w3.org/2000/svg">
<path opacity="0.3" d="M202.515 258.885C311.583 258.885 400 251.655 400 242.735C400 233.815 311.583 226.585 202.515 226.585C93.4465 226.585 5.02923 233.815 5.02923 242.735C5.02923 251.655 93.4465 258.885 202.515 258.885Z" fill="#E6E6E6"/>
<path d="M364.705 233.13H178.587V95.5282C178.587 92.3484 179.85 89.2988 182.099 87.0503C184.347 84.8018 187.397 83.5386 190.577 83.5386H364.705C366.892 83.5386 369.057 83.9695 371.077 84.8067C373.097 85.6439 374.932 86.8709 376.478 88.4178C378.024 89.9646 379.249 91.8008 380.085 93.8215C380.921 95.8422 381.35 98.0078 381.348 100.194V216.461C381.351 218.649 380.923 220.816 380.089 222.838C379.254 224.861 378.028 226.698 376.483 228.247C374.937 229.795 373.101 231.023 371.08 231.861C369.059 232.699 366.893 233.13 364.705 233.13Z" fill="#68E1FD"/>
<path opacity="0.08" d="M364.705 233.13H178.587V95.5282C178.587 92.3484 179.85 89.2988 182.099 87.0503C184.347 84.8018 187.397 83.5386 190.577 83.5386H364.705C366.892 83.5386 369.057 83.9695 371.077 84.8067C373.097 85.6439 374.932 86.8709 376.478 88.4178C378.024 89.9646 379.249 91.8008 380.085 93.8215C380.921 95.8422 381.35 98.0078 381.348 100.194V216.461C381.351 218.649 380.923 220.816 380.089 222.838C379.254 224.861 378.028 226.698 376.483 228.247C374.937 229.795 373.101 231.023 371.08 231.861C369.059 232.699 366.893 233.13 364.705 233.13Z" fill="black"/>
<path opacity="0.08" d="M238.043 123.124C257.636 123.124 273.519 107.24 273.519 87.6474C273.519 68.0544 257.636 52.1711 238.043 52.1711C218.45 52.1711 202.566 68.0544 202.566 87.6474C202.566 107.24 218.45 123.124 238.043 123.124Z" fill="black"/>
<path d="M238.043 123.124C257.636 123.124 273.519 107.24 273.519 87.6474C273.519 68.0544 257.636 52.1711 238.043 52.1711C218.45 52.1711 202.566 68.0544 202.566 87.6474C202.566 107.24 218.45 123.124 238.043 123.124Z" fill="#FFD200"/>
<g opacity="0.08">
<path opacity="0.08" d="M239.767 112.443C259.36 112.443 275.243 96.56 275.243 76.9669C275.243 57.3739 259.36 41.4906 239.767 41.4906C220.174 41.4906 204.29 57.3739 204.29 76.9669C204.29 96.56 220.174 112.443 239.767 112.443Z" fill="black"/>
</g>
<path opacity="0.08" d="M238.043 123.124C257.636 123.124 273.519 107.24 273.519 87.6474C273.519 68.0544 257.636 52.1711 238.043 52.1711C218.45 52.1711 202.566 68.0544 202.566 87.6474C202.566 107.24 218.45 123.124 238.043 123.124Z" fill="black"/>
<path d="M239.767 112.443C259.36 112.443 275.243 96.56 275.243 76.9669C275.243 57.3739 259.36 41.4906 239.767 41.4906C220.174 41.4906 204.29 57.3739 204.29 76.9669C204.29 96.56 220.174 112.443 239.767 112.443Z" fill="#FFD200"/>
<path d="M240.92 61.0888C241.918 61.0888 242.217 61.4388 242.217 62.385V64.6274C243.978 64.8163 245.655 65.4805 247.068 66.549C248.482 67.6175 249.578 69.0501 250.24 70.6935C250.758 71.7434 250.538 72.3137 249.371 72.8322L247.233 73.7913C246.222 74.2709 245.742 74.0635 245.172 73.0136C244.728 71.9285 243.946 71.0157 242.942 70.4108C241.938 69.8059 240.765 69.5414 239.598 69.6565C235.878 69.6565 234.18 70.7453 234.18 73.234C234.267 73.9927 234.615 74.6977 235.163 75.2294C235.711 75.7611 236.426 76.0865 237.187 76.1504C238.225 76.3821 239.277 76.5424 240.337 76.63C242.318 76.7239 244.275 77.1082 246.144 77.7706C247.087 78.0676 247.966 78.538 248.736 79.1575C249.51 79.9723 250.113 80.9328 250.511 81.9832C250.91 83.0336 251.095 84.1528 251.056 85.2755C251.056 90.0324 247.868 93.2599 242.242 94.0895V96.3578C242.242 97.3558 241.931 97.654 240.946 97.654H238.535C237.537 97.654 237.239 97.304 237.239 96.3578V94.1283C235.285 93.9945 233.414 93.2856 231.862 92.0909C230.31 90.8961 229.146 89.269 228.516 87.4142C228.423 87.2191 228.376 87.0054 228.378 86.7893C228.379 86.5732 228.43 86.3604 228.526 86.1669C228.622 85.9734 228.761 85.8042 228.932 85.6723C229.104 85.5403 229.302 85.4489 229.514 85.4051L231.653 84.6144C232.741 84.2256 233.221 84.4848 233.701 85.5736C234.66 88.0277 236.626 89.2504 239.598 89.2418C243.616 89.2418 245.612 87.9456 245.612 85.3532C245.648 84.7581 245.484 84.1681 245.146 83.6771C244.808 83.1862 244.315 82.8226 243.746 82.6442C242.351 82.1583 240.893 81.8789 239.417 81.8147C237.413 81.6889 235.44 81.2516 233.571 80.5185C232.627 80.1995 231.749 79.7121 230.979 79.0797C230.196 78.3098 229.583 77.3856 229.177 76.3659C228.771 75.3461 228.581 74.2531 228.62 73.1562C228.62 68.4381 231.588 65.3014 237.174 64.5496V62.4498C237.174 61.4388 237.524 61.1536 238.471 61.1536L240.92 61.0888Z" fill="white"/>
<path opacity="0.08" d="M320.765 141.128C340.358 141.128 356.241 125.244 356.241 105.651C356.241 86.0583 340.358 70.175 320.765 70.175C301.172 70.175 285.288 86.0583 285.288 105.651C285.288 125.244 301.172 141.128 320.765 141.128Z" fill="black"/>
<path d="M320.765 141.128C340.358 141.128 356.241 125.244 356.241 105.651C356.241 86.0583 340.358 70.175 320.765 70.175C301.172 70.175 285.288 86.0583 285.288 105.651C285.288 125.244 301.172 141.128 320.765 141.128Z" fill="#FFD200"/>
<g opacity="0.08">
<path opacity="0.08" d="M316.397 131.225C335.99 131.225 351.873 115.342 351.873 95.7486C351.873 76.1555 335.99 60.2722 316.397 60.2722C296.804 60.2722 280.92 76.1555 280.92 95.7486C280.92 115.342 296.804 131.225 316.397 131.225Z" fill="black"/>
</g>
<path opacity="0.08" d="M320.765 141.128C340.358 141.128 356.241 125.244 356.241 105.651C356.241 86.0583 340.358 70.175 320.765 70.175C301.172 70.175 285.288 86.0583 285.288 105.651C285.288 125.244 301.172 141.128 320.765 141.128Z" fill="black"/>
<path d="M316.397 131.225C335.99 131.225 351.873 115.342 351.873 95.7486C351.873 76.1555 335.99 60.2722 316.397 60.2722C296.804 60.2722 280.92 76.1555 280.92 95.7486C280.92 115.342 296.804 131.225 316.397 131.225Z" fill="#FFD200"/>
<path d="M308.723 81.8146C309.566 81.2702 310.019 81.3869 310.551 82.2294L311.717 84.0311C313.297 83.2267 315.065 82.868 316.833 82.9936C318.6 83.1192 320.3 83.7244 321.75 84.744C322.761 85.3402 322.89 85.9365 322.191 87.0123L320.894 88.9825C320.311 89.9287 319.793 90.0065 318.743 89.4362C317.779 88.7808 316.631 88.449 315.466 88.4886C314.301 88.5282 313.179 88.9372 312.262 89.6565C309.151 91.6785 308.373 93.545 309.669 95.6059C310.158 96.1948 310.835 96.5974 311.585 96.7461C312.336 96.8948 313.115 96.7806 313.791 96.4225C314.784 96.048 315.753 95.6152 316.695 95.1264C318.402 94.1213 320.25 93.3785 322.178 92.9229C323.126 92.6613 324.116 92.5821 325.094 92.6896C326.187 92.9513 327.217 93.4304 328.121 94.0985C329.025 94.7666 329.785 95.6099 330.356 96.5781C332.949 100.57 332.029 105.016 327.764 108.775L328.995 110.668C329.54 111.51 329.475 111.964 328.633 112.521L326.623 113.817C325.781 114.362 325.327 114.258 324.757 113.415L323.539 111.549C321.825 112.499 319.869 112.922 317.916 112.765C315.963 112.608 314.1 111.879 312.56 110.668C312.374 110.555 312.217 110.402 312.1 110.219C311.984 110.036 311.91 109.829 311.887 109.614C311.863 109.398 311.889 109.18 311.963 108.976C312.037 108.772 312.157 108.588 312.314 108.438L313.675 106.61C314.375 105.69 314.971 105.638 315.917 106.299C318.056 107.829 320.363 107.777 322.852 106.17C326.222 103.979 327.22 101.828 325.82 99.6889C325.53 99.1633 325.073 98.75 324.521 98.5151C323.968 98.2801 323.353 98.237 322.774 98.3927C321.342 98.7405 319.971 99.2997 318.704 100.052C316.956 101.041 315.068 101.757 313.104 102.178C312.154 102.402 311.171 102.459 310.201 102.346C309.13 102.117 308.118 101.672 307.226 101.036C306.334 100.401 305.582 99.5894 305.016 98.652C302.424 94.7634 303.228 90.4472 307.518 86.779L306.351 84.9903C305.807 84.1478 305.911 83.6941 306.74 83.1108L308.723 81.8146Z" fill="white"/>
<path d="M178.587 95.5282H350.629C355.259 95.5282 359.7 97.3677 362.974 100.642C366.249 103.916 368.088 108.357 368.088 112.988V227.647C368.088 232.278 366.249 236.719 362.974 239.993C359.7 243.267 355.259 245.107 350.629 245.107H178.587V95.5282Z" fill="#68E1FD"/>
<path d="M320.441 154.699H382.878V185.936H320.441C318.39 185.936 316.359 185.532 314.464 184.748C312.569 183.963 310.847 182.812 309.396 181.362C307.946 179.911 306.796 178.19 306.011 176.295C305.226 174.4 304.822 172.369 304.822 170.318C304.822 166.175 306.467 162.202 309.396 159.273C312.326 156.344 316.298 154.699 320.441 154.699Z" fill="#24285B"/>
<path d="M323.811 178.263C328.199 178.263 331.756 174.706 331.756 170.318C331.756 165.929 328.199 162.372 323.811 162.372C319.423 162.372 315.865 165.929 315.865 170.318C315.865 174.706 319.423 178.263 323.811 178.263Z" fill="#FFD200"/>
<path opacity="0.58" d="M153.558 232.404C153.558 232.404 143.539 229.669 141.361 220.337C141.361 220.337 156.915 217.2 157.33 233.299L153.558 232.404Z" fill="#68E1FD"/>
<path opacity="0.73" d="M154.789 231.406C154.789 231.406 147.79 220.337 153.947 209.994C153.947 209.994 165.755 217.485 160.506 231.432L154.789 231.406Z" fill="#68E1FD"/>
<path d="M156.591 231.419C156.591 231.419 160.298 219.754 171.471 217.511C171.471 217.511 173.571 225.107 164.239 231.445L156.591 231.419Z" fill="#68E1FD"/>
<path d="M149.32 231.16L151.355 245.055L164.148 245.107L166.04 231.225L149.32 231.16Z" fill="#24285B"/>
<path d="M119.183 233.234C119.183 233.234 123.072 236.876 127.285 235.152C131.497 233.428 134.582 236.837 131.471 239.715C128.36 242.592 116.617 242.735 116.617 242.735L113.156 235.165L119.183 233.234Z" fill="#68E1FD"/>
<path d="M53.6747 231.536C53.6747 231.536 51.7694 236.513 54.9709 239.767C58.1725 243.02 56.1634 247.155 52.3786 245.366C48.5937 243.577 43.9923 232.741 43.9923 232.741L49.6436 226.649L53.6747 231.536Z" fill="#68E1FD"/>
<path d="M43.2405 137.978C43.2405 137.978 39.1316 154.219 46.2736 162.216C53.4155 170.214 64.42 208.075 46.2736 227.025L53.4284 233.752C53.4284 233.752 84.77 217.771 75.8264 160.13L98.1984 137.991L43.2405 137.978Z" fill="#24285B"/>
<path d="M98.1984 45.4698C98.1984 45.4698 120.337 51.1082 120.493 69.4361C120.648 87.7641 110.681 119.844 124.913 122.463C139.145 125.081 147.66 85.4699 147.66 85.4699L157.81 89.5658C157.81 89.5658 147.012 157.226 109.695 146.066C72.3786 134.906 98.1984 45.4698 98.1984 45.4698Z" fill="#68E1FD"/>
<path opacity="0.44" d="M98.1984 45.4698C98.1984 45.4698 120.337 51.1082 120.493 69.4361C120.648 87.7641 110.681 119.844 124.913 122.463C139.145 125.081 147.66 85.4699 147.66 85.4699L157.81 89.5658C157.81 89.5658 147.012 157.226 109.695 146.066C72.3786 134.906 98.1984 45.4698 98.1984 45.4698Z" fill="white"/>
<path d="M78.2891 15.3727L71.549 39.1445L84.9126 41.9184L84.4589 23.5127L78.2891 15.3727Z" fill="#F4A28C"/>
<path opacity="0.31" d="M84.7311 27.5308C83.0983 26.9227 81.6791 25.8504 80.6481 24.4459C80.6481 24.4459 80.3111 28.9566 84.7181 33.9857L84.7311 27.5308Z" fill="#CE8172"/>
<path d="M71.549 39.1445L79.4557 40.7907C79.4557 40.7907 115.749 44.6792 117.213 65.1717C118.678 85.6643 98.1854 137.978 98.1854 137.978H43.2405C43.2405 137.978 -0.803535 33.7265 71.549 39.1445Z" fill="#68E1FD"/>
<path opacity="0.09" d="M66.805 58.1465C66.805 58.1465 71.2379 70.9268 59.6112 79.2742C47.9845 87.6215 53.6618 119.067 66.3773 124.096C79.0928 129.125 58.4317 140.026 49.6436 135.58C40.8555 131.134 39.5723 128.14 39.5723 128.14C39.5723 128.14 31.3935 104.498 30.4991 89.4103C29.6047 74.3228 66.805 58.1465 66.805 58.1465Z" fill="black"/>
<path d="M66.805 58.1465C66.805 46.8827 55.3986 39.1964 44.6922 42.709C35.3857 45.7291 24.0312 51.3934 17.1355 61.7369C3.88861 81.6202 -26.403 139.806 50.4861 141.983L52.7415 133.428C52.7415 133.428 6.58466 120.661 26.9605 93.6617C42.8128 72.6507 66.8439 74.0635 66.805 58.1465Z" fill="#68E1FD"/>
<path opacity="0.44" d="M66.805 58.1465C66.805 46.8827 55.3986 39.1964 44.6922 42.709C35.3857 45.7291 24.0312 51.3934 17.1355 61.7369C3.88861 81.6202 -26.403 139.806 50.4861 141.983L52.7415 133.428C52.7415 133.428 6.58466 120.661 26.9605 93.6617C42.8128 72.6507 66.8439 74.0635 66.805 58.1465Z" fill="white"/>
<path d="M150.032 86.4291C150.032 86.4291 150.616 76.63 154.543 73.8562C158.471 71.0823 157.81 78.1076 157.81 78.1076C157.81 78.1076 161.698 73.5192 165.016 75.6578C168.334 77.7965 157.81 89.5658 157.81 89.5658L150.032 86.4291Z" fill="#F4A28C"/>
<path d="M92.1323 16.0596C92.1323 16.0596 91.4583 23.5774 89.3455 28.2696C89.1413 28.7254 88.8485 29.1361 88.4843 29.4779C88.1201 29.8197 87.6916 30.0857 87.2237 30.2605C86.7559 30.4354 86.258 30.5156 85.7589 30.4964C85.2598 30.4773 84.7694 30.3592 84.3163 30.1491C82.8135 29.5715 81.5098 28.5716 80.5623 27.2699C79.6148 25.9682 79.0639 24.4203 78.9761 22.8127L77.9003 15.93C77.8322 14.5294 78.2009 13.1421 78.9556 11.9602C79.7103 10.7783 80.8135 9.86004 82.1128 9.33247C86.8309 7.06416 92.7674 11.4841 92.1323 16.0596Z" fill="#F4A28C"/>
<path d="M91.4712 20.7777L93.0266 24.0052C93.1137 24.188 93.1534 24.3898 93.1419 24.592C93.1305 24.7941 93.0683 24.9901 92.9611 25.1619C92.8539 25.3337 92.7051 25.4757 92.5286 25.5748C92.352 25.674 92.1533 25.727 91.9508 25.7291H89.0215L91.4712 20.7777Z" fill="#F4A28C"/>
<path d="M98.1984 137.978L121.18 233.739L109.695 235.424C109.695 235.424 86.7143 169.786 71.549 156.358L98.1984 137.978Z" fill="#24285B"/>
<path d="M52.4304 134.621C52.4304 134.621 60.6352 133.325 63.3701 138.989C66.1051 144.653 50.4861 141.996 50.4861 141.996L52.4304 134.621Z" fill="#F4A28C"/>
<path d="M76.0467 23.2664L80.6482 22.1517L83.4479 20.7777C83.4479 20.7777 85.457 20.6481 84.7441 15.7615C84.7441 15.7615 94.6209 19.1705 95.9171 13.3118C97.3429 6.92162 89.9677 4.08299 84.7441 4.62738C83.2218 4.81072 81.7789 5.40791 80.5722 6.35401C79.3656 7.30011 78.4415 8.55892 77.9003 9.99355C77.9003 9.99355 69.6825 8.68441 76.0467 23.2664Z" fill="#24285B"/>
<path d="M83.1109 21.011C83.1109 21.011 83.5646 18.1464 81.374 17.9909C79.1835 17.8354 78.5095 21.9702 81.374 22.8645L83.1109 21.011Z" fill="#F4A28C"/>
<path opacity="0.08" d="M165.107 81.6331C184.7 81.6331 200.583 65.7499 200.583 46.1568C200.583 26.5638 184.7 10.6805 165.107 10.6805C145.514 10.6805 129.631 26.5638 129.631 46.1568C129.631 65.7499 145.514 81.6331 165.107 81.6331Z" fill="black"/>
<path d="M165.107 81.6331C184.7 81.6331 200.583 65.7499 200.583 46.1568C200.583 26.5638 184.7 10.6805 165.107 10.6805C145.514 10.6805 129.631 26.5638 129.631 46.1568C129.631 65.7499 145.514 81.6331 165.107 81.6331Z" fill="#FFD200"/>
<g opacity="0.08">
<path opacity="0.08" d="M166.844 70.9527C186.437 70.9527 202.32 55.0694 202.32 35.4763C202.32 15.8833 186.437 0 166.844 0C147.251 0 131.368 15.8833 131.368 35.4763C131.368 55.0694 147.251 70.9527 166.844 70.9527Z" fill="black"/>
</g>
<path opacity="0.08" d="M165.107 81.6331C184.7 81.6331 200.583 65.7499 200.583 46.1568C200.583 26.5638 184.7 10.6805 165.107 10.6805C145.514 10.6805 129.631 26.5638 129.631 46.1568C129.631 65.7499 145.514 81.6331 165.107 81.6331Z" fill="black"/>
<path d="M166.844 70.9527C186.437 70.9527 202.32 55.0694 202.32 35.4763C202.32 15.8833 186.437 0 166.844 0C147.251 0 131.368 15.8833 131.368 35.4763C131.368 55.0694 147.251 70.9527 166.844 70.9527Z" fill="#FFD200"/>
<path d="M167.985 19.5982C168.983 19.5982 169.281 19.9482 169.281 20.8944V23.1497C171.042 23.3334 172.72 23.9941 174.134 25.0607C175.548 26.1273 176.644 27.5595 177.304 29.2029C177.835 30.2528 177.615 30.8231 176.436 31.3416L174.297 32.3007C173.286 32.7803 172.806 32.5729 172.249 31.523C171.801 30.4382 171.016 29.5261 170.01 28.9216C169.004 28.317 167.831 28.0521 166.662 28.1659C162.955 28.1659 161.244 29.2547 161.244 31.7434C161.332 32.5041 161.681 33.2107 162.232 33.7427C162.783 34.2746 163.501 34.5987 164.264 34.6598C165.298 34.8917 166.346 35.052 167.401 35.1393C169.382 35.2384 171.337 35.6226 173.208 36.28C174.151 36.577 175.03 37.0473 175.8 37.6669C176.576 38.48 177.181 39.4403 177.58 40.491C177.978 41.5418 178.162 42.6618 178.121 43.7848C178.121 48.5418 174.932 51.7693 169.307 52.5988V54.8671C169.307 55.8652 168.996 56.1633 168.01 56.1633H165.613C164.601 56.1633 164.316 55.8134 164.316 54.8671V52.5859C162.362 52.452 160.491 51.7431 158.939 50.5484C157.387 49.3537 156.223 47.7265 155.593 45.8717C155.5 45.6757 155.453 45.4611 155.456 45.2442C155.458 45.0274 155.51 44.814 155.608 44.6202C155.705 44.4265 155.846 44.2576 156.018 44.1263C156.191 43.995 156.391 43.9048 156.604 43.8626L158.743 43.0719C159.832 42.6831 160.311 42.9423 160.791 44.0311C161.75 46.4766 163.711 47.6993 166.675 47.6993C170.694 47.6993 172.703 46.4031 172.703 43.8108C172.74 43.2136 172.575 42.6212 172.234 42.1295C171.893 41.6378 171.396 41.2757 170.823 41.1018C169.432 40.6169 167.978 40.3375 166.507 40.2722C164.503 40.1415 162.532 39.7044 160.661 38.976C159.718 38.6493 158.84 38.1577 158.069 37.5243C157.289 36.7532 156.678 35.8285 156.274 34.8089C155.87 33.7892 155.682 32.6968 155.723 31.6008C155.723 26.8827 158.691 23.746 164.264 23.0071V20.9592C164.264 19.9482 164.614 19.663 165.561 19.663L167.985 19.5982Z" fill="white"/>
</svg>
