<svg width="60" height="60" viewBox="0 0 60 60" fill="none" xmlns="http://www.w3.org/2000/svg">
<path d="M30 60C46.5685 60 60 46.5685 60 30C60 13.4315 46.5685 0 30 0C13.4315 0 0 13.4315 0 30C0 46.5685 13.4315 60 30 60Z" fill="#6983EA"/>
<path d="M39.3072 11.4567L27.8191 13.8654C27.5954 13.911 27.3909 14.0237 27.2329 14.1886C27.0749 14.3535 26.971 14.5626 26.9351 14.7881C26.8991 15.0136 26.9328 15.2447 27.0316 15.4505C27.1305 15.6564 27.2898 15.8271 27.4882 15.9401L29.6223 17.111L21.7426 26.7959C21.5618 27.0082 21.4675 27.2808 21.4785 27.5595C21.4895 27.8382 21.605 28.1025 21.802 28.2999L23.7897 30.2876C23.9836 30.4909 24.249 30.6108 24.5297 30.6219C24.8104 30.633 25.0844 30.5344 25.2937 30.347L34.9786 22.4674L36.1517 24.6035C36.2619 24.8058 36.432 24.9689 36.6387 25.0705C36.8454 25.1721 37.0785 25.2072 37.3059 25.1709C37.5333 25.1346 37.744 25.0288 37.9088 24.8679C38.0736 24.7071 38.1845 24.4991 38.2263 24.2726L40.6627 12.8122C40.6999 12.6262 40.6906 12.4339 40.6356 12.2524C40.5806 12.0709 40.4817 11.9058 40.3476 11.7717C40.2135 11.6376 40.0484 11.5387 39.8669 11.4837C39.6854 11.4288 39.4931 11.4195 39.3072 11.4567Z" fill="white"/>
<path d="M33.6846 28.634L23.9997 36.5137L22.8266 34.3775C22.7164 34.1753 22.5463 34.0121 22.3396 33.9105C22.1329 33.8089 21.8998 33.7739 21.6724 33.8102C21.445 33.8464 21.2344 33.9523 21.0695 34.1131C20.9047 34.274 20.7938 34.482 20.752 34.7084L18.3464 46.1975C18.3069 46.3796 18.3137 46.5686 18.3662 46.7474C18.4188 46.9261 18.5153 47.0888 18.6471 47.2205C18.7788 47.3523 18.9415 47.4488 19.1202 47.5014C19.299 47.5539 19.488 47.5607 19.6701 47.5212L31.1592 45.1156C31.3829 45.0701 31.5874 44.9573 31.7454 44.7925C31.9034 44.6276 32.0073 44.4184 32.0433 44.1929C32.0792 43.9675 32.0455 43.7364 31.9467 43.5305C31.8479 43.3247 31.6886 43.1539 31.4901 43.041L29.3539 41.8679L37.2336 32.183C37.4144 31.9707 37.5087 31.6981 37.4977 31.4194C37.4867 31.1407 37.3712 30.8764 37.1742 30.679L35.1886 28.6934C34.9878 28.5028 34.7245 28.3917 34.4478 28.3807C34.1711 28.3698 33.8998 28.4598 33.6846 28.634Z" fill="white"/>
</svg>
