<svg width="100" height="100" viewBox="0 0 100 100" fill="none" xmlns="http://www.w3.org/2000/svg">
<rect width="100" height="100" rx="16" fill="#F6FAFD"/>
<path d="M69.6021 43.7555L65.9082 40.0615C65.6102 39.7675 65.2128 39.5959 64.7945 39.5804C64.3761 39.5649 63.9671 39.7067 63.6482 39.9778C63.1557 40.397 62.5238 40.6158 61.8776 40.591C61.2315 40.5662 60.6182 40.2996 60.1593 39.8439C59.7039 39.3851 59.4374 38.772 59.4126 38.126C59.3878 37.48 59.6065 36.8483 60.0254 36.3559C60.2966 36.037 60.4384 35.628 60.4229 35.2096C60.4074 34.7913 60.2357 34.3939 59.9417 34.0959L56.2444 30.3978C55.932 30.0859 55.5086 29.9108 55.0671 29.9108C54.6257 29.9108 54.2022 30.0859 53.8898 30.3978L48.0011 36.2856C47.6376 36.6505 47.3634 37.0945 47.2001 37.583C47.1683 37.677 47.1152 37.7623 47.0451 37.8324C46.975 37.9025 46.8897 37.9555 46.7958 37.9873C46.3071 38.1506 45.8629 38.4251 45.4983 38.7892L30.3979 53.8897C30.086 54.2021 29.9109 54.6255 29.9109 55.067C29.9109 55.5084 30.086 55.9319 30.3979 56.2443L34.096 59.9382C34.394 60.2322 34.7914 60.4039 35.2097 60.4194C35.6281 60.4349 36.0371 60.2931 36.356 60.0219C36.8473 59.5994 37.4801 59.3781 38.1276 59.4024C38.7751 59.4267 39.3895 59.6948 39.8477 60.153C40.3059 60.6112 40.574 61.2256 40.5983 61.8731C40.6226 62.5207 40.4013 63.1534 39.9788 63.6447C39.7076 63.9637 39.5658 64.3726 39.5813 64.791C39.5968 65.2093 39.7685 65.6067 40.0625 65.9047L43.7564 69.5987C44.0689 69.9105 44.4923 70.0857 44.9337 70.0857C45.3752 70.0857 45.7986 69.9105 46.1111 69.5987L61.2115 54.4982C61.5754 54.1338 61.8499 53.69 62.0134 53.2016C62.0451 53.1074 62.0981 53.0218 62.1684 52.9515C62.2387 52.8812 62.3243 52.8281 62.4185 52.7965C62.9068 52.6331 63.3506 52.3589 63.7151 51.9954L69.603 46.1067C69.9137 45.7943 70.088 45.3716 70.0879 44.9309C70.0877 44.4903 69.9131 44.0677 69.6021 43.7555ZM50.4863 41.2736C50.362 41.398 50.2143 41.4967 50.0518 41.564C49.8893 41.6313 49.7151 41.666 49.5392 41.666C49.3633 41.666 49.1891 41.6313 49.0266 41.564C48.8641 41.4967 48.7165 41.398 48.5921 41.2736L47.6286 40.3102C47.3836 40.0577 47.2477 39.719 47.2504 39.3672C47.253 39.0154 47.394 38.6788 47.6428 38.4301C47.8916 38.1813 48.2283 38.0405 48.5801 38.038C48.9319 38.0355 49.2706 38.1716 49.5229 38.4167L50.4863 39.3793C50.6107 39.5037 50.7094 39.6514 50.7767 39.8139C50.8441 39.9764 50.8787 40.1506 50.8787 40.3265C50.8787 40.5024 50.8441 40.6766 50.7767 40.8391C50.7094 41.0016 50.6107 41.1492 50.4863 41.2736ZM54.1694 44.9566C53.9182 45.2076 53.5777 45.3486 53.2227 45.3486C52.8676 45.3486 52.5271 45.2076 52.276 44.9566L51.3552 44.0359C51.2308 43.9115 51.1322 43.7638 51.0648 43.6013C50.9975 43.4388 50.9629 43.2646 50.9629 43.0888C50.9629 42.9129 50.9975 42.7387 51.0648 42.5762C51.1322 42.4137 51.2308 42.266 51.3552 42.1416C51.6064 41.8904 51.9471 41.7493 52.3023 41.7493C52.4782 41.7493 52.6524 41.784 52.8149 41.8513C52.9774 41.9186 53.1251 42.0172 53.2495 42.1416L54.1702 43.0624C54.295 43.1867 54.3941 43.3345 54.4617 43.4972C54.5293 43.6599 54.5642 43.8344 54.5643 44.0106C54.5643 44.1868 54.5296 44.3613 54.4622 44.5241C54.3947 44.6868 54.2958 44.8347 54.171 44.9591L54.1694 44.9566ZM57.8524 48.6397C57.728 48.7641 57.5804 48.8627 57.4179 48.9301C57.2554 48.9974 57.0812 49.032 56.9053 49.032C56.7294 49.032 56.5552 48.9974 56.3927 48.9301C56.2302 48.8627 56.0825 48.7641 55.9582 48.6397L55.0374 47.7189C54.7923 47.4665 54.6565 47.1278 54.6591 46.776C54.6618 46.4242 54.8027 46.0875 55.0515 45.8388C55.3004 45.5901 55.6371 45.4493 55.9889 45.4468C56.3407 45.4443 56.6793 45.5803 56.9316 45.8255L57.8524 46.7463C57.9776 46.8704 58.077 47.0181 58.145 47.1807C58.213 47.3434 58.2482 47.5179 58.2486 47.6942C58.2489 47.8705 58.2145 48.0451 58.1473 48.2081C58.08 48.3711 57.9812 48.5192 57.8566 48.6439L57.8524 48.6397ZM61.5714 52.3679C61.4471 52.4923 61.2994 52.591 61.1369 52.6583C60.9744 52.7256 60.8002 52.7603 60.6243 52.7603C60.4484 52.7603 60.2742 52.7256 60.1117 52.6583C59.9492 52.591 59.8016 52.4923 59.6772 52.3679L58.7196 51.4053C58.5926 51.2813 58.4915 51.1333 58.4222 50.9699C58.3529 50.8065 58.3168 50.6309 58.3159 50.4534C58.3151 50.2759 58.3495 50.1 58.4173 49.9359C58.485 49.7719 58.5847 49.6229 58.7105 49.4977C58.8363 49.3725 58.9858 49.2735 59.1502 49.2066C59.3146 49.1397 59.4906 49.1061 59.6681 49.1078C59.8456 49.1095 60.021 49.1465 60.1841 49.2166C60.3471 49.2866 60.4947 49.3885 60.618 49.5161L61.5765 50.4778C61.7008 50.6023 61.7994 50.75 61.8667 50.9125C61.9339 51.075 61.9685 51.2492 61.9684 51.4251C61.9683 51.601 61.9336 51.7752 61.8662 51.9377C61.7988 52.1002 61.7001 52.2478 61.5756 52.3721L61.5714 52.3679Z" fill="#2ECC72"/>
</svg>
