<svg width="861" height="754" viewBox="0 0 861 754" fill="none" xmlns="http://www.w3.org/2000/svg">
<path d="M337.95 716.222L-36.5003 506.097C-39.2099 504.573 -41.4756 502.368 -43.0743 499.702C-44.6731 497.035 -45.5497 493.998 -45.6178 490.89C-45.686 487.781 -44.9433 484.709 -43.4629 481.975C-41.9825 479.241 -39.8155 476.939 -37.1753 475.297L325.825 250.447C328.579 248.74 331.746 247.813 334.987 247.764C338.227 247.716 341.42 248.548 344.225 250.172L740.225 479.997C742.933 481.572 745.181 483.83 746.744 486.546C748.306 489.261 749.128 492.339 749.128 495.472C749.128 498.605 748.306 501.684 746.744 504.399C745.181 507.115 742.933 509.373 740.225 510.947L387.1 715.947C379.637 720.26 371.18 722.553 362.561 722.601C353.943 722.649 345.46 720.451 337.95 716.222Z" fill="#ACEF78"/>
<path d="M229.299 621.572L106.449 550.422L414.699 393.447L519.899 471.172C504.074 480.797 244.824 611.547 229.299 621.572Z" fill="url(#paint0_linear)"/>
<path d="M537.45 628.622L441.25 559.972L506.975 507.472L612.175 585.272C596.375 594.872 552.975 618.597 537.45 628.622Z" fill="url(#paint1_linear)"/>
<path d="M566 539.672L607.65 523.922L673.5 564.597C658.775 573.547 643.075 580.572 628.5 589.597C608.5 571.847 587.175 555.972 566 539.672Z" fill="url(#paint2_linear)"/>
<path d="M689.375 539.347L640.075 499.597L671.925 471.847L737.65 512.447C721.85 522.047 704.9 529.347 689.375 539.347Z" fill="url(#paint3_linear)"/>
<path d="M137.601 277.747L352 153.972V355.272L144.5 472.422C142.792 473.388 140.861 473.889 138.899 473.876C136.937 473.863 135.012 473.335 133.318 472.346C131.623 471.357 130.217 469.941 129.24 468.239C128.263 466.538 127.75 464.609 127.751 462.647V294.947C127.741 291.469 128.646 288.049 130.375 285.03C132.104 282.011 134.596 279.5 137.601 277.747Z" fill="#68E1FD"/>
<path d="M304.5 137.747L327.2 136.547C328.088 137.838 328.834 139.221 329.425 140.672L326.6 150.422L295.6 156.347L304.5 137.747Z" fill="#68E1FD"/>
<path d="M249.65 109.897C251.2 109.897 257.675 104.297 268.1 109.397C278.525 114.497 310.05 161.897 310.05 161.897L288.675 175.747L267.3 150.422L261.225 191.072C261.225 191.072 238.5 208.447 198.5 189.097L201.375 161.847C201.375 161.847 183.6 147.522 180.125 125.822C176.65 104.122 236.15 104.347 236.15 104.347" fill="#68E1FD"/>
<path d="M198.5 189.097C193.634 203.627 190.889 218.783 190.35 234.097L256.975 202.972L261.25 191.172" fill="#FFC339"/>
<path opacity="0.36" d="M137.601 277.747L352 153.972V355.272L144.5 472.422C142.792 473.388 140.861 473.889 138.899 473.876C136.937 473.863 135.012 473.335 133.318 472.346C131.623 471.357 130.217 469.941 129.24 468.239C128.263 466.538 127.75 464.609 127.751 462.647V294.947C127.741 291.469 128.646 288.049 130.375 285.03C132.104 282.011 134.596 279.5 137.601 277.747Z" fill="black"/>
<path d="M352 153.972C352 153.972 386.35 135.447 411.7 148.822C433.1 160.122 437.4 181.322 420.7 205.047C404 228.772 337.45 263.472 337.45 263.472" fill="#68E1FD"/>
<path opacity="0.36" d="M352 153.972C352 153.972 386.35 135.447 411.7 148.822C433.1 160.122 437.4 181.322 420.7 205.047C404 228.772 337.45 263.472 337.45 263.472" fill="black"/>
<path d="M145.8 202.122L375.45 125.747V327.047L167.95 444.197C166.242 445.163 164.311 445.664 162.349 445.651C160.386 445.638 158.462 445.11 156.767 444.121C155.073 443.132 153.667 441.716 152.69 440.014C151.713 438.313 151.199 436.385 151.2 434.422L144.05 258.972C144 251.847 139.675 205.672 145.8 202.122Z" fill="#87D8AB"/>
<path d="M257.1 70.7723C261.962 72.229 266.18 75.3042 269.053 79.4877C271.927 83.6711 273.284 88.7114 272.9 93.7723C272.15 110.947 254.225 102.022 254.225 102.022L236.125 104.347C236.125 104.347 232.85 103.672 231.65 89.3473C230.45 75.0223 242.625 69.6473 257.1 70.7723Z" fill="#E7483B"/>
<path d="M267.75 87.8223C269.15 93.6723 266.7 101.047 263.85 105.622C260.858 110.607 256.013 114.203 250.375 115.622C244.375 116.997 239.8 113.672 237.475 108.247C234.851 102.494 234.468 95.9684 236.4 89.9473C237.374 87.4154 238.883 85.1238 240.825 83.2296C242.767 81.3353 245.095 79.883 247.65 78.9723C250.438 78.1243 253.387 77.9495 256.255 78.4623C259.123 78.9752 261.829 80.1609 264.15 81.9223C265.985 83.4237 267.254 85.5042 267.75 87.8223Z" fill="#FFC339"/>
<path d="M270.05 93.9473C264.108 96.2514 257.941 97.9272 251.65 98.9473C251.016 96.4582 250.18 94.0251 249.15 91.6723C248.975 92.4473 247.65 98.9473 247.65 98.9473L243.675 100.547L242.975 104.372C242.975 104.372 239.375 96.6973 237.775 100.547C236.175 104.397 240.05 111.772 240.05 111.772C236.693 108.943 233.844 105.561 231.625 101.772C228.75 96.2723 224.3 74.6473 247.65 72.2973C271 69.9473 270.05 93.9473 270.05 93.9473Z" fill="#E7483B"/>
<path d="M247.6 72.1473C247.6 72.1473 243.925 54.6473 232.8 53.4723C229.846 53.2144 226.872 53.5931 224.078 54.5828C221.283 55.5725 218.733 57.1502 216.601 59.2094C214.468 61.2686 212.802 63.7614 211.715 66.5195C210.628 69.2776 210.145 72.2368 210.3 75.1973C210.3 75.1973 210.675 84.4973 213.075 89.2723L223.325 91.7723C223.325 91.7723 224.65 61.9223 242.375 72.8973" fill="#E7483B"/>
<path d="M237.575 157.472C238.732 158.265 239.953 158.959 241.225 159.547C245.05 160.097 248.875 160.297 252.825 160.622C254.65 160.772 259.275 160.897 259.075 163.822C258.875 166.747 255.25 166.322 253.475 166.322C252.3 166.322 251.1 166.122 249.925 165.972C251.554 167.547 252.862 169.424 253.775 171.497C254.675 173.597 256.275 178.247 254.825 180.422C253.375 182.597 251.425 180.422 251 178.747C250.369 176.332 249.419 174.012 248.175 171.847C249.357 175.723 249.53 179.836 248.675 183.797C248.585 184.04 248.43 184.254 248.227 184.416C248.024 184.577 247.781 184.68 247.523 184.714C247.266 184.747 247.005 184.71 246.767 184.606C246.529 184.501 246.325 184.334 246.175 184.122C245.333 181.577 244.787 178.943 244.55 176.272C244.175 174.568 243.665 172.896 243.025 171.272C243.714 174.643 243.883 178.1 243.525 181.522C243.494 181.799 243.381 182.06 243.2 182.272C243.2 182.272 243.2 182.447 243.2 182.522C243.196 182.737 243.143 182.947 243.045 183.138C242.948 183.329 242.809 183.496 242.638 183.625C242.468 183.755 242.27 183.845 242.06 183.887C241.85 183.93 241.633 183.925 241.425 183.872C239.35 183.322 239.125 180.822 238.925 178.872C238.754 175.898 238.42 172.935 237.925 169.997C237.953 173.113 237.314 176.199 236.05 179.047C235.972 179.212 235.858 179.358 235.717 179.473C235.575 179.588 235.41 179.67 235.233 179.713C235.055 179.757 234.871 179.76 234.692 179.722C234.513 179.685 234.345 179.608 234.2 179.497C233.907 179.429 233.646 179.263 233.46 179.027C233.273 178.791 233.173 178.498 233.175 178.197C233.175 176.847 233.175 175.497 233.175 174.147L233 171.647C230.312 171.317 227.785 170.185 225.75 168.397C230.363 165.557 234.38 161.847 237.575 157.472Z" fill="#FFC339"/>
<path d="M322.575 132.397C323.083 132.626 323.569 132.903 324.025 133.222C325.263 134.144 326.337 135.268 327.2 136.547L304.5 137.747C306.611 135.122 309.472 133.203 312.702 132.248C315.931 131.292 319.376 131.344 322.575 132.397Z" fill="#68E1FD"/>
<path d="M300.425 148.172L300.95 147.897C301.028 147.618 301.206 147.378 301.45 147.222L303.475 145.922C303.562 145.779 303.682 145.659 303.825 145.572C305.437 144.641 306.828 143.37 307.9 141.847C308.013 141.673 308.168 141.53 308.353 141.434C308.537 141.337 308.742 141.29 308.95 141.297C309.118 141.065 309.347 140.883 309.612 140.773C309.877 140.662 310.167 140.627 310.45 140.672C311.056 140.744 311.628 140.987 312.1 141.372C312.379 140.823 312.851 140.395 313.425 140.172C314.01 140.026 314.627 140.071 315.185 140.3C315.742 140.53 316.212 140.932 316.525 141.447C316.585 141.092 316.721 140.754 316.924 140.456C317.127 140.159 317.392 139.908 317.7 139.722C318.042 139.517 318.438 139.421 318.836 139.448C319.234 139.475 319.614 139.623 319.925 139.872C320.213 139.509 320.559 139.196 320.95 138.947L321.125 138.772C321.416 138.489 321.795 138.313 322.198 138.272C322.602 138.232 323.008 138.328 323.35 138.547C323.944 138.785 324.477 139.154 324.91 139.626C325.343 140.097 325.664 140.66 325.85 141.272C326.029 141.371 326.181 141.511 326.294 141.681C326.407 141.85 326.478 142.045 326.5 142.247C326.775 144.297 328.225 153.547 323.775 152.247C323.536 152.172 323.326 152.023 323.175 151.822C323.175 152.147 323.175 152.447 323.025 152.772C322.7 154.822 322.35 156.747 320.025 156.872C320.025 158.847 319.425 161.622 317.675 161.472C317.525 161.53 317.363 161.555 317.203 161.545C317.042 161.535 316.885 161.491 316.743 161.415C316.6 161.339 316.476 161.233 316.378 161.105C316.28 160.977 316.211 160.83 316.175 160.672C315.623 159.883 315.264 158.975 315.125 158.022C314.65 158.547 313.95 158.697 312.925 158.022C312.786 157.912 312.661 157.786 312.55 157.647C312.269 157.48 312.064 157.212 311.975 156.897C311.543 155.983 311.175 155.039 310.875 154.072L308.55 147.997L307.75 148.247C306.35 149.089 304.897 149.841 303.4 150.497C302.225 150.997 300.3 151.622 299.875 149.822C299.741 149.529 299.723 149.195 299.825 148.889C299.927 148.583 300.142 148.327 300.425 148.172Z" fill="#FFC339"/>
<path d="M375.45 143.972C375.45 144.847 339.9 154.322 337.6 155.047C310.675 163.472 283.825 172.097 256.975 180.747C233.825 188.197 210.684 195.697 187.55 203.247C173.1 207.947 154.85 209.722 154.85 229.022C154.85 240.447 157.675 328.122 157.675 328.122" stroke="#39B54A" stroke-width="1.015" stroke-miterlimit="10"/>
<path d="M245.712 336.509C218.658 324.356 210.06 284.824 226.506 248.211C242.953 211.598 278.217 191.769 305.271 203.922C332.324 216.074 340.923 255.606 324.476 292.219C308.029 328.832 272.765 348.661 245.712 336.509Z" fill="#D1EAE4"/>
<path d="M208.007 463.805C180.634 455.117 167.976 418.042 179.735 380.996C191.494 343.951 223.216 320.963 250.589 329.651C277.962 338.34 290.62 375.414 278.861 412.46C267.103 449.506 235.38 472.494 208.007 463.805Z" fill="#D1EAE4"/>
<path opacity="0.2" d="M147.1 335.022L146.75 326.522L335.5 221.472L334.9 255.922L216.75 324.122" fill="black"/>
<path d="M116.35 354.347L330.75 230.522V431.847L123.25 548.997C121.542 549.963 119.61 550.464 117.648 550.451C115.686 550.437 113.762 549.91 112.067 548.921C110.372 547.932 108.966 546.516 107.989 544.814C107.013 543.113 106.499 541.184 106.5 539.222V371.472C106.503 368.006 107.415 364.602 109.143 361.597C110.871 358.593 113.356 356.093 116.35 354.347Z" fill="#87D8AB"/>
<path d="M330.75 246.472L142.525 355.222C142.525 355.222 119.225 365.222 118.775 383.547C118.325 401.872 118.775 517.322 118.775 517.322C118.775 517.322 117.4 539.447 130.65 535.047L206.825 492.547" stroke="#39B54A" stroke-width="1.015" stroke-miterlimit="10"/>
<path d="M216.75 325.647L431 201.847V403.147L223.5 520.297C221.792 521.263 219.861 521.764 217.898 521.751C215.936 521.738 214.012 521.21 212.317 520.221C210.623 519.232 209.217 517.816 208.24 516.114C207.263 514.413 206.749 512.484 206.75 510.522V342.822C206.76 339.333 207.69 335.908 209.446 332.893C211.201 329.878 213.721 327.379 216.75 325.647Z" fill="#68E1FD"/>
<path d="M431 219.047V179.347C431 179.347 428.675 207.722 397.55 220.847" fill="#68E1FD"/>
<path d="M428.2 215.197C428.394 215.197 428.585 215.152 428.759 215.065C428.933 214.979 429.084 214.853 429.2 214.697C429.7 214.014 430.192 213.322 430.675 212.622C430.779 212.488 430.854 212.334 430.897 212.17C430.94 212.006 430.948 211.835 430.923 211.667C430.897 211.5 430.837 211.339 430.748 211.195C430.658 211.051 430.54 210.927 430.4 210.83C430.261 210.733 430.104 210.666 429.938 210.632C429.771 210.598 429.6 210.598 429.434 210.632C429.268 210.667 429.11 210.735 428.971 210.832C428.832 210.929 428.714 211.053 428.625 211.197C428.158 211.881 427.683 212.547 427.2 213.197C427.061 213.383 426.976 213.604 426.955 213.835C426.934 214.066 426.978 214.299 427.082 214.506C427.186 214.714 427.345 214.889 427.543 215.011C427.74 215.133 427.968 215.197 428.2 215.197Z" fill="#2E3192"/>
<path d="M230.55 334.747C230.79 334.747 231.024 334.677 231.225 334.547L235.325 331.847C235.472 331.763 235.601 331.65 235.703 331.515C235.806 331.379 235.879 331.224 235.92 331.059C235.96 330.895 235.967 330.723 235.939 330.556C235.911 330.388 235.849 330.228 235.757 330.086C235.665 329.943 235.545 329.82 235.405 329.725C235.264 329.63 235.105 329.565 234.939 329.533C234.772 329.502 234.601 329.504 234.435 329.541C234.269 329.578 234.113 329.648 233.975 329.747L229.85 332.397C229.624 332.544 229.45 332.759 229.357 333.012C229.263 333.264 229.253 333.541 229.329 333.799C229.405 334.058 229.562 334.285 229.778 334.447C229.993 334.609 230.255 334.697 230.525 334.697L230.55 334.747ZM242.925 326.847C243.114 326.892 243.311 326.892 243.5 326.847L247.65 324.347C247.79 324.26 247.911 324.147 248.006 324.013C248.102 323.879 248.17 323.728 248.207 323.568C248.244 323.408 248.25 323.242 248.223 323.079C248.196 322.917 248.137 322.762 248.05 322.622C247.963 322.483 247.849 322.362 247.716 322.266C247.582 322.171 247.43 322.102 247.27 322.065C247.11 322.028 246.944 322.023 246.782 322.05C246.62 322.077 246.465 322.135 246.325 322.222L242.175 324.722C241.95 324.867 241.778 325.081 241.683 325.331C241.589 325.581 241.577 325.855 241.65 326.113C241.723 326.37 241.876 326.597 242.088 326.761C242.299 326.925 242.558 327.016 242.825 327.022L242.925 326.847ZM255.425 319.172C255.654 319.175 255.878 319.114 256.075 318.997L260.25 316.497C260.529 316.325 260.729 316.051 260.808 315.732C260.886 315.414 260.836 315.078 260.669 314.796C260.502 314.514 260.231 314.309 259.914 314.225C259.597 314.141 259.26 314.185 258.975 314.347L254.8 316.847C254.564 316.988 254.38 317.202 254.278 317.457C254.175 317.712 254.16 317.994 254.234 318.259C254.308 318.524 254.467 318.757 254.687 318.922C254.907 319.087 255.175 319.175 255.45 319.172H255.425ZM267.925 311.672C268.145 311.67 268.361 311.61 268.55 311.497L272.75 308.997C273.029 308.825 273.229 308.551 273.308 308.232C273.386 307.914 273.336 307.578 273.169 307.296C273.002 307.014 272.731 306.809 272.414 306.725C272.097 306.641 271.76 306.685 271.475 306.847L267.275 309.347C267.04 309.487 266.858 309.699 266.755 309.951C266.652 310.204 266.635 310.483 266.706 310.747C266.776 311.01 266.931 311.243 267.147 311.411C267.363 311.578 267.627 311.67 267.9 311.672H267.925ZM280.575 304.172C280.795 304.17 281.011 304.11 281.2 303.997L285.425 301.497C285.568 301.415 285.693 301.306 285.794 301.175C285.894 301.045 285.968 300.896 286.011 300.737C286.054 300.578 286.065 300.412 286.044 300.249C286.023 300.085 285.97 299.928 285.887 299.785C285.805 299.642 285.696 299.517 285.566 299.416C285.435 299.316 285.286 299.242 285.127 299.199C284.968 299.156 284.802 299.145 284.639 299.166C284.475 299.187 284.318 299.24 284.175 299.322L279.95 301.822C279.715 301.962 279.533 302.174 279.43 302.426C279.327 302.679 279.31 302.958 279.381 303.222C279.451 303.485 279.606 303.718 279.822 303.886C280.038 304.053 280.302 304.145 280.575 304.147V304.172ZM293.275 296.897C293.493 296.903 293.708 296.851 293.9 296.747L298.15 294.247C298.302 294.172 298.438 294.067 298.548 293.937C298.658 293.808 298.741 293.658 298.791 293.495C298.842 293.333 298.858 293.162 298.84 292.993C298.822 292.824 298.77 292.661 298.686 292.513C298.603 292.365 298.49 292.235 298.355 292.132C298.22 292.029 298.065 291.955 297.9 291.914C297.736 291.872 297.564 291.865 297.396 291.892C297.229 291.92 297.068 291.981 296.925 292.072L292.675 294.572C292.428 294.706 292.232 294.918 292.121 295.176C292.009 295.434 291.988 295.722 292.06 295.994C292.132 296.266 292.294 296.505 292.519 296.673C292.744 296.842 293.019 296.93 293.3 296.922L293.275 296.897ZM306.025 289.697C306.243 289.703 306.458 289.651 306.65 289.547L310.9 287.047C311.052 286.972 311.188 286.867 311.298 286.737C311.408 286.608 311.491 286.458 311.541 286.295C311.592 286.133 311.608 285.962 311.59 285.793C311.572 285.624 311.52 285.461 311.436 285.313C311.353 285.165 311.24 285.035 311.105 284.932C310.97 284.829 310.815 284.755 310.65 284.714C310.486 284.672 310.314 284.665 310.146 284.692C309.979 284.72 309.818 284.781 309.675 284.872L305.4 287.372C305.153 287.506 304.957 287.718 304.846 287.976C304.734 288.234 304.713 288.522 304.785 288.794C304.857 289.066 305.019 289.305 305.244 289.473C305.469 289.642 305.744 289.73 306.025 289.722V289.697ZM318.8 282.547C319.009 282.548 319.216 282.497 319.4 282.397L323.675 279.897C323.945 279.725 324.138 279.457 324.215 279.147C324.293 278.837 324.249 278.509 324.092 278.23C323.935 277.951 323.677 277.744 323.372 277.649C323.067 277.555 322.737 277.581 322.45 277.722L318.175 280.222C317.93 280.355 317.736 280.565 317.624 280.821C317.512 281.076 317.489 281.361 317.558 281.632C317.626 281.902 317.784 282.141 318.004 282.311C318.225 282.482 318.496 282.574 318.775 282.572L318.8 282.547ZM331.6 275.397C331.809 275.398 332.016 275.347 332.2 275.247L336.475 272.747C336.744 272.575 336.938 272.307 337.015 271.997C337.093 271.687 337.049 271.359 336.892 271.08C336.735 270.801 336.477 270.594 336.172 270.499C335.867 270.405 335.537 270.431 335.25 270.572L331 273.072C330.755 273.205 330.561 273.415 330.449 273.671C330.337 273.926 330.314 274.211 330.383 274.482C330.451 274.752 330.609 274.991 330.829 275.161C331.05 275.332 331.321 275.424 331.6 275.422V275.397ZM344.375 268.247C344.593 268.253 344.808 268.201 345 268.097L349.25 265.597C349.52 265.425 349.713 265.157 349.79 264.847C349.868 264.537 349.824 264.209 349.667 263.93C349.51 263.651 349.252 263.444 348.947 263.349C348.642 263.255 348.312 263.281 348.025 263.422L343.775 265.922C343.528 266.056 343.332 266.268 343.221 266.526C343.109 266.784 343.088 267.072 343.16 267.344C343.232 267.616 343.394 267.855 343.619 268.023C343.844 268.192 344.119 268.28 344.4 268.272L344.375 268.247ZM357.15 261.047C357.368 261.053 357.583 261.001 357.775 260.897L362.025 258.397C362.313 258.232 362.524 257.958 362.611 257.637C362.698 257.316 362.653 256.973 362.487 256.685C362.322 256.396 362.048 256.186 361.727 256.099C361.406 256.012 361.063 256.057 360.775 256.222L356.525 258.722C356.278 258.856 356.082 259.068 355.971 259.326C355.859 259.584 355.838 259.872 355.91 260.144C355.982 260.416 356.144 260.655 356.369 260.823C356.594 260.992 356.869 261.08 357.15 261.072V261.047ZM369.875 253.797C370.095 253.795 370.311 253.735 370.5 253.622L374.725 251.122C375.013 250.957 375.224 250.683 375.311 250.362C375.398 250.041 375.353 249.698 375.187 249.41C375.022 249.121 374.748 248.911 374.427 248.824C374.106 248.737 373.763 248.782 373.475 248.947L369.25 251.447C369.015 251.587 368.833 251.799 368.73 252.051C368.627 252.304 368.61 252.583 368.681 252.847C368.751 253.11 368.906 253.343 369.122 253.511C369.338 253.678 369.602 253.77 369.875 253.772V253.797ZM382.6 246.547C382.809 246.548 383.016 246.497 383.2 246.397L387.475 244.047C387.767 243.888 387.983 243.62 388.077 243.301C388.171 242.982 388.134 242.639 387.975 242.347C387.816 242.056 387.547 241.839 387.229 241.745C386.91 241.651 386.567 241.688 386.275 241.847L381.975 244.197C381.73 244.33 381.536 244.54 381.424 244.796C381.312 245.051 381.289 245.336 381.358 245.607C381.426 245.877 381.584 246.116 381.804 246.286C382.025 246.457 382.296 246.549 382.575 246.547H382.6ZM395.45 239.497C395.668 239.503 395.883 239.451 396.075 239.347L400.325 236.847C400.575 236.665 400.749 236.397 400.813 236.094C400.877 235.791 400.826 235.476 400.67 235.208C400.515 234.941 400.266 234.74 399.971 234.646C399.676 234.552 399.357 234.57 399.075 234.697L394.85 237.197C394.603 237.331 394.407 237.543 394.296 237.801C394.184 238.059 394.163 238.347 394.235 238.619C394.307 238.891 394.469 239.13 394.694 239.298C394.919 239.467 395.194 239.555 395.475 239.547L395.45 239.497ZM407.95 231.997C408.198 232.002 408.442 231.932 408.65 231.797C410.033 230.897 411.383 229.964 412.7 228.997C412.849 228.909 412.978 228.791 413.079 228.65C413.18 228.509 413.251 228.349 413.286 228.179C413.322 228.01 413.322 227.834 413.286 227.665C413.251 227.495 413.18 227.335 413.079 227.194C412.978 227.053 412.849 226.935 412.7 226.846C412.551 226.758 412.385 226.702 412.213 226.681C412.041 226.66 411.867 226.675 411.701 226.725C411.535 226.776 411.382 226.86 411.25 226.972C409.95 227.906 408.625 228.822 407.275 229.722C407.047 229.87 406.873 230.088 406.779 230.343C406.686 230.598 406.678 230.877 406.757 231.136C406.836 231.396 406.998 231.624 407.218 231.783C407.437 231.943 407.703 232.027 407.975 232.022L407.95 231.997ZM419.6 223.147C419.905 223.143 420.199 223.028 420.425 222.822C421.658 221.722 422.858 220.589 424.025 219.422C424.142 219.306 424.234 219.167 424.297 219.015C424.36 218.863 424.393 218.7 424.393 218.535C424.393 218.37 424.36 218.207 424.297 218.055C424.234 217.902 424.142 217.764 424.025 217.647C423.908 217.531 423.77 217.438 423.618 217.375C423.465 217.312 423.302 217.28 423.137 217.28C422.973 217.28 422.809 217.312 422.657 217.375C422.505 217.438 422.367 217.531 422.25 217.647C421.117 218.781 419.95 219.881 418.75 220.947C418.564 221.116 418.434 221.337 418.375 221.581C418.317 221.825 418.333 222.081 418.422 222.316C418.511 222.55 418.668 222.753 418.874 222.897C419.08 223.041 419.324 223.119 419.575 223.122L419.6 223.147Z" fill="#2E3192"/>
<path d="M219.85 343.947C220.145 343.945 220.43 343.839 220.654 343.646C220.879 343.454 221.028 343.189 221.075 342.897L221.425 340.972L223.05 339.897C223.203 339.815 223.338 339.702 223.445 339.565C223.552 339.428 223.629 339.27 223.671 339.101C223.714 338.932 223.72 338.757 223.691 338.585C223.662 338.414 223.597 338.25 223.501 338.105C223.405 337.96 223.28 337.837 223.133 337.743C222.987 337.649 222.822 337.587 222.65 337.561C222.479 337.534 222.303 337.543 222.135 337.589C221.967 337.634 221.81 337.713 221.675 337.822L219.175 339.497L218.65 342.497C218.621 342.66 218.625 342.827 218.661 342.988C218.697 343.149 218.765 343.301 218.86 343.436C218.955 343.571 219.076 343.685 219.216 343.773C219.356 343.861 219.512 343.92 219.675 343.947H219.85Z" fill="#2E3192"/>
<path d="M220.45 508.897C220.614 508.927 220.783 508.924 220.946 508.888C221.109 508.853 221.263 508.785 221.4 508.69C221.537 508.595 221.654 508.474 221.744 508.333C221.834 508.193 221.896 508.036 221.925 507.872C221.955 507.708 221.952 507.54 221.916 507.377C221.881 507.214 221.813 507.059 221.718 506.922C221.623 506.785 221.502 506.669 221.362 506.578C221.221 506.488 221.064 506.427 220.9 506.397C219.6 505.897 219.05 505.322 219.025 505.122V503.897C219.025 503.566 218.894 503.248 218.659 503.013C218.425 502.779 218.107 502.647 217.775 502.647C217.444 502.647 217.126 502.779 216.891 503.013C216.657 503.248 216.525 503.566 216.525 503.897V505.147C216.525 506.572 217.8 507.872 220 508.722C220.138 508.809 220.29 508.869 220.45 508.897ZM230.15 508.097C230.421 508.097 230.684 508.009 230.9 507.847L231.15 507.647L235.225 505.897C235.53 505.765 235.77 505.516 235.892 505.207C236.014 504.897 236.008 504.552 235.875 504.247C235.743 503.942 235.494 503.702 235.185 503.581C234.875 503.459 234.53 503.465 234.225 503.597L230.025 505.397L229.4 505.822C229.19 505.98 229.035 506.199 228.957 506.45C228.879 506.7 228.881 506.969 228.964 507.218C229.047 507.466 229.207 507.683 229.419 507.836C229.632 507.99 229.888 508.072 230.15 508.072V508.097ZM243.875 501.847C244.066 501.848 244.254 501.805 244.425 501.722L248.95 499.422C249.096 499.347 249.226 499.243 249.332 499.118C249.438 498.992 249.519 498.846 249.569 498.69C249.618 498.533 249.637 498.368 249.623 498.204C249.609 498.04 249.563 497.881 249.488 497.735C249.412 497.589 249.309 497.459 249.183 497.353C249.057 497.247 248.912 497.166 248.755 497.116C248.599 497.067 248.434 497.048 248.27 497.062C248.106 497.076 247.946 497.122 247.8 497.197L243.325 499.472C243.07 499.596 242.865 499.802 242.742 500.058C242.62 500.314 242.588 500.603 242.652 500.879C242.716 501.155 242.872 501.402 243.094 501.577C243.317 501.753 243.592 501.848 243.875 501.847ZM217.675 495.222C217.839 495.219 218.001 495.183 218.152 495.118C218.302 495.052 218.438 494.957 218.552 494.839C218.666 494.72 218.755 494.58 218.815 494.428C218.875 494.275 218.904 494.111 218.9 493.947C218.9 492.281 218.9 490.614 218.9 488.947C218.9 488.616 218.769 488.298 218.534 488.063C218.3 487.829 217.982 487.697 217.65 487.697C217.319 487.697 217.001 487.829 216.766 488.063C216.532 488.298 216.4 488.616 216.4 488.947C216.4 490.614 216.4 492.281 216.4 493.947C216.413 494.274 216.554 494.583 216.793 494.808C217.031 495.032 217.348 495.154 217.675 495.147V495.222ZM257.2 494.672C257.421 494.671 257.636 494.611 257.825 494.497L262.2 491.997C262.485 491.825 262.69 491.546 262.77 491.223C262.85 490.899 262.798 490.557 262.625 490.272C262.453 489.987 262.174 489.782 261.851 489.702C261.527 489.623 261.185 489.675 260.9 489.847L256.575 492.347C256.341 492.486 256.158 492.699 256.055 492.951C255.952 493.204 255.935 493.483 256.006 493.747C256.077 494.01 256.232 494.243 256.447 494.41C256.663 494.577 256.927 494.669 257.2 494.672ZM270.125 486.797C270.365 486.797 270.599 486.727 270.8 486.597L275.05 483.872C275.31 483.685 275.488 483.406 275.548 483.091C275.607 482.777 275.544 482.451 275.371 482.182C275.198 481.913 274.928 481.72 274.617 481.644C274.307 481.568 273.978 481.614 273.7 481.772L269.45 484.472C269.224 484.618 269.051 484.834 268.957 485.087C268.863 485.339 268.853 485.616 268.929 485.874C269.005 486.133 269.162 486.36 269.378 486.522C269.594 486.684 269.856 486.772 270.125 486.772V486.797ZM217.275 480.072C217.44 480.066 217.601 480.027 217.75 479.958C217.899 479.889 218.033 479.792 218.145 479.671C218.256 479.55 218.343 479.409 218.4 479.255C218.456 479.1 218.482 478.936 218.475 478.772L218.3 473.772C218.275 473.445 218.127 473.14 217.886 472.917C217.645 472.694 217.328 472.571 217 472.572C216.836 472.579 216.675 472.617 216.526 472.686C216.376 472.755 216.242 472.853 216.131 472.973C216.019 473.094 215.933 473.236 215.876 473.39C215.819 473.544 215.794 473.708 215.8 473.872L215.975 478.872C216.007 479.195 216.163 479.493 216.41 479.703C216.657 479.913 216.977 480.018 217.3 479.997L217.275 480.072ZM282.875 478.622C283.115 478.623 283.35 478.554 283.55 478.422L287.8 475.722C288.06 475.535 288.238 475.256 288.298 474.941C288.357 474.627 288.294 474.301 288.121 474.032C287.948 473.763 287.678 473.57 287.367 473.494C287.057 473.418 286.728 473.464 286.45 473.622L282.2 476.347C281.974 476.493 281.801 476.709 281.707 476.962C281.613 477.214 281.603 477.491 281.679 477.749C281.755 478.008 281.912 478.235 282.128 478.397C282.344 478.559 282.606 478.647 282.875 478.647V478.622ZM295.65 470.472C295.89 470.472 296.124 470.402 296.325 470.272L300.6 467.597C300.882 467.422 301.083 467.141 301.158 466.818C301.233 466.494 301.176 466.154 301 465.872C300.825 465.59 300.544 465.39 300.221 465.315C299.897 465.24 299.557 465.297 299.275 465.472L295 468.172C294.774 468.318 294.601 468.534 294.507 468.787C294.413 469.039 294.403 469.316 294.479 469.574C294.555 469.833 294.712 470.06 294.928 470.222C295.144 470.384 295.406 470.472 295.675 470.472H295.65ZM216.725 464.922C216.89 464.916 217.051 464.877 217.2 464.808C217.349 464.739 217.483 464.642 217.595 464.521C217.706 464.4 217.793 464.259 217.85 464.105C217.906 463.95 217.932 463.786 217.925 463.622L217.725 458.622C217.706 458.293 217.56 457.984 217.317 457.76C217.075 457.536 216.755 457.415 216.425 457.422C216.261 457.429 216.1 457.467 215.951 457.536C215.801 457.605 215.667 457.703 215.556 457.823C215.444 457.944 215.358 458.086 215.301 458.24C215.244 458.394 215.219 458.558 215.225 458.722L215.425 463.722C215.457 464.045 215.613 464.343 215.86 464.553C216.107 464.763 216.427 464.868 216.75 464.847L216.725 464.922ZM308.525 462.422C308.754 462.426 308.979 462.365 309.175 462.247L313.5 459.747C313.779 459.575 313.98 459.3 314.058 458.982C314.136 458.664 314.087 458.328 313.919 458.046C313.752 457.764 313.481 457.559 313.164 457.475C312.847 457.391 312.51 457.435 312.225 457.597L307.9 460.097C307.664 460.238 307.48 460.452 307.378 460.707C307.276 460.962 307.26 461.244 307.334 461.509C307.408 461.774 307.568 462.007 307.787 462.172C308.007 462.337 308.275 462.425 308.55 462.422H308.525ZM321.575 454.747C321.795 454.745 322.011 454.685 322.2 454.572L326.575 452.072C326.845 451.9 327.038 451.632 327.116 451.322C327.193 451.011 327.149 450.683 326.992 450.405C326.835 450.126 326.578 449.919 326.272 449.824C325.967 449.73 325.637 449.756 325.35 449.897L320.975 452.397C320.741 452.536 320.558 452.749 320.455 453.001C320.352 453.254 320.335 453.533 320.406 453.797C320.477 454.06 320.632 454.293 320.847 454.46C321.063 454.628 321.327 454.719 321.6 454.722L321.575 454.747ZM216.125 449.747C216.289 449.741 216.451 449.702 216.6 449.633C216.749 449.564 216.883 449.467 216.995 449.346C217.106 449.225 217.193 449.084 217.25 448.93C217.306 448.775 217.332 448.611 217.325 448.447L217.125 443.447C217.122 443.282 217.086 443.119 217.018 442.968C216.95 442.817 216.853 442.682 216.731 442.57C216.61 442.458 216.467 442.371 216.311 442.316C216.156 442.26 215.99 442.237 215.825 442.247C215.661 442.254 215.5 442.292 215.351 442.361C215.201 442.43 215.067 442.528 214.956 442.648C214.844 442.769 214.758 442.911 214.701 443.065C214.644 443.219 214.619 443.383 214.625 443.547L214.825 448.547C214.845 448.874 214.992 449.181 215.235 449.401C215.478 449.62 215.798 449.736 216.125 449.722V449.747ZM334.775 447.247C334.985 447.248 335.191 447.197 335.375 447.097L339.8 444.597C340.092 444.438 340.309 444.17 340.402 443.851C340.496 443.532 340.459 443.189 340.3 442.897C340.141 442.605 339.873 442.389 339.554 442.295C339.235 442.201 338.892 442.238 338.6 442.397L334.175 444.897C333.93 445.03 333.736 445.24 333.624 445.496C333.512 445.751 333.489 446.036 333.558 446.306C333.627 446.577 333.784 446.816 334.005 446.986C334.225 447.157 334.496 447.249 334.775 447.247ZM348.075 439.997C348.285 439.998 348.491 439.947 348.675 439.847L353.125 437.347C353.282 437.277 353.422 437.175 353.537 437.049C353.653 436.922 353.741 436.773 353.796 436.611C353.852 436.449 353.873 436.277 353.859 436.106C353.846 435.935 353.797 435.769 353.716 435.618C353.635 435.467 353.524 435.334 353.39 435.227C353.256 435.121 353.101 435.043 352.935 434.999C352.77 434.955 352.597 434.945 352.427 434.971C352.258 434.996 352.096 435.056 351.95 435.147L347.5 437.647C347.255 437.78 347.061 437.99 346.949 438.246C346.837 438.501 346.814 438.786 346.883 439.056C346.952 439.327 347.109 439.566 347.33 439.736C347.55 439.907 347.821 439.999 348.1 439.997H348.075ZM215.575 434.522C215.739 434.516 215.901 434.477 216.05 434.408C216.199 434.339 216.333 434.242 216.445 434.121C216.556 434 216.643 433.859 216.7 433.705C216.756 433.55 216.782 433.386 216.775 433.222L216.625 428.222C216.612 427.893 216.472 427.581 216.235 427.353C215.997 427.124 215.68 426.997 215.35 426.997C215.186 427 215.024 427.036 214.874 427.102C214.723 427.168 214.587 427.263 214.474 427.381C214.36 427.499 214.271 427.639 214.211 427.792C214.151 427.945 214.122 428.108 214.125 428.272L214.275 433.272C214.265 433.447 214.291 433.622 214.352 433.786C214.413 433.95 214.508 434.099 214.631 434.224C214.753 434.349 214.901 434.446 215.063 434.511C215.226 434.575 215.4 434.605 215.575 434.597V434.522ZM361.45 432.847C361.651 432.845 361.849 432.794 362.025 432.697L366.475 430.322C366.632 430.252 366.772 430.15 366.887 430.024C367.003 429.897 367.091 429.748 367.146 429.586C367.202 429.424 367.223 429.252 367.209 429.081C367.195 428.91 367.147 428.744 367.066 428.593C366.985 428.442 366.874 428.309 366.74 428.202C366.606 428.096 366.451 428.018 366.285 427.974C366.12 427.93 365.947 427.92 365.777 427.946C365.608 427.971 365.446 428.031 365.3 428.122L360.85 430.497C360.607 430.629 360.414 430.837 360.301 431.09C360.189 431.343 360.164 431.626 360.23 431.894C360.295 432.163 360.448 432.403 360.665 432.575C360.881 432.747 361.149 432.843 361.425 432.847H361.45ZM374.825 425.747C375.035 425.748 375.241 425.697 375.425 425.597L379.875 423.097C380.144 422.929 380.338 422.666 380.42 422.36C380.502 422.054 380.464 421.728 380.315 421.449C380.166 421.169 379.916 420.957 379.616 420.855C379.317 420.752 378.989 420.768 378.7 420.897L374.25 423.397C374.005 423.53 373.811 423.74 373.699 423.996C373.587 424.251 373.564 424.536 373.633 424.806C373.702 425.077 373.859 425.316 374.08 425.486C374.3 425.657 374.571 425.749 374.85 425.747H374.825ZM215.175 419.347C215.339 419.344 215.501 419.308 215.652 419.243C215.802 419.177 215.938 419.082 216.052 418.964C216.166 418.845 216.255 418.705 216.315 418.553C216.375 418.4 216.404 418.236 216.4 418.072C216.4 416.406 216.4 414.739 216.4 413.072C216.404 412.907 216.374 412.743 216.312 412.59C216.251 412.437 216.159 412.298 216.042 412.181C215.925 412.064 215.786 411.972 215.633 411.91C215.479 411.849 215.315 411.819 215.15 411.822C214.819 411.822 214.501 411.954 214.266 412.188C214.032 412.423 213.9 412.741 213.9 413.072C213.9 414.739 213.9 416.406 213.9 418.072C213.897 418.241 213.928 418.408 213.99 418.564C214.053 418.72 214.147 418.862 214.266 418.981C214.385 419.1 214.527 419.194 214.683 419.257C214.84 419.32 215.007 419.351 215.175 419.347ZM388.15 418.547C388.36 418.548 388.566 418.497 388.75 418.397L393.175 415.897C393.32 415.818 393.447 415.712 393.551 415.584C393.654 415.456 393.731 415.309 393.777 415.151C393.824 414.993 393.839 414.827 393.821 414.664C393.804 414.5 393.754 414.342 393.675 414.197C393.596 414.053 393.49 413.925 393.362 413.822C393.234 413.719 393.087 413.642 392.929 413.595C392.771 413.549 392.605 413.534 392.442 413.551C392.278 413.569 392.12 413.618 391.975 413.697L387.55 416.197C387.305 416.33 387.111 416.54 386.999 416.796C386.887 417.051 386.864 417.336 386.933 417.606C387.002 417.877 387.159 418.116 387.38 418.286C387.6 418.457 387.871 418.549 388.15 418.547ZM401.4 411.247C401.618 411.253 401.834 411.201 402.025 411.097L406.425 408.597C406.714 408.431 406.924 408.158 407.011 407.837C407.098 407.516 407.054 407.173 406.888 406.885C406.722 406.596 406.448 406.386 406.127 406.299C405.806 406.212 405.464 406.256 405.175 406.422L400.8 408.922C400.553 409.056 400.358 409.268 400.246 409.526C400.134 409.784 400.113 410.072 400.185 410.344C400.257 410.616 400.419 410.855 400.644 411.023C400.869 411.192 401.144 411.279 401.425 411.272L401.4 411.247ZM215.1 404.347C215.432 404.347 215.75 404.216 215.984 403.981C216.219 403.747 216.35 403.429 216.35 403.097C216.35 401.431 216.35 399.764 216.35 398.097C216.354 397.933 216.325 397.77 216.265 397.617C216.205 397.464 216.116 397.324 216.002 397.206C215.888 397.088 215.752 396.993 215.602 396.927C215.451 396.861 215.289 396.826 215.125 396.822C214.801 396.839 214.494 396.972 214.259 397.197C214.025 397.422 213.88 397.724 213.85 398.047C213.85 399.714 213.85 401.381 213.85 403.047C213.85 403.379 213.982 403.697 214.216 403.931C214.451 404.166 214.769 404.297 215.1 404.297V404.347ZM414.55 403.847C414.771 403.846 414.986 403.786 415.175 403.672L419.525 401.172C419.804 401 420.004 400.725 420.083 400.407C420.161 400.089 420.112 399.753 419.944 399.471C419.777 399.189 419.506 398.984 419.189 398.9C418.872 398.816 418.535 398.86 418.25 399.022L413.925 401.522C413.691 401.661 413.508 401.874 413.405 402.126C413.302 402.379 413.285 402.658 413.356 402.922C413.427 403.185 413.582 403.418 413.797 403.585C414.013 403.752 414.277 403.844 414.55 403.847ZM215.4 389.197C215.723 389.198 216.034 389.073 216.267 388.849C216.5 388.625 216.637 388.32 216.65 387.997C216.65 386.331 216.717 384.664 216.85 382.997C216.85 382.666 216.719 382.348 216.484 382.113C216.25 381.879 215.932 381.747 215.6 381.747C215.269 381.747 214.951 381.879 214.716 382.113C214.482 382.348 214.35 382.666 214.35 382.997C214.35 384.664 214.284 386.331 214.15 387.997C214.144 388.161 214.169 388.325 214.226 388.48C214.283 388.634 214.369 388.775 214.481 388.896C214.592 389.017 214.726 389.114 214.876 389.183C215.025 389.252 215.186 389.291 215.35 389.297L215.4 389.197ZM216.225 374.072C216.54 374.073 216.844 373.955 217.076 373.742C217.307 373.529 217.45 373.236 217.475 372.922C217.592 371.256 217.725 369.589 217.875 367.922C217.903 367.594 217.801 367.269 217.59 367.016C217.379 366.763 217.078 366.604 216.75 366.572C216.424 366.551 216.102 366.656 215.851 366.865C215.599 367.074 215.438 367.372 215.4 367.697C215.25 369.364 215.117 371.031 215 372.697C214.98 373.025 215.089 373.347 215.304 373.595C215.519 373.843 215.823 373.997 216.15 374.022L216.225 374.072ZM217.675 359.072C217.982 359.074 218.28 358.964 218.51 358.761C218.741 358.558 218.888 358.277 218.925 357.972C219.125 356.306 219.334 354.639 219.55 352.972C219.593 352.644 219.504 352.313 219.302 352.05C219.101 351.788 218.803 351.616 218.475 351.572C218.148 351.536 217.82 351.628 217.559 351.828C217.298 352.029 217.125 352.322 217.075 352.647C216.842 354.314 216.625 355.981 216.425 357.647C216.404 357.812 216.416 357.978 216.461 358.138C216.505 358.298 216.58 358.447 216.682 358.577C216.785 358.708 216.912 358.816 217.057 358.897C217.201 358.978 217.361 359.029 217.525 359.047L217.675 359.072Z" fill="#2E3192"/>
<path d="M427.625 395.897C427.856 395.892 428.081 395.823 428.275 395.697L430.4 394.372C430.682 394.197 430.882 393.916 430.957 393.593C431.032 393.269 430.976 392.929 430.8 392.647C430.624 392.366 430.344 392.165 430.02 392.09C429.697 392.015 429.357 392.072 429.075 392.247L426.95 393.572C426.725 393.717 426.553 393.931 426.459 394.181C426.364 394.431 426.352 394.705 426.425 394.963C426.498 395.22 426.651 395.447 426.863 395.611C427.074 395.775 427.333 395.866 427.6 395.872L427.625 395.897Z" fill="#2E3192"/>
<path d="M237.146 432.471C230.228 429.69 227.075 421.329 230.103 413.797C233.131 406.264 241.194 402.412 248.112 405.193C255.03 407.974 258.183 416.335 255.155 423.867C252.127 431.4 244.064 435.252 237.146 432.471Z" fill="#443CE5"/>
<path d="M206.825 125.222C206.825 125.222 230.55 148.922 241.15 151.397C237.368 160.958 230.094 168.724 220.8 173.122C220.8 173.122 197.325 166.297 191.6 151.297C191.6 151.297 204.325 168.972 219.975 170.247C227.688 166.357 234.073 160.267 238.325 152.747C238.325 152.747 217.925 143.747 206.825 125.222Z" fill="#181884"/>
<path d="M268.175 134.672L259.1 163.847L266.675 161.922L268.175 134.672Z" fill="#181884"/>
<path d="M242.925 412.797C250.975 412.797 250.975 425.297 242.925 425.297C234.875 425.297 234.85 412.797 242.925 412.797Z" fill="#FFB92C"/>
<path d="M563.8 529.522C563.507 531.54 563.811 533.6 564.675 535.447C566.1 537.947 568.3 542.322 573.675 541.522C579.05 540.722 589.325 534.372 593.675 532.422C598.025 530.472 609.45 528.247 609.6 526.172C609.75 524.097 609.6 518.547 609.6 518.547" fill="#4C0D0A"/>
<path d="M586.525 511.847C586.525 511.847 585.175 516.222 577.525 519.697C569.875 523.172 562.525 526.622 563.925 531.222C564.496 533.331 565.784 535.175 567.569 536.434C569.354 537.694 571.522 538.291 573.7 538.122C578.5 538.122 589.225 529.297 596.2 527.397C603.175 525.497 608.85 524.322 609.225 522.022C609.6 519.722 609.225 507.647 609.225 507.647" fill="#443CE5"/>
<path d="M638.225 491.247C638.225 491.247 637.175 498.747 640.05 499.597C644.356 500.591 648.87 500.116 652.875 498.247C658.375 495.947 674.6 480.472 676.175 474.847C676.175 474.847 677.275 471.622 668.35 463.672" fill="#4C0D0A"/>
<path d="M648.975 471.122C648.975 471.122 650.55 477.072 648.975 480.097C647.4 483.122 637.725 488.147 638.25 491.272C638.775 494.397 642.8 498.122 649.675 495.322C656.55 492.522 668.1 482.822 670.45 478.972C672.8 475.122 674.9 471.872 672.275 467.947C669.65 464.022 655.85 452.772 655.85 452.772" fill="#443CE5"/>
<path d="M599 347.597L562.9 363.872L646.275 473.872C646.275 473.872 664.4 473.872 667.475 455.897L599 347.597Z" fill="#D33B33"/>
<path d="M500.625 397.622C504.607 394.759 509.37 393.18 514.275 393.097C516.45 393.097 516.45 396.422 514.275 396.497C510.911 396.536 507.607 397.394 504.65 398.997C502.8 400.022 497.85 403.097 498.125 405.697C498.45 408.772 504.775 403.647 506.1 402.747C508.95 400.822 511.75 398.797 514.5 396.722C516.25 395.422 517.95 398.347 516.2 399.647C513.325 401.797 495.4 417.322 494.625 406.647C494.35 402.847 497.8 399.697 500.625 397.622Z" fill="#E7483B"/>
<path d="M593.5 378.722C593.5 378.722 589.3 416.972 583.875 440.147C578.45 463.322 582 512.522 582 512.522C582 512.522 608.6 525.597 611.05 512.522C613.5 499.447 616.75 455.747 616.75 455.747C616.75 455.747 630.5 417.497 632.6 396.847C634.25 380.647 621.5 361.847 621.5 361.847" fill="#E7483B"/>
<path d="M544.425 505.122L555.6 437.122C556.005 433.664 555.387 430.163 553.823 427.053C552.259 423.942 549.817 421.359 546.8 419.622C536.1 412.997 507.8 393.822 507.8 393.822C507.8 393.822 493.525 389.672 491.225 400.097C489.65 407.272 478.175 463.797 478.175 463.797" stroke="#42210B" stroke-width="3.045" stroke-miterlimit="10"/>
<path d="M420.825 530.147L457.25 550.722C457.592 550.969 457.83 551.334 457.917 551.747C458.005 552.159 457.936 552.589 457.724 552.954C457.512 553.318 457.172 553.591 456.771 553.719C456.369 553.847 455.934 553.822 455.55 553.647L419.125 533.072C418.784 532.825 418.546 532.46 418.459 532.048C418.371 531.635 418.44 531.205 418.652 530.841C418.864 530.476 419.203 530.203 419.605 530.075C420.007 529.947 420.442 529.973 420.825 530.147Z" fill="#E7483B"/>
<path d="M459.425 552.997C460.325 542.222 468.825 533.922 473.925 524.972C474.165 524.608 474.536 524.35 474.961 524.252C475.386 524.153 475.833 524.222 476.208 524.444C476.584 524.665 476.86 525.023 476.98 525.442C477.099 525.862 477.053 526.311 476.85 526.697C473.075 533.347 467.775 539.197 464.8 546.297C462.675 551.297 461.8 556.772 464.8 561.672C466.875 565.122 469.425 567.247 473.675 566.422C476.892 567.039 478.259 565.539 477.775 561.922C480.075 558.256 478.967 556.039 474.45 555.272C472.3 554.972 473.225 551.697 475.35 551.997C489 553.872 482.5 574.497 468.75 569.697C461.85 567.372 458.85 559.747 459.425 552.997Z" fill="#E7483B"/>
<path d="M517.55 530.797C517.227 532.216 517.2 533.686 517.47 535.115C517.74 536.545 518.302 537.904 519.12 539.107C519.938 540.31 520.995 541.332 522.225 542.109C523.455 542.886 524.831 543.402 526.269 543.624C527.707 543.845 529.175 543.769 530.582 543.399C531.989 543.029 533.305 542.373 534.448 541.472C535.59 540.572 536.535 539.445 537.224 538.164C537.912 536.882 538.33 535.472 538.45 534.022C539.4 527.822 537.55 521.972 529.725 521.172C526.845 520.894 523.969 521.74 521.7 523.534C519.43 525.328 517.943 527.931 517.55 530.797Z" fill="#9E3312"/>
<path d="M527.15 544.222C525.1 543.691 523.172 542.766 521.475 541.497C519.1 539.572 520.875 534.622 520.875 534.622" fill="#9E3312"/>
<path d="M528.94 544.657C523.167 543.767 519.264 538.013 520.22 531.804C521.177 525.595 526.632 521.283 532.404 522.172C538.177 523.061 542.08 528.816 541.124 535.025C540.167 541.234 534.712 545.546 528.94 544.657Z" fill="#F15A24"/>
<path d="M529.556 540.654C525.83 540.08 523.31 536.373 523.926 532.375C524.542 528.377 528.061 525.601 531.787 526.175C535.512 526.749 538.033 530.455 537.417 534.454C536.801 538.452 533.281 541.228 529.556 540.654Z" fill="#F2AB1C"/>
<path d="M460.625 558.347C460.303 559.766 460.276 561.236 460.546 562.666C460.816 564.095 461.377 565.454 462.195 566.657C463.013 567.86 464.07 568.882 465.3 569.659C466.53 570.436 467.907 570.952 469.345 571.174C470.783 571.395 472.251 571.319 473.658 570.949C475.065 570.579 476.381 569.923 477.523 569.022C478.666 568.122 479.611 566.995 480.299 565.714C480.988 564.432 481.405 563.022 481.525 561.572C482.475 555.372 480.625 549.522 472.8 548.722C469.921 548.444 467.045 549.29 464.775 551.084C462.506 552.878 461.019 555.481 460.625 558.347Z" fill="#9E3312"/>
<path d="M470.225 571.847C468.174 571.316 466.246 570.391 464.55 569.122C462.175 567.197 463.95 562.247 463.95 562.247" fill="#9E3312"/>
<path d="M472.008 572.191C466.236 571.301 462.332 565.547 463.289 559.338C464.245 553.129 469.7 548.817 475.473 549.706C481.245 550.596 485.149 556.35 484.192 562.559C483.235 568.768 477.78 573.08 472.008 572.191Z" fill="#F15A24"/>
<path d="M472.624 568.188C468.899 567.614 466.378 563.907 466.994 559.909C467.61 555.911 471.13 553.135 474.855 553.709C478.581 554.283 481.101 557.99 480.485 561.988C479.869 565.986 476.349 568.762 472.624 568.188Z" fill="#F2AB1C"/>
<path d="M548.9 514.072L459.475 564.747C457.835 565.677 455.975 566.151 454.089 566.12C452.203 566.09 450.36 565.555 448.75 564.572L386.25 526.397C385.779 526.115 385.389 525.716 385.118 525.239C384.847 524.761 384.705 524.221 384.705 523.672C384.705 523.123 384.847 522.583 385.118 522.106C385.389 521.628 385.779 521.229 386.25 520.947L474.325 470.097C475.571 469.375 476.985 468.995 478.425 468.995C479.865 468.995 481.28 469.375 482.525 470.097L548.925 508.547C549.413 508.826 549.818 509.23 550.098 509.716C550.379 510.203 550.525 510.755 550.523 511.317C550.52 511.879 550.369 512.43 550.084 512.914C549.799 513.398 549.39 513.798 548.9 514.072Z" fill="#68E1FD"/>
<path d="M550.45 510.697V503.022L544.125 507.747L550.45 510.697Z" fill="#68E1FD"/>
<path d="M384.7 515.522V523.372L391.45 519.447L384.7 515.522Z" fill="#68E1FD"/>
<g opacity="0.36">
<path opacity="0.36" d="M548.9 514.072L459.475 564.747C457.835 565.677 455.975 566.151 454.089 566.12C452.203 566.09 450.36 565.555 448.75 564.572L386.25 526.397C385.779 526.115 385.389 525.716 385.118 525.239C384.847 524.761 384.705 524.221 384.705 523.672C384.705 523.123 384.847 522.583 385.118 522.106C385.389 521.628 385.779 521.229 386.25 520.947L474.325 470.097C475.571 469.375 476.985 468.995 478.425 468.995C479.865 468.995 481.28 469.375 482.525 470.097L548.925 508.547C549.413 508.826 549.818 509.23 550.098 509.716C550.379 510.203 550.525 510.755 550.523 511.317C550.52 511.879 550.369 512.43 550.084 512.914C549.799 513.398 549.39 513.798 548.9 514.072Z" fill="black"/>
<path opacity="0.36" d="M550.451 510.697V503.022L544.126 507.747L550.451 510.697Z" fill="black"/>
<path opacity="0.36" d="M384.7 515.522V523.372L391.45 519.447L384.7 515.522Z" fill="black"/>
</g>
<path d="M548.9 505.697L459.475 556.372C457.834 557.302 455.974 557.776 454.089 557.745C452.203 557.715 450.36 557.18 448.75 556.197L386.25 518.022C385.779 517.74 385.389 517.341 385.118 516.864C384.847 516.386 384.704 515.846 384.704 515.297C384.704 514.748 384.847 514.208 385.118 513.731C385.389 513.253 385.779 512.854 386.25 512.572L474.325 461.847C475.571 461.125 476.985 460.745 478.425 460.745C479.865 460.745 481.279 461.125 482.525 461.847L548.925 500.297C549.384 500.584 549.761 500.983 550.023 501.457C550.284 501.931 550.419 502.463 550.417 503.004C550.414 503.545 550.274 504.077 550.008 504.548C549.743 505.019 549.361 505.415 548.9 505.697Z" fill="#68E1FD"/>
<path d="M464.8 544.497C436.826 544.497 414.15 531.211 414.15 514.822C414.15 498.433 436.826 485.147 464.8 485.147C492.773 485.147 515.45 498.433 515.45 514.822C515.45 531.211 492.773 544.497 464.8 544.497Z" fill="#FF912E"/>
<path d="M515.45 514.822V506.247L509.95 513.097L515.45 514.822Z" fill="#E0944F"/>
<path d="M414.15 506.247V514.822H420.6L415.875 507.947L414.15 506.247Z" fill="#E0944F"/>
<path d="M464.8 535.922C436.826 535.922 414.15 522.636 414.15 506.247C414.15 489.858 436.826 476.572 464.8 476.572C492.773 476.572 515.45 489.858 515.45 506.247C515.45 522.636 492.773 535.922 464.8 535.922Z" fill="#FFB92C"/>
<path d="M439.125 502.297C438.773 502.991 438.634 503.774 438.725 504.547L438.925 505.322H448.175C448.092 505.07 448.034 504.811 448 504.547C448.035 503.951 448.225 503.374 448.55 502.872C449.062 501.976 449.839 501.259 450.775 500.822C452.119 500.113 453.606 499.72 455.125 499.672C456.529 499.568 457.939 499.782 459.25 500.297C460.55 500.847 461.05 501.572 460.75 502.472C460.314 503.573 459.64 504.564 458.775 505.372C457.777 506.39 456.842 507.467 455.975 508.597C455.562 509.085 455.295 509.679 455.207 510.312C455.118 510.945 455.211 511.59 455.475 512.172C456.492 513.854 458.095 515.1 459.975 515.672C463.082 516.97 466.408 517.665 469.775 517.722C473.411 517.84 477.04 517.324 480.5 516.197L485.825 518.472L492.05 515.447L486.875 513.222C487.811 512.605 488.653 511.855 489.375 510.997C489.907 510.387 490.323 509.683 490.6 508.922C490.778 508.38 490.887 507.817 490.925 507.247C490.989 506.858 490.989 506.461 490.925 506.072L490.75 505.622H481.5C481.594 505.926 481.669 506.234 481.725 506.547C481.683 507.305 481.423 508.034 480.975 508.647C480.214 509.761 479.146 510.63 477.9 511.147C476.228 511.991 474.396 512.469 472.525 512.547C470.819 512.667 469.108 512.393 467.525 511.747C466.241 511.197 465.758 510.472 466.075 509.572C466.532 508.464 467.233 507.473 468.125 506.672C469.143 505.667 470.087 504.589 470.95 503.447C471.352 502.953 471.604 502.352 471.675 501.719C471.746 501.085 471.633 500.444 471.35 499.872C470.246 498.16 468.573 496.894 466.625 496.297C463.637 495.091 460.447 494.463 457.225 494.447C453.824 494.333 450.432 494.859 447.225 495.997L441.925 493.722L436.125 496.872L441.45 499.147C440.41 499.973 439.607 501.06 439.125 502.297Z" fill="#EA8B24"/>
<path d="M464.725 535.472C490.775 535.472 511.175 522.797 511.175 506.622C511.175 490.447 490.775 477.772 464.725 477.772C438.675 477.772 418.275 490.447 418.275 506.622C418.275 522.797 438.675 535.472 464.725 535.472ZM464.725 485.647C485.625 485.647 503.3 495.247 503.3 506.622C503.3 517.997 485.625 527.597 464.725 527.597C443.825 527.597 426.15 517.997 426.15 506.622C426.15 495.247 443.8 485.647 464.725 485.647Z" fill="#F7931E"/>
<path d="M464.8 528.147C436.826 528.147 414.15 514.861 414.15 498.472C414.15 482.083 436.826 468.797 464.8 468.797C492.773 468.797 515.45 482.083 515.45 498.472C515.45 514.861 492.773 528.147 464.8 528.147Z" fill="#FF912E"/>
<path d="M515.45 498.472V489.922L509.95 496.772L515.45 498.472Z" fill="#E0944F"/>
<path d="M414.15 489.922V498.472H420.6L415.875 491.597L414.15 489.922Z" fill="#E0944F"/>
<path d="M464.8 519.597C436.826 519.597 414.15 506.311 414.15 489.922C414.15 473.533 436.826 460.247 464.8 460.247C492.773 460.247 515.45 473.533 515.45 489.922C515.45 506.311 492.773 519.597 464.8 519.597Z" fill="#FFB92C"/>
<path d="M439.125 485.947C438.773 486.642 438.634 487.424 438.725 488.197L438.925 488.972H448.175C448.092 488.72 448.034 488.461 448 488.197C448.035 487.601 448.225 487.024 448.55 486.522C449.062 485.626 449.839 484.909 450.775 484.472C452.119 483.764 453.606 483.37 455.125 483.322C456.529 483.218 457.939 483.432 459.25 483.947C460.55 484.497 461.05 485.222 460.75 486.122C460.314 487.223 459.64 488.214 458.775 489.022C457.777 490.04 456.842 491.117 455.975 492.247C455.562 492.735 455.295 493.329 455.207 493.962C455.118 494.595 455.211 495.24 455.475 495.822C456.492 497.504 458.095 498.75 459.975 499.322C463.082 500.62 466.408 501.315 469.775 501.372C473.411 501.49 477.04 500.974 480.5 499.847L485.825 502.122L492.05 499.097L486.875 496.872C487.811 496.255 488.653 495.505 489.375 494.647C489.907 494.037 490.323 493.334 490.6 492.572C490.778 492.03 490.887 491.467 490.925 490.897C490.989 490.508 490.989 490.111 490.925 489.722L490.75 489.272H481.5C481.594 489.576 481.669 489.885 481.725 490.197C481.683 490.955 481.423 491.685 480.975 492.297C480.214 493.411 479.146 494.28 477.9 494.797C476.228 495.641 474.396 496.119 472.525 496.197C470.819 496.317 469.108 496.043 467.525 495.397C466.241 494.847 465.758 494.122 466.075 493.222C466.532 492.114 467.233 491.123 468.125 490.322C469.143 489.317 470.087 488.239 470.95 487.097C471.352 486.603 471.604 486.002 471.675 485.369C471.746 484.735 471.633 484.094 471.35 483.522C470.246 481.81 468.573 480.544 466.625 479.947C463.637 478.741 460.447 478.113 457.225 478.097C453.824 477.983 450.432 478.508 447.225 479.647L441.925 477.372L436.125 480.522L441.45 482.797C440.41 483.623 439.607 484.71 439.125 485.947Z" fill="#EA8B24"/>
<path d="M464.725 519.122C490.775 519.122 511.175 506.447 511.175 490.272C511.175 474.097 490.775 461.422 464.725 461.422C438.675 461.422 418.275 474.097 418.275 490.272C418.275 506.447 438.675 519.122 464.725 519.122ZM464.725 469.297C485.625 469.297 503.3 478.897 503.3 490.272C503.3 501.647 485.625 511.247 464.725 511.247C443.825 511.247 426.15 501.647 426.15 490.272C426.15 478.897 443.8 469.347 464.725 469.347V469.297Z" fill="#F7931E"/>
<path d="M464.8 511.747C436.826 511.747 414.15 498.461 414.15 482.072C414.15 465.683 436.826 452.397 464.8 452.397C492.773 452.397 515.45 465.683 515.45 482.072C515.45 498.461 492.773 511.747 464.8 511.747Z" fill="#FF912E"/>
<path d="M515.45 482.072V473.497L509.95 480.347L515.45 482.072Z" fill="#E0944F"/>
<path d="M414.15 473.497V482.072H420.6L415.875 475.197L414.15 473.497Z" fill="#E0944F"/>
<path d="M464.8 503.172C436.826 503.172 414.15 489.886 414.15 473.497C414.15 457.108 436.826 443.822 464.8 443.822C492.773 443.822 515.45 457.108 515.45 473.497C515.45 489.886 492.773 503.172 464.8 503.172Z" fill="#FFB92C"/>
<path d="M439.125 469.547C438.773 470.241 438.634 471.024 438.725 471.797L438.925 472.572H448.175C448.092 472.32 448.034 472.061 448 471.797C448.035 471.201 448.224 470.624 448.55 470.122C449.062 469.226 449.839 468.509 450.775 468.072C452.119 467.363 453.606 466.97 455.125 466.922C456.529 466.818 457.939 467.032 459.25 467.547C460.55 468.097 461.05 468.822 460.75 469.722C460.314 470.823 459.64 471.814 458.775 472.622C457.777 473.64 456.842 474.717 455.975 475.847C455.562 476.335 455.295 476.929 455.207 477.562C455.118 478.195 455.211 478.84 455.475 479.422C456.492 481.104 458.095 482.35 459.975 482.922C463.082 484.22 466.408 484.915 469.775 484.972C473.411 485.09 477.04 484.574 480.5 483.447L485.825 485.722L492.05 482.697L486.875 480.472C487.811 479.855 488.653 479.105 489.375 478.247C489.907 477.637 490.323 476.933 490.6 476.172C490.778 475.63 490.887 475.067 490.925 474.497C490.989 474.108 490.989 473.711 490.925 473.322L490.75 472.872H481.5C481.594 473.176 481.669 473.484 481.725 473.797C481.683 474.555 481.423 475.284 480.975 475.897C480.214 477.011 479.146 477.88 477.9 478.397C476.228 479.241 474.396 479.719 472.525 479.797C470.819 479.917 469.108 479.643 467.525 478.997C466.241 478.447 465.758 477.722 466.075 476.822C466.532 475.714 467.233 474.723 468.125 473.922C469.143 472.917 470.087 471.839 470.95 470.697C471.352 470.202 471.604 469.602 471.675 468.969C471.746 468.335 471.633 467.694 471.35 467.122C470.246 465.41 468.573 464.144 466.625 463.547C463.637 462.341 460.447 461.713 457.225 461.697C453.824 461.583 450.432 462.108 447.225 463.247L441.925 460.972L436 464.347L441.325 466.622C440.361 467.401 439.605 468.406 439.125 469.547Z" fill="#EA8B24"/>
<path d="M464.725 502.722C490.775 502.722 511.175 490.047 511.175 473.872C511.175 457.697 490.775 445.022 464.725 445.022C438.675 445.022 418.275 457.697 418.275 473.872C418.275 490.047 438.675 502.722 464.725 502.722ZM464.725 452.897C485.625 452.897 503.3 462.497 503.3 473.872C503.3 485.247 485.625 494.847 464.725 494.847C443.825 494.847 426.15 485.247 426.15 473.872C426.15 462.497 443.8 452.897 464.725 452.897Z" fill="#F7931E"/>
<path d="M464.8 499.622C436.826 499.622 414.15 486.336 414.15 469.947C414.15 453.558 436.826 440.272 464.8 440.272C492.773 440.272 515.45 453.558 515.45 469.947C515.45 486.336 492.773 499.622 464.8 499.622Z" fill="#FF912E"/>
<path d="M515.45 469.947V461.372L509.95 468.222L515.45 469.947Z" fill="#E0944F"/>
<path d="M414.15 461.372V469.947H420.6L415.875 463.072L414.15 461.372Z" fill="#E0944F"/>
<path d="M464.8 491.047C436.826 491.047 414.15 477.761 414.15 461.372C414.15 444.983 436.826 431.697 464.8 431.697C492.773 431.697 515.45 444.983 515.45 461.372C515.45 477.761 492.773 491.047 464.8 491.047Z" fill="#FFB92C"/>
<path d="M439.125 457.397C438.773 458.092 438.634 458.874 438.725 459.647L438.925 460.422H448.175C448.092 460.17 448.034 459.911 448 459.647C448.035 459.051 448.225 458.474 448.55 457.972C449.062 457.076 449.839 456.36 450.775 455.922C452.119 455.214 453.606 454.82 455.125 454.772C456.529 454.668 457.939 454.882 459.25 455.397C460.55 455.947 461.05 456.672 460.75 457.572C460.314 458.673 459.64 459.664 458.775 460.472C457.777 461.49 456.842 462.567 455.975 463.697C455.562 464.185 455.295 464.779 455.207 465.412C455.118 466.045 455.211 466.69 455.475 467.272C456.492 468.954 458.095 470.2 459.975 470.772C463.082 472.07 466.408 472.765 469.775 472.822C473.411 472.94 477.04 472.424 480.5 471.297L485.825 473.572L492.05 470.547L486.875 468.322C487.811 467.705 488.653 466.955 489.375 466.097C489.907 465.487 490.323 464.784 490.6 464.022C490.778 463.48 490.887 462.917 490.925 462.347C490.989 461.958 490.989 461.561 490.925 461.172L490.75 460.722H481.5C481.594 461.026 481.669 461.335 481.725 461.647C481.683 462.405 481.423 463.135 480.975 463.747C480.214 464.861 479.146 465.73 477.9 466.247C476.228 467.091 474.396 467.569 472.525 467.647C470.819 467.767 469.108 467.493 467.525 466.847C466.241 466.297 465.758 465.572 466.075 464.672C466.532 463.564 467.233 462.573 468.125 461.772C469.143 460.767 470.087 459.689 470.95 458.547C471.352 458.053 471.604 457.452 471.675 456.819C471.746 456.185 471.633 455.544 471.35 454.972C470.246 453.26 468.573 451.994 466.625 451.397C463.637 450.191 460.447 449.563 457.225 449.547C453.824 449.433 450.432 449.959 447.225 451.097L441.925 448.822L436.125 451.972L441.45 454.247C440.41 455.073 439.607 456.16 439.125 457.397Z" fill="#EA8B24"/>
<path d="M464.725 490.572C490.775 490.572 511.175 477.897 511.175 461.722C511.175 445.547 490.775 432.872 464.725 432.872C438.675 432.872 418.25 445.547 418.25 461.847C418.25 478.147 438.675 490.572 464.725 490.572ZM464.725 440.747C485.625 440.747 503.3 450.347 503.3 461.722C503.3 473.097 485.625 482.697 464.725 482.697C443.825 482.697 426.15 473.097 426.15 461.722C426.15 450.347 443.8 440.772 464.725 440.772V440.747Z" fill="#F7931E"/>
<path d="M456.6 483.197C428.627 483.197 405.95 469.911 405.95 453.522C405.95 437.133 428.627 423.847 456.6 423.847C484.573 423.847 507.25 437.133 507.25 453.522C507.25 469.911 484.573 483.197 456.6 483.197Z" fill="#FF912E"/>
<path d="M507.225 453.522V444.972L501.725 451.822L507.225 453.522Z" fill="#E0944F"/>
<path d="M405.95 444.972V453.522H412.375L407.65 446.647L405.95 444.972Z" fill="#E0944F"/>
<path d="M456.6 474.647C428.627 474.647 405.95 461.361 405.95 444.972C405.95 428.583 428.627 415.297 456.6 415.297C484.573 415.297 507.25 428.583 507.25 444.972C507.25 461.361 484.573 474.647 456.6 474.647Z" fill="#FFB92C"/>
<path d="M431 440.997C430.648 441.692 430.509 442.474 430.6 443.247L430.8 444.022H440.05C439.968 443.77 439.909 443.511 439.875 443.247C439.911 442.651 440.1 442.074 440.425 441.572C440.938 440.676 441.715 439.96 442.65 439.522C443.994 438.814 445.482 438.42 447 438.372C448.405 438.268 449.815 438.482 451.125 438.997C452.425 439.547 452.925 440.272 452.625 441.172C452.19 442.273 451.515 443.264 450.65 444.072C449.653 445.09 448.718 446.167 447.85 447.297C447.437 447.785 447.171 448.38 447.082 449.012C446.994 449.645 447.087 450.29 447.35 450.872C448.368 452.554 449.97 453.8 451.85 454.372C454.958 455.67 458.283 456.366 461.65 456.422C465.287 456.54 468.916 456.024 472.375 454.897L477.7 457.172L483.925 454.147L478.75 451.922C479.686 451.305 480.528 450.555 481.25 449.697C481.783 449.087 482.198 448.384 482.475 447.622C482.654 447.08 482.763 446.517 482.8 445.947C482.864 445.558 482.864 445.161 482.8 444.772L482.625 444.322H473.375C473.47 444.626 473.545 444.935 473.6 445.247C473.559 446.005 473.298 446.735 472.85 447.347C472.09 448.461 471.021 449.33 469.775 449.847C468.104 450.691 466.271 451.169 464.4 451.247C462.694 451.367 460.984 451.093 459.4 450.447C458.117 449.897 457.634 449.172 457.95 448.272C458.408 447.164 459.108 446.173 460 445.372C461.019 444.367 461.963 443.289 462.825 442.147C463.228 441.653 463.48 441.053 463.551 440.419C463.621 439.785 463.509 439.144 463.225 438.572C462.122 436.86 460.448 435.594 458.5 434.997C455.512 433.791 452.323 433.163 449.1 433.147C445.699 433.033 442.307 433.559 439.1 434.697L433.8 432.422L428 435.572L433.325 437.847C432.285 438.673 431.483 439.76 431 440.997Z" fill="#EA8B24"/>
<path d="M456.5 472.197C481.025 472.197 501 460.147 501 445.322C501 430.497 481 418.447 456.5 418.447C432 418.447 412 430.497 412 445.322C412 460.147 431.975 472.197 456.5 472.197ZM456.5 422.372C478.85 422.372 497.05 432.672 497.05 445.297C497.05 457.922 478.85 468.222 456.5 468.222C434.15 468.222 416 457.972 416 445.322C416 432.672 434.15 422.397 456.5 422.397V422.372Z" fill="#F7931E"/>
<path d="M438.65 465.672C410.677 465.672 388 452.386 388 435.997C388 419.608 410.677 406.322 438.65 406.322C466.623 406.322 489.3 419.608 489.3 435.997C489.3 452.386 466.623 465.672 438.65 465.672Z" fill="#FF912E"/>
<path d="M489.3 435.997V427.422L483.775 434.272L489.3 435.997Z" fill="#E0944F"/>
<path d="M388 427.422V435.997H394.425L389.725 429.097L388 427.422Z" fill="#E0944F"/>
<path d="M438.65 457.097C410.677 457.097 388 443.811 388 427.422C388 411.033 410.677 397.747 438.65 397.747C466.623 397.747 489.3 411.033 489.3 427.422C489.3 443.811 466.623 457.097 438.65 457.097Z" fill="#FFB92C"/>
<path d="M412.95 423.447C412.598 424.142 412.459 424.924 412.55 425.697L412.75 426.472H422C421.917 426.22 421.859 425.961 421.825 425.697C421.86 425.101 422.05 424.524 422.375 424.022C422.887 423.126 423.664 422.409 424.6 421.972C425.944 421.264 427.431 420.87 428.95 420.822C430.354 420.718 431.764 420.932 433.075 421.447C434.375 421.997 434.875 422.722 434.575 423.622C434.139 424.723 433.465 425.714 432.6 426.522C431.602 427.54 430.667 428.617 429.8 429.747C429.387 430.235 429.12 430.829 429.032 431.462C428.943 432.095 429.036 432.74 429.3 433.322C430.318 435.004 431.92 436.25 433.8 436.822C436.907 438.12 440.233 438.815 443.6 438.872C447.236 438.99 450.866 438.474 454.325 437.347L459.65 439.622L465.875 436.597L460.7 434.372C461.636 433.755 462.478 433.005 463.2 432.147C463.733 431.537 464.148 430.834 464.425 430.072C464.603 429.53 464.713 428.967 464.75 428.397C464.814 428.008 464.814 427.611 464.75 427.222L464.575 426.772H455.325C455.42 427.076 455.495 427.385 455.55 427.697C455.508 428.455 455.248 429.185 454.8 429.797C454.039 430.911 452.971 431.78 451.725 432.297C450.053 433.141 448.221 433.619 446.35 433.697C444.644 433.817 442.934 433.543 441.35 432.897C440.067 432.347 439.583 431.622 439.9 430.722C440.357 429.614 441.058 428.623 441.95 427.822C442.968 426.817 443.913 425.739 444.775 424.597C445.178 424.103 445.429 423.502 445.5 422.869C445.571 422.235 445.458 421.594 445.175 421.022C444.072 419.31 442.398 418.044 440.45 417.447C437.462 416.241 434.272 415.613 431.05 415.597C427.649 415.483 424.257 416.008 421.05 417.147L415.75 414.872L409.95 418.022L415.275 420.297C414.235 421.123 413.432 422.21 412.95 423.447Z" fill="#EA8B24"/>
<path d="M438.5 453.997C462.675 453.997 482.325 442.222 482.325 427.772C482.325 413.322 462.65 401.547 438.5 401.547C414.35 401.547 394.675 413.322 394.675 427.772C394.675 442.222 414.4 453.997 438.5 453.997ZM438.5 404.172C461.225 404.172 479.7 414.747 479.7 427.772C479.7 440.797 461.225 451.372 438.5 451.372C415.775 451.372 397.3 440.797 397.3 427.772C397.3 414.747 415.85 404.172 438.5 404.172Z" fill="#F7931E"/>
<path d="M463.225 440.697C435.252 440.697 412.575 427.411 412.575 411.022C412.575 394.633 435.252 381.347 463.225 381.347C491.198 381.347 513.875 394.633 513.875 411.022C513.875 427.411 491.198 440.697 463.225 440.697Z" fill="#FF912E"/>
<path d="M513.875 411.022V402.447L508.35 409.297L513.875 411.022Z" fill="#E0944F"/>
<path d="M412.575 402.447V411.022H419L414.3 404.147L412.575 402.447Z" fill="#E0944F"/>
<path d="M463.225 432.122C435.252 432.122 412.575 418.836 412.575 402.447C412.575 386.058 435.252 372.772 463.225 372.772C491.198 372.772 513.875 386.058 513.875 402.447C513.875 418.836 491.198 432.122 463.225 432.122Z" fill="#FFB92C"/>
<path d="M437.525 398.472C437.173 399.166 437.033 399.949 437.125 400.722L437.325 401.497H446.575C446.492 401.245 446.433 400.986 446.4 400.722C446.435 400.126 446.624 399.549 446.95 399.047C447.462 398.151 448.239 397.434 449.175 396.997C450.519 396.288 452.006 395.895 453.525 395.847C454.929 395.743 456.339 395.957 457.65 396.472C458.95 397.022 459.45 397.747 459.15 398.647C458.714 399.748 458.04 400.739 457.175 401.547C456.177 402.565 455.242 403.642 454.375 404.772C453.962 405.26 453.695 405.854 453.607 406.487C453.518 407.12 453.611 407.765 453.875 408.347C454.892 410.029 456.495 411.275 458.375 411.847C461.482 413.145 464.808 413.84 468.175 413.897C471.811 414.015 475.44 413.499 478.9 412.372L484.225 414.647L490.45 411.622L485.275 409.397C486.211 408.78 487.053 408.03 487.775 407.172C488.307 406.562 488.723 405.858 489 405.097C489.178 404.555 489.287 403.992 489.325 403.422C489.389 403.033 489.389 402.636 489.325 402.247L489.15 401.797H479.9C479.994 402.1 480.069 402.409 480.125 402.722C480.083 403.48 479.823 404.209 479.375 404.822C478.614 405.936 477.546 406.805 476.3 407.322C474.628 408.166 472.796 408.644 470.925 408.722C469.219 408.842 467.508 408.568 465.925 407.922C464.641 407.372 464.158 406.647 464.475 405.747C464.932 404.639 465.633 403.648 466.525 402.847C467.543 401.842 468.487 400.764 469.35 399.622C469.752 399.127 470.004 398.527 470.075 397.893C470.146 397.26 470.033 396.619 469.75 396.047C468.646 394.335 466.972 393.069 465.025 392.472C462.037 391.266 458.847 390.638 455.625 390.622C452.224 390.508 448.831 391.033 445.625 392.172L440.325 389.897L434.525 393.047L439.85 395.322C438.81 396.148 438.007 397.235 437.525 398.472Z" fill="#EA8B24"/>
<path d="M463.125 429.022C487.3 429.022 506.95 417.247 506.95 402.797C506.95 388.347 487.3 376.572 463.125 376.572C438.95 376.572 419.3 388.347 419.3 402.797C419.3 417.247 438.975 429.022 463.125 429.022ZM463.125 379.197C485.85 379.197 504.325 389.772 504.325 402.797C504.325 415.822 485.85 426.397 463.125 426.397C440.4 426.397 421.925 415.822 421.925 402.797C421.925 389.772 440.425 379.222 463.125 379.222V379.197Z" fill="#F7931E"/>
<path d="M545.35 394.672L537.4 404.672C537.4 404.672 531.375 405.947 530.575 408.022C530.291 409.518 530.34 411.057 530.721 412.531C531.101 414.005 531.803 415.376 532.775 416.547C534.6 418.197 539.4 420.522 541.05 419.847C542.7 419.172 540.55 414.547 543.025 413.247C543.717 412.887 544.517 412.789 545.275 412.973C546.034 413.157 546.7 413.61 547.15 414.247L549.475 409.247L555.275 400.772" fill="#FFD188"/>
<path d="M519.5 378.722L511.55 388.722C511.55 388.722 505.525 389.997 504.725 392.072C504.44 393.568 504.49 395.107 504.871 396.581C505.251 398.055 505.952 399.426 506.925 400.597C508.75 402.247 513.55 404.572 515.2 403.897C516.85 403.222 514.7 398.597 517.175 397.297C517.867 396.937 518.666 396.839 519.425 397.023C520.184 397.207 520.85 397.66 521.3 398.297L523.625 393.297L529.425 384.822" fill="#FFD188"/>
<path d="M580.8 379.347C580.339 377.756 579.685 376.228 578.85 374.797L578.25 374.472L575.55 368.722L575.325 369.147C568.275 352.322 556.9 347.097 559.05 329.147C563.782 323.903 568.997 319.115 574.625 314.847C578.38 314.542 582.159 314.701 585.875 315.322C596.325 317.072 603.825 326.197 609.775 334.322C618.499 346.858 625.669 360.407 631.125 374.672C626.8 379.272 615.7 383.072 610.05 386.122C604.761 386.965 599.366 386.897 594.1 385.922C589.419 384.272 584.953 382.065 580.8 379.347Z" fill="#443CE5"/>
<path d="M566.2 319.047C564.875 320.047 512.775 374.897 514.425 379.547C516.075 384.197 523.325 391.097 528.275 389.122C533.225 387.147 551.35 362.622 551.35 362.622L574.325 339.697L566.2 319.047Z" fill="#443CE5"/>
<path d="M553.025 408.472C546.9 406.347 541.025 402.222 539.2 396.147L575.925 348.647L591.65 318.947C594.375 321.072 608.325 336.147 600.1 351.322C591.875 366.497 562.675 403.872 553.025 408.472Z" fill="#443CE5"/>
<path d="M549.6 307.722C549.6 307.722 555.65 323.147 571.85 320.572C588.05 317.997 574.9 290.347 563.1 290.572C551.3 290.797 546 301.047 549.6 307.722Z" fill="#FFD188"/>
<path d="M549.4 290.122C549.178 288.543 549.537 286.938 550.411 285.604C551.285 284.27 552.614 283.299 554.15 282.872C557.636 281.477 561.465 281.181 565.125 282.022C570.875 281.422 577.125 281.522 580.65 286.247C584.175 290.972 583.625 297.272 582.65 303.022C582.687 305.049 582.477 307.072 582.025 309.047C581.085 311.101 580.332 313.234 579.775 315.422L576.325 309.047C576.325 309.047 575.35 307.897 565.725 310.797C556.1 313.697 555.25 306.722 555.25 306.722C553.632 307.498 551.845 307.855 550.053 307.759C548.262 307.663 546.523 307.119 544.997 306.175C543.47 305.232 542.206 303.919 541.32 302.359C540.434 300.799 539.954 299.041 539.925 297.247C540 291.597 546.825 290.397 549.4 290.122Z" fill="#4C0D0A"/>
<path d="M580.375 379.522C579.1 378.497 601.175 349.522 601.175 349.522L594.95 386.222C589.656 385.097 584.677 382.808 580.375 379.522Z" fill="#2929B2"/>
<path d="M571.95 302.047C577.725 303.422 575.6 311.547 572.275 314.197C572.093 314.356 571.878 314.472 571.646 314.539C571.414 314.605 571.17 314.62 570.932 314.582C570.693 314.543 570.466 314.453 570.266 314.318C570.066 314.182 569.899 314.005 569.775 313.797C569.39 313.917 568.974 313.882 568.615 313.7C568.256 313.518 567.981 313.203 567.85 312.822C566.85 309.672 565.85 300.622 571.95 302.047Z" fill="#FFD188"/>
<path d="M412.575 693.372L315.45 619.022L381.325 582.897L478.15 654.347C462.35 664.047 428.1 683.347 412.575 693.372Z" fill="url(#paint4_linear)"/>
<path d="M351.85 628.622C328.819 628.622 310.15 617.687 310.15 604.197C310.15 590.708 328.819 579.772 351.85 579.772C374.88 579.772 393.55 590.708 393.55 604.197C393.55 617.687 374.88 628.622 351.85 628.622Z" fill="#FF912E"/>
<path d="M393.55 604.197V597.147L389 602.797L393.55 604.197Z" fill="#E0944F"/>
<path d="M310.175 597.147V604.197H315.45L311.575 598.547L310.175 597.147Z" fill="#E0944F"/>
<path d="M351.85 621.572C328.819 621.572 310.15 610.637 310.15 597.147C310.15 583.658 328.819 572.722 351.85 572.722C374.88 572.722 393.55 583.658 393.55 597.147C393.55 610.637 374.88 621.572 351.85 621.572Z" fill="#FFB92C"/>
<path d="M330.7 593.872C330.412 594.444 330.299 595.087 330.375 595.722L330.55 596.372H338.05C337.979 596.161 337.929 595.943 337.9 595.722C337.974 595.219 338.181 594.744 338.5 594.347C338.928 593.604 339.574 593.011 340.35 592.647C341.458 592.075 342.679 591.759 343.925 591.722C345.084 591.639 346.246 591.818 347.325 592.247C348.392 592.697 348.8 593.297 348.55 594.047C348.206 594.994 347.651 595.849 346.925 596.547C346.106 597.383 345.338 598.268 344.625 599.197C344.286 599.595 344.066 600.081 343.991 600.599C343.916 601.116 343.988 601.644 344.2 602.122C345.037 603.504 346.355 604.528 347.9 604.997C350.462 606.062 353.202 606.63 355.975 606.672C358.967 606.771 361.953 606.348 364.8 605.422L369.175 607.297L374.3 604.797L370.05 602.972C370.817 602.465 371.508 601.851 372.1 601.147C372.535 600.647 372.874 600.07 373.1 599.447C373.241 599.001 373.325 598.539 373.35 598.072C373.401 597.758 373.401 597.437 373.35 597.122L373.2 596.772H365.7C365.775 597.027 365.834 597.285 365.875 597.547C365.837 598.17 365.62 598.769 365.25 599.272C364.647 600.22 363.777 600.968 362.75 601.422C361.374 602.116 359.865 602.508 358.325 602.572C356.935 602.667 355.542 602.445 354.25 601.922C353.2 601.472 352.8 600.881 353.05 600.147C353.408 599.196 353.981 598.34 354.725 597.647C355.563 596.821 356.34 595.936 357.05 594.997C357.384 594.59 357.592 594.094 357.65 593.57C357.707 593.047 357.612 592.518 357.375 592.047C356.467 590.647 355.096 589.612 353.5 589.122C351.037 588.127 348.407 587.61 345.75 587.597C342.945 587.5 340.146 587.933 337.5 588.872L333.125 586.997L328.35 589.497L332.725 591.372C331.843 592.014 331.145 592.876 330.7 593.872Z" fill="#EA8B24"/>
<path d="M351.775 619.022C371.775 619.022 387.85 609.347 387.85 597.447C387.85 585.547 371.675 575.872 351.775 575.872C331.875 575.872 315.7 585.547 315.7 597.447C315.7 609.347 331.875 619.022 351.775 619.022ZM351.775 578.022C370.475 578.022 385.7 586.722 385.7 597.447C385.7 608.172 370.475 616.872 351.775 616.872C333.075 616.872 317.85 608.172 317.85 597.447C317.85 586.722 333.075 578.022 351.775 578.022Z" fill="#F7931E"/>
<defs>
<linearGradient id="paint0_linear" x1="321.099" y1="529.672" x2="252.224" y2="365.722" gradientUnits="userSpaceOnUse">
<stop stop-color="#808080" stop-opacity="0"/>
<stop offset="1" stop-color="#009245"/>
</linearGradient>
<linearGradient id="paint1_linear" x1="-20941.5" y1="28923.2" x2="-25300" y2="23886.9" gradientUnits="userSpaceOnUse">
<stop stop-color="#808080" stop-opacity="0"/>
<stop offset="1" stop-color="#009245"/>
</linearGradient>
<linearGradient id="paint2_linear" x1="-9216.5" y1="15220.7" x2="-10832.3" y2="13055.3" gradientUnits="userSpaceOnUse">
<stop stop-color="#808080" stop-opacity="0"/>
<stop offset="1" stop-color="#009245"/>
</linearGradient>
<linearGradient id="paint3_linear" x1="-5561.79" y1="14322.2" x2="-6925.94" y2="12706.3" gradientUnits="userSpaceOnUse">
<stop stop-color="#808080" stop-opacity="0"/>
<stop offset="1" stop-color="#009245"/>
</linearGradient>
<linearGradient id="paint4_linear" x1="-30229.8" y1="28276.8" x2="-32374.5" y2="24899.9" gradientUnits="userSpaceOnUse">
<stop stop-color="#808080" stop-opacity="0"/>
<stop offset="1" stop-color="#009245"/>
</linearGradient>
</defs>
</svg>
