<svg width="316" height="280" viewBox="0 0 316 280" fill="none" xmlns="http://www.w3.org/2000/svg">
<path opacity="0.18" d="M314.146 200.203C309.657 180.948 295.534 168.775 289.173 150.241C283.866 134.751 284.976 117.898 281.89 101.847C275.927 70.8195 254.298 44.2884 228.109 25.8573C201.92 7.42624 171.207 -3.88869 140.692 -14.0023C128.627 -17.9952 116.362 -21.8621 103.864 -24.0817C97.5382 -25.2378 91.1248 -25.8769 84.6904 -25.9923C51.3231 -26.4156 20.7967 -9.41459 -1.59234 13.8559C-11.682 24.3815 -25.0804 39.1744 -29.5232 53.258C-34.6557 69.5153 -29.8739 88.1638 -34.7141 104.982C-38.6308 118.573 -47.5747 130.151 -55.5366 141.89C-73.4712 168.203 -87.9569 200.913 -77.458 230.83C-68.3153 256.904 -41.3666 274.259 -13.5176 278.641C14.3314 283.023 42.7532 276.25 69.0122 266.297C86.1752 259.798 103.42 251.778 121.822 251.858C138.915 251.927 155.038 258.974 171.324 264.043C200.217 272.989 230.72 275.839 260.822 272.406C272.817 271.022 285.093 268.482 294.972 261.675C313.912 248.552 319.314 222.364 314.146 200.203Z" fill="#006522"/>
<path d="M69.37 229.351C43.8807 232.374 18.7598 237.951 -5.61409 245.997C-8.3828 246.913 -11.4947 248.206 -12.3643 250.986C14.0578 254.352 40.7546 255.011 67.3106 252.954C84.7466 251.604 102.08 249.086 119.516 247.828C156.253 245.174 193.287 248.125 229.91 244.144C231.729 244.076 233.509 243.595 235.115 242.737C235.9 242.293 236.521 241.608 236.888 240.784C237.255 239.96 237.347 239.041 237.152 238.16C236.552 236.867 235.473 235.858 234.143 235.346C227.988 232.291 220.825 232.234 213.949 232.325C167.568 232.955 120.923 237.84 74.9646 231.547" fill="url(#paint0_linear)"/>
<path d="M141.688 105.594C122.239 96.5899 101.862 87.7461 80.4563 88.3067C72.5849 88.5126 64.7707 89.9999 56.8879 90.0457C43.7413 90.1043 30.8839 86.1881 20.0022 78.8107C14.1216 99.0841 8.2943 119.373 2.52043 139.677C0.930132 145.271 -1.18645 151.003 -2.23902 156.724C-3.97805 166.185 17.428 170.91 24.3155 171.78C32.2555 172.787 40.3328 172.009 48.3415 172.272C55.1547 172.326 61.8712 173.889 68.0085 176.848C73.9807 179.892 80.9368 181.573 87.298 183.965C102.961 189.834 119.481 194.879 136.139 193.38C152.797 191.882 169.707 182.454 175.622 166.815C177.029 163.096 177.785 159.161 179.054 155.374C182.327 145.82 192.715 133.361 181.777 125.478C170.131 117.001 154.731 111.612 141.688 105.594Z" fill="#006522"/>
<path d="M126.895 107.39C118.578 103.603 110.283 99.5874 101.393 97.448C80.1016 92.3567 57.2425 98.4662 36.0768 92.8716C35.0777 95.1224 33.2258 96.8844 30.9282 97.7704C28.6305 98.6564 26.0751 98.594 23.8235 97.5967H23.7663C22.7938 101.407 22.8167 106.029 22.0616 110.044C21.1158 115.017 19.9984 119.956 18.7094 124.861C16.1771 134.511 13.0047 143.982 9.21338 153.211C11.1126 153.017 12.7143 154.87 12.966 156.769C13.0599 158.682 12.6662 160.588 11.8219 162.307C11.6961 162.604 17.9428 164.481 18.5378 164.595C20.8177 164.87 23.1224 164.87 25.4023 164.595C30.3677 164.195 35.1958 162.764 40.1269 162.078C58.7413 159.492 76.9324 167.547 95.1121 172.375C101.215 173.979 107.408 175.221 113.658 176.093C118.143 176.722 122.742 177.146 127.158 176.093C131.574 175.041 135.865 172.535 139.743 169.824C147.169 164.606 154.067 158.383 158.907 150.751C162.763 144.642 170.073 128.419 162.865 122.469C158.564 118.923 150.429 117.435 145.246 115.296C139.061 112.779 132.944 110.144 126.895 107.39Z" fill="url(#paint1_linear)"/>
<path d="M121.232 110.468C100.638 104.61 79.1062 99.0269 58.0549 102.951C50.2979 104.393 42.8155 107.081 35.0471 108.363C22.0647 110.471 8.74821 108.605 -3.15428 103.008C-5.80096 123.961 -8.38661 144.913 -10.9113 165.865C-11.6092 171.643 -12.799 177.626 -12.9477 183.45C-13.188 193.06 8.68712 194.387 15.6547 194.17C23.6633 193.918 31.4889 191.882 39.429 190.909C46.1669 189.856 53.055 190.326 59.588 192.282C65.9606 194.342 73.0997 194.925 79.7584 196.286C96.1418 199.639 113.246 202.007 129.469 197.968C145.693 193.93 160.909 181.951 164.319 165.556C165.119 161.666 165.257 157.662 165.943 153.749C167.694 143.795 176.011 129.872 163.964 123.797C151.058 117.332 135.053 114.426 121.232 110.468Z" fill="#006522"/>
<path d="M106.896 114.575C98.0867 112.127 89.2657 109.461 80.1587 108.74C58.3293 107.036 36.683 116.646 14.9452 114.461C14.6295 115.646 14.0825 116.757 13.3357 117.73C12.5888 118.703 11.6569 119.519 10.5935 120.13C9.53015 120.742 8.35633 121.137 7.13965 121.293C5.92297 121.449 4.68746 121.363 3.50424 121.039C3.13813 124.964 3.8818 129.517 3.75595 133.624C3.59577 138.681 3.26398 143.75 2.76058 148.784C1.76961 158.711 0.114589 168.561 -2.19336 178.267C-0.339923 177.775 1.5364 179.411 2.07412 181.196C2.45316 183.075 2.34684 185.021 1.76521 186.848C1.68513 187.168 8.14927 188.049 8.75564 188.049C11.0344 187.979 13.2967 187.637 15.4944 187.031C20.3453 185.887 24.8874 183.701 29.6469 182.248C47.632 176.791 66.8529 181.905 85.5474 183.781C91.8268 184.412 98.1379 184.672 104.448 184.559C109.024 184.468 113.601 184.182 117.788 182.5C122.17 180.761 125.797 177.626 129.229 174.343C135.739 168.027 141.597 160.854 145.178 152.513C148.026 145.889 152.729 128.716 144.674 123.911C139.869 121.074 131.597 120.879 126.151 119.575C119.699 118.019 113.28 116.352 106.896 114.575Z" fill="url(#paint2_linear)"/>
<path d="M40.5844 180.978C40.1292 178.886 39.7931 176.77 39.5776 174.64C39.6117 172.535 39.8299 170.437 40.2297 168.37C41.2823 160.716 40.2297 152.948 39.7721 145.225C39.3145 137.503 39.2687 129.528 42.1747 122.344C43.2527 119.366 45.1336 116.744 47.6092 114.77C50.5609 112.619 54.3021 111.921 57.906 111.497C62.4824 110.96 67.2876 110.765 71.6352 112.413C70.5196 113 69.5372 113.811 68.7497 114.795C67.9622 115.78 67.3865 116.916 67.0588 118.133C66.4368 120.591 66.2052 123.132 66.3723 125.661C66.6014 133.771 67.5394 141.844 69.1754 149.79C70.7885 157.696 73.031 166.048 70.3195 173.645C68.7978 177.878 65.8575 181.413 63.6265 185.326C62.1506 187.923 60.3315 191.127 57.334 191.046C56.4002 190.943 55.4821 190.728 54.5996 190.406C52.364 189.959 50.0622 189.959 47.8265 190.406C46.3392 190.612 43.1243 191.699 41.7743 190.898C39.4403 189.616 40.9391 183.278 40.5844 180.978Z" fill="url(#paint3_linear)"/>
<path d="M201.41 111.932H68.7522C58.9835 111.932 51.0645 119.851 51.0645 129.62V223.676C51.0645 233.445 58.9835 241.364 68.7522 241.364H201.41C211.179 241.364 219.098 233.445 219.098 223.676V129.62C219.098 119.851 211.179 111.932 201.41 111.932Z" fill="#006522"/>
<path d="M201.41 111.932H68.7522C58.9835 111.932 51.0645 119.851 51.0645 129.62V223.676C51.0645 233.445 58.9835 241.364 68.7522 241.364H201.41C211.179 241.364 219.098 233.445 219.098 223.676V129.62C219.098 119.851 211.179 111.932 201.41 111.932Z" fill="url(#paint4_linear)"/>
<path d="M219.098 140.878H51.0645V215.427H219.098V140.878Z" fill="url(#paint5_linear)"/>
<path d="M215.837 169.435H150.669C143.833 169.435 138.29 174.977 138.29 181.814V191.344C138.29 198.181 143.833 203.723 150.669 203.723H215.837C222.674 203.723 228.216 198.181 228.216 191.344V181.814C228.216 174.977 222.674 169.435 215.837 169.435Z" fill="url(#paint6_linear)"/>
<path d="M217.668 159.778H152.5C145.663 159.778 140.121 165.321 140.121 172.157V181.688C140.121 188.525 145.663 194.067 152.5 194.067H217.668C224.504 194.067 230.047 188.525 230.047 181.688V172.157C230.047 165.321 224.504 159.778 217.668 159.778Z" fill="#006522"/>
<path d="M157.202 188.049C163.502 188.049 168.609 182.942 168.609 176.642C168.609 170.343 163.502 165.236 157.202 165.236C150.902 165.236 145.795 170.343 145.795 176.642C145.795 182.942 150.902 188.049 157.202 188.049Z" fill="url(#paint7_linear)"/>
<path d="M15.5288 242.828C29.1518 242.828 40.1955 231.785 40.1955 218.162C40.1955 204.539 29.1518 193.495 15.5288 193.495C1.90572 193.495 -9.13794 204.539 -9.13794 218.162C-9.13794 231.785 1.90572 242.828 15.5288 242.828Z" fill="#F8C244"/>
<path d="M15.5402 239.202C27.1539 239.202 36.5687 229.787 36.5687 218.173C36.5687 206.559 27.1539 197.145 15.5402 197.145C3.92649 197.145 -5.48828 206.559 -5.48828 218.173C-5.48828 229.787 3.92649 239.202 15.5402 239.202Z" fill="#E8A825"/>
<path d="M13.6066 231.41V228.035C11.8033 228.026 10.0375 227.519 8.50391 226.571L9.30477 224.282C10.7249 225.207 12.3811 225.703 14.0756 225.713C16.4668 225.713 18.0571 224.351 18.0571 222.452C18.0571 220.553 16.7643 219.477 14.293 218.47C10.8607 217.132 8.77849 215.599 8.77849 212.75C8.77849 209.901 10.7463 207.876 13.8239 207.373V204.009H15.8948V207.235C17.4127 207.251 18.9028 207.645 20.2309 208.38L19.4071 210.668C18.14 209.906 16.6867 209.51 15.2083 209.524C12.6341 209.524 11.673 211.068 11.673 212.395C11.673 214.134 12.9087 214.992 15.8032 216.205C19.2355 217.601 20.9745 219.34 20.9745 222.303C20.9635 223.74 20.4186 225.121 19.446 226.178C18.4733 227.235 17.1423 227.893 15.7117 228.024V231.456L13.6066 231.41Z" fill="#F8C244"/>
<path d="M18.4805 208.094C16.6588 212.576 16.4008 217.542 17.7483 222.189C18.7894 225.736 20.7343 228.962 21.7869 232.486C22.131 233.513 22.2785 234.596 22.2217 235.678C22.0043 237.84 20.4712 239.613 19.0182 241.227C20.9746 241.627 22.9539 240.723 24.7387 239.751C27.5081 238.394 29.9424 236.44 31.8664 234.03C33.1893 232.068 34.143 229.882 34.6809 227.577C36.58 220.479 36.58 213.007 34.6809 205.908C33.9601 203.265 31.1227 195.978 27.3701 197.682C23.6175 199.387 20.025 204.284 18.4805 208.094Z" fill="url(#paint8_linear)"/>
<path d="M45.6528 243.503C59.2758 243.503 70.3195 232.46 70.3195 218.837C70.3195 205.214 59.2758 194.17 45.6528 194.17C32.0297 194.17 20.9861 205.214 20.9861 218.837C20.9861 232.46 32.0297 243.503 45.6528 243.503Z" fill="#F8C244"/>
<path d="M45.6528 239.865C57.2665 239.865 66.6812 230.45 66.6812 218.837C66.6812 207.223 57.2665 197.808 45.6528 197.808C34.039 197.808 24.6243 207.223 24.6243 218.837C24.6243 230.45 34.039 239.865 45.6528 239.865Z" fill="#E8A825"/>
<path d="M35.8135 227.909L37.9415 225.289C36.5458 224.148 35.4926 222.644 34.8982 220.942L36.9232 219.706C37.4479 221.32 38.4247 222.75 39.7377 223.825C41.5912 225.324 43.6848 225.266 44.8861 223.825C46.0875 222.383 45.7442 220.702 44.4628 218.368C42.6552 215.176 41.9916 212.647 43.8107 210.359C45.6298 208.071 48.3871 207.819 51.11 209.364L53.2266 206.744L54.8398 208.048L52.8033 210.553C53.9731 211.527 54.8815 212.778 55.4462 214.192L53.4325 215.427C52.9199 214.042 52.0375 212.823 50.8812 211.903C48.8791 210.279 47.1629 210.874 46.3048 211.903C45.1607 213.253 45.6298 214.706 47.1171 217.464C48.9134 220.713 49.1651 223.184 47.3002 225.472C46.387 226.573 45.1002 227.298 43.686 227.509C42.2718 227.72 40.8295 227.402 39.6348 226.616L37.4152 229.259L35.8135 227.909Z" fill="#F8C244"/>
<path d="M195.335 102.368C208.958 102.368 220.002 91.3239 220.002 77.7009C220.002 64.0778 208.958 53.0342 195.335 53.0342C181.712 53.0342 170.668 64.0778 170.668 77.7009C170.668 91.3239 181.712 102.368 195.335 102.368Z" fill="#F8C244"/>
<path d="M195.335 98.7179C206.949 98.7179 216.363 89.3032 216.363 77.6894C216.363 66.0757 206.949 56.6609 195.335 56.6609C183.721 56.6609 174.306 66.0757 174.306 77.6894C174.306 89.3032 183.721 98.7179 195.335 98.7179Z" fill="#E8A825"/>
<path d="M196.593 91.0181L195.792 87.746C194.037 88.1665 192.199 88.0913 190.484 87.5286L190.736 85.1604C192.336 85.7208 194.062 85.8121 195.712 85.4235C198.001 84.8629 199.259 83.1353 198.813 81.3162C198.367 79.4971 196.845 78.7305 194.237 78.3416C190.61 77.8382 188.207 76.8428 187.521 74.0283C186.834 71.2138 188.276 68.8341 191.147 67.6214L190.347 64.3493L192.36 63.8573L193.127 66.9921C194.611 66.6523 196.158 66.6916 197.623 67.1065L197.348 69.4748C195.938 69.0364 194.433 68.9968 193.001 69.3604C190.495 69.9668 189.923 71.6486 190.244 72.9872C190.655 74.669 192.063 75.2754 195.163 75.6987C198.836 76.2479 200.884 77.5292 201.627 80.4124C201.942 81.8066 201.73 83.2677 201.033 84.5155C200.337 85.7633 199.204 86.71 197.852 87.174L198.676 90.6063L196.593 91.0181Z" fill="#F8C244"/>
<path d="M159.307 129.448C167.441 134.591 177.007 136.996 186.606 136.313C184.077 145.102 182.658 154.172 182.384 163.314C182.22 164.873 182.456 166.448 183.07 167.89C184.111 169.869 186.365 170.876 188.516 171.482C192.359 172.57 196.377 172.9 200.346 172.455C198.898 164.9 197.973 157.255 197.577 149.573C197.394 143.315 197.921 137.079 198.081 130.833C198.149 128.167 198.664 124.712 198.081 122.103C197.497 119.495 194.649 118.076 192.864 116.383C190.015 113.647 187.899 110.241 186.708 106.475C185.954 104.378 185.792 102.114 186.239 99.9307C186.903 97.3679 188.779 95.2856 189.672 92.803C190.564 90.3203 190.038 86.8193 187.475 86.11C185.53 85.5723 183.15 86.9223 181.537 85.6867C180.965 85.2405 180.622 84.5426 180.016 84.1193C179.455 83.8294 178.815 83.7328 178.194 83.8446C177.574 83.9563 177.007 84.2701 176.583 84.7371C175.764 85.704 175.114 86.8026 174.661 87.9863C172.165 92.7477 168.337 96.6794 163.644 99.3014C160.697 101.002 157.589 102.405 154.365 103.489C151.939 104.347 148.107 104.553 146.024 105.949C143.645 107.539 145.601 111.555 146.654 114.117C149.267 120.364 153.67 125.698 159.307 129.448Z" fill="url(#paint9_linear)"/>
<path d="M194.534 169.961C194.774 170.247 195.086 170.465 195.438 170.59C200.449 172.81 206.124 172.878 211.615 172.878C211.975 172.913 212.338 172.854 212.668 172.707C212.956 172.497 213.159 172.192 213.241 171.845C213.323 171.499 213.278 171.135 213.114 170.819C212.753 170.206 212.236 169.701 211.615 169.354C210.015 168.3 208.332 167.378 206.581 166.597C205.197 165.991 203.641 165.327 203.08 163.931C202.865 163.186 202.734 162.418 202.691 161.643C202.165 158.428 197.12 160.007 195.426 161.643C193.916 163.188 193.401 168.348 194.534 169.961Z" fill="#FCAB9A"/>
<path d="M146.104 94.7136C146.104 94.7136 142.97 110.731 156.767 117.435C166.332 122.08 177.91 122.927 188.367 123.327C190.209 123.396 192.269 123.213 194.088 123.465C197.726 123.934 196.673 126.233 196.239 129.288C195.255 137.022 194.202 144.741 193.081 152.445C192.233 156.457 192.292 160.608 193.253 164.595L204.247 163.119C205.417 151.904 207.518 140.807 210.528 129.94C211.833 125.227 213.64 119.357 210.94 114.861C208.276 110.821 204.496 107.642 200.06 105.708L172.419 92.8144L146.104 94.7136Z" fill="#473F47"/>
<path d="M183.917 51.7871C187.006 50.5286 190.53 49.3616 193.607 50.643C194.387 50.9309 195.042 51.481 195.461 52.199C195.715 52.9072 195.73 53.6793 195.502 54.3967C195.275 55.114 194.818 55.7367 194.202 56.169C192.931 56.9911 191.5 57.5332 190.003 57.7593C187.349 58.3656 184.718 59.1093 182.121 59.9674C181.675 60.0931 181.248 60.2778 180.851 60.5165C180.414 60.8386 180.028 61.2242 179.706 61.6606C177.312 64.5208 174.572 67.0726 171.549 69.2574C172.373 68.6625 172.075 63.2052 172.293 62.0725C172.365 61.3778 172.605 60.7111 172.992 60.1293C173.378 59.5475 173.9 59.068 174.512 58.7318C177.887 56.5809 180.107 53.3431 183.917 51.7871Z" fill="#FCAB9A"/>
<path d="M176.377 23.2305C176.789 24.1915 177.807 24.8551 178.048 25.8962C178.288 26.9374 177.338 28.2531 176.743 29.4315C175.954 31.0103 175.897 32.8638 175.096 34.4884C174.954 34.8408 174.711 35.1434 174.398 35.3579C174.103 35.4954 173.785 35.5732 173.46 35.5867C172.195 35.6886 170.922 35.5999 169.684 35.3236C169.459 35.2201 169.207 35.1882 168.963 35.2321C168.756 35.3717 168.609 35.584 168.552 35.827C167.421 38.8883 167.051 42.1787 167.476 45.4145C167.613 46.4671 167.751 47.7714 166.893 48.412C166.591 48.6289 166.234 48.7558 165.863 48.7782C163.403 49.0527 161.287 46.9934 159.959 44.9569C158.749 43.1043 157.762 41.115 157.019 39.0305C156.767 38.4283 156.631 37.7839 156.619 37.1313C156.665 36.3615 156.859 35.608 157.191 34.9117C158.209 32.3926 158.975 29.779 159.479 27.109C160.108 23.6767 160.383 20.0842 162.019 17.0638C162.558 16.0267 163.411 15.186 164.456 14.6612C165.66 14.2787 166.945 14.2312 168.174 14.5239C170.713 14.6852 173.092 15.8157 174.821 17.6816C175.279 18.3566 175.851 22.0292 176.377 23.2305Z" fill="#FCAB9A"/>
<path d="M170.542 95.5945C168.748 96.7782 166.718 97.5589 164.593 97.8827C161.569 98.5823 158.66 99.7112 155.955 101.235C154.331 102.207 153.232 103.866 151.802 105.102C150.666 106.064 149.331 106.762 147.893 107.148C146.455 107.534 144.95 107.597 143.485 107.333C143.347 106.933 143.198 106.521 143.061 106.109C138.485 92.3796 139.217 77.5064 140.579 63.3081C141.231 56.5808 146.516 35.0375 156.665 37.5431C156.665 37.5431 166.286 44.1903 168.861 48.7323C171.206 52.9312 174.581 56.3063 173.998 61.489C173.151 68.7769 169.25 75.2182 168.872 82.8035C168.738 83.9021 168.871 85.0169 169.261 86.0528C169.959 87.5287 171.606 88.4096 172.293 89.8741C172.665 90.888 172.695 91.9957 172.379 93.0283C172.063 94.061 171.418 94.9621 170.542 95.5945Z" fill="white"/>
<path d="M155.177 83.9248C155.396 84.9535 155.782 85.9392 156.321 86.8422C157.782 88.6943 159.892 89.9214 162.225 90.2745C164.864 90.914 167.538 91.3991 170.233 91.7275C174.215 92.2309 177.407 94.0157 181.56 92.4597C184.41 91.2414 186.948 89.3955 188.985 87.0596C189.626 86.3846 190.129 85.1032 189.328 84.6799C189.106 84.5959 188.868 84.557 188.63 84.5655H181.709C181.571 84.0163 181.972 83.49 182.246 82.9981C182.521 82.5061 182.635 81.751 182.132 81.4764C181.629 81.2018 181.205 81.5565 180.816 81.8311C178.867 83.1539 176.628 83.9888 174.289 84.2655C171.949 84.5423 169.577 84.2528 167.373 83.4214C163.3 81.8769 162.991 76.8085 162.396 72.93C162.391 72.447 162.27 71.9722 162.046 71.5446C161.821 71.117 161.498 70.7488 161.103 70.4702C160.78 70.3515 160.437 70.2984 160.093 70.3141C159.749 70.3298 159.412 70.414 159.101 70.5618C156.737 71.3023 154.737 72.9026 153.495 75.0466C152.477 77.2089 154.548 81.5336 155.177 83.9248Z" fill="#FCAB9A"/>
<path d="M157.339 51.1121C157.339 51.1121 164.067 68.754 165.348 70.0469C166.629 71.3397 152.832 79.3369 152.832 79.3369C152.832 79.3369 143.61 62.1755 143.953 54.7389C144.297 47.3022 152.157 44.1102 157.339 51.1121Z" fill="white"/>
<path d="M177.109 17.7159C174.97 20.9309 173.002 18.9859 170.565 16.835L171.275 19.8554L167.099 21.766L164.81 19.6151C165.36 22.1665 164.364 24.7636 163.54 27.2463C162.328 30.8959 161.481 34.9003 162.717 38.5385C163.723 41.5131 166.08 44.1446 166 47.2794L161.126 42.703C159.985 41.4993 158.661 40.4837 157.202 39.694C156.483 39.3161 155.687 39.1054 154.875 39.0777C154.063 39.0499 153.255 39.2059 152.511 39.5339C151.858 39.9373 151.262 40.4259 150.738 40.9869C148.244 43.4581 145.395 45.7806 143.942 49.0642C142.661 51.9359 142.695 55.5398 140.51 58.0453C137.535 61.5577 131.872 60.631 127.765 58.5831C124.924 57.2991 122.444 55.3342 120.545 52.8626C119.588 51.4844 118.912 49.9311 118.555 48.2914C118.199 46.6517 118.169 44.9578 118.467 43.3066C118.766 41.6553 119.387 40.0792 120.295 38.6681C121.203 37.2571 122.381 36.039 123.76 35.0833C124.797 34.3645 125.935 33.8017 127.135 33.4129C129.137 32.7723 131.483 32.5091 132.764 30.8387C134.286 28.848 133.451 26.0221 133.542 23.5165C133.619 21.8785 134.121 20.2888 135 18.9043C135.879 17.5199 137.104 16.3886 138.553 15.6222C142.592 13.54 148.278 14.2608 150.932 10.5768C151.703 9.21552 152.383 7.80526 152.969 6.35507C155.406 1.77868 162.522 0.726119 166.206 4.36435C166.897 5.26027 167.766 6.00413 168.757 6.54956C169.529 6.77711 170.334 6.87001 171.137 6.82415C172.466 6.79994 173.78 7.11373 174.955 7.73609C176.129 8.35845 177.127 9.26898 177.853 10.3823C178.917 12.27 178.448 15.5879 177.315 17.4185L177.109 17.7159Z" fill="#FC682D"/>
<path d="M193.71 166.586C192.883 167.921 192.547 169.503 192.761 171.059C192.796 171.559 192.989 172.036 193.31 172.421C193.662 172.717 194.083 172.922 194.534 173.016C200.243 174.776 206.179 175.694 212.153 175.739C212.929 175.786 213.706 175.681 214.441 175.43C214.805 175.303 215.131 175.087 215.389 174.801C215.647 174.515 215.829 174.168 215.917 173.794C215.964 173.275 215.87 172.753 215.643 172.283C214.903 170.54 213.503 169.161 211.749 168.449C209.994 167.737 208.029 167.75 206.284 168.485L206.078 168.576C205.478 168.917 204.846 169.197 204.19 169.412C203.539 169.525 202.873 169.525 202.222 169.412C200.539 169.218 198.874 168.885 197.246 168.416C196.035 167.87 194.855 167.259 193.71 166.586Z" fill="#473F47"/>
<defs>
<linearGradient id="paint0_linear" x1="114.219" y1="151.312" x2="110.168" y2="364.858" gradientUnits="userSpaceOnUse">
<stop offset="0.01"/>
<stop offset="0.13" stop-opacity="0.69"/>
<stop offset="0.25" stop-opacity="0.32"/>
<stop offset="1" stop-opacity="0"/>
</linearGradient>
<linearGradient id="paint1_linear" x1="47291.8" y1="-9819.81" x2="23951.6" y2="-41337.4" gradientUnits="userSpaceOnUse">
<stop offset="0.01"/>
<stop offset="0.13" stop-opacity="0.69"/>
<stop offset="0.25" stop-opacity="0.32"/>
<stop offset="1" stop-opacity="0"/>
</linearGradient>
<linearGradient id="paint2_linear" x1="37540.6" y1="-8883.36" x2="11219.8" y2="-35567.6" gradientUnits="userSpaceOnUse">
<stop offset="0.01"/>
<stop offset="0.13" stop-opacity="0.69"/>
<stop offset="0.25" stop-opacity="0.32"/>
<stop offset="1" stop-opacity="0"/>
</linearGradient>
<linearGradient id="paint3_linear" x1="7152.84" y1="9150.87" x2="70.5437" y2="11202.8" gradientUnits="userSpaceOnUse">
<stop offset="0.01"/>
<stop offset="0.13" stop-opacity="0.69"/>
<stop offset="0.25" stop-opacity="0.32"/>
<stop offset="1" stop-opacity="0"/>
</linearGradient>
<linearGradient id="paint4_linear" x1="26319.1" y1="-7732.05" x2="47364.2" y2="-37452.3" gradientUnits="userSpaceOnUse">
<stop offset="0.01"/>
<stop offset="0.13" stop-opacity="0.69"/>
<stop offset="0.25" stop-opacity="0.32"/>
<stop offset="1" stop-opacity="0"/>
</linearGradient>
<linearGradient id="paint5_linear" x1="60668.5" y1="-17283.8" x2="42375.8" y2="12801.7" gradientUnits="userSpaceOnUse">
<stop offset="0.01"/>
<stop offset="0.13" stop-opacity="0.69"/>
<stop offset="0.25" stop-opacity="0.32"/>
<stop offset="1" stop-opacity="0"/>
</linearGradient>
<linearGradient id="paint6_linear" x1="24030.3" y1="-6261.14" x2="24097.6" y2="-1812.06" gradientUnits="userSpaceOnUse">
<stop offset="0.01"/>
<stop offset="0.13" stop-opacity="0.69"/>
<stop offset="0.25" stop-opacity="0.32"/>
<stop offset="1" stop-opacity="0"/>
</linearGradient>
<linearGradient id="paint7_linear" x1="5260.54" y1="-4005.58" x2="6505.46" y2="-1173.31" gradientUnits="userSpaceOnUse">
<stop offset="0.01"/>
<stop offset="0.13" stop-opacity="0.69"/>
<stop offset="0.25" stop-opacity="0.32"/>
<stop offset="1" stop-opacity="0"/>
</linearGradient>
<linearGradient id="paint8_linear" x1="3095.98" y1="4873.34" x2="1292.4" y2="4700.71" gradientUnits="userSpaceOnUse">
<stop offset="0.01"/>
<stop offset="0.13" stop-opacity="0.69"/>
<stop offset="0.25" stop-opacity="0.32"/>
<stop offset="1" stop-opacity="0"/>
</linearGradient>
<linearGradient id="paint9_linear" x1="249.954" y1="28.8251" x2="39.8981" y2="330.42" gradientUnits="userSpaceOnUse">
<stop offset="0.01"/>
<stop offset="0.08" stop-opacity="0.69"/>
<stop offset="0.21" stop-opacity="0.32"/>
<stop offset="1" stop-opacity="0"/>
</linearGradient>
</defs>
</svg>
