<svg width="150" height="114" viewBox="0 0 150 114" fill="none" xmlns="http://www.w3.org/2000/svg">
<path d="M78.4574 107.433L134.625 75.9146C135.031 75.6858 135.371 75.3552 135.611 74.9552C135.851 74.5552 135.982 74.0997 135.993 73.6334C136.003 73.1672 135.891 72.7063 135.669 72.2962C135.447 71.8861 135.122 71.5409 134.726 71.2946L80.2762 37.5671C79.863 37.311 79.388 37.1719 78.9019 37.1646C78.4158 37.1573 77.9369 37.2822 77.5162 37.5258L18.1162 71.9995C17.7099 72.2357 17.3727 72.5744 17.1384 72.9818C16.904 73.3891 16.7806 73.8508 16.7806 74.3208C16.7806 74.7908 16.904 75.2525 17.1384 75.6598C17.3727 76.0672 17.7099 76.4059 18.1162 76.6421L71.0849 107.392C72.2043 108.039 73.4729 108.383 74.7657 108.39C76.0585 108.397 77.3309 108.068 78.4574 107.433Z" fill="#ACEF78"/>
<path d="M94.755 93.2358L113.183 82.5633L66.945 59.0171L51.165 70.6758C53.5388 72.1196 92.4263 91.7321 94.755 93.2358Z" fill="url(#paint0_linear)"/>
<path d="M48.5325 94.2934L62.9625 83.9958L53.1037 76.1208L37.3237 87.7908C39.6937 89.2308 46.2037 92.7896 48.5325 94.2934Z" fill="url(#paint1_linear)"/>
<path d="M44.25 80.9509L38.0025 78.5884L28.125 84.6896C30.3338 86.0321 32.6888 87.0859 34.875 88.4396C37.875 85.7771 41.0737 83.3959 44.25 80.9509Z" fill="url(#paint2_linear)"/>
<path d="M25.7438 80.9021L33.1388 74.9396L28.3613 70.7771L18.5026 76.8671C20.8726 78.3071 23.4151 79.4021 25.7438 80.9021Z" fill="url(#paint3_linear)"/>
<path d="M108.51 41.6621L76.35 23.0958V53.2908L107.475 70.8633C107.731 71.0082 108.021 71.0834 108.315 71.0814C108.61 71.0794 108.898 71.0002 109.152 70.8519C109.407 70.7035 109.617 70.4911 109.764 70.2359C109.911 69.9806 109.988 69.6914 109.987 69.3971V44.2421C109.989 43.7203 109.853 43.2073 109.594 42.7545C109.334 42.3017 108.961 41.9249 108.51 41.6621Z" fill="#68E1FD"/>
<path d="M83.475 20.6621L80.07 20.4821C79.9368 20.6757 79.8249 20.8831 79.7362 21.1008L80.16 22.5633L84.81 23.4521L83.475 20.6621Z" fill="#68E1FD"/>
<path d="M91.7026 16.4846C91.4701 16.4846 90.4988 15.6446 88.9351 16.4096C87.3713 17.1746 82.6426 24.2846 82.6426 24.2846L85.8488 26.3621L89.0551 22.5634L89.9663 28.6609C89.9663 28.6609 93.3751 31.2671 99.3751 28.3646L98.9438 24.2771C98.9438 24.2771 101.61 22.1284 102.131 18.8734C102.653 15.6184 93.7276 15.6521 93.7276 15.6521" fill="#68E1FD"/>
<path d="M99.375 28.3646C100.105 30.5441 100.517 32.8175 100.598 35.1146L90.6038 30.4459L89.9625 28.6759" fill="#FFC339"/>
<path opacity="0.36" d="M108.51 41.6621L76.35 23.0958V53.2908L107.475 70.8633C107.731 71.0082 108.021 71.0834 108.315 71.0814C108.61 71.0794 108.898 71.0002 109.152 70.8519C109.407 70.7035 109.617 70.4911 109.764 70.2359C109.911 69.9806 109.988 69.6914 109.987 69.3971V44.2421C109.989 43.7203 109.853 43.2073 109.594 42.7545C109.334 42.3017 108.961 41.9249 108.51 41.6621Z" fill="black"/>
<path d="M76.35 23.0958C76.35 23.0958 71.1975 20.3171 67.395 22.3234C64.185 24.0184 63.54 27.1983 66.045 30.7571C68.55 34.3158 78.5325 39.5208 78.5325 39.5208" fill="#68E1FD"/>
<path opacity="0.36" d="M76.35 23.0958C76.35 23.0958 71.1975 20.3171 67.395 22.3234C64.185 24.0184 63.54 27.1983 66.045 30.7571C68.55 34.3158 78.5325 39.5208 78.5325 39.5208" fill="black"/>
<path d="M107.28 30.3183L72.8325 18.8621V49.0571L103.958 66.6296C104.214 66.7744 104.503 66.8496 104.798 66.8476C105.092 66.8456 105.381 66.7665 105.635 66.6181C105.889 66.4698 106.1 66.2574 106.247 66.0021C106.393 65.7469 106.47 65.4576 106.47 65.1633L107.543 38.8458C107.55 37.7771 108.199 30.8508 107.28 30.3183Z" fill="#87D8AB"/>
<path d="M90.5849 10.6159C89.8556 10.8344 89.223 11.2957 88.7919 11.9232C88.3608 12.5507 88.1572 13.3068 88.2149 14.0659C88.3274 16.6422 91.0162 15.3034 91.0162 15.3034L93.7312 15.6522C93.7312 15.6522 94.2224 15.5509 94.4024 13.4022C94.5824 11.2534 92.7562 10.4472 90.5849 10.6159Z" fill="#E7483B"/>
<path d="M88.9875 13.1733C88.7775 14.0508 89.145 15.1571 89.5725 15.8433C90.0213 16.591 90.7481 17.1304 91.5937 17.3433C92.4937 17.5496 93.18 17.0508 93.5287 16.2371C93.9223 15.374 93.9798 14.3952 93.69 13.4921C93.5439 13.1123 93.3175 12.7686 93.0262 12.4844C92.735 12.2003 92.3857 11.9824 92.0025 11.8458C91.5843 11.7186 91.142 11.6924 90.7117 11.7693C90.2815 11.8463 89.8756 12.0241 89.5275 12.2883C89.2523 12.5135 89.0619 12.8256 88.9875 13.1733Z" fill="#FFC339"/>
<path d="M88.6425 14.0921C89.5338 14.4377 90.4589 14.6891 91.4025 14.8421C91.4976 14.4688 91.623 14.1038 91.7775 13.7509C91.8038 13.8671 92.0025 14.8421 92.0025 14.8421L92.5988 15.0821L92.7038 15.6559C92.7038 15.6559 93.2438 14.5046 93.4838 15.0821C93.7238 15.6596 93.1425 16.7659 93.1425 16.7659C93.6461 16.3414 94.0734 15.8341 94.4063 15.2659C94.8375 14.4409 95.505 11.1971 92.0025 10.8446C88.5 10.4921 88.6425 14.0921 88.6425 14.0921Z" fill="#E7483B"/>
<path d="M92.01 10.8221C92.01 10.8221 92.5613 8.19707 94.23 8.02082C94.673 7.98213 95.1191 8.03894 95.5383 8.18739C95.9575 8.33585 96.3399 8.57251 96.6598 8.88139C96.9797 9.19027 97.2296 9.56419 97.3927 9.9779C97.5558 10.3916 97.6282 10.8355 97.605 11.2796C97.605 11.2796 97.5488 12.6746 97.1888 13.3908L95.6513 13.7658C95.6513 13.7658 95.4525 9.28832 92.7938 10.9346" fill="#E7483B"/>
<path d="M93.5137 23.6208C93.3402 23.7398 93.1571 23.8439 92.9662 23.9321C92.3924 24.0146 91.8187 24.0446 91.2262 24.0933C90.9524 24.1158 90.2587 24.1346 90.2887 24.5734C90.3187 25.0121 90.8624 24.9484 91.1287 24.9484C91.3049 24.9484 91.4849 24.9184 91.6612 24.8959C91.4168 25.1321 91.2207 25.4136 91.0837 25.7246C90.9487 26.0396 90.7087 26.7371 90.9262 27.0634C91.1437 27.3896 91.4362 27.0634 91.4999 26.8121C91.5946 26.4498 91.7371 26.1018 91.9237 25.7771C91.7463 26.3584 91.7205 26.9755 91.8487 27.5696C91.8622 27.6061 91.8855 27.6382 91.9159 27.6624C91.9464 27.6866 91.9829 27.7021 92.0215 27.7071C92.0601 27.7121 92.0993 27.7065 92.1349 27.6908C92.1705 27.6752 92.2012 27.6501 92.2237 27.6184C92.35 27.2366 92.4318 26.8414 92.4674 26.4408C92.5237 26.1852 92.6002 25.9344 92.6962 25.6908C92.5928 26.1965 92.5675 26.715 92.6212 27.2284C92.6259 27.2699 92.6428 27.309 92.6699 27.3408C92.6699 27.3408 92.6699 27.3671 92.6699 27.3783C92.6706 27.4105 92.6786 27.4421 92.6932 27.4707C92.7078 27.4994 92.7286 27.5243 92.7542 27.5438C92.7798 27.5633 92.8095 27.5767 92.841 27.5831C92.8725 27.5895 92.905 27.5888 92.9362 27.5808C93.2474 27.4983 93.2812 27.1233 93.3112 26.8308C93.3368 26.3847 93.3869 25.9403 93.4612 25.4996C93.4569 25.967 93.5528 26.4299 93.7424 26.8571C93.7541 26.8818 93.7712 26.9037 93.7924 26.9209C93.8137 26.9382 93.8385 26.9506 93.8651 26.957C93.8917 26.9635 93.9194 26.9639 93.9462 26.9583C93.973 26.9527 93.9982 26.9412 94.0199 26.9246C94.0639 26.9144 94.1031 26.8895 94.131 26.8541C94.1589 26.8186 94.174 26.7747 94.1737 26.7296C94.1737 26.5271 94.1737 26.3246 94.1737 26.1221L94.1999 25.7471C94.6032 25.6976 94.9822 25.5277 95.2874 25.2596C94.5955 24.8336 93.993 24.277 93.5137 23.6208Z" fill="#FFC339"/>
<path d="M80.7638 19.8595C80.6876 19.8939 80.6148 19.9353 80.5463 19.9833C80.3606 20.1215 80.1996 20.2902 80.0701 20.482L83.4751 20.662C83.1585 20.2683 82.7293 19.9805 82.2449 19.8371C81.7604 19.6937 81.2437 19.7015 80.7638 19.8595Z" fill="#68E1FD"/>
<path d="M84.0863 22.2259L84.0075 22.1846C83.9959 22.1428 83.9692 22.1067 83.9325 22.0834L83.6288 21.8884C83.6157 21.8669 83.5977 21.8489 83.5763 21.8359C83.3345 21.6961 83.1259 21.5055 82.965 21.2771C82.9482 21.2509 82.9248 21.2295 82.8972 21.2151C82.8696 21.2006 82.8387 21.1936 82.8075 21.1946C82.7824 21.1597 82.748 21.1324 82.7083 21.1159C82.6686 21.0993 82.625 21.0941 82.5825 21.1009C82.4917 21.1116 82.4058 21.148 82.335 21.2059C82.2932 21.1234 82.2225 21.0593 82.1363 21.0259C82.0485 21.0039 81.956 21.0107 81.8724 21.0451C81.7887 21.0795 81.7182 21.1398 81.6713 21.2171C81.6623 21.1638 81.6419 21.1131 81.6114 21.0685C81.581 21.0238 81.5413 20.9863 81.495 20.9584C81.4438 20.9275 81.3843 20.9132 81.3246 20.9172C81.2649 20.9212 81.2079 20.9434 81.1613 20.9809C81.1181 20.9264 81.0662 20.8795 81.0075 20.8421L80.9813 20.8159C80.9376 20.7734 80.8809 20.747 80.8203 20.7409C80.7597 20.7347 80.6988 20.7493 80.6475 20.7821C80.5584 20.8178 80.4784 20.8731 80.4135 20.9438C80.3486 21.0146 80.3005 21.099 80.2725 21.1909C80.2458 21.2057 80.2229 21.2267 80.206 21.2521C80.189 21.2776 80.1784 21.3067 80.175 21.3371C80.1338 21.6446 79.9163 23.0321 80.5838 22.8371C80.6197 22.8258 80.6512 22.8035 80.6738 22.7734C80.6738 22.8221 80.6738 22.8671 80.6963 22.9159C80.745 23.2234 80.7975 23.5121 81.1463 23.5309C81.1463 23.8271 81.2363 24.2434 81.4988 24.2209C81.5214 24.2295 81.5455 24.2332 81.5697 24.2318C81.5938 24.2303 81.6173 24.2236 81.6387 24.2122C81.66 24.2008 81.6786 24.185 81.6933 24.1658C81.708 24.1466 81.7184 24.1244 81.7238 24.1009C81.8066 23.9825 81.8605 23.8463 81.8813 23.7034C81.9525 23.7821 82.0575 23.8046 82.2113 23.7034C82.2321 23.6868 82.251 23.6679 82.2675 23.6471C82.3096 23.6221 82.3405 23.5818 82.3538 23.5346C82.4187 23.3974 82.4738 23.2558 82.5188 23.1109L82.8675 22.1996L82.9875 22.2371C83.1976 22.3634 83.4156 22.4761 83.64 22.5746C83.8163 22.6496 84.105 22.7434 84.1688 22.4734C84.1889 22.4293 84.1916 22.3793 84.1763 22.3334C84.161 22.2874 84.1288 22.249 84.0863 22.2259Z" fill="#FFC339"/>
<path d="M72.8325 21.5958C72.8325 21.7271 78.165 23.1483 78.51 23.2571C82.5488 24.5208 86.5763 25.8146 90.6038 27.1121C94.0763 28.2296 97.5475 29.3546 101.018 30.4871C103.185 31.1921 105.923 31.4583 105.923 34.3533C105.923 36.0671 105.499 49.2183 105.499 49.2183" stroke="#39B54A" stroke-width="1.015" stroke-miterlimit="10"/>
<path d="M92.2933 50.4763C96.3513 48.6534 97.6411 42.7236 95.174 37.2317C92.707 31.7397 87.4174 28.7654 83.3594 30.5883C79.3014 32.4112 78.0116 38.341 80.4787 43.8329C82.9457 49.3249 88.2353 52.2992 92.2933 50.4763Z" fill="#D1EAE4"/>
<path d="M97.9488 69.5708C102.055 68.2676 103.953 62.7063 102.19 57.1495C100.426 51.5926 95.6675 48.1444 91.5615 49.4477C87.4556 50.751 85.5569 56.3122 87.3207 61.8691C89.0845 67.4259 93.8429 70.8741 97.9488 69.5708Z" fill="#D1EAE4"/>
<path opacity="0.2" d="M107.085 50.2533L107.137 48.9783L78.825 33.2208L78.915 38.3883L96.6375 48.6183" fill="black"/>
<path d="M111.697 53.1521L79.5375 34.5784V64.7771L110.662 82.3496C110.919 82.4945 111.208 82.5697 111.503 82.5677C111.797 82.5656 112.086 82.4865 112.34 82.3382C112.594 82.1898 112.805 81.9774 112.952 81.7222C113.098 81.4669 113.175 81.1777 113.175 80.8834V55.7209C113.174 55.201 113.038 54.6903 112.779 54.2396C112.519 53.789 112.147 53.414 111.697 53.1521Z" fill="#87D8AB"/>
<path d="M79.5375 36.9708L107.771 53.2833C107.771 53.2833 111.266 54.7833 111.334 57.5321C111.401 60.2808 111.334 77.5983 111.334 77.5983C111.334 77.5983 111.54 80.9171 109.552 80.2571L98.1262 73.8821" stroke="#39B54A" stroke-width="1.015" stroke-miterlimit="10"/>
<path d="M96.6375 48.8471L64.5 30.2771V60.4721L95.625 78.0446C95.8812 78.1895 96.1709 78.2646 96.4652 78.2626C96.7596 78.2606 97.0482 78.1815 97.3024 78.0332C97.5566 77.8848 97.7675 77.6724 97.914 77.4172C98.0606 77.1619 98.1376 76.8727 98.1375 76.5784V51.4233C98.136 50.9 97.9965 50.3863 97.7331 49.934C97.4698 49.4817 97.0919 49.1068 96.6375 48.8471Z" fill="#68E1FD"/>
<path d="M64.5 32.8571V26.9021C64.5 26.9021 64.8488 31.1583 69.5175 33.1271" fill="#68E1FD"/>
<path d="M64.92 32.2796C64.8908 32.2796 64.8621 32.2728 64.8361 32.2598C64.8101 32.2468 64.7874 32.2279 64.77 32.2046C64.695 32.1021 64.6212 31.9983 64.5487 31.8933C64.5331 31.8732 64.5218 31.8501 64.5154 31.8255C64.509 31.8009 64.5077 31.7752 64.5116 31.7501C64.5154 31.7249 64.5243 31.7008 64.5378 31.6792C64.5513 31.6576 64.569 31.639 64.5899 31.6245C64.6108 31.61 64.6344 31.5998 64.6593 31.5947C64.6843 31.5896 64.71 31.5897 64.7349 31.5948C64.7598 31.6 64.7834 31.6102 64.8043 31.6247C64.8251 31.6393 64.8428 31.6579 64.8562 31.6796C64.9262 31.7821 64.9975 31.8821 65.07 31.9796C65.0908 32.0074 65.1036 32.0405 65.1067 32.0752C65.1098 32.1099 65.1032 32.1448 65.0877 32.1759C65.0721 32.2071 65.0481 32.2333 65.0185 32.2516C64.9889 32.2699 64.9548 32.2796 64.92 32.2796Z" fill="#2E3192"/>
<path d="M94.5675 50.2121C94.5316 50.212 94.4964 50.2016 94.4662 50.1821L93.8512 49.7771C93.8291 49.7645 93.8098 49.7475 93.7945 49.7271C93.7791 49.7068 93.7681 49.6836 93.762 49.6589C93.756 49.6341 93.755 49.6084 93.7592 49.5833C93.7634 49.5582 93.7727 49.5342 93.7864 49.5128C93.8002 49.4914 93.8182 49.473 93.8393 49.4588C93.8604 49.4445 93.8842 49.4347 93.9092 49.43C93.9342 49.4252 93.9599 49.4256 93.9848 49.4312C94.0096 49.4367 94.0331 49.4472 94.0537 49.4621L94.6725 49.8596C94.7065 49.8815 94.7324 49.9138 94.7465 49.9517C94.7606 49.9896 94.7621 50.0311 94.7507 50.0699C94.7393 50.1087 94.7157 50.1427 94.6833 50.167C94.651 50.1913 94.6117 50.2045 94.5712 50.2046L94.5675 50.2121ZM92.7112 49.0271C92.6829 49.0338 92.6533 49.0338 92.625 49.0271L92.0025 48.6521C91.9816 48.639 91.9634 48.622 91.9491 48.6019C91.9347 48.5818 91.9245 48.5591 91.9189 48.5351C91.9133 48.5111 91.9125 48.4862 91.9166 48.4619C91.9206 48.4375 91.9294 48.4142 91.9425 48.3933C91.9555 48.3724 91.9726 48.3542 91.9926 48.3399C92.0127 48.3255 92.0354 48.3153 92.0594 48.3097C92.0835 48.3042 92.1084 48.3034 92.1327 48.3074C92.157 48.3115 92.1803 48.3203 92.2012 48.3333L92.8237 48.7083C92.8575 48.7301 92.8833 48.7621 92.8975 48.7996C92.9117 48.8371 92.9134 48.8782 92.9025 48.9169C92.8916 48.9555 92.8686 48.9896 92.8369 49.0141C92.8051 49.0387 92.7664 49.0524 92.7262 49.0533L92.7112 49.0271ZM90.8362 47.8758C90.8019 47.8761 90.7682 47.8671 90.7387 47.8496L90.1125 47.4746C90.0706 47.4488 90.0406 47.4075 90.0288 47.3598C90.0171 47.3121 90.0246 47.2616 90.0496 47.2193C90.0747 47.177 90.1154 47.1463 90.1629 47.1337C90.2105 47.1211 90.261 47.1277 90.3037 47.1521L90.93 47.5271C90.9655 47.5481 90.993 47.5803 91.0083 47.6185C91.0237 47.6568 91.026 47.6991 91.0149 47.7388C91.0038 47.7785 90.9799 47.8135 90.9469 47.8382C90.914 47.863 90.8737 47.8762 90.8325 47.8758H90.8362ZM88.9612 46.7508C88.9282 46.7505 88.8959 46.7414 88.8675 46.7246L88.2375 46.3496C88.1956 46.3238 88.1656 46.2825 88.1538 46.2348C88.1421 46.1871 88.1496 46.1366 88.1746 46.0943C88.1997 46.052 88.2404 46.0213 88.2879 46.0087C88.3354 45.9961 88.386 46.0027 88.4287 46.0271L89.0587 46.4021C89.0939 46.4229 89.1213 46.4548 89.1368 46.4927C89.1522 46.5306 89.1548 46.5725 89.1441 46.612C89.1335 46.6515 89.1103 46.6865 89.0779 46.7115C89.0456 46.7366 89.0059 46.7504 88.965 46.7508H88.9612ZM87.0637 45.6258C87.0307 45.6255 86.9984 45.6164 86.97 45.5996L86.3362 45.2246C86.3148 45.2123 86.296 45.1958 86.2809 45.1763C86.2659 45.1567 86.2548 45.1343 86.2483 45.1105C86.2419 45.0866 86.2402 45.0618 86.2434 45.0373C86.2466 45.0127 86.2545 44.9891 86.2669 44.9677C86.2792 44.9463 86.2956 44.9275 86.3152 44.9124C86.3347 44.8973 86.3571 44.8862 86.3809 44.8798C86.4048 44.8734 86.4297 44.8717 86.4542 44.8749C86.4787 44.878 86.5023 44.886 86.5237 44.8983L87.1575 45.2733C87.1927 45.2942 87.2201 45.326 87.2355 45.3639C87.2509 45.4018 87.2535 45.4437 87.2429 45.4832C87.2323 45.5228 87.209 45.5577 87.1767 45.5828C87.1443 45.6079 87.1047 45.6216 87.0637 45.6221V45.6258ZM85.1587 44.5346C85.1261 44.5354 85.0937 44.5276 85.065 44.5121L84.4275 44.1371C84.4046 44.1258 84.3843 44.11 84.3678 44.0906C84.3512 44.0712 84.3388 44.0486 84.3313 44.0243C84.3238 43.9999 84.3213 43.9743 84.324 43.949C84.3267 43.9236 84.3345 43.8991 84.347 43.8769C84.3596 43.8547 84.3765 43.8353 84.3967 43.8198C84.417 43.8043 84.4402 43.7932 84.4649 43.787C84.4896 43.7808 84.5154 43.7797 84.5405 43.7838C84.5657 43.7879 84.5897 43.7971 84.6112 43.8108L85.2487 44.1858C85.2858 44.2058 85.3151 44.2377 85.3319 44.2764C85.3486 44.3151 85.3518 44.3583 85.341 44.3991C85.3302 44.4398 85.3059 44.4757 85.2722 44.501C85.2384 44.5262 85.1971 44.5394 85.155 44.5383L85.1587 44.5346ZM83.2462 43.4546C83.2136 43.4554 83.1812 43.4476 83.1525 43.4321L82.515 43.0571C82.4921 43.0458 82.4718 43.03 82.4553 43.0106C82.4387 42.9912 82.4263 42.9686 82.4188 42.9443C82.4112 42.9199 82.4088 42.8943 82.4115 42.869C82.4142 42.8436 82.422 42.8191 82.4345 42.7969C82.447 42.7747 82.464 42.7553 82.4842 42.7398C82.5045 42.7243 82.5277 42.7132 82.5524 42.707C82.5771 42.7008 82.6029 42.6997 82.628 42.7038C82.6532 42.7079 82.6772 42.7171 82.6987 42.7308L83.34 43.1058C83.3771 43.1258 83.4064 43.1577 83.4231 43.1964C83.4399 43.2351 83.4431 43.2783 83.4322 43.3191C83.4214 43.3598 83.3972 43.3957 83.3634 43.421C83.3297 43.4462 83.2884 43.4594 83.2462 43.4583V43.4546ZM81.33 42.3821C81.2986 42.3822 81.2676 42.3745 81.24 42.3596L80.5987 41.9846C80.5583 41.9588 80.5293 41.9185 80.5177 41.872C80.506 41.8255 80.5127 41.7762 80.5362 41.7345C80.5597 41.6927 80.5984 41.6615 80.6442 41.6473C80.69 41.6332 80.7395 41.6371 80.7825 41.6583L81.4237 42.0333C81.4605 42.0532 81.4896 42.0848 81.5064 42.1231C81.5232 42.1614 81.5267 42.2042 81.5164 42.2447C81.506 42.2852 81.4824 42.3211 81.4493 42.3467C81.4162 42.3723 81.3756 42.386 81.3337 42.3858L81.33 42.3821ZM79.41 41.3096C79.3786 41.3097 79.3476 41.302 79.32 41.2871L78.6787 40.9121C78.6383 40.8863 78.6093 40.846 78.5977 40.7995C78.586 40.753 78.5927 40.7037 78.6162 40.662C78.6397 40.6202 78.6784 40.589 78.7242 40.5748C78.77 40.5607 78.8195 40.5646 78.8625 40.5858L79.5 40.9608C79.5368 40.9807 79.5659 41.0123 79.5827 41.0506C79.5994 41.0889 79.6029 41.1317 79.5926 41.1722C79.5823 41.2127 79.5587 41.2486 79.5256 41.2742C79.4925 41.2998 79.4518 41.3135 79.41 41.3133V41.3096ZM77.4937 40.2371C77.4611 40.2379 77.4287 40.2301 77.4 40.2146L76.7625 39.8396C76.7221 39.8138 76.693 39.7735 76.6814 39.727C76.6698 39.6805 76.6764 39.6312 76.6999 39.5895C76.7235 39.5477 76.7621 39.5165 76.8079 39.5023C76.8537 39.4882 76.9032 39.4921 76.9462 39.5133L77.5837 39.8883C77.6208 39.9083 77.6501 39.9402 77.6669 39.9789C77.6836 40.0176 77.6868 40.0608 77.676 40.1016C77.6652 40.1423 77.6409 40.1782 77.6072 40.2035C77.5734 40.2287 77.5321 40.2419 77.49 40.2408L77.4937 40.2371ZM75.5775 39.1571C75.5448 39.1579 75.5125 39.1501 75.4837 39.1346L74.8462 38.7596C74.803 38.7347 74.7714 38.6937 74.7583 38.6455C74.7453 38.5973 74.752 38.546 74.7769 38.5027C74.8017 38.4594 74.8428 38.4278 74.8909 38.4148C74.9391 38.4018 74.9905 38.4084 75.0337 38.4333L75.6712 38.8083C75.7083 38.8283 75.7376 38.8602 75.7544 38.8989C75.7711 38.9376 75.7743 38.9808 75.7635 39.0216C75.7527 39.0623 75.7284 39.0982 75.6947 39.1235C75.6609 39.1487 75.6196 39.1619 75.5775 39.1608V39.1571ZM73.6687 38.0696C73.6357 38.0692 73.6034 38.0602 73.575 38.0433L72.9412 37.6683C72.898 37.6434 72.8664 37.6024 72.8533 37.5542C72.8403 37.5061 72.847 37.4547 72.8719 37.4114C72.8967 37.3682 72.9378 37.3366 72.9859 37.3236C73.0341 37.3105 73.0855 37.3172 73.1287 37.3421L73.7625 37.7171C73.7977 37.7379 73.8251 37.7698 73.8405 37.8077C73.8559 37.8456 73.8585 37.8875 73.8479 37.927C73.8373 37.9665 73.814 38.0015 73.7817 38.0265C73.7493 38.0516 73.7097 38.0654 73.6687 38.0658V38.0696ZM71.76 36.9821C71.7286 36.9822 71.6976 36.9745 71.67 36.9596L71.0287 36.6071C70.985 36.5832 70.9525 36.5429 70.9384 36.4951C70.9244 36.4473 70.9299 36.3958 70.9537 36.3521C70.9776 36.3083 71.0179 36.2758 71.0657 36.2618C71.1135 36.2477 71.165 36.2532 71.2087 36.2771L71.8537 36.6296C71.8905 36.6494 71.9196 36.681 71.9364 36.7193C71.9532 36.7576 71.9567 36.8004 71.9463 36.841C71.936 36.8815 71.9124 36.9174 71.8793 36.9429C71.8462 36.9685 71.8055 36.9823 71.7637 36.9821H71.76ZM69.8325 35.9246C69.7998 35.9254 69.7675 35.9176 69.7387 35.9021L69.1012 35.5271C69.0637 35.4998 69.0376 35.4595 69.028 35.4141C69.0185 35.3687 69.0261 35.3213 69.0494 35.2812C69.0727 35.2411 69.1101 35.211 69.1543 35.1969C69.1985 35.1827 69.2464 35.1854 69.2887 35.2046L69.9225 35.5796C69.9596 35.5996 69.9889 35.6315 70.0056 35.6702C70.0224 35.7089 70.0256 35.7521 70.0147 35.7928C70.0039 35.8336 69.9797 35.8695 69.9459 35.8947C69.9122 35.92 69.8709 35.9331 69.8287 35.9321L69.8325 35.9246ZM67.9575 34.7996C67.9203 34.8002 67.8837 34.7898 67.8525 34.7696C67.645 34.6346 67.4425 34.4946 67.245 34.3496C67.2226 34.3363 67.2032 34.3186 67.1881 34.2974C67.173 34.2763 67.1624 34.2523 67.157 34.2268C67.1517 34.2014 67.1517 34.1751 67.157 34.1497C67.1624 34.1243 67.173 34.1002 67.1881 34.0791C67.2032 34.0579 67.2226 34.0402 67.2449 34.0269C67.2673 34.0137 67.2922 34.0052 67.318 34.0021C67.3438 33.999 67.3699 34.0012 67.3948 34.0088C67.4197 34.0163 67.4427 34.0289 67.4625 34.0458C67.6575 34.1858 67.8562 34.3233 68.0587 34.4583C68.093 34.4804 68.1191 34.5131 68.1331 34.5514C68.1471 34.5896 68.1483 34.6314 68.1364 34.6704C68.1245 34.7094 68.1003 34.7435 68.0673 34.7675C68.0344 34.7915 67.9945 34.804 67.9537 34.8033L67.9575 34.7996ZM66.21 33.4721C66.1642 33.4715 66.1201 33.4541 66.0862 33.4233C65.9012 33.2583 65.7212 33.0883 65.5462 32.9133C65.5287 32.8958 65.5149 32.8751 65.5054 32.8522C65.496 32.8294 65.4911 32.8049 65.4911 32.7802C65.4911 32.7555 65.496 32.731 65.5054 32.7081C65.5149 32.6853 65.5287 32.6645 65.5462 32.6471C65.5637 32.6296 65.5845 32.6157 65.6073 32.6062C65.6302 32.5968 65.6546 32.5919 65.6794 32.5919C65.7041 32.5919 65.7286 32.5968 65.7514 32.6062C65.7742 32.6157 65.795 32.6296 65.8125 32.6471C65.9825 32.8171 66.1575 32.9821 66.3375 33.1421C66.3653 33.1674 66.3849 33.2005 66.3937 33.2371C66.4025 33.2737 66.4 33.3121 66.3867 33.3473C66.3733 33.3825 66.3497 33.4129 66.3189 33.4345C66.288 33.456 66.2514 33.4678 66.2137 33.4683L66.21 33.4721Z" fill="#2E3192"/>
<path d="M96.1725 51.5921C96.1282 51.5918 96.0854 51.5758 96.0518 51.5469C96.0182 51.5181 95.9958 51.4783 95.9887 51.4346L95.9362 51.1458L95.6925 50.9846C95.6695 50.9722 95.6493 50.9552 95.6333 50.9347C95.6172 50.9141 95.6057 50.8904 95.5993 50.8651C95.5929 50.8398 95.5919 50.8135 95.5963 50.7877C95.6007 50.762 95.6104 50.7375 95.6248 50.7158C95.6392 50.694 95.658 50.6755 95.68 50.6614C95.702 50.6474 95.7266 50.638 95.7524 50.634C95.7782 50.6301 95.8045 50.6315 95.8297 50.6382C95.8549 50.645 95.8784 50.657 95.8987 50.6733L96.2737 50.9246L96.3525 51.3746C96.3568 51.399 96.3562 51.424 96.3508 51.4481C96.3454 51.4723 96.3353 51.4951 96.321 51.5154C96.3067 51.5356 96.2885 51.5528 96.2675 51.5659C96.2465 51.5791 96.2232 51.588 96.1987 51.5921H96.1725Z" fill="#2E3192"/>
<path d="M96.0824 76.3347C96.0578 76.3391 96.0325 76.3386 96.0081 76.3333C95.9836 76.328 95.9605 76.3179 95.9399 76.3036C95.9194 76.2893 95.9019 76.2711 95.8883 76.2501C95.8748 76.229 95.8656 76.2055 95.8612 76.1809C95.8567 76.1563 95.8572 76.131 95.8625 76.1066C95.8678 76.0821 95.8779 76.059 95.8922 76.0384C95.9065 76.0179 95.9247 76.0004 95.9457 75.9868C95.9668 75.9733 95.9903 75.9641 96.0149 75.9597C96.2099 75.8847 96.2924 75.7984 96.2962 75.7684V75.5847C96.2962 75.5349 96.3159 75.4872 96.3511 75.4521C96.3862 75.4169 96.4339 75.3972 96.4837 75.3972C96.5334 75.3972 96.5811 75.4169 96.6162 75.4521C96.6514 75.4872 96.6712 75.5349 96.6712 75.5847V75.7722C96.6712 75.9859 96.4799 76.1809 96.1499 76.3084C96.1293 76.3215 96.1064 76.3304 96.0824 76.3347ZM94.6274 76.2147C94.5868 76.2147 94.5474 76.2015 94.5149 76.1771L94.4774 76.1472L93.8662 75.8846C93.8204 75.8648 93.7844 75.8275 93.7661 75.7811C93.7479 75.7347 93.7488 75.6829 93.7687 75.6372C93.7885 75.5914 93.8258 75.5554 93.8722 75.5371C93.9186 75.5189 93.9704 75.5198 94.0162 75.5396L94.6462 75.8097L94.7399 75.8734C94.7714 75.897 94.7946 75.9299 94.8064 75.9675C94.8181 76.0051 94.8177 76.0454 94.8053 76.0827C94.7928 76.12 94.769 76.1525 94.737 76.1755C94.7051 76.1985 94.6668 76.2109 94.6274 76.2109V76.2147ZM92.5687 75.2772C92.5401 75.2773 92.5119 75.2709 92.4862 75.2584L91.8074 74.9134C91.7855 74.9021 91.766 74.8865 91.7501 74.8677C91.7342 74.8488 91.7222 74.827 91.7147 74.8035C91.7072 74.78 91.7044 74.7553 91.7065 74.7307C91.7086 74.7061 91.7155 74.6822 91.7268 74.6603C91.7381 74.6384 91.7536 74.6189 91.7725 74.603C91.7913 74.5871 91.8131 74.575 91.8366 74.5675C91.8601 74.56 91.8849 74.5573 91.9095 74.5593C91.9341 74.5614 91.958 74.5683 91.9799 74.5797L92.6512 74.9209C92.6894 74.9394 92.7202 74.9704 92.7386 75.0088C92.7569 75.0471 92.7617 75.0905 92.7521 75.132C92.7425 75.1734 92.7191 75.2103 92.6858 75.2367C92.6525 75.2631 92.6112 75.2773 92.5687 75.2772ZM96.4987 74.2834C96.474 74.2829 96.4497 74.2776 96.4272 74.2677C96.4046 74.2578 96.3842 74.2436 96.3672 74.2258C96.3501 74.2081 96.3367 74.1871 96.3277 74.1642C96.3188 74.1413 96.3144 74.1168 96.3149 74.0921C96.3149 73.8421 96.3149 73.5921 96.3149 73.3421C96.3149 73.2924 96.3347 73.2447 96.3698 73.2096C96.405 73.1744 96.4527 73.1546 96.5024 73.1546C96.5521 73.1546 96.5998 73.1744 96.635 73.2096C96.6701 73.2447 96.6899 73.2924 96.6899 73.3421C96.6899 73.5921 96.6899 73.8421 96.6899 74.0921C96.688 74.1412 96.6668 74.1876 96.6311 74.2212C96.5953 74.2549 96.5478 74.2732 96.4987 74.2722V74.2834ZM90.5699 74.2009C90.5369 74.2007 90.5045 74.1917 90.4762 74.1746L89.8199 73.7996C89.7771 73.7738 89.7464 73.732 89.7344 73.6835C89.7225 73.635 89.7303 73.5837 89.7562 73.5409C89.782 73.4981 89.8238 73.4674 89.8723 73.4554C89.9209 73.4435 89.9721 73.4513 90.0149 73.4771L90.6637 73.8521C90.6989 73.873 90.7263 73.9048 90.7417 73.9428C90.7571 73.9807 90.7597 74.0226 90.7491 74.0621C90.7384 74.1016 90.7152 74.1366 90.6828 74.1616C90.6505 74.1867 90.6108 74.2005 90.5699 74.2009ZM88.6312 73.0196C88.5952 73.0196 88.5601 73.0091 88.5299 72.9896L87.8924 72.5809C87.8535 72.5528 87.8267 72.5109 87.8178 72.4637C87.8088 72.4166 87.8183 72.3678 87.8443 72.3274C87.8702 72.287 87.9107 72.2581 87.9573 72.2467C88.004 72.2352 88.0532 72.2421 88.0949 72.2659L88.7324 72.6709C88.7664 72.6928 88.7923 72.7252 88.8064 72.7631C88.8205 72.801 88.822 72.8424 88.8106 72.8812C88.7992 72.92 88.7756 72.9541 88.7432 72.9783C88.7109 73.0026 88.6716 73.0158 88.6312 73.0159V73.0196ZM96.5587 72.0109C96.534 72.0099 96.5098 72.0041 96.4874 71.9938C96.4651 71.9835 96.4449 71.9688 96.4282 71.9507C96.4115 71.9326 96.3985 71.9114 96.39 71.8882C96.3815 71.8651 96.3777 71.8405 96.3787 71.8159L96.4049 71.0659C96.4087 71.0168 96.4309 70.971 96.4671 70.9376C96.5032 70.9042 96.5507 70.8857 96.5999 70.8859C96.6245 70.8869 96.6487 70.8927 96.6711 70.903C96.6935 70.9133 96.7136 70.928 96.7303 70.9461C96.7471 70.9642 96.76 70.9854 96.7685 71.0086C96.7771 71.0317 96.7809 71.0563 96.7799 71.0809L96.7537 71.8309C96.7489 71.8793 96.7255 71.924 96.6884 71.9555C96.6513 71.987 96.6035 72.0028 96.5549 71.9996L96.5587 72.0109ZM86.7187 71.7934C86.6827 71.7935 86.6475 71.7831 86.6174 71.7634L85.9799 71.3584C85.941 71.3303 85.9142 71.2884 85.9053 71.2412C85.8963 71.1941 85.9058 71.1453 85.9318 71.1049C85.9577 71.0645 85.9982 71.0356 86.0448 71.0242C86.0915 71.0127 86.1407 71.0196 86.1824 71.0434L86.8199 71.4522C86.8539 71.4741 86.8798 71.5064 86.8939 71.5443C86.908 71.5822 86.9095 71.6237 86.8981 71.6625C86.8867 71.7013 86.8631 71.7353 86.8307 71.7596C86.7984 71.7839 86.7591 71.797 86.7187 71.7971V71.7934ZM84.8024 70.5709C84.7665 70.5708 84.7313 70.5604 84.7012 70.5409L84.0599 70.1397C84.0176 70.1133 83.9876 70.0712 83.9763 70.0227C83.9651 69.9742 83.9736 69.9232 83.9999 69.8809C84.0263 69.8386 84.0683 69.8086 84.1169 69.7973C84.1654 69.7861 84.2164 69.7945 84.2587 69.8209L84.8999 70.2259C84.9339 70.2478 84.9598 70.2802 84.9739 70.3181C84.988 70.356 84.9895 70.3974 84.9781 70.4362C84.9667 70.475 84.9431 70.5091 84.9107 70.5333C84.8784 70.5576 84.8391 70.5708 84.7987 70.5709H84.8024ZM96.6412 69.7384C96.6165 69.7374 96.5923 69.7316 96.5699 69.7213C96.5476 69.711 96.5274 69.6963 96.5107 69.6782C96.494 69.6601 96.481 69.6389 96.4725 69.6157C96.464 69.5926 96.4602 69.568 96.4612 69.5434L96.4912 68.7934C96.4941 68.744 96.516 68.6976 96.5524 68.6641C96.5887 68.6305 96.6367 68.6123 96.6862 68.6134C96.7108 68.6144 96.735 68.6202 96.7574 68.6305C96.7797 68.6408 96.7999 68.6555 96.8166 68.6736C96.8333 68.6917 96.8463 68.7129 96.8548 68.7361C96.8633 68.7592 96.8672 68.7838 96.8662 68.8084L96.8362 69.5584C96.8314 69.6068 96.808 69.6515 96.7709 69.683C96.7338 69.7145 96.686 69.7303 96.6374 69.7271L96.6412 69.7384ZM82.8712 69.3634C82.8368 69.3639 82.8031 69.3548 82.7737 69.3371L82.1249 68.9621C82.0831 68.9363 82.053 68.8951 82.0413 68.8474C82.0295 68.7996 82.037 68.7492 82.0621 68.7069C82.0871 68.6646 82.1278 68.6339 82.1753 68.6213C82.2229 68.6087 82.2734 68.6153 82.3162 68.6396L82.9649 69.0146C83.0004 69.0357 83.0279 69.0678 83.0433 69.1061C83.0586 69.1444 83.0609 69.1867 83.0498 69.2264C83.0387 69.2661 83.0148 69.3011 82.9818 69.3258C82.9489 69.3506 82.9086 69.3638 82.8674 69.3634H82.8712ZM80.9137 68.2121C80.8806 68.2118 80.8483 68.2027 80.8199 68.1859L80.1637 67.8109C80.1232 67.7851 80.0942 67.7448 80.0826 67.6983C80.071 67.6518 80.0776 67.6026 80.1011 67.5608C80.1246 67.519 80.1633 67.4878 80.2091 67.4737C80.2549 67.4595 80.3044 67.4634 80.3474 67.4846L81.0037 67.8596C81.0389 67.8805 81.0663 67.9123 81.0817 67.9503C81.0971 67.9882 81.0997 68.0301 81.0891 68.0696C81.0784 68.1091 81.0552 68.1441 81.0228 68.1691C80.9905 68.1942 80.9508 68.208 80.9099 68.2084L80.9137 68.2121ZM96.7312 67.4621C96.7065 67.4612 96.6823 67.4554 96.6599 67.445C96.6376 67.4347 96.6174 67.4201 96.6007 67.402C96.584 67.3839 96.571 67.3626 96.5625 67.3395C96.554 67.3164 96.5502 67.2918 96.5512 67.2671L96.5812 66.5171C96.5816 66.4924 96.5871 66.4679 96.5972 66.4453C96.6074 66.4227 96.622 66.4023 96.6402 66.3855C96.6585 66.3687 96.6799 66.3558 96.7032 66.3474C96.7266 66.3391 96.7514 66.3356 96.7762 66.3371C96.8008 66.3381 96.825 66.3439 96.8474 66.3543C96.8697 66.3646 96.8899 66.3792 96.9066 66.3973C96.9233 66.4154 96.9363 66.4367 96.9448 66.4598C96.9533 66.4829 96.9572 66.5075 96.9562 66.5321L96.9262 67.2821C96.9233 67.3312 96.9012 67.3772 96.8647 67.4102C96.8282 67.4431 96.7803 67.4604 96.7312 67.4584V67.4621ZM78.9337 67.0871C78.9023 67.0873 78.8713 67.0796 78.8437 67.0646L78.1799 66.6896C78.1361 66.6658 78.1037 66.6255 78.0896 66.5777C78.0755 66.5299 78.081 66.4784 78.1049 66.4346C78.1288 66.3909 78.1691 66.3584 78.2169 66.3443C78.2647 66.3303 78.3162 66.3358 78.3599 66.3596L79.0237 66.7346C79.0605 66.7545 79.0896 66.7861 79.1063 66.8244C79.1231 66.8627 79.1266 66.9055 79.1163 66.946C79.1059 66.9865 79.0823 67.0224 79.0493 67.048C79.0162 67.0736 78.9755 67.0874 78.9337 67.0871ZM76.9387 65.9996C76.9072 65.9998 76.8763 65.9921 76.8487 65.9771L76.1812 65.6021C76.1577 65.5916 76.1367 65.5764 76.1194 65.5574C76.102 65.5384 76.0888 65.516 76.0805 65.4917C76.0722 65.4674 76.069 65.4416 76.0711 65.416C76.0731 65.3904 76.0804 65.3654 76.0926 65.3428C76.1047 65.3201 76.1213 65.3001 76.1415 65.2842C76.1616 65.2682 76.1848 65.2565 76.2096 65.2499C76.2345 65.2433 76.2604 65.2419 76.2858 65.2457C76.3113 65.2495 76.3356 65.2585 76.3574 65.2721L77.0249 65.6471C77.0617 65.667 77.0908 65.6986 77.1076 65.7369C77.1244 65.7752 77.1279 65.818 77.1175 65.8585C77.1072 65.8991 77.0836 65.9349 77.0505 65.9605C77.0174 65.9861 76.9767 65.9999 76.9349 65.9996H76.9387ZM96.8137 65.1784C96.789 65.1774 96.7648 65.1716 96.7424 65.1613C96.7201 65.151 96.6999 65.1363 96.6832 65.1182C96.6665 65.1001 96.6535 65.0789 96.645 65.0557C96.6365 65.0326 96.6327 65.008 96.6337 64.9834L96.6562 64.2334C96.6581 64.184 96.6791 64.1372 96.7148 64.103C96.7504 64.0687 96.798 64.0496 96.8474 64.0496C96.872 64.0501 96.8963 64.0555 96.9189 64.0653C96.9414 64.0752 96.9618 64.0894 96.9789 64.1072C96.996 64.125 97.0094 64.1459 97.0183 64.1689C97.0273 64.1918 97.0317 64.2163 97.0312 64.2409L97.0087 64.9909C97.0103 65.0171 97.0063 65.0433 96.9972 65.0679C96.988 65.0925 96.9737 65.1149 96.9553 65.1336C96.937 65.1524 96.9149 65.167 96.8905 65.1767C96.866 65.1863 96.8399 65.1907 96.8137 65.1896V65.1784ZM74.9324 64.9271C74.9023 64.9268 74.8726 64.9191 74.8462 64.9046L74.1787 64.5484C74.1552 64.5379 74.1342 64.5226 74.1169 64.5036C74.0995 64.4846 74.0863 64.4623 74.078 64.4379C74.0697 64.4136 74.0665 64.3879 74.0686 64.3622C74.0706 64.3366 74.0779 64.3117 74.0901 64.289C74.1022 64.2663 74.1188 64.2464 74.139 64.2304C74.1591 64.2145 74.1823 64.2028 74.2071 64.1962C74.232 64.1895 74.2579 64.1881 74.2833 64.1919C74.3088 64.1957 74.3331 64.2048 74.3549 64.2184L75.0224 64.5746C75.0589 64.5944 75.0879 64.6256 75.1047 64.6635C75.1216 64.7015 75.1254 64.7439 75.1155 64.7842C75.1057 64.8245 75.0827 64.8604 75.0502 64.8863C75.0178 64.9122 74.9777 64.9265 74.9362 64.9271H74.9324ZM72.9262 63.8621C72.8947 63.8623 72.8638 63.8546 72.8362 63.8396L72.1687 63.4646C72.1284 63.4394 72.0992 63.3999 72.087 63.354C72.0747 63.3081 72.0804 63.2593 72.1027 63.2174C72.1251 63.1755 72.1626 63.1436 72.2075 63.1283C72.2525 63.1129 72.3016 63.1152 72.3449 63.1346L73.0124 63.5096C73.0492 63.5295 73.0783 63.5611 73.0951 63.5994C73.1119 63.6377 73.1154 63.6805 73.105 63.721C73.0947 63.7616 73.0711 63.7974 73.038 63.823C73.0049 63.8486 72.9642 63.8624 72.9224 63.8621H72.9262ZM96.8737 62.9021C96.849 62.9017 96.8247 62.8963 96.8022 62.8864C96.7796 62.8766 96.7592 62.8623 96.7422 62.8446C96.7251 62.8268 96.7117 62.8059 96.7027 62.7829C96.6938 62.76 96.6894 62.7355 96.6899 62.7109C96.6899 62.4609 96.6899 62.2109 96.6899 61.9609C96.6894 61.9361 96.6939 61.9115 96.7031 61.8885C96.7124 61.8656 96.7262 61.8447 96.7437 61.8272C96.7612 61.8097 96.7821 61.7959 96.8051 61.7866C96.828 61.7774 96.8526 61.7729 96.8774 61.7734C96.9271 61.7734 96.9748 61.7931 97.01 61.8283C97.0451 61.8635 97.0649 61.9112 97.0649 61.9609C97.0649 62.2109 97.0649 62.4609 97.0649 62.7109C97.0654 62.7362 97.0608 62.7612 97.0514 62.7847C97.042 62.8081 97.0279 62.8294 97.01 62.8473C96.9922 62.8651 96.9709 62.8792 96.9474 62.8886C96.924 62.8981 96.8989 62.9027 96.8737 62.9021ZM70.9274 62.7821C70.896 62.7823 70.8651 62.7746 70.8374 62.7596L70.1737 62.3846C70.152 62.3728 70.1329 62.3569 70.1174 62.3376C70.1019 62.3184 70.0903 62.2964 70.0833 62.2727C70.0764 62.249 70.0741 62.2242 70.0768 62.1996C70.0794 62.1751 70.0868 62.1513 70.0987 62.1296C70.1105 62.108 70.1265 62.0888 70.1457 62.0734C70.1649 62.0579 70.1869 62.0463 70.2106 62.0393C70.2343 62.0324 70.2591 62.0301 70.2837 62.0328C70.3082 62.0354 70.332 62.0428 70.3537 62.0546L71.0174 62.4296C71.0542 62.4495 71.0833 62.4811 71.1001 62.5194C71.1169 62.5577 71.1204 62.6005 71.11 62.641C71.0997 62.6815 71.0761 62.7174 71.043 62.743C71.0099 62.7686 70.9692 62.7824 70.9274 62.7821ZM68.9399 61.6871C68.9072 61.6879 68.8749 61.6802 68.8462 61.6646L68.1862 61.2896C68.1429 61.2648 68.1113 61.2237 68.0983 61.1756C68.0853 61.1274 68.0919 61.076 68.1168 61.0328C68.1417 60.9895 68.1827 60.9579 68.2309 60.9449C68.279 60.9319 68.3304 60.9385 68.3737 60.9634L69.0299 61.3384C69.067 61.3584 69.0963 61.3903 69.1131 61.429C69.1298 61.4677 69.133 61.5109 69.1222 61.5517C69.1113 61.5924 69.0871 61.6283 69.0533 61.6536C69.0196 61.6788 68.9783 61.692 68.9362 61.6909L68.9399 61.6871ZM96.8849 60.6521C96.8352 60.6521 96.7875 60.6324 96.7523 60.5972C96.7172 60.5621 96.6974 60.5144 96.6974 60.4646C96.6974 60.2146 96.6974 59.9646 96.6974 59.7146C96.6969 59.69 96.7013 59.6655 96.7102 59.6426C96.7192 59.6197 96.7326 59.5987 96.7497 59.581C96.7667 59.5632 96.7871 59.549 96.8097 59.5391C96.8322 59.5292 96.8565 59.5239 96.8812 59.5234C96.9298 59.5259 96.9759 59.5459 97.011 59.5796C97.0462 59.6134 97.068 59.6586 97.0724 59.7071C97.0724 59.9571 97.0724 60.2071 97.0724 60.4571C97.0724 60.5069 97.0527 60.5546 97.0175 60.5897C96.9823 60.6249 96.9346 60.6446 96.8849 60.6446V60.6521ZM66.9674 60.5771C66.9344 60.577 66.902 60.5679 66.8737 60.5509L66.2212 60.1759C66.1793 60.1501 66.1493 60.1089 66.1375 60.0611C66.1258 60.0134 66.1332 59.9629 66.1583 59.9207C66.1834 59.8784 66.2241 59.8476 66.2716 59.835C66.3191 59.8225 66.3697 59.8291 66.4124 59.8534L67.0612 60.2284C67.0964 60.2493 67.1238 60.2811 67.1392 60.319C67.1546 60.3569 67.1572 60.3988 67.1466 60.4383C67.1359 60.4778 67.1127 60.5128 67.0803 60.5379C67.048 60.5629 67.0083 60.5767 66.9674 60.5771ZM96.8399 58.3796C96.7914 58.3797 96.7449 58.361 96.7099 58.3274C96.675 58.2938 96.6543 58.2481 96.6524 58.1996C96.6524 57.9496 96.6424 57.6996 96.6224 57.4496C96.6224 57.3999 96.6422 57.3522 96.6773 57.3171C96.7125 57.2819 96.7602 57.2621 96.8099 57.2621C96.8596 57.2621 96.9073 57.2819 96.9425 57.3171C96.9777 57.3522 96.9974 57.3999 96.9974 57.4496C96.9974 57.6996 97.0074 57.9496 97.0274 58.1996C97.0284 58.2243 97.0246 58.2489 97.0161 58.272C97.0075 58.2951 96.9946 58.3164 96.9778 58.3345C96.9611 58.3526 96.941 58.3672 96.9186 58.3775C96.8962 58.3879 96.872 58.3937 96.8474 58.3946L96.8399 58.3796ZM96.7162 56.1109C96.6689 56.111 96.6234 56.0934 96.5886 56.0614C96.5538 56.0294 96.5324 55.9855 96.5287 55.9384C96.5112 55.6884 96.4912 55.4384 96.4687 55.1884C96.4645 55.1392 96.4799 55.0904 96.5114 55.0525C96.543 55.0146 96.5883 54.9906 96.6374 54.9859C96.6864 54.9827 96.7347 54.9984 96.7724 55.0298C96.8101 55.0612 96.8342 55.1059 96.8399 55.1546C96.8624 55.4046 96.8824 55.6546 96.8999 55.9046C96.903 55.9538 96.8867 56.0022 96.8544 56.0394C96.8221 56.0766 96.7765 56.0995 96.7274 56.1034L96.7162 56.1109ZM96.4987 53.8609C96.4526 53.8612 96.408 53.8446 96.3734 53.8142C96.3388 53.7837 96.3167 53.7416 96.3112 53.6959C96.2812 53.4459 96.2499 53.1959 96.2174 52.9459C96.211 52.8967 96.2244 52.8469 96.2546 52.8076C96.2849 52.7682 96.3295 52.7424 96.3787 52.7359C96.4277 52.7305 96.4769 52.7443 96.5161 52.7743C96.5552 52.8044 96.5812 52.8484 96.5887 52.8971C96.6237 53.1471 96.6562 53.3971 96.6862 53.6471C96.6893 53.6718 96.6875 53.6968 96.6809 53.7208C96.6743 53.7447 96.663 53.7671 96.6476 53.7867C96.6322 53.8062 96.6132 53.8225 96.5915 53.8346C96.5697 53.8467 96.5459 53.8544 96.5212 53.8571L96.4987 53.8609Z" fill="#2E3192"/>
<path d="M65.0063 59.3845C64.9716 59.3837 64.9379 59.3734 64.9088 59.3545L64.59 59.1558C64.5478 59.1294 64.5177 59.0874 64.5064 59.0388C64.4952 58.9903 64.5037 58.9393 64.53 58.897C64.5564 58.8548 64.5985 58.8247 64.647 58.8134C64.6955 58.8022 64.7465 58.8107 64.7888 58.837L65.1075 59.0358C65.1412 59.0575 65.1671 59.0895 65.1813 59.1271C65.1954 59.1646 65.1972 59.2057 65.1863 59.2443C65.1754 59.2829 65.1524 59.317 65.1207 59.3416C65.0889 59.3662 65.0501 59.3799 65.01 59.3808L65.0063 59.3845Z" fill="#2E3192"/>
<path d="M93.5781 64.8706C94.6157 64.4535 95.0887 63.1994 94.6345 62.0695C94.1803 60.9396 92.9709 60.3617 91.9332 60.7789C90.8955 61.196 90.4225 62.4502 90.8768 63.5801C91.331 64.71 92.5404 65.2878 93.5781 64.8706Z" fill="#443CE5"/>
<path d="M98.1263 18.7833C98.1263 18.7833 94.5675 22.3383 92.9775 22.7096C93.5448 24.1437 94.636 25.3086 96.03 25.9683C96.03 25.9683 99.5513 24.9446 100.41 22.6946C100.41 22.6946 98.5013 25.3458 96.1538 25.5371C94.9969 24.9535 94.039 24.04 93.4013 22.9121C93.4013 22.9121 96.4613 21.5621 98.1263 18.7833Z" fill="#181884"/>
<path d="M88.9237 20.2008L90.285 24.5771L89.1487 24.2883L88.9237 20.2008Z" fill="#181884"/>
<path d="M92.7113 61.9196C91.5038 61.9196 91.5038 63.7945 92.7113 63.7945C93.9188 63.7945 93.9226 61.9196 92.7113 61.9196Z" fill="#FFB92C"/>
<path d="M44.5799 79.4284C44.6238 79.7311 44.5782 80.04 44.4487 80.3171C44.2349 80.6921 43.9049 81.3484 43.0987 81.2284C42.2924 81.1084 40.7512 80.1559 40.0987 79.8634C39.4462 79.5709 37.7325 79.2371 37.71 78.9259C37.6875 78.6146 37.71 77.7821 37.71 77.7821" fill="#4C0D0A"/>
<path d="M41.1712 76.7771C41.1712 76.7771 41.3737 77.4333 42.5212 77.9546C43.6687 78.4758 44.7712 78.9933 44.5612 79.6833C44.4757 79.9997 44.2824 80.2762 44.0147 80.4652C43.747 80.6541 43.4217 80.7437 43.095 80.7183C42.375 80.7183 40.7662 79.3946 39.72 79.1096C38.6737 78.8246 37.8225 78.6483 37.7662 78.3033C37.71 77.9583 37.7662 76.1471 37.7662 76.1471" fill="#443CE5"/>
<path d="M33.4162 73.687C33.4162 73.687 33.5737 74.812 33.1425 74.9395C32.4966 75.0886 31.8194 75.0173 31.2187 74.737C30.3937 74.392 27.96 72.0708 27.7237 71.227C27.7237 71.227 27.5587 70.7433 28.8975 69.5508" fill="#4C0D0A"/>
<path d="M31.8037 70.6683C31.8037 70.6683 31.5675 71.5608 31.8037 72.0145C32.04 72.4683 33.4912 73.222 33.4125 73.6908C33.3337 74.1595 32.73 74.7183 31.6987 74.2983C30.6675 73.8783 28.935 72.4233 28.5825 71.8458C28.23 71.2683 27.915 70.7808 28.3087 70.192C28.7025 69.6033 30.7725 67.9158 30.7725 67.9158" fill="#443CE5"/>
<path d="M39.2999 52.1395L44.7149 54.5808L32.2087 71.0808C32.2087 71.0808 29.4899 71.0808 29.0287 68.3845L39.2999 52.1395Z" fill="#D33B33"/>
<path d="M54.0563 59.6433C53.4589 59.2138 52.7445 58.977 52.0088 58.9646C51.6825 58.9646 51.6825 59.4633 52.0088 59.4746C52.5134 59.4804 53.0089 59.6091 53.4525 59.8496C53.73 60.0033 54.4725 60.4646 54.4313 60.8546C54.3825 61.3158 53.4338 60.5471 53.235 60.4121C52.8075 60.1233 52.3875 59.8196 51.975 59.5083C51.7125 59.3133 51.4575 59.7521 51.72 59.9471C52.1513 60.2696 54.84 62.5983 54.9563 60.9971C54.9975 60.4271 54.48 59.9546 54.0563 59.6433Z" fill="#E7483B"/>
<path d="M40.125 56.8084C40.125 56.8084 40.755 62.5459 41.5688 66.0221C42.3825 69.4984 41.85 76.8784 41.85 76.8784C41.85 76.8784 37.86 78.8396 37.4925 76.8784C37.125 74.9171 36.6375 68.3621 36.6375 68.3621C36.6375 68.3621 34.575 62.6246 34.26 59.5271C34.0125 57.0971 35.925 54.2771 35.925 54.2771" fill="#E7483B"/>
<path d="M47.4863 75.7684L45.81 65.5684C45.7492 65.0497 45.8419 64.5245 46.0765 64.058C46.3111 63.5914 46.6774 63.2039 47.13 62.9434C48.735 61.9496 52.98 59.0734 52.98 59.0734C52.98 59.0734 55.1213 58.4509 55.4663 60.0146C55.7025 61.0909 57.4238 69.5696 57.4238 69.5696" stroke="#42210B" stroke-width="3.045" stroke-miterlimit="10"/>
<path d="M66.0262 79.5221L60.5625 82.6084C60.5112 82.6455 60.4756 82.7002 60.4625 82.7621C60.4493 82.824 60.4597 82.8885 60.4914 82.9432C60.5232 82.9978 60.5742 83.0388 60.6344 83.058C60.6947 83.0772 60.7599 83.0733 60.8175 83.0472L66.2812 79.9609C66.3325 79.9238 66.3681 79.8691 66.3812 79.8072C66.3944 79.7453 66.384 79.6808 66.3523 79.6261C66.3205 79.5715 66.2695 79.5305 66.2093 79.5113C66.149 79.4921 66.0838 79.496 66.0262 79.5221Z" fill="#E7483B"/>
<path d="M60.2362 82.9495C60.1012 81.3333 58.8262 80.0883 58.0612 78.7458C58.0252 78.6911 57.9696 78.6524 57.9058 78.6377C57.8421 78.6229 57.7751 78.6332 57.7188 78.6665C57.6624 78.6997 57.621 78.7533 57.6031 78.8162C57.5851 78.8792 57.5921 78.9466 57.6225 79.0045C58.1887 80.002 58.9837 80.8795 59.43 81.9445C59.7487 82.6945 59.88 83.5158 59.43 84.2508C59.1187 84.7683 58.7362 85.087 58.0987 84.9633C57.6162 85.0558 57.4112 84.8308 57.4837 84.2883C57.1387 83.7383 57.305 83.4058 57.9825 83.2908C58.305 83.2458 58.1662 82.7545 57.8475 82.7995C55.8 83.0808 56.775 86.1745 58.8375 85.4545C59.8725 85.1058 60.3225 83.962 60.2362 82.9495Z" fill="#E7483B"/>
<path d="M51.5175 79.6197C51.5659 79.8325 51.5699 80.053 51.5294 80.2674C51.4889 80.4818 51.4047 80.6856 51.282 80.8661C51.1593 81.0466 51.0008 81.1999 50.8163 81.3165C50.6317 81.433 50.4252 81.5103 50.2095 81.5436C49.9939 81.5769 49.7736 81.5654 49.5626 81.5099C49.3515 81.4544 49.1541 81.356 48.9828 81.2209C48.8114 81.0858 48.6696 80.9169 48.5664 80.7246C48.4631 80.5324 48.4005 80.3209 48.3825 80.1034C48.24 79.1734 48.5175 78.2959 49.6912 78.1759C50.1232 78.1341 50.5545 78.2611 50.895 78.5302C51.2354 78.7993 51.4585 79.1897 51.5175 79.6197Z" fill="#9E3312"/>
<path d="M50.0775 81.6334C50.3851 81.5537 50.6743 81.4149 50.9288 81.2246C51.285 80.9359 51.0188 80.1934 51.0188 80.1934" fill="#9E3312"/>
<path d="M49.8091 81.6985C50.675 81.5651 51.2606 80.7019 51.117 79.7706C50.9735 78.8392 50.1553 78.1924 49.2894 78.3258C48.4236 78.4592 47.838 79.3224 47.9815 80.2537C48.125 81.1851 48.9433 81.8319 49.8091 81.6985Z" fill="#F15A24"/>
<path d="M49.7166 81.0981C50.2754 81.012 50.6535 80.456 50.5611 79.8563C50.4687 79.2565 49.9407 78.8401 49.3819 78.9262C48.8231 79.0123 48.445 79.5683 48.5375 80.1681C48.6299 80.7678 49.1578 81.1842 49.7166 81.0981Z" fill="#F2AB1C"/>
<path d="M60.0562 83.7521C60.1046 83.9649 60.1086 84.1854 60.0681 84.3998C60.0276 84.6143 59.9434 84.8181 59.8207 84.9986C59.698 85.1791 59.5395 85.3323 59.355 85.4489C59.1705 85.5655 58.9639 85.6428 58.7482 85.6761C58.5326 85.7093 58.3123 85.6979 58.1013 85.6424C57.8902 85.5868 57.6929 85.4885 57.5215 85.3534C57.3501 85.2183 57.2083 85.0493 57.1051 84.8571C57.0018 84.6648 56.9392 84.4534 56.9212 84.2359C56.7787 83.3059 57.0562 82.4284 58.2299 82.3084C58.6619 82.2665 59.0932 82.3935 59.4337 82.6626C59.7741 82.9318 59.9972 83.3222 60.0562 83.7521Z" fill="#9E3312"/>
<path d="M58.6162 85.777C58.9238 85.6974 59.213 85.5586 59.4675 85.3683C59.8237 85.0795 59.5575 84.337 59.5575 84.337" fill="#9E3312"/>
<path d="M58.3489 85.8286C59.2148 85.6952 59.8003 84.832 59.6568 83.9007C59.5133 82.9693 58.6951 82.3225 57.8292 82.4559C56.9634 82.5894 56.3778 83.4525 56.5213 84.3839C56.6648 85.3152 57.4831 85.962 58.3489 85.8286Z" fill="#F15A24"/>
<path d="M58.2563 85.2282C58.8151 85.1421 59.1932 84.5861 59.1007 83.9864C59.0083 83.3866 58.4804 82.9703 57.9216 83.0564C57.3628 83.1425 56.9847 83.6985 57.0771 84.2982C57.1695 84.898 57.6975 85.3143 58.2563 85.2282Z" fill="#F2AB1C"/>
<path d="M46.815 77.1109L60.2288 84.7121C60.4749 84.8516 60.7539 84.9227 61.0367 84.9181C61.3196 84.9135 61.5961 84.8333 61.8375 84.6859L71.2125 78.9596C71.2832 78.9174 71.3418 78.8575 71.3824 78.7858C71.423 78.7142 71.4444 78.6332 71.4444 78.5509C71.4444 78.4685 71.423 78.3876 71.3824 78.3159C71.3418 78.2443 71.2832 78.1844 71.2125 78.1421L58.0013 70.5146C57.8144 70.4063 57.6023 70.3492 57.3863 70.3492C57.1703 70.3492 56.9581 70.4063 56.7713 70.5146L46.8113 76.2821C46.7382 76.324 46.6775 76.3845 46.6354 76.4575C46.5933 76.5305 46.5713 76.6133 46.5717 76.6976C46.572 76.7819 46.5948 76.8645 46.6375 76.9371C46.6803 77.0097 46.7415 77.0697 46.815 77.1109Z" fill="#68E1FD"/>
<path d="M46.5825 76.6046V75.4534L47.5313 76.1621L46.5825 76.6046Z" fill="#68E1FD"/>
<path d="M71.445 77.3284V78.5059L70.4325 77.9171L71.445 77.3284Z" fill="#68E1FD"/>
<g opacity="0.36">
<path opacity="0.36" d="M46.815 77.1109L60.2288 84.7121C60.4749 84.8516 60.7539 84.9227 61.0367 84.9181C61.3196 84.9135 61.5961 84.8333 61.8375 84.6859L71.2125 78.9596C71.2832 78.9174 71.3418 78.8575 71.3824 78.7858C71.423 78.7142 71.4444 78.6332 71.4444 78.5509C71.4444 78.4685 71.423 78.3876 71.3824 78.3159C71.3418 78.2443 71.2832 78.1844 71.2125 78.1421L58.0013 70.5146C57.8144 70.4063 57.6023 70.3492 57.3863 70.3492C57.1703 70.3492 56.9581 70.4063 56.7713 70.5146L46.8113 76.2821C46.7382 76.324 46.6775 76.3845 46.6354 76.4575C46.5933 76.5305 46.5713 76.6133 46.5717 76.6976C46.572 76.7819 46.5948 76.8645 46.6375 76.9371C46.6803 77.0097 46.7415 77.0697 46.815 77.1109Z" fill="black"/>
<path opacity="0.36" d="M46.5825 76.6046V75.4534L47.5313 76.1621L46.5825 76.6046Z" fill="black"/>
<path opacity="0.36" d="M71.445 77.3284V78.5059L70.4325 77.9171L71.445 77.3284Z" fill="black"/>
</g>
<path d="M46.815 75.8546L60.2287 83.4558C60.4748 83.5953 60.7538 83.6664 61.0367 83.6618C61.3195 83.6572 61.596 83.577 61.8375 83.4296L71.2125 77.7033C71.2832 77.6611 71.3417 77.6012 71.3823 77.5295C71.423 77.4579 71.4443 77.3769 71.4443 77.2946C71.4443 77.2122 71.423 77.1313 71.3823 77.0596C71.3417 76.988 71.2832 76.9281 71.2125 76.8858L58.0012 69.2771C57.8144 69.1687 57.6022 69.1117 57.3862 69.1117C57.1702 69.1117 56.9581 69.1687 56.7712 69.2771L46.8112 75.0446C46.7424 75.0876 46.6857 75.1475 46.6466 75.2185C46.6074 75.2896 46.587 75.3695 46.5874 75.4506C46.5878 75.5318 46.6089 75.6115 46.6487 75.6822C46.6885 75.7528 46.7458 75.8122 46.815 75.8546Z" fill="#68E1FD"/>
<path d="M59.43 81.6746C63.626 81.6746 67.0275 79.6817 67.0275 77.2233C67.0275 74.765 63.626 72.7721 59.43 72.7721C55.234 72.7721 51.8325 74.765 51.8325 77.2233C51.8325 79.6817 55.234 81.6746 59.43 81.6746Z" fill="#FF912E"/>
<path d="M51.8325 77.2234V75.9371L52.6575 76.9646L51.8325 77.2234Z" fill="#E0944F"/>
<path d="M67.0276 75.9371V77.2234H66.0601L66.7688 76.1921L67.0276 75.9371Z" fill="#E0944F"/>
<path d="M59.43 80.3883C63.626 80.3883 67.0275 78.3954 67.0275 75.9371C67.0275 73.4787 63.626 71.4858 59.43 71.4858C55.234 71.4858 51.8325 73.4787 51.8325 75.9371C51.8325 78.3954 55.234 80.3883 59.43 80.3883Z" fill="#FFB92C"/>
<path d="M63.2813 75.3446C63.3341 75.4487 63.355 75.5661 63.3413 75.6821L63.3113 75.7984H61.9238C61.9362 75.7605 61.945 75.7216 61.95 75.6821C61.9447 75.5926 61.9163 75.506 61.8675 75.4309C61.7907 75.2963 61.6741 75.1889 61.5338 75.1233C61.3322 75.017 61.1091 74.958 60.8813 74.9509C60.6706 74.9352 60.4591 74.9673 60.2625 75.0446C60.0675 75.1271 59.9925 75.2359 60.0375 75.3709C60.1029 75.536 60.204 75.6846 60.3338 75.8059C60.4834 75.9585 60.6237 76.12 60.7538 76.2896C60.8158 76.3627 60.8557 76.4519 60.869 76.5469C60.8823 76.6418 60.8683 76.7385 60.8288 76.8259C60.6761 77.078 60.4358 77.265 60.1538 77.3509C59.6877 77.5455 59.1888 77.6498 58.6838 77.6584C58.1383 77.676 57.5939 77.5986 57.075 77.4296L56.2763 77.7709L55.3425 77.3171L56.1188 76.9834C55.9784 76.8907 55.8521 76.7783 55.7438 76.6496C55.6639 76.5581 55.6016 76.4525 55.56 76.3384C55.5333 76.257 55.5169 76.1726 55.5113 76.0871C55.5017 76.0287 55.5017 75.9692 55.5113 75.9109L55.5375 75.8433H56.925C56.9109 75.8888 56.8996 75.9352 56.8913 75.9821C56.8975 76.0958 56.9366 76.2052 57.0038 76.2971C57.1179 76.4642 57.2781 76.5945 57.465 76.6721C57.7158 76.7987 57.9906 76.8703 58.2713 76.8821C58.5272 76.9 58.7837 76.859 59.0213 76.7621C59.2138 76.6796 59.2863 76.5709 59.2388 76.4359C59.1702 76.2696 59.0651 76.121 58.9313 76.0008C58.7785 75.8501 58.6369 75.6884 58.5075 75.5171C58.4471 75.4429 58.4094 75.3529 58.3987 75.2578C58.3881 75.1627 58.405 75.0666 58.4475 74.9809C58.613 74.724 58.8641 74.534 59.1563 74.4446C59.6045 74.2637 60.0829 74.1695 60.5663 74.1671C61.0764 74.1499 61.5853 74.2288 62.0663 74.3996L62.8613 74.0583L63.7313 74.5308L62.9325 74.8721C63.0886 74.9959 63.2089 75.159 63.2813 75.3446Z" fill="#EA8B24"/>
<path d="M59.4413 80.3208C55.5338 80.3208 52.4738 78.4195 52.4738 75.9933C52.4738 73.567 55.5338 71.6658 59.4413 71.6658C63.3487 71.6658 66.4087 73.567 66.4087 75.9933C66.4087 78.4195 63.3487 80.3208 59.4413 80.3208ZM59.4413 72.847C56.3063 72.847 53.655 74.287 53.655 75.9933C53.655 77.6995 56.3063 79.1395 59.4413 79.1395C62.5763 79.1395 65.2275 77.6995 65.2275 75.9933C65.2275 74.287 62.58 72.847 59.4413 72.847Z" fill="#F7931E"/>
<path d="M59.43 79.2221C63.626 79.2221 67.0275 77.2292 67.0275 74.7708C67.0275 72.3125 63.626 70.3196 59.43 70.3196C55.234 70.3196 51.8325 72.3125 51.8325 74.7708C51.8325 77.2292 55.234 79.2221 59.43 79.2221Z" fill="#FF912E"/>
<path d="M51.8325 74.7708V73.4883L52.6575 74.5158L51.8325 74.7708Z" fill="#E0944F"/>
<path d="M67.0276 73.4883V74.7708H66.0601L66.7688 73.7395L67.0276 73.4883Z" fill="#E0944F"/>
<path d="M59.43 77.9396C63.626 77.9396 67.0275 75.9467 67.0275 73.4884C67.0275 71.03 63.626 69.0371 59.43 69.0371C55.234 69.0371 51.8325 71.03 51.8325 73.4884C51.8325 75.9467 55.234 77.9396 59.43 77.9396Z" fill="#FFB92C"/>
<path d="M63.2813 72.8921C63.3341 72.9962 63.355 73.1136 63.3413 73.2296L63.3113 73.3458H61.9238C61.9362 73.308 61.945 73.2691 61.95 73.2296C61.9447 73.1401 61.9163 73.0535 61.8675 72.9783C61.7907 72.8438 61.6741 72.7364 61.5338 72.6708C61.3322 72.5645 61.1091 72.5055 60.8813 72.4983C60.6706 72.4827 60.4591 72.5148 60.2625 72.5921C60.0675 72.6746 59.9925 72.7833 60.0375 72.9183C60.1029 73.0835 60.204 73.232 60.3338 73.3533C60.4834 73.5059 60.6237 73.6675 60.7538 73.8371C60.8158 73.9102 60.8557 73.9994 60.869 74.0943C60.8823 74.1893 60.8683 74.286 60.8288 74.3733C60.6761 74.6255 60.4358 74.8125 60.1538 74.8983C59.6877 75.093 59.1888 75.1973 58.6838 75.2058C58.1383 75.2235 57.5939 75.1461 57.075 74.9771L56.2763 75.3183L55.3425 74.8646L56.1188 74.5308C55.9784 74.4382 55.8521 74.3258 55.7438 74.1971C55.6639 74.1055 55.6016 74 55.56 73.8858C55.5333 73.8045 55.5169 73.7201 55.5113 73.6346C55.5017 73.5762 55.5017 73.5167 55.5113 73.4583L55.5375 73.3908H56.925C56.9109 73.4363 56.8996 73.4827 56.8913 73.5296C56.8975 73.6433 56.9366 73.7527 57.0038 73.8446C57.1179 74.0117 57.2781 74.142 57.465 74.2196C57.7158 74.3462 57.9906 74.4178 58.2713 74.4296C58.5272 74.4475 58.7837 74.4064 59.0213 74.3096C59.2138 74.2271 59.2863 74.1183 59.2388 73.9833C59.1702 73.8171 59.0651 73.6685 58.9313 73.5483C58.7785 73.3975 58.6369 73.2359 58.5075 73.0646C58.4471 72.9904 58.4094 72.9004 58.3987 72.8053C58.3881 72.7102 58.405 72.6141 58.4475 72.5283C58.613 72.2715 58.8641 72.0815 59.1563 71.9921C59.6045 71.8112 60.0829 71.717 60.5663 71.7146C61.0764 71.6974 61.5853 71.7763 62.0663 71.9471L62.8613 71.6058L63.7313 72.0783L62.9325 72.4196C63.0886 72.5434 63.2089 72.7065 63.2813 72.8921Z" fill="#EA8B24"/>
<path d="M59.4413 77.8684C55.5338 77.8684 52.4738 75.9671 52.4738 73.5409C52.4738 71.1146 55.5338 69.2134 59.4413 69.2134C63.3487 69.2134 66.4087 71.1146 66.4087 73.5409C66.4087 75.9671 63.3487 77.8684 59.4413 77.8684ZM59.4413 70.3946C56.3063 70.3946 53.655 71.8346 53.655 73.5409C53.655 75.2471 56.3063 76.6871 59.4413 76.6871C62.5763 76.6871 65.2275 75.2471 65.2275 73.5409C65.2275 71.8346 62.58 70.4021 59.4413 70.4021V70.3946Z" fill="#F7931E"/>
<path d="M59.43 76.7621C63.626 76.7621 67.0275 74.7692 67.0275 72.3109C67.0275 69.8525 63.626 67.8596 59.43 67.8596C55.234 67.8596 51.8325 69.8525 51.8325 72.3109C51.8325 74.7692 55.234 76.7621 59.43 76.7621Z" fill="#FF912E"/>
<path d="M51.8325 72.3109V71.0247L52.6575 72.0522L51.8325 72.3109Z" fill="#E0944F"/>
<path d="M67.0276 71.0247V72.3109H66.0601L66.7688 71.2797L67.0276 71.0247Z" fill="#E0944F"/>
<path d="M59.43 75.4759C63.626 75.4759 67.0275 73.483 67.0275 71.0246C67.0275 68.5663 63.626 66.5734 59.43 66.5734C55.234 66.5734 51.8325 68.5663 51.8325 71.0246C51.8325 73.483 55.234 75.4759 59.43 75.4759Z" fill="#FFB92C"/>
<path d="M63.2813 70.432C63.3341 70.5361 63.355 70.6535 63.3413 70.7695L63.3113 70.8857H61.9238C61.9362 70.8479 61.945 70.809 61.95 70.7695C61.9447 70.68 61.9163 70.5934 61.8675 70.5182C61.7907 70.3837 61.6741 70.2763 61.5338 70.2108C61.3322 70.1044 61.1091 70.0454 60.8813 70.0383C60.6706 70.0226 60.4591 70.0547 60.2625 70.132C60.0675 70.2145 59.9925 70.3232 60.0375 70.4582C60.1029 70.6234 60.2041 70.772 60.3338 70.8932C60.4834 71.0458 60.6237 71.2074 60.7538 71.377C60.8158 71.4501 60.8557 71.5393 60.869 71.6343C60.8823 71.7292 60.8683 71.8259 60.8288 71.9132C60.6761 72.1654 60.4358 72.3524 60.1538 72.4382C59.6877 72.6329 59.1888 72.7372 58.6838 72.7457C58.1383 72.7634 57.5939 72.686 57.075 72.517L56.2763 72.8582L55.3425 72.4045L56.1188 72.0707C55.9784 71.9781 55.8521 71.8657 55.7438 71.737C55.6639 71.6455 55.6016 71.5399 55.56 71.4257C55.5333 71.3444 55.5169 71.26 55.5113 71.1745C55.5017 71.1161 55.5017 71.0566 55.5113 70.9982L55.5375 70.9308H56.925C56.9109 70.9762 56.8996 71.0226 56.8913 71.0695C56.8975 71.1832 56.9366 71.2926 57.0038 71.3845C57.1179 71.5516 57.2781 71.6819 57.465 71.7595C57.7158 71.8861 57.9906 71.9577 58.2713 71.9695C58.5272 71.9874 58.7838 71.9464 59.0213 71.8495C59.2138 71.767 59.2863 71.6582 59.2388 71.5233C59.1702 71.357 59.0651 71.2084 58.9313 71.0883C58.7785 70.9375 58.6369 70.7758 58.5075 70.6045C58.4471 70.5303 58.4094 70.4403 58.3987 70.3452C58.3881 70.2501 58.405 70.154 58.4475 70.0683C58.613 69.8114 58.8641 69.6214 59.1563 69.532C59.6045 69.3511 60.0829 69.2569 60.5663 69.2545C61.0764 69.2373 61.5853 69.3162 62.0663 69.487L62.8613 69.1458L63.75 69.652L62.9513 69.9933C63.0958 70.11 63.2092 70.2607 63.2813 70.432Z" fill="#EA8B24"/>
<path d="M59.4413 75.4083C55.5338 75.4083 52.4738 73.507 52.4738 71.0808C52.4738 68.6545 55.5338 66.7533 59.4413 66.7533C63.3487 66.7533 66.4087 68.6545 66.4087 71.0808C66.4087 73.507 63.3487 75.4083 59.4413 75.4083ZM59.4413 67.9345C56.3063 67.9345 53.655 69.3745 53.655 71.0808C53.655 72.787 56.3063 74.227 59.4413 74.227C62.5763 74.227 65.2275 72.787 65.2275 71.0808C65.2275 69.3745 62.58 67.9345 59.4413 67.9345Z" fill="#F7931E"/>
<path d="M59.43 74.9434C63.626 74.9434 67.0275 72.9505 67.0275 70.4922C67.0275 68.0338 63.626 66.0409 59.43 66.0409C55.234 66.0409 51.8325 68.0338 51.8325 70.4922C51.8325 72.9505 55.234 74.9434 59.43 74.9434Z" fill="#FF912E"/>
<path d="M51.8325 70.4921V69.2058L52.6575 70.2333L51.8325 70.4921Z" fill="#E0944F"/>
<path d="M67.0276 69.2058V70.4921H66.0601L66.7688 69.4608L67.0276 69.2058Z" fill="#E0944F"/>
<path d="M59.43 73.6571C63.626 73.6571 67.0275 71.6643 67.0275 69.2059C67.0275 66.7475 63.626 64.7546 59.43 64.7546C55.234 64.7546 51.8325 66.7475 51.8325 69.2059C51.8325 71.6643 55.234 73.6571 59.43 73.6571Z" fill="#FFB92C"/>
<path d="M63.2813 68.6096C63.3341 68.7137 63.355 68.8312 63.3413 68.9471L63.3113 69.0634H61.9238C61.9362 69.0255 61.945 68.9866 61.95 68.9471C61.9447 68.8576 61.9163 68.7711 61.8675 68.6959C61.7907 68.5614 61.6741 68.4539 61.5338 68.3884C61.3322 68.282 61.1091 68.2231 60.8813 68.2159C60.6706 68.2002 60.4591 68.2323 60.2625 68.3096C60.0675 68.3921 59.9925 68.5009 60.0375 68.6359C60.1029 68.801 60.204 68.9496 60.3338 69.0709C60.4834 69.2235 60.6237 69.385 60.7538 69.5546C60.8158 69.6277 60.8557 69.7169 60.869 69.8119C60.8823 69.9068 60.8683 70.0035 60.8288 70.0909C60.6761 70.343 60.4358 70.53 60.1538 70.6159C59.6877 70.8105 59.1888 70.9148 58.6838 70.9234C58.1383 70.941 57.5939 70.8636 57.075 70.6946L56.2763 71.0359L55.3425 70.5821L56.1188 70.2484C55.9784 70.1557 55.8521 70.0433 55.7438 69.9146C55.6639 69.8231 55.6016 69.7175 55.56 69.6034C55.5333 69.522 55.5169 69.4376 55.5113 69.3521C55.5017 69.2938 55.5017 69.2342 55.5113 69.1759L55.5375 69.1084H56.925C56.9109 69.1539 56.8996 69.2002 56.8913 69.2471C56.8975 69.3608 56.9366 69.4702 57.0038 69.5621C57.1179 69.7292 57.2781 69.8595 57.465 69.9371C57.7158 70.0637 57.9906 70.1353 58.2713 70.1471C58.5272 70.165 58.7837 70.124 59.0213 70.0271C59.2138 69.9446 59.2863 69.8359 59.2388 69.7009C59.1702 69.5347 59.0651 69.386 58.9313 69.2659C58.7785 69.1151 58.6369 68.9534 58.5075 68.7821C58.4471 68.7079 58.4094 68.6179 58.3987 68.5228C58.3881 68.4277 58.405 68.3316 58.4475 68.2459C58.613 67.989 58.8641 67.7991 59.1563 67.7096C59.6045 67.5287 60.0829 67.4345 60.5663 67.4321C61.0764 67.4149 61.5853 67.4938 62.0663 67.6646L62.8613 67.3234L63.7313 67.7959L62.9325 68.1371C63.0886 68.261 63.2089 68.424 63.2813 68.6096Z" fill="#EA8B24"/>
<path d="M59.4413 73.5859C55.5338 73.5859 52.4738 71.6847 52.4738 69.2584C52.4738 66.8322 55.5338 64.9309 59.4413 64.9309C63.3488 64.9309 66.4125 66.8322 66.4125 69.2772C66.4125 71.7222 63.3488 73.5859 59.4413 73.5859ZM59.4413 66.1122C56.3063 66.1122 53.655 67.5522 53.655 69.2584C53.655 70.9647 56.3063 72.4047 59.4413 72.4047C62.5763 72.4047 65.2275 70.9647 65.2275 69.2584C65.2275 67.5522 62.58 66.1159 59.4413 66.1159V66.1122Z" fill="#F7931E"/>
<path d="M60.66 72.4795C64.856 72.4795 68.2575 70.4866 68.2575 68.0283C68.2575 65.5699 64.856 63.577 60.66 63.577C56.464 63.577 53.0625 65.5699 53.0625 68.0283C53.0625 70.4866 56.464 72.4795 60.66 72.4795Z" fill="#FF912E"/>
<path d="M53.0662 68.0284V66.7458L53.8912 67.7734L53.0662 68.0284Z" fill="#E0944F"/>
<path d="M68.2576 66.7458V68.0284H67.2938L68.0026 66.9971L68.2576 66.7458Z" fill="#E0944F"/>
<path d="M60.66 71.1971C64.856 71.1971 68.2575 69.2042 68.2575 66.7458C68.2575 64.2874 64.856 62.2946 60.66 62.2946C56.464 62.2946 53.0625 64.2874 53.0625 66.7458C53.0625 69.2042 56.464 71.1971 60.66 71.1971Z" fill="#FFB92C"/>
<path d="M64.5 66.1495C64.5528 66.2537 64.5737 66.3711 64.56 66.487L64.53 66.6033H63.1425C63.1549 66.5655 63.1637 66.5265 63.1688 66.487C63.1635 66.3976 63.1351 66.311 63.0863 66.2358C63.0094 66.1013 62.8929 65.9939 62.7525 65.9283C62.551 65.822 62.3278 65.763 62.1 65.7558C61.8894 65.7402 61.6779 65.7722 61.4813 65.8495C61.2863 65.932 61.2113 66.0408 61.2563 66.1758C61.3216 66.3409 61.4228 66.4895 61.5525 66.6108C61.7022 66.7634 61.8424 66.9249 61.9725 67.0945C62.0345 67.1676 62.0745 67.2569 62.0877 67.3518C62.101 67.4467 62.0871 67.5435 62.0475 67.6308C61.8949 67.883 61.6545 68.0699 61.3725 68.1558C60.9064 68.3504 60.4076 68.4548 59.9025 68.4633C59.3571 68.481 58.8127 68.4036 58.2938 68.2345L57.495 68.5758L56.5613 68.122L57.3375 67.7883C57.1971 67.6956 57.0708 67.5832 56.9625 67.4545C56.8826 67.363 56.8203 67.2575 56.7788 67.1433C56.752 67.0619 56.7356 66.9775 56.73 66.892C56.7204 66.8337 56.7204 66.7741 56.73 66.7158L56.7563 66.6483H58.1438C58.1296 66.6938 58.1183 66.7401 58.11 66.787C58.1163 66.9007 58.1554 67.0101 58.2225 67.102C58.3366 67.2692 58.4969 67.3994 58.6838 67.477C58.9345 67.6036 59.2094 67.6752 59.49 67.687C59.7459 67.7049 60.0025 67.6639 60.24 67.567C60.4325 67.4845 60.505 67.3758 60.4575 67.2408C60.3889 67.0746 60.2838 66.9259 60.15 66.8058C59.9973 66.655 59.8556 66.4933 59.7263 66.322C59.6659 66.2478 59.6281 66.1578 59.6175 66.0627C59.6069 65.9676 59.6238 65.8715 59.6663 65.7858C59.8318 65.5289 60.0829 65.339 60.375 65.2495C60.8232 65.0686 61.3017 64.9744 61.785 64.972C62.2952 64.9548 62.804 65.0337 63.285 65.2045L64.08 64.8633L64.95 65.3358L64.1513 65.677C64.3073 65.8009 64.4277 65.9639 64.5 66.1495Z" fill="#EA8B24"/>
<path d="M60.675 70.8296C56.9963 70.8296 54 69.0221 54 66.7983C54 64.5746 57 62.7671 60.675 62.7671C64.35 62.7671 67.35 64.5746 67.35 66.7983C67.35 69.0221 64.3538 70.8296 60.675 70.8296ZM60.675 63.3558C57.3225 63.3558 54.5925 64.9008 54.5925 66.7946C54.5925 68.6883 57.3225 70.2333 60.675 70.2333C64.0275 70.2333 66.75 68.6958 66.75 66.7983C66.75 64.9008 64.0275 63.3596 60.675 63.3596V63.3558Z" fill="#F7931E"/>
<path d="M63.3525 69.8509C67.5485 69.8509 70.95 67.858 70.95 65.3996C70.95 62.9413 67.5485 60.9484 63.3525 60.9484C59.1565 60.9484 55.755 62.9413 55.755 65.3996C55.755 67.858 59.1565 69.8509 63.3525 69.8509Z" fill="#FF912E"/>
<path d="M55.755 65.3995V64.1133L56.5838 65.1408L55.755 65.3995Z" fill="#E0944F"/>
<path d="M70.9501 64.1133V65.3995H69.9863L70.6913 64.3645L70.9501 64.1133Z" fill="#E0944F"/>
<path d="M63.3525 68.5646C67.5485 68.5646 70.95 66.5717 70.95 64.1134C70.95 61.655 67.5485 59.6621 63.3525 59.6621C59.1565 59.6621 55.755 61.655 55.755 64.1134C55.755 66.5717 59.1565 68.5646 63.3525 68.5646Z" fill="#FFB92C"/>
<path d="M67.2076 63.5171C67.2604 63.6212 67.2812 63.7386 67.2676 63.8546L67.2376 63.9708H65.8501C65.8625 63.933 65.8712 63.8941 65.8763 63.8546C65.871 63.7651 65.8426 63.6785 65.7938 63.6033C65.717 63.4688 65.6004 63.3614 65.4601 63.2958C65.2585 63.1895 65.0353 63.1305 64.8076 63.1233C64.5969 63.1077 64.3854 63.1398 64.1888 63.2171C63.9938 63.2996 63.9188 63.4083 63.9638 63.5433C64.0291 63.7085 64.1303 63.857 64.2601 63.9783C64.4097 64.1309 64.55 64.2925 64.6801 64.4621C64.742 64.5352 64.782 64.6244 64.7953 64.7193C64.8085 64.8143 64.7946 64.911 64.755 64.9983C64.6024 65.2505 64.3621 65.4375 64.0801 65.5233C63.6139 65.718 63.1151 65.8223 62.6101 65.8308C62.0646 65.8485 61.5202 65.7711 61.0013 65.6021L60.2025 65.9433L59.2688 65.4896L60.045 65.1558C59.9047 65.0632 59.7784 64.9508 59.67 64.8221C59.5901 64.7305 59.5279 64.625 59.4863 64.5108C59.4595 64.4295 59.4431 64.3451 59.4375 64.2596C59.428 64.2012 59.428 64.1417 59.4375 64.0833L59.4638 64.0158H60.8513C60.8371 64.0613 60.8258 64.1077 60.8175 64.1546C60.8238 64.2683 60.8629 64.3777 60.93 64.4696C61.0441 64.6367 61.2044 64.767 61.3913 64.8446C61.642 64.9712 61.9169 65.0428 62.1976 65.0546C62.4534 65.0725 62.71 65.0314 62.9476 64.9346C63.1401 64.8521 63.2126 64.7433 63.1651 64.6083C63.0964 64.4421 62.9913 64.2935 62.8575 64.1733C62.7048 64.0225 62.5632 63.8609 62.4338 63.6896C62.3734 63.6154 62.3357 63.5254 62.325 63.4303C62.3144 63.3352 62.3313 63.2391 62.3738 63.1533C62.5393 62.8965 62.7904 62.7065 63.0826 62.6171C63.5307 62.4362 64.0092 62.342 64.4926 62.3396C65.0027 62.3224 65.5115 62.4013 65.9926 62.5721L66.7876 62.2308L67.6576 62.7033L66.8588 63.0446C67.0148 63.1684 67.1352 63.3315 67.2076 63.5171Z" fill="#EA8B24"/>
<path d="M63.375 68.0996C59.7488 68.0996 56.8013 66.3333 56.8013 64.1658C56.8013 61.9983 59.7525 60.2321 63.375 60.2321C66.9975 60.2321 69.9488 61.9983 69.9488 64.1658C69.9488 66.3333 66.99 68.0996 63.375 68.0996ZM63.375 60.6258C59.9663 60.6258 57.195 62.2121 57.195 64.1658C57.195 66.1196 59.9663 67.7058 63.375 67.7058C66.7838 67.7058 69.555 66.1196 69.555 64.1658C69.555 62.2121 66.7725 60.6258 63.375 60.6258Z" fill="#F7931E"/>
<path d="M59.6662 66.1045C63.8622 66.1045 67.2637 64.1116 67.2637 61.6533C67.2637 59.1949 63.8622 57.202 59.6662 57.202C55.4702 57.202 52.0687 59.1949 52.0687 61.6533C52.0687 64.1116 55.4702 66.1045 59.6662 66.1045Z" fill="#FF912E"/>
<path d="M52.0687 61.6533V60.3671L52.8975 61.3946L52.0687 61.6533Z" fill="#E0944F"/>
<path d="M67.2637 60.3671V61.6533H66.2999L67.0049 60.6221L67.2637 60.3671Z" fill="#E0944F"/>
<path d="M59.6662 64.8183C63.8622 64.8183 67.2637 62.8254 67.2637 60.367C67.2637 57.9087 63.8622 55.9158 59.6662 55.9158C55.4702 55.9158 52.0687 57.9087 52.0687 60.367C52.0687 62.8254 55.4702 64.8183 59.6662 64.8183Z" fill="#FFB92C"/>
<path d="M63.5213 59.7709C63.5741 59.875 63.595 59.9924 63.5813 60.1084L63.5513 60.2246H62.1638C62.1762 60.1868 62.185 60.1479 62.19 60.1084C62.1847 60.0189 62.1563 59.9323 62.1075 59.8571C62.0307 59.7226 61.9141 59.6152 61.7738 59.5496C61.5722 59.4433 61.349 59.3843 61.1213 59.3771C60.9106 59.3615 60.6991 59.3935 60.5025 59.4709C60.3075 59.5534 60.2325 59.6621 60.2775 59.7971C60.3429 59.9622 60.444 60.1108 60.5738 60.2321C60.7234 60.3847 60.8637 60.5463 60.9938 60.7159C61.0558 60.789 61.0957 60.8782 61.109 60.9731C61.1223 61.068 61.1083 61.1648 61.0688 61.2521C60.9161 61.5043 60.6758 61.6912 60.3938 61.7771C59.9276 61.9717 59.4288 62.0761 58.9238 62.0846C58.3783 62.1023 57.8339 62.0249 57.315 61.8559L56.5163 62.1971L55.5825 61.7434L56.3588 61.4096C56.2184 61.3169 56.0921 61.2045 55.9838 61.0759C55.9039 60.9843 55.8416 60.8788 55.8 60.7646C55.7732 60.6832 55.7569 60.5988 55.7513 60.5134C55.7417 60.455 55.7417 60.3955 55.7513 60.3371L55.7775 60.2696H57.165C57.1508 60.3151 57.1396 60.3614 57.1313 60.4084C57.1375 60.522 57.1766 60.6314 57.2438 60.7234C57.3579 60.8905 57.5181 61.0208 57.705 61.0984C57.9558 61.225 58.2306 61.2966 58.5113 61.3084C58.7672 61.3263 59.0237 61.2852 59.2613 61.1884C59.4538 61.1059 59.5263 60.9971 59.4788 60.8621C59.4102 60.6959 59.3051 60.5472 59.1713 60.4271C59.0185 60.2763 58.8769 60.1146 58.7475 59.9434C58.6871 59.8691 58.6494 59.7791 58.6387 59.6841C58.6281 59.589 58.645 59.4928 58.6875 59.4071C58.853 59.1503 59.1041 58.9603 59.3963 58.8709C59.8445 58.6899 60.3229 58.5958 60.8063 58.5934C61.3164 58.5762 61.8253 58.6551 62.3063 58.8259L63.1013 58.4846L63.9713 58.9571L63.1725 59.2984C63.3286 59.4222 63.4489 59.5853 63.5213 59.7709Z" fill="#EA8B24"/>
<path d="M59.6813 64.3533C56.055 64.3533 53.1075 62.5871 53.1075 60.4196C53.1075 58.2521 56.055 56.4858 59.6813 56.4858C63.3075 56.4858 66.255 58.2521 66.255 60.4196C66.255 62.5871 63.3038 64.3533 59.6813 64.3533ZM59.6813 56.8796C56.2725 56.8796 53.5013 58.4658 53.5013 60.4196C53.5013 62.3733 56.2725 63.9596 59.6813 63.9596C63.09 63.9596 65.8613 62.3733 65.8613 60.4196C65.8613 58.4658 63.0863 56.8833 59.6813 56.8833V56.8796Z" fill="#F7931E"/>
<path d="M47.3475 59.2008L48.54 60.7008C48.54 60.7008 49.4438 60.892 49.5638 61.2033C49.6064 61.4276 49.5989 61.6585 49.5419 61.8796C49.4848 62.1007 49.3796 62.3064 49.2338 62.482C48.96 62.7295 48.24 63.0783 47.9925 62.977C47.745 62.8758 48.0675 62.182 47.6963 61.987C47.5924 61.9329 47.4725 61.9183 47.3587 61.9459C47.245 61.9735 47.145 62.0414 47.0775 62.137L46.7288 61.387L45.8588 60.1158" fill="#FFD188"/>
<path d="M51.225 56.8083L52.4175 58.3084C52.4175 58.3084 53.3212 58.4996 53.4412 58.8109C53.4839 59.0352 53.4764 59.2661 53.4193 59.4872C53.3623 59.7082 53.2571 59.914 53.1112 60.0896C52.8375 60.3371 52.1175 60.6859 51.87 60.5846C51.6225 60.4834 51.945 59.7896 51.5737 59.5946C51.4699 59.5405 51.35 59.5259 51.2362 59.5535C51.1224 59.5811 51.0225 59.649 50.955 59.7446L50.6062 58.9946L49.7362 57.7234" fill="#FFD188"/>
<path d="M42.03 56.9021C42.099 56.6634 42.1973 56.4342 42.3225 56.2196L42.4125 56.1708L42.8175 55.3083L42.8512 55.3721C43.9087 52.8483 45.615 52.0646 45.2925 49.3721C44.5826 48.5855 43.8005 47.8673 42.9562 47.2271C42.3929 47.1812 41.8261 47.2052 41.2687 47.2983C39.7012 47.5608 38.5762 48.9296 37.6837 50.1483C36.375 52.0287 35.2997 54.0611 34.4812 56.2008C35.13 56.8908 36.795 57.4608 37.6425 57.9183C38.4358 58.0447 39.245 58.0346 40.035 57.8883C40.7371 57.6408 41.4069 57.3097 42.03 56.9021Z" fill="#443CE5"/>
<path d="M44.22 47.8571C44.4187 48.0071 52.2337 56.2346 51.9862 56.9321C51.7387 57.6296 50.6512 58.6646 49.9087 58.3683C49.1662 58.0721 46.4475 54.3933 46.4475 54.3933L43.0012 50.9546L44.22 47.8571Z" fill="#443CE5"/>
<path d="M46.1962 61.2709C47.115 60.9522 47.9962 60.3334 48.27 59.4222L42.7612 52.2972L40.4024 47.8422C39.9937 48.1609 37.9012 50.4222 39.1349 52.6984C40.3687 54.9747 44.7487 60.5809 46.1962 61.2709Z" fill="#443CE5"/>
<path d="M46.7099 46.1584C46.7099 46.1584 45.8024 48.4721 43.3724 48.0859C40.9424 47.6996 42.9149 43.5521 44.6849 43.5859C46.4549 43.6196 47.2499 45.1571 46.7099 46.1584Z" fill="#FFD188"/>
<path d="M46.7401 43.5183C46.7734 43.2815 46.7195 43.0406 46.5884 42.8406C46.4573 42.6405 46.258 42.4949 46.0276 42.4309C45.5046 42.2216 44.9303 42.1771 44.3813 42.3033C43.5188 42.2133 42.5813 42.2284 42.0526 42.9371C41.5238 43.6458 41.6063 44.5908 41.7526 45.4533C41.7471 45.7573 41.7786 46.0608 41.8463 46.3571C41.9873 46.6651 42.1002 46.9851 42.1838 47.3133L42.7013 46.3571C42.7013 46.3571 42.8476 46.1846 44.2913 46.6196C45.7351 47.0546 45.8626 46.0083 45.8626 46.0083C46.1053 46.1247 46.3733 46.1782 46.6421 46.1638C46.9108 46.1495 47.1717 46.0678 47.4006 45.9263C47.6295 45.7847 47.8191 45.5879 47.9521 45.3539C48.085 45.1199 48.157 44.8562 48.1613 44.5871C48.1501 43.7396 47.1263 43.5596 46.7401 43.5183Z" fill="#4C0D0A"/>
<path d="M42.0938 56.9283C42.285 56.7746 38.9738 52.4283 38.9738 52.4283L39.9075 57.9333C40.7017 57.7645 41.4485 57.4212 42.0938 56.9283Z" fill="#2929B2"/>
<path d="M43.3574 45.3071C42.4912 45.5133 42.8099 46.7321 43.3087 47.1296C43.336 47.1533 43.3682 47.1708 43.403 47.1808C43.4378 47.1907 43.4744 47.1929 43.5102 47.1872C43.546 47.1815 43.58 47.168 43.61 47.1477C43.64 47.1273 43.6651 47.1007 43.6837 47.0696C43.7414 47.0875 43.8038 47.0822 43.8577 47.0549C43.9116 47.0276 43.9527 46.9804 43.9724 46.9233C44.1224 46.4508 44.2724 45.0933 43.3574 45.3071Z" fill="#FFD188"/>
<path d="M67.2637 104.006L81.8325 92.8533L71.9512 87.4346L57.4275 98.1521C59.7975 99.6071 64.935 102.502 67.2637 104.006Z" fill="url(#paint4_linear)"/>
<path d="M76.3726 94.2933C79.8271 94.2933 82.6275 92.653 82.6275 90.6296C82.6275 88.6061 79.8271 86.9658 76.3726 86.9658C72.918 86.9658 70.1176 88.6061 70.1176 90.6296C70.1176 92.653 72.918 94.2933 76.3726 94.2933Z" fill="#FF912E"/>
<path d="M70.1176 90.6296V89.5721L70.8 90.4196L70.1176 90.6296Z" fill="#E0944F"/>
<path d="M82.6238 89.5721V90.6296H81.8325L82.4138 89.7821L82.6238 89.5721Z" fill="#E0944F"/>
<path d="M76.3726 93.2358C79.8271 93.2358 82.6275 91.5955 82.6275 89.5721C82.6275 87.5486 79.8271 85.9083 76.3726 85.9083C72.918 85.9083 70.1176 87.5486 70.1176 89.5721C70.1176 91.5955 72.918 93.2358 76.3726 93.2358Z" fill="#FFB92C"/>
<path d="M79.545 89.0808C79.5882 89.1665 79.6052 89.263 79.5938 89.3583L79.5675 89.4558H78.4425C78.4531 89.4241 78.4607 89.3915 78.465 89.3583C78.454 89.2828 78.4229 89.2115 78.375 89.1521C78.3109 89.0406 78.214 88.9516 78.0975 88.8971C77.9314 88.8113 77.7481 88.7638 77.5613 88.7583C77.3875 88.7458 77.2131 88.7727 77.0513 88.8371C76.8913 88.9046 76.83 88.9946 76.8675 89.1071C76.9191 89.249 77.0025 89.3773 77.1113 89.4821C77.2342 89.6075 77.3494 89.7402 77.4563 89.8796C77.5071 89.9393 77.5401 90.0121 77.5514 90.0897C77.5627 90.1674 77.5518 90.2466 77.52 90.3183C77.3945 90.5256 77.1969 90.6792 76.965 90.7496C76.5808 90.9093 76.1698 90.9945 75.7538 91.0008C75.305 91.0156 74.857 90.9521 74.43 90.8133L73.7738 91.0946L73.005 90.7196L73.6425 90.4458C73.5274 90.3698 73.4239 90.2776 73.335 90.1721C73.2698 90.0969 73.219 90.0105 73.185 89.9171C73.1639 89.8502 73.1513 89.7809 73.1475 89.7108C73.1399 89.6636 73.1399 89.6155 73.1475 89.5683L73.17 89.5158H74.295C74.2837 89.554 74.275 89.5928 74.2688 89.6321C74.2745 89.7255 74.3071 89.8154 74.3625 89.8908C74.453 90.0329 74.5835 90.1451 74.7375 90.2133C74.944 90.3174 75.1703 90.3762 75.4013 90.3858C75.6098 90.4 75.8188 90.3667 76.0125 90.2883C76.17 90.2208 76.23 90.1321 76.1925 90.0221C76.1389 89.8793 76.0529 89.751 75.9413 89.6471C75.8156 89.5232 75.699 89.3903 75.5925 89.2496C75.5425 89.1884 75.5113 89.1141 75.5026 89.0355C75.494 88.957 75.5082 88.8776 75.5438 88.8071C75.6799 88.5971 75.8857 88.4417 76.125 88.3683C76.4945 88.219 76.889 88.1414 77.2875 88.1396C77.7084 88.125 78.1282 88.1899 78.525 88.3308L79.1813 88.0496L79.8975 88.4246L79.2413 88.7058C79.3736 88.802 79.4784 88.9314 79.545 89.0808Z" fill="#EA8B24"/>
<path d="M76.3838 92.8533C73.3838 92.8533 70.9725 91.4021 70.9725 89.6171C70.9725 87.8321 73.3988 86.3809 76.3838 86.3809C79.3688 86.3809 81.795 87.8321 81.795 89.6171C81.795 91.4021 79.3688 92.8533 76.3838 92.8533ZM76.3838 86.7034C73.5788 86.7034 71.295 88.0084 71.295 89.6171C71.295 91.2258 73.5788 92.5308 76.3838 92.5308C79.1888 92.5308 81.4725 91.2258 81.4725 89.6171C81.4725 88.0084 79.1888 86.7034 76.3838 86.7034Z" fill="#F7931E"/>
<defs>
<linearGradient id="paint0_linear" x1="80.985" y1="79.4508" x2="91.3163" y2="54.8583" gradientUnits="userSpaceOnUse">
<stop stop-color="#808080" stop-opacity="0"/>
<stop offset="1" stop-color="#009245"/>
</linearGradient>
<linearGradient id="paint1_linear" x1="3270.37" y1="4338.48" x2="3924.15" y2="3583.03" gradientUnits="userSpaceOnUse">
<stop stop-color="#808080" stop-opacity="0"/>
<stop offset="1" stop-color="#009245"/>
</linearGradient>
<linearGradient id="paint2_linear" x1="1511.63" y1="2283.1" x2="1753.99" y2="1958.29" gradientUnits="userSpaceOnUse">
<stop stop-color="#808080" stop-opacity="0"/>
<stop offset="1" stop-color="#009245"/>
</linearGradient>
<linearGradient id="paint3_linear" x1="963.419" y1="2148.32" x2="1168.04" y2="1905.95" gradientUnits="userSpaceOnUse">
<stop stop-color="#808080" stop-opacity="0"/>
<stop offset="1" stop-color="#009245"/>
</linearGradient>
<linearGradient id="paint4_linear" x1="4663.63" y1="4241.51" x2="4985.32" y2="3734.98" gradientUnits="userSpaceOnUse">
<stop stop-color="#808080" stop-opacity="0"/>
<stop offset="1" stop-color="#009245"/>
</linearGradient>
</defs>
</svg>
