<svg width="406" height="306" viewBox="0 0 406 306" fill="none" xmlns="http://www.w3.org/2000/svg">
<path d="M197.194 292.055L14.7784 184.221C8.97261 180.963 3.98896 175.604 9.65265 172.102L192.728 66.5423C195.479 64.8371 199.65 63.7206 202.442 65.3446L393.932 176.528C399.737 179.898 400.783 189.317 394.947 192.697L221.27 291.862C217.621 293.987 213.48 295.122 209.258 295.156C205.035 295.19 200.877 294.121 197.194 292.055Z" fill="#C4C4C4"/>
<path opacity="0.32" d="M237.449 234.921L230.121 229.846L185.197 254.206L194.332 259.616C208.857 251.658 223.087 243.173 237.449 234.921Z" fill="url(#paint0_linear)"/>
<path opacity="0.32" d="M376.149 192.078L348.592 172.914L303.668 197.274L335.417 216.062C335.417 216.062 361.34 200.522 376.149 192.078Z" fill="url(#paint1_linear)"/>
<path opacity="0.32" d="M128.083 196.838L86.3968 224.08L154.798 265.492L200.442 235.702" fill="url(#paint2_linear)"/>
<path d="M134.244 36.7723L127.484 39.7666L133.98 42.6289L135.553 39.2692" fill="#68E1FD"/>
<path d="M195.895 235.662L139.654 202.887C137.388 201.568 135.508 199.678 134.2 197.406C132.893 195.133 132.205 192.558 132.204 189.936L130.428 41.0658C130.428 37.158 136.517 35.1686 139.857 37.158L198.047 71.5259C199.491 72.3784 200.687 73.5925 201.518 75.0485C202.35 76.5045 202.787 78.1521 202.787 79.8286V231.723C202.791 232.531 202.581 233.325 202.177 234.025C201.774 234.724 201.192 235.304 200.491 235.704C199.79 236.105 198.995 236.312 198.187 236.305C197.38 236.297 196.589 236.075 195.895 235.662Z" fill="#68E1FD"/>
<path d="M200.442 235.702L193.083 239.59L193.936 234.464L199.042 233.54" fill="#68E1FD"/>
<path d="M188.881 239.397L132.64 206.622C130.374 205.304 128.494 203.414 127.187 201.141C125.879 198.868 125.191 196.293 125.19 193.671V43.38C125.189 42.6768 125.373 41.9858 125.726 41.3773C126.078 40.7688 126.585 40.2646 127.196 39.916C127.807 39.5673 128.499 39.3867 129.202 39.3926C129.905 39.3984 130.594 39.5905 131.199 39.9493L190.993 75.2611C192.436 76.1135 193.633 77.3277 194.464 78.7837C195.295 80.2397 195.732 81.8872 195.733 83.5638V235.459C195.733 236.26 195.521 237.047 195.12 237.741C194.719 238.435 194.141 239.01 193.446 239.41C192.752 239.809 191.964 240.018 191.162 240.016C190.361 240.014 189.574 239.8 188.881 239.397Z" fill="#F4F4F4"/>
<path d="M192.16 92.7293L128.083 55.9863V187.469L192.16 224.507V92.7293Z" fill="white"/>
<path d="M155.096 215.322C156.682 214.943 157.554 212.899 157.042 210.756C156.531 208.613 154.83 207.183 153.243 207.562C151.656 207.941 150.785 209.985 151.297 212.128C151.808 214.271 153.509 215.701 155.096 215.322Z" fill="#BABABC"/>
<path d="M151.763 62.3098C151.764 62.5613 151.83 62.8082 151.957 63.0256C152.084 63.243 152.265 63.4232 152.483 63.5481L164.866 70.6531C165.084 70.7774 165.33 70.8425 165.58 70.8419C165.831 70.8413 166.077 70.7751 166.293 70.6497C166.51 70.5244 166.69 70.3444 166.816 70.1277C166.941 69.911 167.007 69.6652 167.008 69.4148V69.1103C167.007 68.855 166.938 68.6047 166.808 68.3852C166.677 68.1656 166.491 67.985 166.267 67.8619L153.884 61.0512C153.666 60.931 153.42 60.87 153.171 60.874C152.922 60.878 152.678 60.947 152.464 61.0741C152.249 61.2012 152.072 61.3821 151.949 61.5989C151.826 61.8156 151.762 62.0607 151.763 62.3098Z" fill="#CCCCCC"/>
<path d="M146.74 60.2999C147.466 60.0313 147.757 59.0125 147.392 58.0241C147.026 57.0358 146.141 56.4522 145.416 56.7207C144.69 56.9892 144.399 58.0081 144.764 58.9965C145.13 59.9848 146.015 60.5684 146.74 60.2999Z" fill="#CCCCCC"/>
<path d="M284.88 36.3461L291.64 39.3403L285.144 42.2026L283.571 38.8328" fill="#68E1FD"/>
<path d="M223.198 235.215L279.44 202.441C281.696 201.125 283.57 199.242 284.875 196.979C286.18 194.717 286.871 192.152 286.88 189.54L288.696 40.6395C288.696 36.7318 282.606 34.7424 279.267 36.7318L221.077 71.0997C219.633 71.9521 218.437 73.1662 217.606 74.6222C216.774 76.0782 216.337 77.7258 216.337 79.4024V231.297C216.34 232.098 216.553 232.885 216.957 233.577C217.36 234.27 217.939 234.843 218.635 235.241C219.33 235.638 220.119 235.845 220.92 235.84C221.721 235.836 222.507 235.62 223.198 235.215Z" fill="#68E1FD"/>
<path d="M218.682 235.276L226.04 239.163L225.188 234.038L220.082 233.114" fill="#68E1FD"/>
<path d="M230.243 238.96L286.484 206.186C288.75 204.867 290.63 202.977 291.937 200.705C293.244 198.432 293.933 195.856 293.934 193.235V42.9436C293.935 42.2404 293.751 41.5494 293.398 40.9409C293.046 40.3324 292.538 39.8282 291.928 39.4796C291.317 39.1309 290.625 38.9503 289.922 38.9562C289.219 38.962 288.53 39.1541 287.925 39.5129L228.131 74.845C226.688 75.6974 225.491 76.9116 224.66 78.3676C223.829 79.8236 223.391 81.4711 223.391 83.1477V235.032C223.393 235.833 223.606 236.619 224.008 237.311C224.41 238.004 224.987 238.578 225.682 238.976C226.377 239.374 227.164 239.583 227.964 239.58C228.765 239.577 229.551 239.363 230.243 238.96Z" fill="#F4F4F4"/>
<path d="M226.964 92.3031L291.041 55.5601V187.033L226.964 224.081V92.3031Z" fill="white"/>
<path d="M267.854 211.729C268.366 209.586 267.495 207.542 265.908 207.163C264.321 206.784 262.62 208.214 262.109 210.357C261.597 212.5 262.468 214.544 264.055 214.923C265.642 215.302 267.343 213.872 267.854 211.729Z" fill="#BABABC"/>
<path d="M267.361 61.8834C267.36 62.1349 267.293 62.3818 267.167 62.5992C267.04 62.8166 266.859 62.9968 266.641 63.1217L254.257 70.2267C254.04 70.351 253.794 70.4161 253.544 70.4155C253.293 70.4149 253.047 70.3487 252.831 70.2233C252.614 70.098 252.434 69.918 252.308 69.7013C252.183 69.4846 252.117 69.2388 252.116 68.9884V68.6839C252.117 68.4286 252.186 68.1783 252.316 67.9588C252.447 67.7392 252.633 67.5586 252.857 67.4355L265.24 60.635C265.457 60.5152 265.702 60.4541 265.951 60.4577C266.199 60.4612 266.442 60.5293 266.656 60.6553C266.87 60.7812 267.047 60.9607 267.171 61.176C267.295 61.3913 267.36 61.6351 267.361 61.8834Z" fill="#CCCCCC"/>
<path d="M274.383 58.5903C274.749 57.6019 274.457 56.5831 273.732 56.3145C273.006 56.046 272.122 56.6296 271.756 57.6179C271.39 58.6063 271.682 59.6251 272.407 59.8937C273.133 60.1622 274.017 59.5786 274.383 58.5903Z" fill="#CCCCCC"/>
<path d="M162.542 115.631C165.97 114.362 167.338 109.524 165.599 104.824C163.859 100.124 159.67 97.3422 156.243 98.6108C152.815 99.8794 151.446 104.718 153.186 109.418C154.925 114.118 159.114 116.899 162.542 115.631Z" fill="#868686"/>
<path d="M159.355 104.28V101.743" stroke="#2E3192" stroke-width="3.045" stroke-miterlimit="10" stroke-linecap="round"/>
<path d="M159.355 93.4906V71.0388C159.355 59.8231 160.766 51.5204 167.83 42.5376C175.13 33.0994 185.474 26.4819 197.103 23.8109C204.601 22.1728 212.352 22.0611 219.894 23.4823C227.436 24.9035 234.614 27.8285 241.002 32.0831C247.21 36.059 252.42 41.4109 256.227 47.7243C260.611 55.3469 259.678 62.4316 259.678 70.8358V100.068" stroke="#2E3192" stroke-width="3.045" stroke-miterlimit="10" stroke-linecap="round" stroke-dasharray="5.13 8.2"/>
<path d="M259.738 104.168V106.706" stroke="#2E3192" stroke-width="3.045" stroke-miterlimit="10" stroke-linecap="round"/>
<path d="M250.36 106.564L269.29 95.7134L260.51 117.698L250.36 106.564Z" fill="#1B1464"/>
<path opacity="0.32" d="M44.66 195.173C53.795 189.215 63.0518 183.359 72.2579 177.461L54.7593 164.703L23.0608 177.898C29.1407 184.851 36.7329 190.24 44.66 195.173Z" fill="url(#paint3_linear)"/>
<path d="M78.8655 132.253C78.7685 131.834 78.5853 131.44 78.3275 131.096C77.8411 130.526 77.2652 130.04 76.6223 129.655C68.0253 123.839 56.1397 122.235 47.0554 127.919C45.0254 129.219 41.8992 132.162 43.1274 134.933C43.8379 136.547 45.9998 137.481 47.4919 138.14C52.3639 140.282 57.8043 141.307 63.0315 142.2C64.96 142.525 66.8987 142.85 68.8475 143.033C70.1923 143.164 71.5485 142.954 72.7905 142.422C74.0325 141.889 75.1201 141.052 75.9525 139.988C77.3024 138.252 79.4745 134.73 78.8655 132.253Z" fill="#754C24"/>
<path d="M42.8939 133.644C42.8939 133.644 50.7297 140.749 64.2698 139.734C77.8099 138.719 78.8655 132.284 78.8655 132.284C78.8655 132.284 75.3638 177.157 73.5063 177.959C71.6489 178.761 64.7367 182.019 61.4075 182.313C58.0783 182.608 47.5122 178.334 47.2483 177.167C46.9844 176 42.8939 133.644 42.8939 133.644Z" fill="#68E1FD"/>
<path d="M45.3705 68.2475C44.9544 67.405 43.6755 68.146 44.0916 68.9884C53.3586 87.6644 55.1653 108.695 56.8299 129.117C56.9009 130.051 58.3828 130.061 58.3118 129.117C56.6167 108.421 54.7593 87.1671 45.3705 68.2475Z" fill="#007F68"/>
<path d="M44.183 68.42C44.183 68.42 46.7712 78.1133 44.1018 82.9548C41.4323 87.7964 39.2196 88.7708 42.4169 94.8202C45.6141 100.87 54.1401 101.661 54.7085 106.31C55.2769 110.959 50.618 76.6517 44.183 68.42Z" fill="#007F68"/>
<path d="M73.821 85.9187C66.7046 100.857 62.7054 117.089 62.0673 133.624C62.0673 134.771 63.8232 134.771 63.874 133.624C64.4929 117.405 68.4056 101.481 75.3739 86.8221C75.8611 85.7868 74.3082 84.8834 73.821 85.9187Z" fill="#007F68"/>
<path d="M75.11 90.6485C75.11 89.6335 74.8969 87.7659 74.9984 86.0505C74.66 86.2738 74.3217 86.4904 73.9834 86.7001C70.4613 95.2566 65.2138 115.354 63.6304 121.515C65.772 116.907 74.5416 116.277 77.1096 109.649C78.2475 106.857 78.3018 103.74 77.2618 100.91C75.9895 97.6299 75.2627 94.1635 75.11 90.6485Z" fill="#007F68"/>
<path d="M358.995 196.818C371.266 196.818 381.214 190.992 381.214 183.805C381.214 176.619 371.266 170.793 358.995 170.793C346.724 170.793 336.777 176.619 336.777 183.805C336.777 190.992 346.724 196.818 358.995 196.818Z" fill="#FF912E"/>
<path d="M336.777 183.805V180.04L339.193 183.044L336.777 183.805Z" fill="#E0944F"/>
<path d="M381.214 180.04V183.805H378.392L380.452 180.78L381.214 180.04Z" fill="#E0944F"/>
<path d="M358.995 193.052C371.266 193.052 381.214 187.226 381.214 180.04C381.214 172.853 371.266 167.027 358.995 167.027C346.724 167.027 336.777 172.853 336.777 180.04C336.777 187.226 346.724 193.052 358.995 193.052Z" fill="#FFB92C"/>
<path d="M370.262 178.304C370.421 178.617 370.481 178.971 370.434 179.319L370.343 179.664H366.283C366.318 179.552 366.341 179.436 366.354 179.319C366.339 179.055 366.255 178.799 366.111 178.578C365.875 178.178 365.52 177.862 365.096 177.675C364.505 177.368 363.853 177.198 363.187 177.177C362.572 177.13 361.954 177.224 361.381 177.451C360.812 177.695 360.592 178.013 360.721 178.405C360.911 178.887 361.206 179.32 361.584 179.674C362.021 180.119 362.431 180.59 362.812 181.085C362.993 181.298 363.109 181.558 363.149 181.834C363.188 182.111 363.149 182.393 363.035 182.648C362.59 183.384 361.889 183.93 361.066 184.181C359.704 184.747 358.247 185.05 356.773 185.074C355.18 185.128 353.589 184.905 352.073 184.414L349.739 185.429L347.008 184.1L349.272 183.085C348.862 182.801 348.496 182.459 348.186 182.07C347.952 181.804 347.77 181.498 347.648 181.166C347.57 180.93 347.522 180.684 347.506 180.435C347.478 180.267 347.478 180.096 347.506 179.928L347.587 179.735H351.647C351.604 179.868 351.57 180.004 351.545 180.141C351.562 180.474 351.675 180.795 351.87 181.065C352.194 181.571 352.66 181.97 353.21 182.212C353.943 182.58 354.745 182.787 355.565 182.821C356.305 182.872 357.048 182.754 357.737 182.476C358.298 182.232 358.508 181.914 358.366 181.521C358.167 181.037 357.862 180.604 357.473 180.253C357.027 179.813 356.613 179.341 356.235 178.842C356.057 178.624 355.946 178.36 355.915 178.081C355.884 177.802 355.935 177.519 356.062 177.269C356.536 176.528 357.254 175.975 358.092 175.706C359.402 175.177 360.8 174.901 362.213 174.894C363.708 174.842 365.199 175.073 366.608 175.574L368.932 174.559L371.48 175.949L369.145 176.964C369.63 177.303 370.016 177.766 370.262 178.304Z" fill="#EA8B24"/>
<path d="M359.036 191.123C369.334 191.123 377.682 186.234 377.682 180.202C377.682 174.17 369.334 169.281 359.036 169.281C348.738 169.281 340.39 174.17 340.39 180.202C340.39 186.234 348.738 191.123 359.036 191.123Z" stroke="#F7931E" stroke-width="2.03" stroke-miterlimit="10"/>
<path d="M358.995 192.067C371.266 192.067 381.214 186.242 381.214 179.055C381.214 171.869 371.266 166.043 358.995 166.043C346.724 166.043 336.777 171.869 336.777 179.055C336.777 186.242 346.724 192.067 358.995 192.067Z" fill="#FF912E"/>
<path d="M336.777 179.055V175.3L339.193 178.304L336.777 179.055Z" fill="#E0944F"/>
<path d="M381.214 175.3V179.055H378.392L380.452 176.041L381.214 175.3Z" fill="#E0944F"/>
<path d="M358.995 188.312C371.266 188.312 381.214 182.486 381.214 175.3C381.214 168.113 371.266 162.287 358.995 162.287C346.724 162.287 336.777 168.113 336.777 175.3C336.777 182.486 346.724 188.312 358.995 188.312Z" fill="#FFB92C"/>
<path d="M370.262 173.564C370.421 173.877 370.481 174.231 370.434 174.579L370.343 174.924H366.283C366.318 174.811 366.341 174.696 366.354 174.579C366.339 174.315 366.255 174.059 366.11 173.838C365.875 173.438 365.52 173.122 365.095 172.935C364.505 172.628 363.853 172.458 363.187 172.437C362.572 172.39 361.954 172.484 361.381 172.711C360.812 172.955 360.592 173.273 360.721 173.665C360.911 174.147 361.206 174.58 361.584 174.934C362.021 175.379 362.431 175.85 362.812 176.345C362.993 176.558 363.109 176.818 363.149 177.094C363.188 177.371 363.149 177.653 363.035 177.908C362.59 178.644 361.889 179.19 361.066 179.441C359.704 180.007 358.247 180.31 356.772 180.334C355.18 180.388 353.589 180.165 352.073 179.674L349.739 180.689L347.059 179.39L349.322 178.375C348.913 178.092 348.547 177.75 348.236 177.36C348.003 177.094 347.821 176.788 347.698 176.457C347.621 176.22 347.573 175.974 347.556 175.726C347.529 175.558 347.529 175.386 347.556 175.218L347.637 175.025H351.697C351.655 175.158 351.621 175.294 351.596 175.432C351.613 175.764 351.726 176.085 351.921 176.355C352.244 176.861 352.711 177.26 353.261 177.502C353.993 177.87 354.796 178.078 355.615 178.111C356.356 178.162 357.099 178.044 357.787 177.766C358.349 177.522 358.559 177.204 358.417 176.812C358.218 176.328 357.912 175.894 357.524 175.543C357.077 175.103 356.663 174.632 356.285 174.132C356.107 173.915 355.996 173.651 355.966 173.371C355.935 173.092 355.986 172.81 356.113 172.559C356.587 171.818 357.305 171.265 358.143 170.996C359.486 170.48 360.916 170.228 362.355 170.255C363.85 170.204 365.341 170.434 366.75 170.935L369.074 169.92L371.622 171.311L369.287 172.326C369.707 172.654 370.041 173.079 370.262 173.564Z" fill="#EA8B24"/>
<path d="M359.036 186.383C369.334 186.383 377.682 181.494 377.682 175.462C377.682 169.43 369.334 164.541 359.036 164.541C348.738 164.541 340.39 169.43 340.39 175.462C340.39 181.494 348.738 186.383 359.036 186.383Z" stroke="#F7931E" stroke-width="2.03" stroke-miterlimit="10"/>
<path d="M359.34 187.571C371.611 187.571 381.559 181.745 381.559 174.559C381.559 167.372 371.611 161.546 359.34 161.546C347.07 161.546 337.122 167.372 337.122 174.559C337.122 181.745 347.07 187.571 359.34 187.571Z" fill="#FF912E"/>
<path d="M337.122 174.559V170.793L339.538 173.797L337.122 174.559Z" fill="#E0944F"/>
<path d="M381.559 170.793V174.559H378.737L380.808 171.534L381.559 170.793Z" fill="#E0944F"/>
<path d="M359.34 183.805C371.611 183.805 381.559 177.979 381.559 170.793C381.559 163.606 371.611 157.781 359.34 157.781C347.07 157.781 337.122 163.606 337.122 170.793C337.122 177.979 347.07 183.805 359.34 183.805Z" fill="#FFB92C"/>
<path d="M370.607 169.057C370.766 169.37 370.826 169.724 370.779 170.072L370.688 170.417H366.628C366.663 170.305 366.687 170.189 366.699 170.072C366.684 169.808 366.6 169.553 366.456 169.331C366.22 168.932 365.865 168.616 365.441 168.428C364.85 168.121 364.198 167.951 363.532 167.931C362.917 167.884 362.299 167.977 361.726 168.205C361.157 168.448 360.937 168.766 361.066 169.159C361.257 169.64 361.551 170.073 361.929 170.428C362.366 170.873 362.776 171.344 363.157 171.838C363.338 172.051 363.455 172.311 363.494 172.588C363.534 172.864 363.494 173.146 363.38 173.402C362.935 174.138 362.234 174.683 361.411 174.934C360.049 175.501 358.592 175.804 357.118 175.827C355.525 175.882 353.935 175.658 352.418 175.168L350.084 176.183L347.353 174.853L349.617 173.838C349.207 173.555 348.841 173.213 348.531 172.823C348.298 172.557 348.115 172.251 347.993 171.92C347.915 171.683 347.867 171.437 347.851 171.189C347.823 171.021 347.823 170.849 347.851 170.681L347.932 170.489H351.992C351.949 170.622 351.915 170.757 351.89 170.895C351.907 171.227 352.02 171.548 352.215 171.818C352.539 172.324 353.005 172.723 353.555 172.965C354.288 173.333 355.09 173.541 355.91 173.574C356.651 173.625 357.393 173.507 358.082 173.229C358.643 172.985 358.853 172.667 358.711 172.275C358.512 171.791 358.207 171.357 357.818 171.006C357.372 170.566 356.958 170.095 356.58 169.595C356.402 169.378 356.291 169.114 356.26 168.834C356.229 168.555 356.281 168.273 356.407 168.022C356.882 167.281 357.599 166.728 358.437 166.459C359.747 165.93 361.145 165.654 362.558 165.647C364.053 165.596 365.544 165.826 366.953 166.327L369.277 165.312L371.825 166.703L369.49 167.718C369.975 168.057 370.361 168.519 370.607 169.057Z" fill="#EA8B24"/>
<path d="M359.381 181.877C369.679 181.877 378.027 176.987 378.027 170.955C378.027 164.924 369.679 160.034 359.381 160.034C349.083 160.034 340.736 164.924 340.736 170.955C340.736 176.987 349.083 181.877 359.381 181.877Z" stroke="#F7931E" stroke-width="2.03" stroke-miterlimit="10"/>
<path d="M364.415 180.304C376.686 180.304 386.634 174.478 386.634 167.291C386.634 160.105 376.686 154.279 364.415 154.279C352.145 154.279 342.197 160.105 342.197 167.291C342.197 174.478 352.145 180.304 364.415 180.304Z" fill="#FF912E"/>
<path d="M342.197 167.281V163.526L344.613 166.53L342.197 167.281Z" fill="#E0944F"/>
<path d="M386.634 163.526V167.281H383.812L385.883 164.266L386.634 163.526Z" fill="#E0944F"/>
<path d="M364.415 176.538C376.686 176.538 386.634 170.712 386.634 163.526C386.634 156.339 376.686 150.513 364.415 150.513C352.145 150.513 342.197 156.339 342.197 163.526C342.197 170.712 352.145 176.538 364.415 176.538Z" fill="#FFB92C"/>
<path d="M375.682 161.79C375.841 162.103 375.901 162.457 375.854 162.805L375.763 163.15H371.703C371.738 163.037 371.762 162.922 371.774 162.805C371.759 162.541 371.675 162.285 371.531 162.064C371.295 161.664 370.94 161.348 370.516 161.161C369.925 160.854 369.273 160.684 368.607 160.663C367.992 160.616 367.374 160.71 366.801 160.937C366.232 161.181 366.012 161.499 366.141 161.891C366.332 162.373 366.626 162.806 367.004 163.16C367.441 163.605 367.851 164.076 368.232 164.571C368.413 164.784 368.53 165.044 368.569 165.32C368.609 165.597 368.569 165.879 368.455 166.134C368.01 166.87 367.309 167.416 366.486 167.667C365.124 168.233 363.667 168.536 362.193 168.56C360.6 168.614 359.01 168.391 357.493 167.9L355.159 168.915L352.428 167.586L354.692 166.571C354.282 166.287 353.916 165.945 353.606 165.556C353.373 165.29 353.19 164.984 353.068 164.652C352.99 164.416 352.942 164.17 352.926 163.921C352.898 163.753 352.898 163.582 352.926 163.414L353.007 163.221H357.067C357.024 163.354 356.99 163.49 356.965 163.627C356.982 163.96 357.095 164.281 357.29 164.551C357.614 165.057 358.08 165.456 358.63 165.698C359.363 166.066 360.165 166.273 360.985 166.307C361.726 166.358 362.468 166.24 363.157 165.962C363.719 165.718 363.928 165.4 363.786 165.007C363.587 164.523 363.282 164.09 362.893 163.739C362.447 163.299 362.033 162.827 361.655 162.328C361.477 162.11 361.366 161.846 361.335 161.567C361.304 161.288 361.356 161.005 361.482 160.755C361.957 160.013 362.674 159.461 363.512 159.192C364.822 158.663 366.22 158.387 367.633 158.38C369.128 158.328 370.619 158.559 372.028 159.06L374.352 158.045L376.9 159.435L374.565 160.45C375.05 160.789 375.436 161.252 375.682 161.79Z" fill="#EA8B24"/>
<path d="M364.456 174.609C374.754 174.609 383.102 169.72 383.102 163.688C383.102 157.656 374.754 152.767 364.456 152.767C354.158 152.767 345.811 157.656 345.811 163.688C345.811 169.72 354.158 174.609 364.456 174.609Z" stroke="#F7931E" stroke-width="2.03" stroke-miterlimit="10"/>
<path d="M344.572 154.015C344.572 154.015 344.867 162.521 338.33 162.521C338.33 162.521 344.055 163.536 344.055 168.986C344.055 168.986 344.674 162.896 350.814 162.896C350.814 162.947 344.745 163.779 344.572 154.015Z" fill="white"/>
<path d="M157.145 176.94C170.242 175.822 179.867 163.288 178.643 148.945C177.418 134.601 165.808 123.88 152.71 124.999C139.612 126.117 129.987 138.651 131.212 152.994C132.437 167.337 144.047 178.058 157.145 176.94Z" fill="#F2AE16"/>
<path d="M161.28 175.73C174.378 174.612 184.003 162.078 182.778 147.735C181.553 133.392 169.943 122.671 156.845 123.789C143.747 124.907 134.122 137.441 135.347 151.784C136.572 166.128 148.182 176.848 161.28 175.73Z" fill="#FFD008"/>
<path d="M161.006 172.524C172.484 171.544 180.919 160.558 179.845 147.985C178.772 135.413 168.597 126.015 157.119 126.995C145.641 127.975 137.206 138.961 138.28 151.534C139.353 164.107 149.528 173.504 161.006 172.524Z" stroke="#F7931E" stroke-width="1.015" stroke-miterlimit="10"/>
<path d="M168.866 147.631C166.44 145.601 163.192 145.702 160.289 146.484C159.179 144.17 158.056 141.865 156.919 139.572C157.581 139.378 158.261 139.255 158.949 139.206C160.979 139.054 160.522 135.877 158.472 136.029C157.457 136.12 156.461 136.363 155.518 136.75C154.879 135.481 154.25 134.212 153.6 132.954C152.656 131.127 149.723 132.416 150.667 134.253C151.357 135.593 152.027 136.943 152.697 138.313C148.89 141.013 146.333 145.702 149.235 149.945C151.367 153.071 154.798 151.975 157.751 150.838L158.634 150.483C159.676 152.682 160.691 154.891 161.679 157.111C160.287 157.426 158.872 157.629 157.447 157.72C155.417 157.852 155.874 161.029 157.924 160.897C159.64 160.79 161.34 160.508 162.999 160.054C163.344 160.826 163.699 161.587 164.014 162.348C164.186 162.737 164.506 163.042 164.903 163.195C165.3 163.348 165.741 163.338 166.13 163.165C166.519 162.993 166.824 162.673 166.977 162.276C167.13 161.879 167.119 161.438 166.947 161.049C166.633 160.338 166.308 159.628 165.983 158.928C167.564 158.202 168.939 157.093 169.982 155.7C170.882 154.474 171.269 152.945 171.061 151.439C170.852 149.932 170.065 148.566 168.866 147.631ZM155.082 148.422C151.966 148.422 150.738 146.392 151.945 143.733C152.421 142.679 153.142 141.753 154.047 141.033C155.143 143.239 156.222 145.448 157.284 147.661C156.605 148.044 155.863 148.302 155.092 148.422H155.082ZM167.424 153.802C166.782 154.809 165.847 155.595 164.745 156.055C163.736 153.842 162.721 151.633 161.7 149.427C161.984 149.356 162.258 149.285 162.552 149.255C165.009 148.94 169.505 150.128 167.475 153.802H167.424Z" fill="#F7931E"/>
<path d="M290.767 155.405C291.992 141.062 282.367 128.528 269.269 127.41C256.171 126.291 244.561 137.012 243.336 151.355C242.111 165.699 251.736 178.233 264.834 179.351C277.932 180.469 289.542 169.748 290.767 155.405Z" fill="#F2AE16"/>
<path d="M286.635 154.191C287.859 139.848 278.234 127.314 265.137 126.196C252.039 125.077 240.429 135.798 239.204 150.142C237.979 164.485 247.604 177.019 260.702 178.137C273.8 179.255 285.41 168.534 286.635 154.191Z" fill="#FFD008"/>
<path d="M283.702 153.941C284.775 141.368 276.341 130.382 264.863 129.402C253.385 128.422 243.21 137.819 242.137 150.392C241.063 162.965 249.498 173.951 260.976 174.931C272.454 175.911 282.629 166.513 283.702 153.941Z" stroke="#F7931E" stroke-width="1.015" stroke-miterlimit="10"/>
<path d="M270.569 160.267C270.477 157.111 268.224 154.746 265.717 153.101C266.705 150.74 267.676 148.372 268.63 145.996C269.207 146.355 269.744 146.774 270.234 147.245C271.715 148.686 273.766 146.23 272.264 144.778C271.522 144.081 270.681 143.5 269.767 143.053C270.284 141.733 270.782 140.414 271.33 139.094C272.071 137.176 269.148 135.836 268.407 137.775C267.869 139.176 267.31 140.576 266.752 141.977C262.205 140.962 257.008 142.15 255.76 147.133C254.846 150.808 257.942 152.645 260.764 154.086L261.616 154.512C260.662 156.752 259.698 158.988 258.723 161.221C257.563 160.389 256.47 159.466 255.455 158.461C253.983 157.009 251.943 159.476 253.425 160.927C254.663 162.144 256.024 163.229 257.485 164.165C257.14 164.936 256.805 165.698 256.47 166.469C256.301 166.856 256.291 167.294 256.442 167.688C256.594 168.082 256.894 168.401 257.279 168.574C257.664 168.748 258.102 168.763 258.498 168.616C258.894 168.469 259.215 168.171 259.393 167.789C259.718 167.078 260.023 166.368 260.337 165.657C261.933 166.354 263.678 166.64 265.412 166.489C266.907 166.315 268.278 165.572 269.238 164.413C270.199 163.254 270.675 161.769 270.569 160.267ZM260.855 150.503C258.825 148.148 259.464 145.925 262.266 145.042C263.369 144.698 264.538 144.622 265.676 144.819C264.763 147.099 263.829 149.376 262.875 151.65C262.138 151.392 261.454 151.004 260.855 150.503ZM265.057 163.292C263.88 163.483 262.672 163.309 261.596 162.795C262.577 160.568 263.545 158.335 264.499 156.096C264.732 156.258 264.976 156.421 265.199 156.613C267.057 158.237 269.107 162.368 265.016 163.292H265.057Z" fill="#F7931E"/>
<path d="M138.933 140.181C138.933 140.181 139.228 148.686 132.691 148.686C132.691 148.686 138.416 149.701 138.416 155.152C138.416 155.152 139.035 149.062 145.175 149.062C145.145 149.072 139.055 149.904 138.933 140.181Z" fill="white"/>
<defs>
<linearGradient id="paint0_linear" x1="202.087" y1="257.565" x2="223.848" y2="226.902" gradientUnits="userSpaceOnUse">
<stop stop-color="#666666" stop-opacity="0"/>
<stop offset="1" stop-color="#4D4D4D"/>
</linearGradient>
<linearGradient id="paint1_linear" x1="23912.2" y1="8973.74" x2="24614.9" y2="7310.58" gradientUnits="userSpaceOnUse">
<stop stop-color="#666666" stop-opacity="0"/>
<stop offset="1" stop-color="#4D4D4D"/>
</linearGradient>
<linearGradient id="paint2_linear" x1="14867.8" y1="16827" x2="16109" y2="13921.1" gradientUnits="userSpaceOnUse">
<stop stop-color="#666666" stop-opacity="0"/>
<stop offset="1" stop-color="#4D4D4D"/>
</linearGradient>
<linearGradient id="paint3_linear" x1="1924.53" y1="5712.74" x2="2272.32" y2="5188.45" gradientUnits="userSpaceOnUse">
<stop stop-color="#666666" stop-opacity="0"/>
<stop offset="1" stop-color="#4D4D4D"/>
</linearGradient>
</defs>
</svg>
