<svg width="30" height="30" viewBox="0 0 30 30" fill="none" xmlns="http://www.w3.org/2000/svg">
<path d="M2.78387 15C2.78387 21.7307 8.18512 27.1875 14.8472 27.1875C21.5093 27.1875 26.9105 21.7307 26.9105 15C26.9105 8.26934 21.5093 2.8125 14.8472 2.8125C8.18512 2.8125 2.78387 8.26934 2.78387 15ZM15.1169 9.64687C15.2034 9.73359 15.2722 9.83667 15.3193 9.95024C15.3664 10.0638 15.3909 10.1856 15.3914 10.3088C15.3919 10.4319 15.3683 10.5539 15.3221 10.6679C15.2759 10.7818 15.208 10.8854 15.1221 10.9729L12.0877 14.0625H19.8349C20.081 14.0625 20.3171 14.1613 20.4911 14.3371C20.6651 14.5129 20.7629 14.7514 20.7629 15C20.7629 15.2486 20.6651 15.4871 20.4911 15.6629C20.3171 15.8387 20.081 15.9375 19.8349 15.9375H12.0877L15.1221 19.0271C15.2079 19.1146 15.2759 19.2183 15.322 19.3324C15.3682 19.4464 15.3917 19.5685 15.3912 19.6916C15.3906 19.8148 15.3661 19.9367 15.3189 20.0503C15.2718 20.1639 15.2029 20.267 15.1163 20.3537C15.0297 20.4404 14.9271 20.5091 14.8142 20.5557C14.7014 20.6023 14.5805 20.6261 14.4586 20.6255C14.3367 20.625 14.216 20.6002 14.1036 20.5525C13.9912 20.5049 13.8891 20.4353 13.8033 20.3479L9.1989 15.6604C9.02642 15.4847 8.92964 15.2474 8.92964 15C8.92964 14.7526 9.02642 14.5153 9.1989 14.3396L13.8033 9.65215C13.8891 9.56455 13.9912 9.49491 14.1037 9.44723C14.2163 9.39955 14.337 9.37475 14.459 9.37426C14.581 9.37377 14.7019 9.3976 14.8148 9.44437C14.9277 9.49115 15.0304 9.55997 15.1169 9.64687Z" fill="#00373E"/>
</svg>
