<svg width="24" height="24" viewBox="0 0 24 24" fill="none" xmlns="http://www.w3.org/2000/svg">
<path fill-rule="evenodd" clip-rule="evenodd" d="M3 22H21C21.552 22 22 21.552 22 21C22 20.448 21.552 20 21 20H3C2.448 20 2 20.448 2 21C2 21.552 2.448 22 3 22ZM7 11H6.366C5.059 11 4 9.941 4 8.634C4 8.633 4 8.633 4 8.632C4 7.912 4.347 7.237 4.933 6.819C6.549 5.665 11.419 2.186 11.419 2.186C11.766 1.938 12.234 1.938 12.581 2.186C12.581 2.186 17.451 5.665 19.067 6.819C19.653 7.237 20 7.912 20 8.632V8.634C20 9.941 18.941 11 17.634 11H17V16H19C19.552 16 20 16.448 20 17C20 17.552 19.552 18 19 18H5C4.448 18 4 17.552 4 17C4 16.448 4.448 16 5 16H7V11ZM9 11V16H11V11H9ZM13 11V16H15V11H13ZM12 4.229L6.095 8.446C6.036 8.489 6 8.558 6 8.632V8.634C6 8.836 6.164 9 6.366 9H17.634C17.836 9 18 8.836 18 8.634V8.632C18 8.558 17.964 8.489 17.905 8.446L12 4.229Z" fill="#717579"/>
</svg>
