<svg width="18" height="20" viewBox="0 0 18 20" fill="none" xmlns="http://www.w3.org/2000/svg">
<path fill-rule="evenodd" clip-rule="evenodd" d="M10 19C10 19.553 10.447 20 11 20H14C15.061 20 16.078 19.579 16.828 18.829C17.578 18.079 18 17.061 18 16C18 15.426 18 15 18 15C18 14.448 17.552 14 17 14H11C10.447 14 10 14.448 10 15V19ZM7 20C7.552 20 8 19.553 8 19V9C8 8.448 7.552 8 7 8H1C0.447 8 0 8.448 0 9V16C0 17.061 0.420998 18.079 1.171 18.829C1.921 19.579 2.939 20 4 20H7ZM16 16H12V18H14C14.53 18 15.039 17.79 15.414 17.415C15.789 17.04 16 16.531 16 16ZM6 18V10H2V16C2 16.531 2.21 17.04 2.586 17.415C2.961 17.79 3.469 18 4 18H6ZM11 0C10.447 0 10 0.448 10 1V11C10 11.553 10.447 12 11 12H17C17.552 12 18 11.553 18 11V4C18 2.94 17.578 1.922 16.828 1.172C16.078 0.421997 15.061 0 14 0H11ZM12 2V10H16V4C16 3.47 15.789 2.961 15.414 2.586C15.039 2.211 14.53 2 14 2H12ZM8 1C8 0.448 7.552 0 7 0H4C2.939 0 1.921 0.421997 1.171 1.172C0.420998 1.922 0 2.94 0 4V5C0 5.553 0.447 6 1 6H7C7.552 6 8 5.553 8 5V1ZM6 2H4C3.469 2 2.961 2.211 2.586 2.586C2.21 2.961 2 3.47 2 4H6V2Z" fill="#006522"/>
</svg>
