<svg width="32" height="32" viewBox="0 0 32 32" fill="none" xmlns="http://www.w3.org/2000/svg">
<path fill-rule="evenodd" clip-rule="evenodd" d="M14.6667 6.76263V3.99996C14.6667 3.26396 15.264 2.66663 16 2.66663C16.7347 2.66663 17.3333 3.26396 17.3333 3.99996V6.76263C19.3147 7.04796 21.1667 7.96796 22.5987 9.39996C24.3493 11.1506 25.3333 13.5253 25.3333 16V21.0186L26.412 23.176C26.928 24.2093 26.8733 25.436 26.2653 26.4186C25.6587 27.4013 24.5853 28 23.4307 28H17.3333C17.3333 28.736 16.7347 29.3333 16 29.3333C15.264 29.3333 14.6667 28.736 14.6667 28H8.56933C7.41333 28 6.34002 27.4013 5.73336 26.4186C5.12536 25.436 5.07068 24.2093 5.58801 23.176L6.66666 21.0186V16C6.66666 13.5253 7.64936 11.1506 9.40002 9.39996C10.8334 7.96796 12.684 7.04796 14.6667 6.76263ZM16 9.33329C14.2307 9.33329 12.536 10.036 11.2854 11.2866C10.0347 12.536 9.33333 14.232 9.33333 16V21.3333C9.33333 21.54 9.28401 21.744 9.19201 21.9293C9.19201 21.9293 8.59867 23.116 7.972 24.368C7.86934 24.5746 7.88001 24.8213 8.00134 25.0173C8.12267 25.2133 8.33733 25.3333 8.56933 25.3333H23.4307C23.6613 25.3333 23.876 25.2133 23.9974 25.0173C24.1187 24.8213 24.1294 24.5746 24.0267 24.368C23.4 23.116 22.8067 21.9293 22.8067 21.9293C22.7147 21.744 22.6667 21.54 22.6667 21.3333V16C22.6667 14.232 21.964 12.536 20.7133 11.2866C19.4627 10.036 17.768 9.33329 16 9.33329Z" fill="#717579"/>
</svg>
