<svg width="16" height="16" viewBox="0 0 16 16" fill="none" xmlns="http://www.w3.org/2000/svg">
<path d="M11.4351 10.0629H10.7078L10.4563 9.81132C11.3528 8.77303 11.8925 7.42367 11.8925 5.94627C11.8925 2.66209 9.2304 0 5.94627 0C2.66214 0 0 2.66209 0 5.94627C0 9.23045 2.66209 11.8925 5.94627 11.8925C7.42367 11.8925 8.77303 11.3528 9.81132 10.4608L10.0629 10.7124V11.4351L14.6369 16L16 14.6369L11.4351 10.0629ZM5.94627 10.0629C3.67298 10.0629 1.82963 8.21955 1.82963 5.94627C1.82963 3.67298 3.67298 1.82963 5.94627 1.82963C8.21955 1.82963 10.0629 3.67298 10.0629 5.94627C10.0629 8.21955 8.21955 10.0629 5.94627 10.0629Z" fill="#131337"/>
</svg>
