<svg width="24" height="24" viewBox="0 0 24 24" fill="none" xmlns="http://www.w3.org/2000/svg">
<path d="M22.8 11.2H19.2V2C19.1987 0.895898 18.3042 0.00136719 17.2 0H4.00005C3.11646 0 2.40005 0.716406 2.40005 1.6V6.4H1.20005C0.97915 6.4 0.800049 6.5791 0.800049 6.8V9.2C0.800049 9.4209 0.97915 9.6 1.20005 9.6H2.40005V14C2.40005 14.2209 2.57915 14.4 2.80005 14.4H4.80005V22.4C4.80005 23.2836 5.51646 24 6.40005 24H19.6C20.4836 24 21.2 23.2836 21.2 22.4C21.2 21.5164 20.4836 20.8 19.6 20.8H19.2V14.4H22.8C23.0209 14.4 23.2 14.2209 23.2 14V11.6C23.2 11.3791 23.0209 11.2 22.8 11.2ZM3.20005 1.6C3.20005 1.1582 3.55825 0.8 4.00005 0.8C4.44185 0.8 4.80005 1.1582 4.80005 1.6V6.4H3.20005V1.6ZM1.60005 7.2H12.8C13.0012 7.2 13.1711 7.05078 13.1969 6.85117L14.5752 8L13.1969 9.14883C13.1711 8.94922 13.0012 8.8 12.8 8.8H1.60005V7.2ZM3.20005 13.6V9.6H4.80005V13.6H3.20005ZM20.4 22.4C20.4 22.8418 20.0418 23.2 19.6 23.2H7.78521C7.92642 22.957 8.00044 22.6811 8.00005 22.4V21.6H19.6C20.0418 21.6 20.4 21.9582 20.4 22.4ZM18.4 20.8H7.60005C7.37915 20.8 7.20005 20.9791 7.20005 21.2V22.4C7.20005 22.8418 6.84185 23.2 6.40005 23.2C5.95825 23.2 5.60005 22.8418 5.60005 22.4V9.6H12.4V10C12.4 10.1553 12.4899 10.2967 12.6305 10.3625C12.7711 10.4283 12.9372 10.4068 13.0565 10.3072L15.4565 8.30723C15.5475 8.23125 15.6002 8.11875 15.6002 8C15.6002 7.88125 15.5475 7.76875 15.4565 7.69277L13.0565 5.69277C12.9372 5.59316 12.7711 5.57168 12.6305 5.6375C12.4899 5.70332 12.4 5.84473 12.4 6V6.4H5.60005V1.6C5.59868 1.31836 5.52212 1.04219 5.37837 0.8H17.2C17.8627 0.8 18.4 1.3373 18.4 2V11.2H11.6V10.8C11.6 10.6447 11.5102 10.5033 11.3696 10.4375C11.229 10.3717 11.0629 10.3932 10.9436 10.4928L8.5436 12.4928C8.45259 12.5688 8.39985 12.6813 8.39985 12.8C8.39985 12.9187 8.45259 13.0312 8.5436 13.1072L10.9436 15.1072C11.0629 15.2068 11.229 15.2283 11.3696 15.1625C11.5102 15.0967 11.6 14.9553 11.6 14.8V14.4H18.4V20.8ZM22.4 13.6H11.2C11.1485 13.6002 11.0975 13.6105 11.05 13.6305C11.0354 13.6381 11.0213 13.6467 11.0077 13.6561C10.979 13.6709 10.952 13.6891 10.9276 13.7104C10.9147 13.7248 10.9028 13.74 10.892 13.7561C10.8725 13.7785 10.8559 13.8031 10.842 13.8297C10.8342 13.8484 10.8282 13.868 10.8237 13.8881C10.8153 13.9076 10.8086 13.9279 10.804 13.9488L9.42485 12.8L10.8032 11.6512C10.8079 11.6721 10.8145 11.6924 10.8229 11.7119C10.8272 11.732 10.8334 11.7516 10.8413 11.7703C10.8549 11.7969 10.8717 11.8215 10.8913 11.8439C10.902 11.86 10.9139 11.8752 10.9268 11.8896C10.9512 11.9109 10.9782 11.9291 11.0069 11.9439C11.0206 11.9533 11.0346 11.9619 11.0493 11.9695C11.0969 11.9896 11.1483 12 11.2 12H22.4V13.6Z" fill="black"/>
<path d="M7.19995 2.3999H11.2V3.1999H7.19995V2.3999Z" fill="black"/>
<path d="M7.19995 4H11.2V4.8H7.19995V4Z" fill="black"/>
<path d="M8.80005 17.6001H16.8V18.4001H8.80005V17.6001Z" fill="black"/>
<path d="M8.80005 19.2H16.8V20H8.80005V19.2Z" fill="black"/>
<path d="M14.3999 16H16.7999V16.8H14.3999V16Z" fill="black"/>
</svg>
