<svg width="24" height="24" viewBox="0 0 24 24" fill="none" xmlns="http://www.w3.org/2000/svg">
<path d="M17.049 11.5972C16.7245 12.0059 16.3598 12.3832 15.941 12.7238C18.3316 14.0951 19.9456 16.6732 19.9456 19.6213C19.9456 21.2142 16.4554 22.462 11.9999 22.462C7.54441 22.462 4.05422 21.2142 4.05422 19.6213C4.05422 16.6732 5.66818 14.0951 8.05883 12.7238C7.64006 12.3832 7.27541 12.0059 6.95078 11.5972C4.28851 13.2784 2.51636 16.2466 2.51636 19.6213C2.51636 20.6435 3.07612 22.0682 5.74296 23.0501C7.40646 23.6626 9.62857 23.9999 12 23.9999C14.3714 23.9999 16.5935 23.6626 18.257 23.0501C20.9238 22.0682 21.4836 20.6435 21.4836 19.6213C21.4835 16.2466 19.7113 13.2784 17.049 11.5972Z" fill="black"/>
<path d="M11.9998 12.6106C14.9886 12.6106 17.2901 9.72158 17.2901 6.30533C17.2901 2.88751 14.9874 0 11.9998 0C9.01098 0 6.70947 2.88904 6.70947 6.30528C6.70947 9.7231 9.01219 12.6106 11.9998 12.6106ZM11.9998 1.53786C14.0688 1.53786 15.7522 3.67651 15.7522 6.30528C15.7522 8.93405 14.0688 11.0727 11.9998 11.0727C9.93072 11.0727 8.24734 8.93405 8.24734 6.30528C8.24734 3.67651 9.93072 1.53786 11.9998 1.53786Z" fill="black"/>
</svg>
