<svg width="48" height="48" viewBox="0 0 48 48" fill="none" xmlns="http://www.w3.org/2000/svg">
<path d="M3.75004 7.90283H41.25C43.3126 7.90283 45.0001 9.59032 45.0001 11.6529V16.1529C45.0001 18.2155 43.3126 19.903 41.25 19.903H3.75004C1.68749 19.9028 0 18.2153 0 16.1528V11.6528C0 9.59033 1.68749 7.90283 3.75004 7.90283Z" fill="#A86A3F"/>
<path d="M11.9625 11.9153L35.4375 5.69035C36.2251 5.46536 37.05 5.95286 37.275 6.74038L41.175 21.1404C41.4 21.9279 40.9125 22.7528 40.125 22.9778L9.56252 31.1153C8.775 31.3403 7.95006 30.8528 7.72507 30.0653L4.875 19.4903L11.9625 11.9153Z" fill="#3DB39E"/>
<path d="M37.0876 20.6903L32.0251 22.0403C31.6126 22.1528 31.2001 21.9277 31.1251 21.5153C31.0126 21.1028 31.2377 20.6902 31.6502 20.6153L36.0001 19.4528L33.6752 10.7528L29.3252 11.9153C28.9127 12.0279 28.5002 11.8028 28.4252 11.3903C28.3127 10.9778 28.5378 10.5653 28.9502 10.4903L34.0127 9.14038C34.4252 9.02784 34.8378 9.25293 34.9127 9.6654L37.6127 19.7903C37.725 20.2028 37.5001 20.6153 37.0876 20.6903ZM16.0876 26.3528L11.0251 27.7028C10.6126 27.8153 10.2001 27.5902 10.1251 27.1778L7.42511 17.0528C7.31257 16.6404 7.53766 16.2278 7.95013 16.1529L13.0126 14.8029C13.4251 14.6904 13.8376 14.9154 13.9126 15.3279C14.0251 15.7404 13.8 16.153 13.3876 16.2279L9.03758 17.3904L11.3625 26.0903L15.7125 24.9279C16.125 24.8153 16.5376 25.0404 16.6125 25.4529C16.725 25.8278 16.5 26.2403 16.0876 26.3528Z" fill="#78CABB"/>
<path d="M0.300061 17.1653C6.975 13.3403 24.9751 2.80273 24.9751 2.80273C25.6876 2.39026 26.6251 2.61525 27.0376 3.32774L34.5376 16.2277C34.9501 16.9402 34.6876 17.8402 33.9751 18.2528L6.52502 34.0027C5.81253 34.4152 4.87504 34.1902 4.46247 33.4777C4.46247 33.4777 2.36251 29.2028 0.262451 25.6027C0.262546 17.1653 0.300061 19.9403 0.300061 17.1653Z" fill="#5ABEAC"/>
<path d="M30.7125 15.8153L25.4626 6.7403C25.2376 6.36535 24.7876 6.2528 24.4501 6.47779L19.9126 9.10277C19.5376 9.32777 19.4251 9.77775 19.6501 10.1153C19.8751 10.4902 20.3251 10.6028 20.6626 10.3778L24.5626 8.12777L29.0626 15.9278L25.1626 18.1778C24.7877 18.4028 24.6751 18.8528 24.9001 19.1903C25.1251 19.5653 25.5751 19.6778 25.9127 19.4528L30.4501 16.8278C30.7876 16.6404 30.9375 16.1904 30.7125 15.8153ZM10.8376 26.4279L6.93757 28.6779L2.43753 20.8778L6.33753 18.6278C6.71248 18.4028 6.82503 17.9528 6.60003 17.6153C6.37504 17.2403 5.92506 17.1278 5.58752 17.3528L1.05006 19.9777C0.675099 20.2027 0.562555 20.6527 0.787548 20.9903L6.03751 30.0653C6.2625 30.4402 6.71248 30.5528 7.05002 30.3278L11.5875 27.7028C11.9624 27.4778 12.075 27.0278 11.85 26.6903C11.6625 26.3528 11.2125 26.2028 10.8376 26.4279ZM12.7501 13.1903C9.86257 14.8403 8.88757 18.5153 10.5375 21.4028C12.225 24.2903 15.8625 25.2653 18.75 23.6153C21.6375 21.9653 22.6125 18.2903 20.9625 15.4029C19.275 12.5528 15.6375 11.5404 12.7501 13.1903ZM30.7125 15.8153L25.4626 6.7403C25.2376 6.36535 24.7876 6.2528 24.4501 6.47779L19.9126 9.10277C19.5376 9.32777 19.4251 9.77775 19.6501 10.1153C19.8751 10.4902 20.3251 10.6028 20.6626 10.3778L24.5626 8.12777L29.0626 15.9278L25.1626 18.1778C24.7877 18.4028 24.6751 18.8528 24.9001 19.1903C25.1251 19.5653 25.5751 19.6778 25.9127 19.4528L30.4501 16.8278C30.7876 16.6404 30.9375 16.1904 30.7125 15.8153ZM10.8376 26.4279L6.93757 28.6779L2.43753 20.8778L6.33753 18.6278C6.71248 18.4028 6.82503 17.9528 6.60003 17.6153C6.37504 17.2403 5.92506 17.1278 5.58752 17.3528L1.05006 19.9777C0.675099 20.2027 0.562555 20.6527 0.787548 20.9903L6.03751 30.0653C6.2625 30.4402 6.71248 30.5528 7.05002 30.3278L11.5875 27.7028C11.9624 27.4778 12.075 27.0278 11.85 26.6903C11.6625 26.3528 11.2125 26.2028 10.8376 26.4279ZM12.7501 13.1903C9.86257 14.8403 8.88757 18.5153 10.5375 21.4028C12.225 24.2903 15.8625 25.2653 18.75 23.6153C21.6375 21.9653 22.6125 18.2903 20.9625 15.4029C19.275 12.5528 15.6375 11.5404 12.7501 13.1903Z" fill="#8CD2C5"/>
<path d="M42.75 45.4028H3.75004C1.68749 45.4028 0 43.7153 0 41.6528V14.6528H42.75C44.8126 14.6528 46.5001 16.3403 46.5001 18.4028V41.6529C46.5 43.7153 44.8125 45.4028 42.75 45.4028ZM3.00003 14.6528H0V11.6528C0 13.3027 1.34996 14.6528 3.00003 14.6528Z" fill="#C47E4D"/>
<path d="M46.4999 36.0277H40.5C37.6125 36.0277 35.25 33.6653 35.25 30.7778C35.25 27.8903 37.6125 25.5278 40.5 25.5278H46.4999C47.325 25.5278 47.9999 26.2028 47.9999 27.0278V34.5278C47.9999 35.3528 47.325 36.0277 46.4999 36.0277Z" fill="#A86A3F"/>
<path d="M40.5 27.7778C42.15 27.7778 43.5001 29.1277 43.5001 30.7778C43.5001 32.4279 42.1501 33.7778 40.5 33.7778C38.8501 33.7778 37.5 32.4279 37.5 30.7778C37.5 29.1277 38.8501 27.7778 40.5 27.7778Z" fill="#EFC75E"/>
<path d="M41.25 33.0278C39.6001 33.0278 38.25 31.6778 38.25 30.0277C38.25 29.3903 38.4375 28.7902 38.775 28.3027C37.9875 28.8277 37.5 29.7277 37.5 30.7777C37.5 32.4277 38.85 33.7778 40.5 33.7778C41.5125 33.7778 42.4125 33.2528 42.975 32.5028C42.4875 32.8403 41.8875 33.0278 41.25 33.0278Z" fill="#D7B354"/>
<path d="M42.75 43.9028H3.75004C1.68749 43.9028 0 42.2153 0 40.1528V41.6528C0 43.7153 1.68749 45.4028 3.75004 45.4028H42.75C44.8126 45.4028 46.5001 43.7153 46.5001 41.6528V40.1528C46.5 42.2153 44.8125 43.9028 42.75 43.9028Z" fill="#B27245"/>
<path d="M42.75 14.6528H3.00003C1.34996 14.6528 0 13.3027 0 11.6528V13.1528C0 14.8028 1.34996 16.1528 3.00003 16.1528H42.75C44.8126 16.1528 46.5001 17.8403 46.5001 19.9029V18.4028C46.5 16.3403 44.8125 14.6528 42.75 14.6528Z" fill="#CA8B5F"/>
</svg>
