<svg width="48" height="48" viewBox="0 0 48 48" fill="none" xmlns="http://www.w3.org/2000/svg">
<g clip-path="url(#clip0)">
<path d="M47.1763 20.2736L22.7033 44.7465C21.605 45.8449 19.8243 45.8449 18.7261 44.7465L3.25343 29.274C2.15511 28.1757 2.15511 26.395 3.25343 25.2967L27.7263 0.823748C28.8247 -0.274583 30.6054 -0.274583 31.7036 0.823748L40.7272 9.84738L42.1351 13.1302L44.9461 14.0662L47.1762 16.2964C48.2746 17.3946 48.2746 19.1753 47.1763 20.2736Z" fill="#D3E0E4"/>
<path d="M12.2737 38.2961L40.7196 9.85019L44.9378 14.0684L16.4918 42.5143L12.2737 38.2961Z" fill="#002C3B"/>
<path d="M2.81238 20.4938C1.2591 20.4938 0 21.7529 0 23.3062V45.1878C0 46.7411 1.2591 48.0002 2.81238 48.0002H20.1174L22.9297 34.2471L20.1174 20.4939H2.81238V20.4938Z" fill="#FFE477"/>
<path d="M37.4224 20.4938H20.1174V48.0002H37.4224C38.9757 48.0002 40.2348 46.7411 40.2348 45.1878V23.3062C40.2348 21.7529 38.9757 20.4938 37.4224 20.4938Z" fill="#FFCD00"/>
<path d="M4.47485 39.0959H10.0255V41.9083H4.47485V39.0959Z" fill="#FDFAE5"/>
<path d="M13.0532 39.0959H18.6038V41.9083H13.0532V39.0959Z" fill="#FDFAE5"/>
<path d="M21.6313 39.0959H27.1819V41.9083H21.6313V39.0959Z" fill="#FAF1B4"/>
<path d="M30.2095 39.0959H35.7601V41.9083H30.2095V39.0959Z" fill="#FAF1B4"/>
<path d="M4.5603 27.9918H13.0532V33.9581H4.5603V27.9918Z" fill="#FDFAE5"/>
</g>
<defs>
<clipPath id="clip0">
<rect width="48" height="48" fill="white"/>
</clipPath>
</defs>
</svg>
