<svg width="60" height="51" viewBox="0 0 60 51" fill="none" xmlns="http://www.w3.org/2000/svg">
<rect width="60" height="51" rx="16" fill="white" fill-opacity="0.2"/>
<g clip-path="url(#clip0)">
<path d="M30 19.0376C26.7146 19.0376 24.0417 21.7104 24.0417 24.9958C24.0417 28.2812 26.7146 30.9541 30 30.9541C33.2854 30.9541 35.9583 28.2812 35.9583 24.9958C35.9583 21.7104 33.2854 19.0376 30 19.0376ZM30 29.0791C27.7485 29.0791 25.9167 27.2473 25.9167 24.9958C25.9167 22.7444 27.7485 20.9126 30 20.9126C32.2515 20.9126 34.0833 22.7441 34.0833 24.9958C34.0833 27.2473 32.2515 29.0791 30 29.0791Z" fill="white"/>
<path d="M44.843 11.157C44.0972 10.4109 43.1052 10 42.05 10H17.95C16.8948 10 15.9028 10.4109 15.157 11.157C14.4109 11.9028 14 12.8948 14 13.95V17.9668C14 19.0217 14.4109 20.0137 15.157 20.7598C15.9031 21.5059 16.895 21.9167 17.95 21.9167H20.0249V39.0542C20.0249 39.8411 20.3313 40.5808 20.8877 41.1372C21.4441 41.6936 22.1838 42 22.9707 42H37.0293C37.8162 42 38.5559 41.6936 39.1123 41.1372C39.6685 40.5808 39.9751 39.8411 39.9751 39.0542V21.9165H42.05C43.1052 21.9165 44.0972 21.5059 44.843 20.7598C45.5891 20.0137 46 19.0217 46 17.9668V13.95C46 12.8948 45.5891 11.9028 44.843 11.157ZM38.1001 39.0542C38.1001 39.3403 37.9885 39.6091 37.7864 39.8113C37.5842 40.0137 37.3152 40.125 37.0293 40.125H22.9707C22.6848 40.125 22.4158 40.0137 22.2136 39.8113C22.0115 39.6091 21.8999 39.3401 21.8999 39.0542V16.8958H38.1001V39.0542ZM44.125 17.9668C44.125 18.521 43.9092 19.042 43.5171 19.4338C43.1252 19.8259 42.6042 20.0417 42.05 20.0417H39.9749V16.896H41.0459C41.5635 16.896 41.9834 16.4761 41.9834 15.9585C41.9834 15.4407 41.5635 15.021 41.0459 15.021H18.9541C18.4365 15.021 18.0166 15.4407 18.0166 15.9585C18.0166 16.4761 18.4365 16.896 18.9541 16.896H20.0249V20.0417H17.95C17.3958 20.0417 16.8748 19.8259 16.4827 19.4338C16.0908 19.042 15.875 18.521 15.875 17.9668V13.95C15.875 13.3958 16.0908 12.8748 16.4829 12.4827C16.8748 12.0908 17.3958 11.875 17.95 11.875H42.05C42.6042 11.875 43.1252 12.0908 43.5173 12.4829C43.9092 12.8748 44.125 13.3958 44.125 13.95V17.9668Z" fill="white"/>
<path d="M35.0208 35.1042H24.9792C24.4614 35.1042 24.0417 35.5239 24.0417 36.0417C24.0417 36.5593 24.4614 36.9792 24.9792 36.9792H35.0208C35.5386 36.9792 35.9583 36.5593 35.9583 36.0417C35.9583 35.5239 35.5386 35.1042 35.0208 35.1042Z" fill="white"/>
</g>
<defs>
<clipPath id="clip0">
<rect width="32" height="32" fill="white" transform="translate(14 10)"/>
</clipPath>
</defs>
</svg>
